ply
format ascii 1.0
Created by Blender3D 246 - www.blender.org, source file: office_chair.blend
element vertex 952
property float x
property float y
property float z
element face 819
property list uchar uint vertex_indices
end_header
1.092917 -0.293510 0.430009 
1.132232 -0.425855 0.430009 
1.135775 -0.424802 0.424478 
1.096461 -0.292457 0.424478 
1.007494 0.007034 0.424478 
1.003951 0.005981 0.430009 
1.043265 -0.126364 0.430009 
1.046808 -0.125311 0.424478 
1.137019 -0.424433 0.417953 
1.097705 -0.292088 0.417953 
1.008738 0.007403 0.417953 
1.048053 -0.124942 0.417953 
1.135775 -0.424802 0.411428 
1.096461 -0.292457 0.411428 
1.007494 0.007034 0.411428 
1.046808 -0.125311 0.411428 
1.132232 -0.425855 0.405896 
1.092917 -0.293510 0.405896 
1.003951 0.005981 0.405896 
1.043265 -0.126364 0.405896 
1.126929 -0.427430 0.402200 
1.087615 -0.295085 0.402200 
0.998648 0.004406 0.402200 
1.037963 -0.127939 0.402200 
1.120674 -0.429288 0.400902 
1.081360 -0.296943 0.400902 
0.992393 0.002548 0.400902 
1.031708 -0.129797 0.400902 
1.114419 -0.431146 0.402200 
1.075105 -0.298801 0.402200 
0.986139 0.000690 0.402200 
1.025453 -0.131655 0.402200 
1.109116 -0.432721 0.405896 
1.069802 -0.300376 0.405896 
0.980836 -0.000886 0.405896 
1.020150 -0.133230 0.405896 
1.105573 -0.433774 0.411428 
1.066259 -0.301429 0.411428 
0.977293 -0.001938 0.411428 
1.016607 -0.134283 0.411428 
1.104329 -0.434143 0.417953 
1.065015 -0.301798 0.417953 
0.976049 -0.002308 0.417953 
1.015363 -0.134653 0.417953 
1.105573 -0.433774 0.424478 
1.066259 -0.301429 0.424478 
0.977293 -0.001938 0.424478 
1.016607 -0.134283 0.424478 
1.109117 -0.432721 0.430009 
1.069802 -0.300376 0.430009 
0.980836 -0.000886 0.430009 
1.020150 -0.133230 0.430009 
1.114419 -0.431146 0.433706 
1.075105 -0.298801 0.433706 
0.986139 0.000690 0.433706 
1.025453 -0.131655 0.433706 
1.120674 -0.429288 0.435004 
1.081360 -0.296943 0.435004 
0.992394 0.002548 0.435004 
1.031708 -0.129797 0.435004 
1.126929 -0.427430 0.433706 
1.087615 -0.295085 0.433706 
0.998648 0.004406 0.433706 
1.037963 -0.127939 0.433706 
1.133878 -0.449391 0.438198 
1.139474 -0.448803 0.434648 
0.992481 0.026599 0.438198 
0.997490 0.029161 0.434648 
1.127520 -0.450903 0.439444 
0.986329 0.024395 0.439444 
1.121368 -0.453107 0.438198 
0.979971 0.022883 0.438198 
1.116359 -0.455669 0.434648 
0.974375 0.022294 0.434648 
1.113254 -0.458198 0.429335 
0.970393 0.022719 0.429335 
1.112527 -0.460310 0.423068 
0.968632 0.024091 0.423068 
1.114289 -0.461682 0.416801 
0.969358 0.026203 0.416801 
1.118271 -0.462107 0.411488 
0.972463 0.028732 0.411488 
1.123867 -0.461518 0.407938 
0.977472 0.031294 0.407938 
1.130224 -0.460007 0.406692 
0.983624 0.033498 0.406692 
1.136376 -0.457802 0.407938 
0.989982 0.035010 0.407938 
1.141386 -0.455240 0.411488 
0.995578 0.035598 0.411488 
1.144490 -0.452711 0.416801 
0.999560 0.035174 0.416801 
1.145217 -0.450599 0.423068 
1.001322 0.033802 0.423068 
1.143456 -0.449227 0.429335 
1.000595 0.031690 0.429335 
1.147515 -0.468538 0.448200 
1.152010 -0.470690 0.443792 
0.993453 0.050086 0.448200 
0.996044 0.054343 0.443792 
1.154377 -0.474101 0.438594 
0.996166 0.058493 0.438594 
1.154256 -0.478251 0.433395 
0.993798 0.061903 0.433395 
1.151665 -0.482508 0.428988 
0.989303 0.064055 0.428988 
1.146998 -0.486224 0.426043 
0.983365 0.064621 0.426043 
1.140967 -0.488834 0.425009 
0.976886 0.063515 0.425009 
1.134488 -0.489940 0.426043 
0.970855 0.060905 0.426043 
1.128549 -0.489374 0.428988 
0.966188 0.057189 0.428988 
1.124054 -0.487222 0.433395 
0.963597 0.052932 0.433395 
1.121687 -0.483812 0.438594 
0.963476 0.048782 0.438594 
1.121809 -0.479662 0.443792 
0.965843 0.045372 0.443792 
1.124400 -0.475405 0.448200 
0.970338 0.043220 0.448200 
1.129066 -0.471688 0.451145 
0.976277 0.042654 0.451145 
1.135098 -0.469078 0.452179 
0.982755 0.043760 0.452179 
1.141576 -0.467972 0.451145 
0.988786 0.046370 0.451145 
1.148744 -0.479428 0.467678 
1.154725 -0.481073 0.465273 
0.988537 0.059881 0.467678 
0.992651 0.064525 0.465273 
1.142288 -0.480145 0.469114 
0.982737 0.056957 0.469114 
1.136339 -0.483113 0.469363 
0.976132 0.056196 0.469363 
1.131804 -0.487882 0.468388 
0.969729 0.057715 0.468388 
1.129372 -0.493725 0.466336 
0.964502 0.061283 0.466336 
1.129415 -0.499753 0.463521 
0.961247 0.066356 0.463521 
1.131925 -0.505047 0.460369 
0.960459 0.072163 0.460370 
1.136520 -0.508803 0.457363 
0.962259 0.077818 0.457363 
1.142501 -0.510447 0.454958 
0.966372 0.082461 0.454958 
1.148958 -0.509731 0.453522 
0.972173 0.085386 0.453522 
1.154906 -0.506762 0.453273 
0.978778 0.086146 0.453273 
1.159442 -0.501994 0.454248 
0.985181 0.084627 0.454248 
1.161873 -0.496151 0.456300 
0.990408 0.081059 0.456300 
1.161831 -0.490123 0.459115 
0.993663 0.075986 0.459115 
1.159321 -0.484829 0.462266 
0.994451 0.070180 0.462266 
1.158809 -0.487415 0.480792 
1.163882 -0.491678 0.480207 
0.992610 0.072067 0.480792 
0.994533 0.078409 0.480207 
1.166969 -0.497567 0.480001 
0.993904 0.085028 0.480001 
1.167598 -0.504187 0.480207 
0.990817 0.090917 0.480207 
1.165675 -0.510528 0.480792 
0.985744 0.095180 0.480792 
1.161492 -0.515626 0.481669 
0.979456 0.097168 0.481669 
1.155685 -0.518705 0.482702 
0.972910 0.096577 0.482702 
1.149140 -0.519296 0.483735 
0.967104 0.093499 0.483735 
1.142851 -0.517308 0.484612 
0.962920 0.088401 0.484612 
1.137778 -0.513045 0.485197 
0.960997 0.082059 0.485197 
1.134692 -0.507155 0.485403 
0.961627 0.075440 0.485403 
1.134062 -0.500536 0.485197 
0.964713 0.069550 0.485197 
1.135985 -0.494194 0.484612 
0.969787 0.065287 0.484612 
1.140169 -0.489096 0.483735 
0.976075 0.063300 0.483735 
1.145975 -0.486018 0.482702 
0.982620 0.063890 0.482702 
1.152521 -0.485427 0.481669 
0.988427 0.066969 0.481669 
1.171136 -0.479897 0.617976 
1.177425 -0.481885 0.617100 
1.007042 0.072499 0.617976 
1.011226 0.077597 0.617100 
1.164591 -0.480488 0.619009 
1.001236 0.069420 0.619009 
1.158785 -0.483566 0.620043 
0.994691 0.068830 0.620043 
1.154601 -0.488664 0.620919 
0.988402 0.070817 0.620919 
1.152678 -0.495006 0.621504 
0.983329 0.075080 0.621504 
1.153307 -0.501625 0.621710 
0.980242 0.080970 0.621710 
1.156394 -0.507515 0.621504 
0.979613 0.087589 0.621504 
1.161467 -0.511778 0.620919 
0.981536 0.093931 0.620919 
1.167755 -0.513766 0.620043 
0.985720 0.099029 0.620043 
1.174301 -0.513175 0.619009 
0.991526 0.102107 0.619009 
1.180107 -0.510096 0.617976 
0.998071 0.102698 0.617976 
1.184291 -0.504998 0.617100 
1.004360 0.100710 0.617100 
1.186214 -0.498657 0.616514 
1.009433 0.096447 0.616514 
1.185585 -0.492037 0.616309 
1.012520 0.090558 0.616309 
1.182498 -0.486148 0.616514 
1.013149 0.083938 0.616514 
1.178298 -0.480249 0.616891 
1.183926 -0.484979 0.616241 
1.012850 0.076703 0.616891 
1.014984 0.083739 0.616241 
1.187350 -0.491513 0.616013 
1.014285 0.091082 0.616013 
1.188049 -0.498856 0.616241 
1.010861 0.097616 0.616241 
1.185915 -0.505892 0.616891 
1.005233 0.102346 0.616891 
1.181274 -0.511548 0.617863 
0.998256 0.104551 0.617863 
1.174832 -0.514963 0.619009 
0.990995 0.103896 0.619009 
1.167570 -0.515618 0.620156 
0.984553 0.100480 0.620156 
1.160594 -0.513413 0.621128 
0.979912 0.094824 0.621128 
1.154966 -0.508684 0.621777 
0.977778 0.087789 0.621777 
1.151542 -0.502150 0.622005 
0.978477 0.080445 0.622005 
1.150843 -0.494806 0.621777 
0.981901 0.073911 0.621777 
1.152977 -0.487771 0.621128 
0.987529 0.069182 0.621128 
1.157618 -0.482115 0.620156 
0.994506 0.066977 0.620156 
1.164060 -0.478699 0.619009 
1.001767 0.067632 0.619009 
1.171322 -0.478044 0.617863 
1.008209 0.071047 0.617863 
1.185209 -0.467112 0.692240 
1.196183 -0.469727 0.690672 
1.025813 0.069470 0.692240 
1.033579 0.077652 0.690672 
1.173594 -0.468500 0.694090 
1.015323 0.064292 0.694090 
1.163104 -0.473679 0.695939 
1.003708 0.062904 0.695939 
1.155338 -0.481860 0.697507 
0.992734 0.065518 0.697507 
1.151477 -0.491799 0.698555 
0.984074 0.071737 0.698555 
1.152109 -0.501981 0.698923 
0.979044 0.080614 0.698923 
1.157138 -0.510858 0.698555 
0.978412 0.090796 0.698555 
1.165799 -0.517077 0.697507 
0.982273 0.100735 0.697507 
1.176772 -0.519691 0.695939 
0.990039 0.108916 0.695939 
1.188388 -0.518304 0.694090 
1.000529 0.114095 0.694090 
1.198878 -0.513125 0.692240 
1.012144 0.115483 0.692240 
1.206644 -0.504943 0.690672 
1.023118 0.112868 0.690672 
1.210505 -0.495005 0.689625 
1.031778 0.106649 0.689625 
1.209873 -0.484822 0.689257 
1.036808 0.097773 0.689257 
1.204843 -0.475946 0.689625 
1.037440 0.087590 0.689625 
1.206601 -0.466632 0.758423 
1.215261 -0.472851 0.757376 
1.043997 0.080747 0.758423 
1.047858 0.090685 0.757376 
1.220291 -0.481728 0.757008 
1.047226 0.100868 0.757008 
1.220923 -0.491910 0.757376 
1.042196 0.109744 0.757376 
1.217062 -0.501849 0.758423 
1.033536 0.115963 0.758423 
1.209296 -0.510030 0.759991 
1.022562 0.118577 0.759991 
1.198806 -0.515209 0.761841 
1.010947 0.117190 0.761841 
1.187190 -0.516597 0.763690 
1.000457 0.112011 0.763690 
1.176217 -0.513982 0.765258 
0.992691 0.103829 0.765258 
1.167556 -0.507763 0.766306 
0.988830 0.093891 0.766306 
1.162527 -0.498887 0.766674 
0.989462 0.083708 0.766674 
1.161895 -0.488704 0.766306 
0.994491 0.074832 0.766306 
1.165756 -0.478766 0.765258 
1.003152 0.068613 0.765258 
1.173522 -0.470584 0.763690 
1.014125 0.065999 0.763690 
1.184012 -0.465405 0.761841 
1.025741 0.067386 0.761841 
1.195627 -0.464018 0.759991 
1.036231 0.072565 0.759991 
1.199214 -0.463632 0.783961 
1.210144 -0.466100 0.783961 
1.039446 0.074200 0.783961 
1.047256 0.082235 0.783961 
1.187614 -0.465071 0.783961 
1.028942 0.069073 0.783961 
1.177109 -0.470199 0.783961 
1.017341 0.067634 0.783961 
1.169299 -0.478233 0.783961 
1.006411 0.070102 0.783961 
1.165373 -0.487953 0.783961 
0.997816 0.076101 0.783961 
1.165928 -0.497876 0.783961 
0.992863 0.084719 0.783961 
1.170881 -0.506494 0.783961 
0.992308 0.094642 0.783961 
1.179476 -0.512493 0.783961 
0.996234 0.104362 0.783961 
1.190406 -0.514961 0.783961 
1.004044 0.112396 0.783961 
1.202006 -0.513522 0.783961 
1.014549 0.117524 0.783961 
1.212511 -0.508395 0.783961 
1.026149 0.118963 0.783961 
1.220321 -0.500360 0.783961 
1.037079 0.116495 0.783961 
1.224247 -0.490641 0.783961 
1.045675 0.110496 0.783961 
1.223692 -0.480717 0.783961 
1.050627 0.101878 0.783961 
1.218740 -0.472100 0.783961 
1.051182 0.091954 0.783961 
1.017749 -0.271450 0.439823 
1.023413 -0.290518 0.439823 
1.025931 -0.289770 0.435892 
1.020267 -0.270702 0.435892 
1.026815 -0.289507 0.431255 
1.021151 -0.270439 0.431255 
1.025931 -0.289770 0.426617 
1.020267 -0.270702 0.426617 
1.023413 -0.290518 0.422686 
1.017749 -0.271450 0.422686 
1.019644 -0.291637 0.420059 
1.013980 -0.272569 0.420059 
1.015199 -0.292958 0.419137 
1.009535 -0.273890 0.419137 
1.010754 -0.294278 0.420059 
1.005090 -0.275210 0.420059 
1.006985 -0.295398 0.422686 
1.001321 -0.276330 0.422686 
1.004467 -0.296146 0.426617 
0.998803 -0.277078 0.426617 
1.003583 -0.296408 0.431255 
0.997919 -0.277340 0.431255 
1.004467 -0.296146 0.435892 
0.998803 -0.277078 0.435892 
1.006985 -0.295398 0.439823 
1.001321 -0.276330 0.439823 
1.010754 -0.294278 0.442450 
1.005090 -0.275210 0.442450 
1.015199 -0.292958 0.443372 
1.009535 -0.273890 0.443372 
1.019645 -0.291637 0.442450 
1.013980 -0.272569 0.442450 
1.020423 -0.291406 0.436704 
1.022024 -0.290930 0.434204 
1.022586 -0.290763 0.431255 
1.022024 -0.290930 0.428306 
1.020423 -0.291406 0.425806 
1.018026 -0.292118 0.424135 
1.015199 -0.292958 0.423548 
1.012372 -0.293798 0.424135 
1.009976 -0.294509 0.425806 
1.008374 -0.294985 0.428306 
1.007812 -0.295152 0.431255 
1.008374 -0.294985 0.434204 
1.009976 -0.294509 0.436704 
1.012372 -0.293798 0.438374 
1.015199 -0.292958 0.438961 
1.018026 -0.292118 0.438374 
1.026278 -0.311116 0.436704 
1.027879 -0.310640 0.434204 
1.028441 -0.310473 0.431255 
1.027879 -0.310640 0.428306 
1.026278 -0.311116 0.425806 
1.023881 -0.311828 0.424135 
1.021054 -0.312668 0.423548 
1.018227 -0.313507 0.424135 
1.015831 -0.314219 0.425806 
1.014229 -0.314695 0.428306 
1.013667 -0.314862 0.431255 
1.014229 -0.314695 0.434204 
1.015831 -0.314219 0.436704 
1.018227 -0.313507 0.438374 
1.021054 -0.312667 0.438961 
1.023881 -0.311828 0.438374 
1.024988 -0.311499 0.435358 
1.026193 -0.311141 0.433475 
1.026617 -0.311015 0.431255 
1.026193 -0.311141 0.429034 
1.024988 -0.311499 0.427151 
1.023183 -0.312035 0.425893 
1.021054 -0.312668 0.425452 
1.018925 -0.313300 0.425893 
1.017121 -0.313836 0.427151 
1.015915 -0.314194 0.429034 
1.015491 -0.314320 0.431255 
1.015915 -0.314194 0.433475 
1.017121 -0.313836 0.435358 
1.018925 -0.313300 0.436616 
1.021054 -0.312667 0.437058 
1.023183 -0.312035 0.436616 
1.039154 -0.359187 0.432871 
1.040307 -0.358652 0.430997 
1.040669 -0.358318 0.428787 
1.040184 -0.358236 0.426577 
1.038925 -0.358418 0.424704 
1.037086 -0.358836 0.423452 
1.034945 -0.359427 0.423012 
1.032828 -0.360101 0.423452 
1.031058 -0.360755 0.424704 
1.029905 -0.361290 0.426577 
1.029543 -0.361623 0.428787 
1.030029 -0.361706 0.430997 
1.031287 -0.361524 0.432871 
1.033126 -0.361105 0.434123 
1.035268 -0.360514 0.434563 
1.037384 -0.359841 0.434123 
1.050864 -0.398606 0.429581 
1.052017 -0.398072 0.427708 
1.052379 -0.397738 0.425498 
1.051893 -0.397656 0.423287 
1.050635 -0.397838 0.421414 
1.048796 -0.398256 0.420162 
1.046655 -0.398847 0.419722 
1.044538 -0.399521 0.420162 
1.042768 -0.400174 0.421414 
1.041615 -0.400709 0.423287 
1.041253 -0.401043 0.425498 
1.041739 -0.401125 0.427708 
1.042997 -0.400943 0.429581 
1.044836 -0.400525 0.430833 
1.046978 -0.399934 0.431273 
1.049094 -0.399260 0.430833 
1.058946 -0.425815 0.427956 
1.060152 -0.425457 0.426073 
1.060576 -0.425332 0.423853 
1.060152 -0.425457 0.421632 
1.058946 -0.425815 0.419749 
1.057142 -0.426352 0.418491 
1.055013 -0.426984 0.418050 
1.052884 -0.427616 0.418491 
1.051080 -0.428152 0.419749 
1.049874 -0.428511 0.421632 
1.049450 -0.428636 0.423853 
1.049874 -0.428511 0.426073 
1.051080 -0.428152 0.427956 
1.052884 -0.427616 0.429214 
1.055013 -0.426984 0.429656 
1.057142 -0.426352 0.429214 
1.061568 -0.425037 0.430690 
1.063577 -0.424440 0.427553 
1.064283 -0.424230 0.423853 
1.063577 -0.424440 0.420152 
1.061568 -0.425037 0.417015 
1.058560 -0.425930 0.414919 
1.055013 -0.426984 0.414183 
1.051466 -0.428038 0.414919 
1.048458 -0.428931 0.417015 
1.046449 -0.429528 0.420152 
1.045743 -0.429738 0.423853 
1.046449 -0.429528 0.427553 
1.048458 -0.428931 0.430690 
1.051466 -0.428038 0.432787 
1.055013 -0.426984 0.433523 
1.058560 -0.425930 0.432787 
1.080461 -0.443447 0.443559 
1.086252 -0.441727 0.434518 
1.088286 -0.441123 0.423853 
1.086252 -0.441727 0.413188 
1.080461 -0.443447 0.404146 
1.071794 -0.446022 0.398105 
1.061570 -0.449059 0.395984 
1.051347 -0.452096 0.398105 
1.042680 -0.454671 0.404146 
1.036889 -0.456391 0.413188 
1.034855 -0.456995 0.423853 
1.036889 -0.456391 0.434518 
1.042680 -0.454670 0.443559 
1.051347 -0.452096 0.449600 
1.061571 -0.449059 0.451722 
1.071794 -0.446022 0.449600 
1.084442 -0.456850 0.443559 
1.090234 -0.455130 0.434518 
1.092267 -0.454525 0.423853 
1.090234 -0.455130 0.413188 
1.084442 -0.456850 0.404146 
1.075775 -0.459424 0.398105 
1.065552 -0.462461 0.395984 
1.055328 -0.465499 0.398105 
1.046661 -0.468073 0.404146 
1.040870 -0.469793 0.413188 
1.038836 -0.470398 0.423853 
1.040870 -0.469793 0.434518 
1.046661 -0.468073 0.443559 
1.055328 -0.465498 0.449600 
1.065552 -0.462461 0.451722 
1.075776 -0.459424 0.449600 
1.028609 -0.282053 0.485964 
1.046915 -0.343677 0.486067 
1.047806 -0.343412 0.484676 
1.029500 -0.281788 0.484573 
0.978226 -0.109183 0.484676 
0.977335 -0.109448 0.486067 
0.995641 -0.171071 0.485964 
0.996532 -0.170807 0.484573 
1.060381 -0.389009 0.487872 
1.061300 -0.388836 0.486484 
0.964733 -0.063759 0.486484 
0.963869 -0.064115 0.487872 
1.048119 -0.343319 0.483035 
1.029813 -0.281695 0.482932 
0.978539 -0.109090 0.483035 
0.996845 -0.170714 0.482932 
1.061645 -0.388851 0.484847 
0.965013 -0.063558 0.484847 
1.047806 -0.343412 0.481394 
1.029500 -0.281788 0.481290 
0.978226 -0.109183 0.481394 
0.996532 -0.170807 0.481290 
1.061364 -0.389052 0.483209 
0.964668 -0.063543 0.483209 
1.046915 -0.343677 0.480002 
1.028609 -0.282053 0.479899 
0.977335 -0.109448 0.480002 
0.995641 -0.171071 0.479899 
1.060500 -0.389409 0.481821 
0.963750 -0.063716 0.481821 
1.045581 -0.344073 0.479073 
1.027275 -0.282449 0.478969 
0.976001 -0.109844 0.479073 
0.994307 -0.171468 0.478969 
1.059184 -0.389866 0.480894 
0.962398 -0.064050 0.480894 
1.044008 -0.344540 0.478746 
1.025702 -0.282917 0.478643 
0.974428 -0.110311 0.478746 
0.992734 -0.171935 0.478643 
1.057618 -0.390355 0.480568 
0.960818 -0.064496 0.480568 
1.042435 -0.345008 0.479073 
1.024129 -0.283384 0.478969 
0.972855 -0.110778 0.479073 
0.991161 -0.172402 0.478969 
1.056038 -0.390801 0.480894 
0.959251 -0.064985 0.480894 
1.041101 -0.345404 0.480002 
1.022795 -0.283780 0.479899 
0.971521 -0.111175 0.480002 
0.989827 -0.172798 0.479899 
1.054686 -0.391136 0.481821 
0.957936 -0.065443 0.481821 
1.040210 -0.345669 0.481394 
1.021904 -0.284045 0.481290 
0.970630 -0.111439 0.481394 
0.988936 -0.173063 0.481290 
1.053767 -0.391309 0.483209 
0.957072 -0.065799 0.483209 
1.039897 -0.345762 0.483035 
1.021591 -0.284138 0.482932 
0.970317 -0.111532 0.483035 
0.988623 -0.173156 0.482932 
1.053422 -0.391294 0.484847 
0.956791 -0.066000 0.484847 
1.040210 -0.345669 0.484676 
1.021904 -0.284045 0.484573 
0.970630 -0.111439 0.484676 
0.988936 -0.173063 0.484573 
1.053703 -0.391092 0.486484 
0.957136 -0.066016 0.486484 
1.041101 -0.345404 0.486067 
1.022795 -0.283780 0.485964 
0.971521 -0.111175 0.486067 
0.989827 -0.172798 0.485964 
1.054567 -0.390736 0.487872 
0.958055 -0.065843 0.487872 
1.042435 -0.345008 0.486997 
1.024129 -0.283384 0.486894 
0.972855 -0.110778 0.486997 
0.991161 -0.172402 0.486894 
1.055883 -0.390279 0.488800 
0.959407 -0.065508 0.488800 
1.044008 -0.344540 0.487324 
1.025702 -0.282917 0.487220 
0.974428 -0.110311 0.487324 
0.992734 -0.171935 0.487220 
1.057450 -0.389790 0.489125 
0.960986 -0.065062 0.489125 
1.045581 -0.344073 0.486997 
1.027275 -0.282449 0.486894 
0.976001 -0.109844 0.486997 
0.994307 -0.171468 0.486894 
1.059029 -0.389344 0.488800 
0.962553 -0.064573 0.488800 
1.061793 -0.393760 0.488734 
1.062847 -0.394047 0.487480 
0.963185 -0.058548 0.487480 
0.962457 -0.059364 0.488734 
1.062603 -0.396489 0.491722 
1.063826 -0.397341 0.490960 
0.962206 -0.055254 0.490960 
0.961647 -0.056635 0.491722 
1.063354 -0.394604 0.486001 
0.963305 -0.057805 0.486001 
1.064530 -0.398564 0.490062 
0.962128 -0.053845 0.490062 
1.063234 -0.395347 0.484522 
0.962799 -0.057248 0.484522 
1.064608 -0.399974 0.489164 
0.961424 -0.052621 0.489164 
1.062506 -0.396162 0.483268 
0.961744 -0.056962 0.483268 
1.064049 -0.401355 0.488402 
0.960201 -0.051769 0.488402 
1.061282 -0.396927 0.482430 
0.960301 -0.056990 0.482430 
1.062936 -0.402497 0.487893 
0.958646 -0.051420 0.487893 
1.059747 -0.397523 0.482135 
0.958689 -0.057328 0.482135 
1.061441 -0.403226 0.487715 
0.956995 -0.051625 0.487715 
1.058135 -0.397861 0.482430 
0.957154 -0.057925 0.482430 
1.059790 -0.403432 0.487893 
0.955499 -0.052354 0.487893 
1.056692 -0.397889 0.483268 
0.955930 -0.058689 0.483268 
1.058235 -0.403082 0.488402 
0.954387 -0.053497 0.488402 
1.055637 -0.397603 0.484522 
0.955202 -0.059505 0.484522 
1.057012 -0.402231 0.489164 
0.953828 -0.054878 0.489164 
1.055131 -0.397046 0.486001 
0.955082 -0.060248 0.486001 
1.056308 -0.401007 0.490062 
0.953906 -0.056287 0.490062 
1.055251 -0.396303 0.487480 
0.955588 -0.060805 0.487480 
1.056229 -0.399597 0.490960 
0.954610 -0.057511 0.490960 
1.055979 -0.395488 0.488734 
0.956643 -0.061091 0.488734 
1.056789 -0.398216 0.491722 
0.955833 -0.058362 0.491722 
1.057203 -0.394723 0.489572 
0.958086 -0.061063 0.489572 
1.057901 -0.397074 0.492230 
0.957388 -0.058712 0.492230 
1.058738 -0.394127 0.489867 
0.959698 -0.060725 0.489867 
1.059397 -0.396345 0.492409 
0.959039 -0.058507 0.492409 
1.060349 -0.393788 0.489572 
0.961233 -0.060128 0.489572 
1.061048 -0.396139 0.492230 
0.960534 -0.057777 0.492230 
1.062893 -0.397465 0.495831 
1.064179 -0.398529 0.495702 
0.961357 -0.055659 0.495831 
0.961853 -0.054066 0.495702 
1.064957 -0.400002 0.495551 
0.961701 -0.052407 0.495551 
1.065110 -0.401662 0.495399 
0.960923 -0.050933 0.495399 
1.064613 -0.403255 0.495271 
0.959637 -0.049870 0.495271 
1.063543 -0.404538 0.495185 
0.958040 -0.049379 0.495185 
1.062062 -0.405317 0.495155 
0.956374 -0.049534 0.495155 
1.060396 -0.405473 0.495185 
0.954893 -0.050313 0.495185 
1.058799 -0.404982 0.495271 
0.953823 -0.051597 0.495271 
1.057513 -0.403918 0.495399 
0.953326 -0.053190 0.495399 
1.056735 -0.402445 0.495551 
0.953479 -0.054849 0.495551 
1.056582 -0.400785 0.495702 
0.954257 -0.056323 0.495702 
1.057079 -0.399192 0.495831 
0.955543 -0.057386 0.495831 
1.058149 -0.397909 0.495916 
0.957140 -0.057877 0.495916 
1.059630 -0.397130 0.495946 
0.958806 -0.057721 0.495946 
1.061296 -0.396974 0.495916 
0.960286 -0.056943 0.495916 
1.062833 -0.397531 0.508117 
1.064088 -0.398572 0.508117 
0.961271 -0.055637 0.508117 
0.961754 -0.054079 0.508117 
1.064849 -0.400014 0.508117 
0.961603 -0.052456 0.508117 
1.064999 -0.401638 0.508117 
0.960843 -0.051014 0.508117 
1.064516 -0.403195 0.508117 
0.959588 -0.049972 0.508117 
1.063474 -0.404450 0.508117 
0.958030 -0.049490 0.508117 
1.062030 -0.405210 0.508117 
0.956405 -0.049641 0.508117 
1.060406 -0.405361 0.508117 
0.954962 -0.050402 0.508117 
1.058848 -0.404879 0.508117 
0.953920 -0.051656 0.508117 
1.057593 -0.403838 0.508117 
0.953437 -0.053214 0.508117 
1.056832 -0.402395 0.508117 
0.953587 -0.054837 0.508117 
1.056682 -0.400772 0.508117 
0.954348 -0.056279 0.508117 
1.057165 -0.399214 0.508117 
0.955602 -0.057321 0.508117 
1.058207 -0.397960 0.508117 
0.957161 -0.057803 0.508117 
1.059651 -0.397199 0.508117 
0.958785 -0.057652 0.508117 
1.061275 -0.397049 0.508117 
0.960228 -0.056892 0.508117 
1.163554 -0.192299 0.284397 
1.163554 -0.192299 0.432878 
1.159932 -0.196661 0.432878 
1.159932 -0.196661 0.284397 
1.154916 -0.199306 0.432878 
1.154916 -0.199306 0.284397 
1.149269 -0.199829 0.432878 
1.149269 -0.199829 0.284397 
1.143852 -0.198152 0.432878 
1.143852 -0.198152 0.284397 
1.139490 -0.194529 0.432878 
1.139490 -0.194529 0.284397 
1.136846 -0.189513 0.432878 
1.136846 -0.189513 0.284397 
1.136322 -0.183866 0.432878 
1.136322 -0.183866 0.284397 
1.138000 -0.178450 0.432878 
1.138000 -0.178450 0.284397 
1.141622 -0.174087 0.432878 
1.141622 -0.174087 0.284397 
1.146639 -0.171443 0.432878 
1.146639 -0.171443 0.284397 
1.152285 -0.170920 0.432878 
1.152285 -0.170920 0.284397 
1.157702 -0.172597 0.432878 
1.157702 -0.172597 0.284397 
1.162064 -0.176220 0.432878 
1.162064 -0.176220 0.284397 
1.164708 -0.181236 0.432878 
1.164708 -0.181236 0.284397 
1.165232 -0.186882 0.432878 
1.165232 -0.186882 0.284397 
1.163564 -0.201139 0.284397 
1.168623 -0.195046 0.284397 
1.156557 -0.204832 0.284397 
1.148671 -0.205563 0.284397 
1.141105 -0.203220 0.284397 
1.135012 -0.198161 0.284397 
1.131319 -0.191155 0.284397 
1.130588 -0.183268 0.284397 
1.132931 -0.175703 0.284397 
1.137991 -0.169609 0.284397 
1.144997 -0.165916 0.284397 
1.152883 -0.165185 0.284397 
1.160449 -0.167528 0.284397 
1.166542 -0.172588 0.284397 
1.170235 -0.179594 0.284397 
1.170966 -0.187480 0.284397 
1.163564 -0.201139 0.197688 
1.168623 -0.195046 0.197688 
1.156557 -0.204832 0.197688 
1.148671 -0.205563 0.197688 
1.141105 -0.203220 0.197688 
1.135012 -0.198161 0.197688 
1.131319 -0.191155 0.197688 
1.130588 -0.183268 0.197688 
1.132931 -0.175703 0.197688 
1.137991 -0.169609 0.197688 
1.144997 -0.165916 0.197688 
1.152883 -0.165185 0.197688 
1.160449 -0.167528 0.197688 
1.166542 -0.172588 0.197688 
1.170235 -0.179594 0.197688 
1.170966 -0.187480 0.197688 
1.168305 -0.206986 0.197688 
1.175241 -0.198633 0.197688 
1.158701 -0.212048 0.197688 
1.147890 -0.213050 0.197688 
1.137519 -0.209839 0.197688 
1.129166 -0.202903 0.197688 
1.124103 -0.193298 0.197688 
1.123101 -0.182487 0.197688 
1.126313 -0.172116 0.197688 
1.133249 -0.163763 0.197688 
1.142853 -0.158700 0.197688 
1.153664 -0.157699 0.197688 
1.164036 -0.160910 0.197688 
1.172388 -0.167846 0.197688 
1.177451 -0.177451 0.197688 
1.178453 -0.188261 0.197688 
1.168305 -0.206986 0.118989 
1.175241 -0.198633 0.118989 
1.158701 -0.212048 0.118989 
1.147890 -0.213050 0.118989 
1.137519 -0.209839 0.118989 
1.129166 -0.202903 0.118989 
1.124103 -0.193298 0.118989 
1.123101 -0.182487 0.118989 
1.126313 -0.172116 0.118989 
1.133249 -0.163763 0.118989 
1.142853 -0.158700 0.118989 
1.153664 -0.157699 0.118989 
1.164036 -0.160910 0.118989 
1.172388 -0.167846 0.118989 
1.177451 -0.177451 0.118989 
1.178453 -0.188261 0.118989 
1.164674 -0.202508 0.118989 
1.170173 -0.195886 0.118989 
1.157059 -0.206522 0.118989 
1.148488 -0.207316 0.118989 
1.140266 -0.204770 0.118989 
1.133644 -0.199271 0.118989 
1.129630 -0.191656 0.118989 
1.128835 -0.183085 0.118989 
1.131382 -0.174863 0.118989 
1.136881 -0.168241 0.118989 
1.144495 -0.164227 0.118989 
1.153066 -0.163433 0.118989 
1.161288 -0.165979 0.118989 
1.167911 -0.171478 0.118989 
1.171924 -0.179092 0.118989 
1.172719 -0.187663 0.118989 
1.164674 -0.202508 0.033953 
1.170173 -0.195886 0.033953 
1.157059 -0.206522 0.033953 
1.148488 -0.207316 0.033953 
1.140266 -0.204770 0.033953 
1.133644 -0.199271 0.033953 
1.129630 -0.191656 0.033953 
1.128835 -0.183085 0.033953 
1.131382 -0.174863 0.033953 
1.136881 -0.168241 0.033953 
1.144495 -0.164227 0.033953 
1.153066 -0.163433 0.033953 
1.161288 -0.165979 0.033953 
1.167911 -0.171478 0.033953 
1.171924 -0.179092 0.033953 
1.172719 -0.187663 0.033953 
1.182103 -0.116732 0.436908 
1.157794 -0.142346 0.418345 
1.121407 -0.153155 0.418345 
1.090095 -0.144064 0.436908 
1.214498 -0.225782 0.436908 
1.122489 -0.253114 0.436908 
1.143760 -0.228403 0.418345 
1.180147 -0.217594 0.418345 
1.182103 -0.116732 0.436908 
1.214498 -0.225782 0.436908 
1.180147 -0.217594 0.418345 
1.157794 -0.142346 0.418345 
1.157794 -0.142346 0.418345 
1.180147 -0.217594 0.418345 
1.143760 -0.228403 0.418345 
1.121407 -0.153155 0.418345 
1.121407 -0.153155 0.418345 
1.143760 -0.228403 0.418345 
1.122489 -0.253114 0.436908 
1.090095 -0.144064 0.436908 
1.214498 -0.225782 0.436908 
1.182103 -0.116732 0.436908 
1.090095 -0.144064 0.436908 
1.122489 -0.253114 0.436908 
1.277414 -0.246769 0.496056 
1.277414 -0.246769 0.472477 
1.223359 -0.064800 0.472477 
1.223359 -0.064800 0.496056 
1.022786 -0.298422 0.496056 
0.981826 -0.160536 0.496056 
0.981826 -0.160536 0.472477 
1.022786 -0.298422 0.472477 
1.145181 -0.262064 0.496056 
1.022786 -0.298422 0.496056 
1.022786 -0.298422 0.472477 
1.145181 -0.262064 0.472477 
1.145181 -0.262064 0.472477 
1.022786 -0.298422 0.472477 
0.981826 -0.160536 0.472477 
1.104221 -0.124178 0.472477 
1.104221 -0.124178 0.472477 
0.981826 -0.160536 0.472477 
0.981826 -0.160536 0.496056 
1.104221 -0.124178 0.496056 
1.022786 -0.298422 0.496056 
1.145181 -0.262064 0.496056 
1.104221 -0.124178 0.496056 
0.981826 -0.160536 0.496056 
1.277414 -0.246769 0.496056 
1.156127 -0.282798 0.496056 
1.156127 -0.282798 0.472477 
1.277414 -0.246769 0.472477 
1.156127 -0.282798 0.496056 
1.145181 -0.262064 0.496056 
1.145181 -0.262064 0.472477 
1.156127 -0.282798 0.472477 
1.277414 -0.246769 0.472477 
1.156127 -0.282798 0.472477 
1.102072 -0.100830 0.472477 
1.223359 -0.064800 0.472477 
1.223359 -0.064800 0.472477 
1.102072 -0.100830 0.472477 
1.102072 -0.100830 0.496056 
1.223359 -0.064800 0.496056 
1.102072 -0.100830 0.472477 
1.104221 -0.124178 0.472477 
1.104221 -0.124178 0.496056 
1.102072 -0.100830 0.496056 
1.156127 -0.282798 0.496056 
1.102072 -0.100830 0.496056 
1.277414 -0.246769 0.496056 
1.223359 -0.064800 0.496056 
4 0 1 2 3 
4 4 5 6 7 
4 3 2 8 9 
4 10 4 7 11 
4 9 8 12 13 
4 14 10 11 15 
4 13 12 16 17 
4 18 14 15 19 
4 17 16 20 21 
4 22 18 19 23 
4 21 20 24 25 
4 26 22 23 27 
4 25 24 28 29 
4 30 26 27 31 
4 29 28 32 33 
4 34 30 31 35 
4 33 32 36 37 
4 38 34 35 39 
4 37 36 40 41 
4 42 38 39 43 
4 41 40 44 45 
4 46 42 43 47 
4 45 44 48 49 
4 50 46 47 51 
4 49 48 52 53 
4 54 50 51 55 
4 53 52 56 57 
4 58 54 55 59 
4 57 56 60 61 
4 62 58 59 63 
4 1 0 61 60 
4 63 6 5 62 
4 1 60 64 65 
4 66 62 5 67 
4 60 56 68 64 
4 69 58 62 66 
4 56 52 70 68 
4 71 54 58 69 
4 52 48 72 70 
4 73 50 54 71 
4 48 44 74 72 
4 75 46 50 73 
4 44 40 76 74 
4 77 42 46 75 
4 40 36 78 76 
4 79 38 42 77 
4 36 32 80 78 
4 81 34 38 79 
4 32 28 82 80 
4 83 30 34 81 
4 28 24 84 82 
4 85 26 30 83 
4 24 20 86 84 
4 87 22 26 85 
4 20 16 88 86 
4 89 18 22 87 
4 16 12 90 88 
4 91 14 18 89 
4 12 8 92 90 
4 93 10 14 91 
4 8 2 94 92 
4 95 4 10 93 
4 2 1 65 94 
4 67 5 4 95 
4 94 65 96 97 
4 98 67 95 99 
4 92 94 97 100 
4 99 95 93 101 
4 90 92 100 102 
4 101 93 91 103 
4 88 90 102 104 
4 103 91 89 105 
4 86 88 104 106 
4 105 89 87 107 
4 84 86 106 108 
4 107 87 85 109 
4 82 84 108 110 
4 109 85 83 111 
4 80 82 110 112 
4 111 83 81 113 
4 78 80 112 114 
4 113 81 79 115 
4 76 78 114 116 
4 115 79 77 117 
4 74 76 116 118 
4 117 77 75 119 
4 72 74 118 120 
4 119 75 73 121 
4 70 72 120 122 
4 121 73 71 123 
4 68 70 122 124 
4 123 71 69 125 
4 64 68 124 126 
4 125 69 66 127 
4 65 64 126 96 
4 127 66 67 98 
4 96 126 128 129 
4 130 127 98 131 
4 126 124 132 128 
4 133 125 127 130 
4 124 122 134 132 
4 135 123 125 133 
4 122 120 136 134 
4 137 121 123 135 
4 120 118 138 136 
4 139 119 121 137 
4 118 116 140 138 
4 141 117 119 139 
4 116 114 142 140 
4 143 115 117 141 
4 114 112 144 142 
4 145 113 115 143 
4 112 110 146 144 
4 147 111 113 145 
4 110 108 148 146 
4 149 109 111 147 
4 108 106 150 148 
4 151 107 109 149 
4 106 104 152 150 
4 153 105 107 151 
4 104 102 154 152 
4 155 103 105 153 
4 102 100 156 154 
4 157 101 103 155 
4 100 97 158 156 
4 159 99 101 157 
4 97 96 129 158 
4 131 98 99 159 
4 158 129 160 161 
4 162 131 159 163 
4 156 158 161 164 
4 163 159 157 165 
4 154 156 164 166 
4 165 157 155 167 
4 152 154 166 168 
4 167 155 153 169 
4 150 152 168 170 
4 169 153 151 171 
4 148 150 170 172 
4 171 151 149 173 
4 146 148 172 174 
4 173 149 147 175 
4 144 146 174 176 
4 175 147 145 177 
4 142 144 176 178 
4 177 145 143 179 
4 140 142 178 180 
4 179 143 141 181 
4 138 140 180 182 
4 181 141 139 183 
4 136 138 182 184 
4 183 139 137 185 
4 134 136 184 186 
4 185 137 135 187 
4 132 134 186 188 
4 187 135 133 189 
4 128 132 188 190 
4 189 133 130 191 
4 129 128 190 160 
4 191 130 131 162 
4 160 190 192 193 
4 194 191 162 195 
4 190 188 196 192 
4 197 189 191 194 
4 188 186 198 196 
4 199 187 189 197 
4 186 184 200 198 
4 201 185 187 199 
4 184 182 202 200 
4 203 183 185 201 
4 182 180 204 202 
4 205 181 183 203 
4 180 178 206 204 
4 207 179 181 205 
4 178 176 208 206 
4 209 177 179 207 
4 176 174 210 208 
4 211 175 177 209 
4 174 172 212 210 
4 213 173 175 211 
4 172 170 214 212 
4 215 171 173 213 
4 170 168 216 214 
4 217 169 171 215 
4 168 166 218 216 
4 219 167 169 217 
4 166 164 220 218 
4 221 165 167 219 
4 164 161 222 220 
4 223 163 165 221 
4 161 160 193 222 
4 195 162 163 223 
4 222 193 224 225 
4 226 195 223 227 
4 220 222 225 228 
4 227 223 221 229 
4 218 220 228 230 
4 229 221 219 231 
4 216 218 230 232 
4 231 219 217 233 
4 214 216 232 234 
4 233 217 215 235 
4 212 214 234 236 
4 235 215 213 237 
4 210 212 236 238 
4 237 213 211 239 
4 208 210 238 240 
4 239 211 209 241 
4 206 208 240 242 
4 241 209 207 243 
4 204 206 242 244 
4 243 207 205 245 
4 202 204 244 246 
4 245 205 203 247 
4 200 202 246 248 
4 247 203 201 249 
4 198 200 248 250 
4 249 201 199 251 
4 196 198 250 252 
4 251 199 197 253 
4 192 196 252 254 
4 253 197 194 255 
4 193 192 254 224 
4 255 194 195 226 
4 224 254 256 257 
4 258 255 226 259 
4 254 252 260 256 
4 261 253 255 258 
4 252 250 262 260 
4 263 251 253 261 
4 250 248 264 262 
4 265 249 251 263 
4 248 246 266 264 
4 267 247 249 265 
4 246 244 268 266 
4 269 245 247 267 
4 244 242 270 268 
4 271 243 245 269 
4 242 240 272 270 
4 273 241 243 271 
4 240 238 274 272 
4 275 239 241 273 
4 238 236 276 274 
4 277 237 239 275 
4 236 234 278 276 
4 279 235 237 277 
4 234 232 280 278 
4 281 233 235 279 
4 232 230 282 280 
4 283 231 233 281 
4 230 228 284 282 
4 285 229 231 283 
4 228 225 286 284 
4 287 227 229 285 
4 225 224 257 286 
4 259 226 227 287 
4 286 257 288 289 
4 290 259 287 291 
4 284 286 289 292 
4 291 287 285 293 
4 282 284 292 294 
4 293 285 283 295 
4 280 282 294 296 
4 295 283 281 297 
4 278 280 296 298 
4 297 281 279 299 
4 276 278 298 300 
4 299 279 277 301 
4 274 276 300 302 
4 301 277 275 303 
4 272 274 302 304 
4 303 275 273 305 
4 270 272 304 306 
4 305 273 271 307 
4 268 270 306 308 
4 307 271 269 309 
4 266 268 308 310 
4 309 269 267 311 
4 264 266 310 312 
4 311 267 265 313 
4 262 264 312 314 
4 313 265 263 315 
4 260 262 314 316 
4 315 263 261 317 
4 256 260 316 318 
4 317 261 258 319 
4 257 256 318 288 
4 319 258 259 290 
4 288 318 320 321 
4 322 319 290 323 
4 318 316 324 320 
4 325 317 319 322 
4 316 314 326 324 
4 327 315 317 325 
4 314 312 328 326 
4 329 313 315 327 
4 312 310 330 328 
4 331 311 313 329 
4 310 308 332 330 
4 333 309 311 331 
4 308 306 334 332 
4 335 307 309 333 
4 306 304 336 334 
4 337 305 307 335 
4 304 302 338 336 
4 339 303 305 337 
4 302 300 340 338 
4 341 301 303 339 
4 300 298 342 340 
4 343 299 301 341 
4 298 296 344 342 
4 345 297 299 343 
4 296 294 346 344 
4 347 295 297 345 
4 294 292 348 346 
4 349 293 295 347 
4 292 289 350 348 
4 351 291 293 349 
4 289 288 321 350 
4 323 290 291 351 
4 352 353 354 355 
4 355 354 356 357 
4 357 356 358 359 
4 359 358 360 361 
4 361 360 362 363 
4 363 362 364 365 
4 365 364 366 367 
4 367 366 368 369 
4 369 368 370 371 
4 371 370 372 373 
4 373 372 374 375 
4 375 374 376 377 
4 377 376 378 379 
4 379 378 380 381 
4 381 380 382 383 
4 353 352 383 382 
4 354 353 384 385 
4 356 354 385 386 
4 358 356 386 387 
4 360 358 387 388 
4 362 360 388 389 
4 364 362 389 390 
4 366 364 390 391 
4 368 366 391 392 
4 370 368 392 393 
4 372 370 393 394 
4 374 372 394 395 
4 376 374 395 396 
4 378 376 396 397 
4 380 378 397 398 
4 382 380 398 399 
4 353 382 399 384 
4 385 384 400 401 
4 386 385 401 402 
4 387 386 402 403 
4 388 387 403 404 
4 389 388 404 405 
4 390 389 405 406 
4 391 390 406 407 
4 392 391 407 408 
4 393 392 408 409 
4 394 393 409 410 
4 395 394 410 411 
4 396 395 411 412 
4 397 396 412 413 
4 398 397 413 414 
4 399 398 414 415 
4 384 399 415 400 
4 401 400 416 417 
4 402 401 417 418 
4 403 402 418 419 
4 404 403 419 420 
4 405 404 420 421 
4 406 405 421 422 
4 407 406 422 423 
4 408 407 423 424 
4 409 408 424 425 
4 410 409 425 426 
4 411 410 426 427 
4 412 411 427 428 
4 413 412 428 429 
4 414 413 429 430 
4 415 414 430 431 
4 400 415 431 416 
4 417 416 432 433 
4 418 417 433 434 
4 419 418 434 435 
4 420 419 435 436 
4 421 420 436 437 
4 422 421 437 438 
4 423 422 438 439 
4 424 423 439 440 
4 425 424 440 441 
4 426 425 441 442 
4 427 426 442 443 
4 428 427 443 444 
4 429 428 444 445 
4 430 429 445 446 
4 431 430 446 447 
4 416 431 447 432 
4 433 432 448 449 
4 434 433 449 450 
4 435 434 450 451 
4 436 435 451 452 
4 437 436 452 453 
4 438 437 453 454 
4 439 438 454 455 
4 440 439 455 456 
4 441 440 456 457 
4 442 441 457 458 
4 443 442 458 459 
4 444 443 459 460 
4 445 444 460 461 
4 446 445 461 462 
4 447 446 462 463 
4 432 447 463 448 
4 449 448 464 465 
4 450 449 465 466 
4 451 450 466 467 
4 452 451 467 468 
4 453 452 468 469 
4 454 453 469 470 
4 455 454 470 471 
4 456 455 471 472 
4 457 456 472 473 
4 458 457 473 474 
4 459 458 474 475 
4 460 459 475 476 
4 461 460 476 477 
4 462 461 477 478 
4 463 462 478 479 
4 448 463 479 464 
4 465 464 480 481 
4 466 465 481 482 
4 467 466 482 483 
4 468 467 483 484 
4 469 468 484 485 
4 470 469 485 486 
4 471 470 486 487 
4 472 471 487 488 
4 473 472 488 489 
4 474 473 489 490 
4 475 474 490 491 
4 476 475 491 492 
4 477 476 492 493 
4 478 477 493 494 
4 479 478 494 495 
4 464 479 495 480 
4 481 480 496 497 
4 482 481 497 498 
4 483 482 498 499 
4 484 483 499 500 
4 485 484 500 501 
4 486 485 501 502 
4 487 486 502 503 
4 488 487 503 504 
4 489 488 504 505 
4 490 489 505 506 
4 491 490 506 507 
4 492 491 507 508 
4 493 492 508 509 
4 494 493 509 510 
4 495 494 510 511 
4 480 495 511 496 
4 497 496 512 513 
4 498 497 513 514 
4 499 498 514 515 
4 500 499 515 516 
4 501 500 516 517 
4 502 501 517 518 
4 503 502 518 519 
4 504 503 519 520 
4 505 504 520 521 
4 506 505 521 522 
4 507 506 522 523 
4 508 507 523 524 
4 509 508 524 525 
4 510 509 525 526 
4 511 510 526 527 
4 496 511 527 512 
4 526 525 524 527 
4 527 524 523 512 
4 512 523 522 513 
4 513 522 521 514 
4 514 521 520 515 
4 515 520 519 516 
4 516 519 518 517 
4 528 529 530 531 
4 532 533 534 535 
4 529 536 537 530 
4 538 539 533 532 
4 531 530 540 541 
4 542 532 535 543 
4 530 537 544 540 
4 545 538 532 542 
4 541 540 546 547 
4 548 542 543 549 
4 540 544 550 546 
4 551 545 542 548 
4 547 546 552 553 
4 554 548 549 555 
4 546 550 556 552 
4 557 551 548 554 
4 553 552 558 559 
4 560 554 555 561 
4 552 556 562 558 
4 563 557 554 560 
4 559 558 564 565 
4 566 560 561 567 
4 558 562 568 564 
4 569 563 560 566 
4 565 564 570 571 
4 572 566 567 573 
4 564 568 574 570 
4 575 569 566 572 
4 571 570 576 577 
4 578 572 573 579 
4 570 574 580 576 
4 581 575 572 578 
4 577 576 582 583 
4 584 578 579 585 
4 576 580 586 582 
4 587 581 578 584 
4 583 582 588 589 
4 590 584 585 591 
4 582 586 592 588 
4 593 587 584 590 
4 589 588 594 595 
4 596 590 591 597 
4 588 592 598 594 
4 599 593 590 596 
4 595 594 600 601 
4 602 596 597 603 
4 594 598 604 600 
4 605 599 596 602 
4 601 600 606 607 
4 608 602 603 609 
4 600 604 610 606 
4 611 605 602 608 
4 607 606 612 613 
4 614 608 609 615 
4 606 610 616 612 
4 617 611 608 614 
4 613 612 618 619 
4 620 614 615 621 
4 612 616 622 618 
4 623 617 614 620 
4 529 528 619 618 
4 621 534 533 620 
4 618 622 536 529 
4 539 623 620 533 
4 536 624 625 537 
4 626 627 539 538 
4 624 628 629 625 
4 630 631 627 626 
4 537 625 632 544 
4 633 626 538 545 
4 625 629 634 632 
4 635 630 626 633 
4 544 632 636 550 
4 637 633 545 551 
4 632 634 638 636 
4 639 635 633 637 
4 550 636 640 556 
4 641 637 551 557 
4 636 638 642 640 
4 643 639 637 641 
4 556 640 644 562 
4 645 641 557 563 
4 640 642 646 644 
4 647 643 641 645 
4 562 644 648 568 
4 649 645 563 569 
4 644 646 650 648 
4 651 647 645 649 
4 568 648 652 574 
4 653 649 569 575 
4 648 650 654 652 
4 655 651 649 653 
4 574 652 656 580 
4 657 653 575 581 
4 652 654 658 656 
4 659 655 653 657 
4 580 656 660 586 
4 661 657 581 587 
4 656 658 662 660 
4 663 659 657 661 
4 586 660 664 592 
4 665 661 587 593 
4 660 662 666 664 
4 667 663 661 665 
4 592 664 668 598 
4 669 665 593 599 
4 664 666 670 668 
4 671 667 665 669 
4 598 668 672 604 
4 673 669 599 605 
4 668 670 674 672 
4 675 671 669 673 
4 604 672 676 610 
4 677 673 605 611 
4 672 674 678 676 
4 679 675 673 677 
4 610 676 680 616 
4 681 677 611 617 
4 676 678 682 680 
4 683 679 677 681 
4 616 680 684 622 
4 685 681 617 623 
4 680 682 686 684 
4 687 683 681 685 
4 622 684 624 536 
4 627 685 623 539 
4 684 686 628 624 
4 631 687 685 627 
4 629 628 688 689 
4 690 631 630 691 
4 634 629 689 692 
4 691 630 635 693 
4 638 634 692 694 
4 693 635 639 695 
4 642 638 694 696 
4 695 639 643 697 
4 646 642 696 698 
4 697 643 647 699 
4 650 646 698 700 
4 699 647 651 701 
4 654 650 700 702 
4 701 651 655 703 
4 658 654 702 704 
4 703 655 659 705 
4 662 658 704 706 
4 705 659 663 707 
4 666 662 706 708 
4 707 663 667 709 
4 670 666 708 710 
4 709 667 671 711 
4 674 670 710 712 
4 711 671 675 713 
4 678 674 712 714 
4 713 675 679 715 
4 682 678 714 716 
4 715 679 683 717 
4 686 682 716 718 
4 717 683 687 719 
4 628 686 718 688 
4 719 687 631 690 
4 689 688 720 721 
4 722 690 691 723 
4 692 689 721 724 
4 723 691 693 725 
4 694 692 724 726 
4 725 693 695 727 
4 696 694 726 728 
4 727 695 697 729 
4 698 696 728 730 
4 729 697 699 731 
4 700 698 730 732 
4 731 699 701 733 
4 702 700 732 734 
4 733 701 703 735 
4 704 702 734 736 
4 735 703 705 737 
4 706 704 736 738 
4 737 705 707 739 
4 708 706 738 740 
4 739 707 709 741 
4 710 708 740 742 
4 741 709 711 743 
4 712 710 742 744 
4 743 711 713 745 
4 714 712 744 746 
4 745 713 715 747 
4 716 714 746 748 
4 747 715 717 749 
4 718 716 748 750 
4 749 717 719 751 
4 688 718 750 720 
4 751 719 690 722 
4 752 753 754 755 
4 755 754 756 757 
4 757 756 758 759 
4 759 758 760 761 
4 761 760 762 763 
4 763 762 764 765 
4 765 764 766 767 
4 767 766 768 769 
4 769 768 770 771 
4 771 770 772 773 
4 773 772 774 775 
4 775 774 776 777 
4 777 776 778 779 
4 779 778 780 781 
4 781 780 782 783 
4 753 752 783 782 
4 752 755 784 785 
4 755 757 786 784 
4 757 759 787 786 
4 759 761 788 787 
4 761 763 789 788 
4 763 765 790 789 
4 765 767 791 790 
4 767 769 792 791 
4 769 771 793 792 
4 771 773 794 793 
4 773 775 795 794 
4 775 777 796 795 
4 777 779 797 796 
4 779 781 798 797 
4 781 783 799 798 
4 783 752 785 799 
4 785 784 800 801 
4 784 786 802 800 
4 786 787 803 802 
4 787 788 804 803 
4 788 789 805 804 
4 789 790 806 805 
4 790 791 807 806 
4 791 792 808 807 
4 792 793 809 808 
4 793 794 810 809 
4 794 795 811 810 
4 795 796 812 811 
4 796 797 813 812 
4 797 798 814 813 
4 798 799 815 814 
4 799 785 801 815 
4 801 800 816 817 
4 800 802 818 816 
4 802 803 819 818 
4 803 804 820 819 
4 804 805 821 820 
4 805 806 822 821 
4 806 807 823 822 
4 807 808 824 823 
4 808 809 825 824 
4 809 810 826 825 
4 810 811 827 826 
4 811 812 828 827 
4 812 813 829 828 
4 813 814 830 829 
4 814 815 831 830 
4 815 801 817 831 
4 817 816 832 833 
4 816 818 834 832 
4 818 819 835 834 
4 819 820 836 835 
4 820 821 837 836 
4 821 822 838 837 
4 822 823 839 838 
4 823 824 840 839 
4 824 825 841 840 
4 825 826 842 841 
4 826 827 843 842 
4 827 828 844 843 
4 828 829 845 844 
4 829 830 846 845 
4 830 831 847 846 
4 831 817 833 847 
4 833 832 848 849 
4 832 834 850 848 
4 834 835 851 850 
4 835 836 852 851 
4 836 837 853 852 
4 837 838 854 853 
4 838 839 855 854 
4 839 840 856 855 
4 840 841 857 856 
4 841 842 858 857 
4 842 843 859 858 
4 843 844 860 859 
4 844 845 861 860 
4 845 846 862 861 
4 846 847 863 862 
4 847 833 849 863 
4 849 848 864 865 
4 848 850 866 864 
4 850 851 867 866 
4 851 852 868 867 
4 852 853 869 868 
4 853 854 870 869 
4 854 855 871 870 
4 855 856 872 871 
4 856 857 873 872 
4 857 858 874 873 
4 858 859 875 874 
4 859 860 876 875 
4 860 861 877 876 
4 861 862 878 877 
4 862 863 879 878 
4 863 849 865 879 
3 867 873 866 
3 870 871 869 
4 878 879 876 877 
4 879 865 875 876 
4 865 864 874 875 
4 864 866 873 874 
4 867 868 872 873 
4 868 869 871 872 
4 880 881 882 883 
4 884 885 886 887 
4 888 889 890 891 
4 892 893 894 895 
4 896 897 898 899 
4 900 901 902 903 
4 904 905 906 907 
4 908 909 910 911 
4 912 913 914 915 
4 916 917 918 919 
4 920 921 922 923 
4 924 925 926 927 
4 928 929 930 931 
4 932 933 934 935 
4 936 937 938 939 
4 937 916 919 938 
4 940 941 942 943 
4 944 945 946 947 
4 925 948 949 926 
4 948 950 951 949 
