ply
format ascii 1.0
Created by Blender3D 246 - www.blender.org, source file: Low_table2.blend
element vertex 704
property float x
property float y
property float z
element face 678
property list uchar uint vertex_indices
end_header
0.733142 0.452676 0.487284 
-0.704045 0.452676 0.487284 
-0.704045 -0.392720 0.487284 
0.733142 -0.392720 0.487284 
-0.704045 -0.392720 0.487284 
-0.704045 0.452676 0.487284 
-0.704045 0.452676 0.480250 
-0.704045 -0.392720 0.480250 
-0.704045 0.452676 0.487284 
0.733142 0.452676 0.487284 
0.733142 0.452676 0.480250 
-0.704045 0.452676 0.480250 
0.733142 0.452676 0.487284 
0.733142 -0.392720 0.487284 
0.733142 -0.392720 0.480250 
0.733142 0.452676 0.480250 
0.733142 -0.392720 0.487284 
-0.704045 -0.392720 0.487284 
-0.704045 -0.392720 0.480250 
0.733142 -0.392720 0.480250 
-0.704045 -0.392720 0.480250 
-0.704045 0.452676 0.480250 
0.733142 0.452676 0.480250 
0.733142 -0.392720 0.480250 
-0.638290 0.378890 0.480210 
-0.607881 0.409299 0.480210 
-0.616788 0.416133 0.480210 
-0.627159 0.420429 0.480210 
-0.638290 0.421894 0.480210 
-0.649420 0.420429 0.480210 
-0.659792 0.416133 0.480210 
-0.668698 0.409299 0.480210 
-0.675533 0.400393 0.480210 
-0.679829 0.390021 0.480210 
-0.681294 0.378890 0.480210 
-0.679829 0.367760 0.480210 
-0.675533 0.357388 0.480210 
-0.668699 0.348482 0.480210 
-0.659792 0.341648 0.480210 
-0.649420 0.337351 0.480210 
-0.638290 0.335886 0.480210 
-0.627160 0.337351 0.480210 
-0.616788 0.341648 0.480210 
-0.607881 0.348482 0.480210 
-0.601047 0.357388 0.480210 
-0.596751 0.367760 0.480210 
-0.595286 0.378890 0.480210 
-0.596751 0.390021 0.480210 
-0.601047 0.400392 0.480210 
-0.607881 0.409299 0.467852 
-0.616788 0.416133 0.467852 
-0.627159 0.420429 0.467852 
-0.638290 0.421894 0.467852 
-0.649420 0.420429 0.467852 
-0.659792 0.416133 0.467852 
-0.668698 0.409299 0.467852 
-0.675533 0.400393 0.467852 
-0.679829 0.390021 0.467852 
-0.681294 0.378890 0.467852 
-0.679829 0.367760 0.467852 
-0.675533 0.357388 0.467852 
-0.668699 0.348482 0.467852 
-0.659792 0.341648 0.467852 
-0.649420 0.337351 0.467852 
-0.638290 0.335886 0.467852 
-0.627160 0.337351 0.467852 
-0.616788 0.341648 0.467852 
-0.607881 0.348482 0.467852 
-0.601047 0.357388 0.467852 
-0.596751 0.367760 0.467852 
-0.595286 0.378890 0.467852 
-0.596751 0.390021 0.467852 
-0.601047 0.400392 0.467852 
-0.624019 0.387130 0.467852 
-0.626638 0.390542 0.467852 
-0.622373 0.383155 0.467852 
-0.621812 0.378890 0.467852 
-0.622373 0.374625 0.467852 
-0.624019 0.370651 0.467852 
-0.626638 0.367238 0.467852 
-0.630051 0.364620 0.467852 
-0.634025 0.362973 0.467852 
-0.638290 0.362412 0.467852 
-0.642555 0.362973 0.467852 
-0.646529 0.364620 0.467852 
-0.649942 0.367238 0.467852 
-0.652561 0.370651 0.467852 
-0.654207 0.374625 0.467852 
-0.654768 0.378890 0.467852 
-0.654207 0.383155 0.467852 
-0.652561 0.387130 0.467852 
-0.649942 0.390542 0.467852 
-0.646529 0.393161 0.467852 
-0.642555 0.394807 0.467852 
-0.638290 0.395369 0.467852 
-0.634025 0.394807 0.467852 
-0.630051 0.393161 0.467852 
-0.626638 0.390542 0.457965 
-0.630051 0.393161 0.457965 
-0.634025 0.394807 0.457965 
-0.638290 0.395369 0.457965 
-0.642555 0.394807 0.457965 
-0.646529 0.393161 0.457965 
-0.649942 0.390542 0.457965 
-0.652561 0.387130 0.457965 
-0.654207 0.383155 0.457965 
-0.654768 0.378890 0.457965 
-0.654207 0.374625 0.457965 
-0.652561 0.370651 0.457965 
-0.649942 0.367238 0.457965 
-0.646529 0.364620 0.457965 
-0.642555 0.362973 0.457965 
-0.638290 0.362412 0.457965 
-0.634025 0.362973 0.457965 
-0.630051 0.364620 0.457965 
-0.626638 0.367238 0.457965 
-0.624019 0.370651 0.457965 
-0.622373 0.374625 0.457965 
-0.621812 0.378890 0.457965 
-0.622373 0.383155 0.457965 
-0.624019 0.387130 0.457965 
-0.638290 0.378890 0.022037 
-0.589368 0.427811 0.022037 
-0.578374 0.413482 0.022037 
-0.571462 0.396796 0.022037 
-0.569105 0.378890 0.022037 
-0.571462 0.360983 0.022037 
-0.578374 0.344297 0.022037 
-0.589368 0.329968 0.022037 
-0.603697 0.318973 0.022037 
-0.620383 0.312062 0.022037 
-0.638290 0.309704 0.022037 
-0.656196 0.312062 0.022037 
-0.672883 0.318973 0.022037 
-0.687211 0.329968 0.022037 
-0.698206 0.344297 0.022037 
-0.705118 0.360983 0.022037 
-0.707475 0.378890 0.022037 
-0.705118 0.396796 0.022037 
-0.698206 0.413482 0.022037 
-0.687212 0.427811 0.022037 
-0.672883 0.438806 0.022037 
-0.656196 0.445718 0.022037 
-0.638290 0.448075 0.022037 
-0.620384 0.445718 0.022037 
-0.603697 0.438806 0.022037 
-0.589368 0.427811 0.457965 
-0.578374 0.413483 0.457965 
-0.571462 0.396796 0.457965 
-0.569105 0.378890 0.457965 
-0.571462 0.360983 0.457965 
-0.578374 0.344297 0.457965 
-0.589368 0.329968 0.457965 
-0.603697 0.318973 0.457965 
-0.620384 0.312062 0.457965 
-0.638290 0.309704 0.457965 
-0.656197 0.312062 0.457965 
-0.672883 0.318973 0.457965 
-0.687212 0.329968 0.457965 
-0.698206 0.344297 0.457965 
-0.705118 0.360983 0.457965 
-0.707475 0.378890 0.457965 
-0.705118 0.396797 0.457965 
-0.698206 0.413483 0.457965 
-0.687211 0.427812 0.457965 
-0.672882 0.438806 0.457965 
-0.656196 0.445718 0.457965 
-0.638290 0.448075 0.457965 
-0.620383 0.445718 0.457965 
-0.603697 0.438806 0.457965 
-0.630051 0.393160 0.457965 
-0.626638 0.390542 0.457965 
-0.634025 0.394807 0.457965 
-0.638290 0.395368 0.457965 
-0.642555 0.394807 0.457965 
-0.646529 0.393161 0.457965 
-0.649942 0.390542 0.457965 
-0.652561 0.387129 0.457965 
-0.654207 0.383155 0.457965 
-0.654768 0.378890 0.457965 
-0.654207 0.374625 0.457965 
-0.652561 0.370651 0.457965 
-0.649942 0.367238 0.457965 
-0.646529 0.364619 0.457965 
-0.642555 0.362973 0.457965 
-0.638290 0.362411 0.457965 
-0.634025 0.362973 0.457965 
-0.630051 0.364619 0.457965 
-0.626638 0.367238 0.457965 
-0.624019 0.370651 0.457965 
-0.622373 0.374625 0.457965 
-0.621812 0.378890 0.457965 
-0.622373 0.383155 0.457965 
-0.624019 0.387129 0.457965 
-0.638290 -0.321110 0.480210 
-0.607881 -0.290701 0.480210 
-0.616788 -0.283867 0.480210 
-0.627159 -0.279571 0.480210 
-0.638290 -0.278105 0.480210 
-0.649420 -0.279571 0.480210 
-0.659792 -0.283867 0.480210 
-0.668698 -0.290701 0.480210 
-0.675533 -0.299607 0.480210 
-0.679829 -0.309979 0.480210 
-0.681294 -0.321109 0.480210 
-0.679829 -0.332240 0.480210 
-0.675533 -0.342611 0.480210 
-0.668699 -0.351518 0.480210 
-0.659792 -0.358352 0.480210 
-0.649420 -0.362648 0.480210 
-0.638290 -0.364114 0.480210 
-0.627160 -0.362648 0.480210 
-0.616788 -0.358352 0.480210 
-0.607881 -0.351518 0.480210 
-0.601047 -0.342612 0.480210 
-0.596751 -0.332240 0.480210 
-0.595286 -0.321109 0.480210 
-0.596751 -0.309979 0.480210 
-0.601047 -0.299607 0.480210 
-0.607881 -0.290701 0.467852 
-0.616788 -0.283867 0.467852 
-0.627159 -0.279571 0.467852 
-0.638290 -0.278105 0.467852 
-0.649420 -0.279571 0.467852 
-0.659792 -0.283867 0.467852 
-0.668698 -0.290701 0.467852 
-0.675533 -0.299607 0.467852 
-0.679829 -0.309979 0.467852 
-0.681294 -0.321109 0.467852 
-0.679829 -0.332240 0.467852 
-0.675533 -0.342611 0.467852 
-0.668699 -0.351518 0.467852 
-0.659792 -0.358352 0.467852 
-0.649420 -0.362648 0.467852 
-0.638290 -0.364114 0.467852 
-0.627160 -0.362648 0.467852 
-0.616788 -0.358352 0.467852 
-0.607881 -0.351518 0.467852 
-0.601047 -0.342612 0.467852 
-0.596751 -0.332240 0.467852 
-0.595286 -0.321109 0.467852 
-0.596751 -0.309979 0.467852 
-0.601047 -0.299607 0.467852 
-0.624019 -0.312870 0.467852 
-0.626638 -0.309457 0.467852 
-0.622373 -0.316845 0.467852 
-0.621812 -0.321109 0.467852 
-0.622373 -0.325374 0.467852 
-0.624019 -0.329349 0.467852 
-0.626638 -0.332761 0.467852 
-0.630051 -0.335380 0.467852 
-0.634025 -0.337026 0.467852 
-0.638290 -0.337588 0.467852 
-0.642555 -0.337026 0.467852 
-0.646529 -0.335380 0.467852 
-0.649942 -0.332761 0.467852 
-0.652561 -0.329349 0.467852 
-0.654207 -0.325374 0.467852 
-0.654768 -0.321109 0.467852 
-0.654207 -0.316844 0.467852 
-0.652561 -0.312870 0.467852 
-0.649942 -0.309457 0.467852 
-0.646529 -0.306839 0.467852 
-0.642555 -0.305193 0.467852 
-0.638290 -0.304631 0.467852 
-0.634025 -0.305193 0.467852 
-0.630051 -0.306839 0.467852 
-0.626638 -0.309457 0.457965 
-0.630051 -0.306839 0.457965 
-0.634025 -0.305193 0.457965 
-0.638290 -0.304631 0.457965 
-0.642555 -0.305193 0.457965 
-0.646529 -0.306839 0.457965 
-0.649942 -0.309457 0.457965 
-0.652561 -0.312870 0.457965 
-0.654207 -0.316844 0.457965 
-0.654768 -0.321109 0.457965 
-0.654207 -0.325374 0.457965 
-0.652561 -0.329349 0.457965 
-0.649942 -0.332761 0.457965 
-0.646529 -0.335380 0.457965 
-0.642555 -0.337026 0.457965 
-0.638290 -0.337588 0.457965 
-0.634025 -0.337026 0.457965 
-0.630051 -0.335380 0.457965 
-0.626638 -0.332761 0.457965 
-0.624019 -0.329349 0.457965 
-0.622373 -0.325374 0.457965 
-0.621812 -0.321109 0.457965 
-0.622373 -0.316845 0.457965 
-0.624019 -0.312870 0.457965 
-0.638290 -0.321110 0.022037 
-0.589368 -0.272189 0.022037 
-0.578374 -0.286517 0.022037 
-0.571462 -0.303203 0.022037 
-0.569105 -0.321110 0.022037 
-0.571462 -0.339017 0.022037 
-0.578374 -0.355703 0.022037 
-0.589368 -0.370032 0.022037 
-0.603697 -0.381026 0.022037 
-0.620383 -0.387938 0.022037 
-0.638290 -0.390295 0.022037 
-0.656196 -0.387938 0.022037 
-0.672883 -0.381026 0.022037 
-0.687211 -0.370032 0.022037 
-0.698206 -0.355703 0.022037 
-0.705118 -0.339017 0.022037 
-0.707475 -0.321110 0.022037 
-0.705118 -0.303204 0.022037 
-0.698206 -0.286517 0.022037 
-0.687212 -0.272189 0.022037 
-0.672883 -0.261194 0.022037 
-0.656196 -0.254282 0.022037 
-0.638290 -0.251925 0.022037 
-0.620384 -0.254282 0.022037 
-0.603697 -0.261194 0.022037 
-0.589368 -0.272188 0.457965 
-0.578374 -0.286517 0.457965 
-0.571462 -0.303203 0.457965 
-0.569105 -0.321110 0.457965 
-0.571462 -0.339016 0.457965 
-0.578374 -0.355703 0.457965 
-0.589368 -0.370032 0.457965 
-0.603697 -0.381026 0.457965 
-0.620384 -0.387938 0.457965 
-0.638290 -0.390295 0.457965 
-0.656197 -0.387938 0.457965 
-0.672883 -0.381026 0.457965 
-0.687212 -0.370031 0.457965 
-0.698206 -0.355703 0.457965 
-0.705118 -0.339016 0.457965 
-0.707475 -0.321110 0.457965 
-0.705118 -0.303203 0.457965 
-0.698206 -0.286517 0.457965 
-0.687211 -0.272188 0.457965 
-0.672882 -0.261193 0.457965 
-0.656196 -0.254282 0.457965 
-0.638290 -0.251925 0.457965 
-0.620383 -0.254282 0.457965 
-0.603697 -0.261194 0.457965 
-0.630051 -0.306839 0.457965 
-0.626638 -0.309458 0.457965 
-0.634025 -0.305193 0.457965 
-0.638290 -0.304632 0.457965 
-0.642555 -0.305193 0.457965 
-0.646529 -0.306839 0.457965 
-0.649942 -0.309458 0.457965 
-0.652561 -0.312871 0.457965 
-0.654207 -0.316845 0.457965 
-0.654768 -0.321110 0.457965 
-0.654207 -0.325375 0.457965 
-0.652561 -0.329349 0.457965 
-0.649942 -0.332762 0.457965 
-0.646529 -0.335381 0.457965 
-0.642555 -0.337027 0.457965 
-0.638290 -0.337588 0.457965 
-0.634025 -0.337027 0.457965 
-0.630051 -0.335381 0.457965 
-0.626638 -0.332762 0.457965 
-0.624019 -0.329349 0.457965 
-0.622373 -0.325375 0.457965 
-0.621812 -0.321110 0.457965 
-0.622373 -0.316845 0.457965 
-0.624019 -0.312871 0.457965 
0.661710 -0.321109 0.480210 
0.692119 -0.290700 0.480210 
0.683213 -0.283866 0.480210 
0.672841 -0.279570 0.480210 
0.661710 -0.278105 0.480210 
0.650580 -0.279570 0.480210 
0.640208 -0.283866 0.480210 
0.631302 -0.290700 0.480210 
0.624467 -0.299607 0.480210 
0.620171 -0.309979 0.480210 
0.618706 -0.321109 0.480210 
0.620171 -0.332239 0.480210 
0.624467 -0.342611 0.480210 
0.631302 -0.351518 0.480210 
0.640208 -0.358352 0.480210 
0.650580 -0.362648 0.480210 
0.661710 -0.364113 0.480210 
0.672840 -0.362648 0.480210 
0.683212 -0.358352 0.480210 
0.692119 -0.351518 0.480210 
0.698953 -0.342611 0.480210 
0.703249 -0.332239 0.480210 
0.704714 -0.321109 0.480210 
0.703249 -0.309979 0.480210 
0.698953 -0.299607 0.480210 
0.692119 -0.290700 0.467852 
0.683213 -0.283866 0.467852 
0.672841 -0.279570 0.467852 
0.661710 -0.278105 0.467852 
0.650580 -0.279570 0.467852 
0.640208 -0.283866 0.467852 
0.631302 -0.290700 0.467852 
0.624467 -0.299607 0.467852 
0.620171 -0.309979 0.467852 
0.618706 -0.321109 0.467852 
0.620171 -0.332239 0.467852 
0.624467 -0.342611 0.467852 
0.631302 -0.351518 0.467852 
0.640208 -0.358352 0.467852 
0.650580 -0.362648 0.467852 
0.661710 -0.364113 0.467852 
0.672840 -0.362648 0.467852 
0.683212 -0.358352 0.467852 
0.692119 -0.351518 0.467852 
0.698953 -0.342611 0.467852 
0.703249 -0.332239 0.467852 
0.704714 -0.321109 0.467852 
0.703249 -0.309979 0.467852 
0.698953 -0.299607 0.467852 
0.675981 -0.312870 0.467852 
0.673362 -0.309457 0.467852 
0.677627 -0.316844 0.467852 
0.678189 -0.321109 0.467852 
0.677627 -0.325374 0.467852 
0.675981 -0.329348 0.467852 
0.673362 -0.332761 0.467852 
0.669949 -0.335380 0.467852 
0.665975 -0.337026 0.467852 
0.661710 -0.337587 0.467852 
0.657445 -0.337026 0.467852 
0.653471 -0.335380 0.467852 
0.650058 -0.332761 0.467852 
0.647439 -0.329348 0.467852 
0.645793 -0.325374 0.467852 
0.645232 -0.321109 0.467852 
0.645793 -0.316844 0.467852 
0.647439 -0.312870 0.467852 
0.650058 -0.309457 0.467852 
0.653471 -0.306838 0.467852 
0.657445 -0.305192 0.467852 
0.661710 -0.304631 0.467852 
0.665975 -0.305192 0.467852 
0.669949 -0.306838 0.467852 
0.673362 -0.309457 0.457965 
0.669949 -0.306838 0.457965 
0.665975 -0.305192 0.457965 
0.661710 -0.304631 0.457965 
0.657445 -0.305192 0.457965 
0.653471 -0.306838 0.457965 
0.650058 -0.309457 0.457965 
0.647439 -0.312870 0.457965 
0.645793 -0.316844 0.457965 
0.645232 -0.321109 0.457965 
0.645793 -0.325374 0.457965 
0.647439 -0.329348 0.457965 
0.650058 -0.332761 0.457965 
0.653471 -0.335380 0.457965 
0.657445 -0.337026 0.457965 
0.661710 -0.337587 0.457965 
0.665975 -0.337026 0.457965 
0.669949 -0.335380 0.457965 
0.673362 -0.332761 0.457965 
0.675981 -0.329348 0.457965 
0.677627 -0.325374 0.457965 
0.678189 -0.321109 0.457965 
0.677627 -0.316844 0.457965 
0.675981 -0.312870 0.457965 
0.661710 -0.321110 0.022037 
0.710632 -0.272188 0.022037 
0.721626 -0.286517 0.022037 
0.728538 -0.303203 0.022037 
0.730896 -0.321110 0.022037 
0.728538 -0.339016 0.022037 
0.721626 -0.355702 0.022037 
0.710632 -0.370031 0.022037 
0.696303 -0.381026 0.022037 
0.679617 -0.387938 0.022037 
0.661710 -0.390295 0.022037 
0.643804 -0.387938 0.022037 
0.627117 -0.381026 0.022037 
0.612789 -0.370031 0.022037 
0.601794 -0.355702 0.022037 
0.594882 -0.339016 0.022037 
0.592525 -0.321110 0.022037 
0.594882 -0.303203 0.022037 
0.601794 -0.286517 0.022037 
0.612789 -0.272188 0.022037 
0.627117 -0.261193 0.022037 
0.643804 -0.254281 0.022037 
0.661710 -0.251924 0.022037 
0.679617 -0.254281 0.022037 
0.696303 -0.261193 0.022037 
0.710632 -0.272188 0.457965 
0.721626 -0.286517 0.457965 
0.728538 -0.303203 0.457965 
0.730896 -0.321109 0.457965 
0.728538 -0.339016 0.457965 
0.721626 -0.355702 0.457965 
0.710632 -0.370031 0.457965 
0.696303 -0.381026 0.457965 
0.679617 -0.387938 0.457965 
0.661710 -0.390295 0.457965 
0.643804 -0.387938 0.457965 
0.627117 -0.381026 0.457965 
0.612788 -0.370031 0.457965 
0.601794 -0.355702 0.457965 
0.594882 -0.339016 0.457965 
0.592525 -0.321109 0.457965 
0.594882 -0.303203 0.457965 
0.601794 -0.286517 0.457965 
0.612789 -0.272188 0.457965 
0.627118 -0.261193 0.457965 
0.643804 -0.254281 0.457965 
0.661711 -0.251924 0.457965 
0.679617 -0.254282 0.457965 
0.696303 -0.261193 0.457965 
0.669949 -0.306839 0.457965 
0.673362 -0.309457 0.457965 
0.665975 -0.305193 0.457965 
0.661710 -0.304631 0.457965 
0.657445 -0.305193 0.457965 
0.653471 -0.306839 0.457965 
0.650058 -0.309457 0.457965 
0.647439 -0.312870 0.457965 
0.645793 -0.316844 0.457965 
0.645232 -0.321109 0.457965 
0.645793 -0.325374 0.457965 
0.647439 -0.329349 0.457965 
0.650058 -0.332761 0.457965 
0.653471 -0.335380 0.457965 
0.657445 -0.337026 0.457965 
0.661710 -0.337588 0.457965 
0.665975 -0.337026 0.457965 
0.669949 -0.335380 0.457965 
0.673362 -0.332761 0.457965 
0.675981 -0.329349 0.457965 
0.677627 -0.325374 0.457965 
0.678189 -0.321109 0.457965 
0.677627 -0.316845 0.457965 
0.675981 -0.312870 0.457965 
0.661710 0.378890 0.480210 
0.692119 0.409299 0.480210 
0.683213 0.416133 0.480210 
0.672841 0.420429 0.480210 
0.661710 0.421894 0.480210 
0.650580 0.420429 0.480210 
0.640208 0.416133 0.480210 
0.631302 0.409299 0.480210 
0.624467 0.400393 0.480210 
0.620171 0.390021 0.480210 
0.618706 0.378890 0.480210 
0.620171 0.367760 0.480210 
0.624467 0.357388 0.480210 
0.631302 0.348482 0.480210 
0.640208 0.341648 0.480210 
0.650580 0.337351 0.480210 
0.661710 0.335886 0.480210 
0.672840 0.337351 0.480210 
0.683212 0.341648 0.480210 
0.692119 0.348482 0.480210 
0.698953 0.357388 0.480210 
0.703249 0.367760 0.480210 
0.704714 0.378890 0.480210 
0.703249 0.390021 0.480210 
0.698953 0.400392 0.480210 
0.692119 0.409299 0.467852 
0.683213 0.416133 0.467852 
0.672841 0.420429 0.467852 
0.661710 0.421894 0.467852 
0.650580 0.420429 0.467852 
0.640208 0.416133 0.467852 
0.631302 0.409299 0.467852 
0.624467 0.400393 0.467852 
0.620171 0.390021 0.467852 
0.618706 0.378890 0.467852 
0.620171 0.367760 0.467852 
0.624467 0.357388 0.467852 
0.631302 0.348482 0.467852 
0.640208 0.341648 0.467852 
0.650580 0.337351 0.467852 
0.661710 0.335886 0.467852 
0.672840 0.337351 0.467852 
0.683212 0.341648 0.467852 
0.692119 0.348482 0.467852 
0.698953 0.357388 0.467852 
0.703249 0.367760 0.467852 
0.704714 0.378890 0.467852 
0.703249 0.390021 0.467852 
0.698953 0.400392 0.467852 
0.675981 0.387130 0.467852 
0.673362 0.390542 0.467852 
0.677627 0.383155 0.467852 
0.678189 0.378890 0.467852 
0.677627 0.374625 0.467852 
0.675981 0.370651 0.467852 
0.673362 0.367238 0.467852 
0.669949 0.364620 0.467852 
0.665975 0.362973 0.467852 
0.661710 0.362412 0.467852 
0.657445 0.362973 0.467852 
0.653471 0.364620 0.467852 
0.650058 0.367238 0.467852 
0.647439 0.370651 0.467852 
0.645793 0.374625 0.467852 
0.645232 0.378890 0.467852 
0.645793 0.383155 0.467852 
0.647439 0.387130 0.467852 
0.650058 0.390542 0.467852 
0.653471 0.393161 0.467852 
0.657445 0.394807 0.467852 
0.661710 0.395369 0.467852 
0.665975 0.394807 0.467852 
0.669949 0.393161 0.467852 
0.673362 0.390542 0.457965 
0.669949 0.393161 0.457965 
0.665975 0.394807 0.457965 
0.661710 0.395369 0.457965 
0.657445 0.394807 0.457965 
0.653471 0.393161 0.457965 
0.650058 0.390542 0.457965 
0.647439 0.387130 0.457965 
0.645793 0.383155 0.457965 
0.645232 0.378890 0.457965 
0.645793 0.374625 0.457965 
0.647439 0.370651 0.457965 
0.650058 0.367238 0.457965 
0.653471 0.364620 0.457965 
0.657445 0.362973 0.457965 
0.661710 0.362412 0.457965 
0.665975 0.362973 0.457965 
0.669949 0.364620 0.457965 
0.673362 0.367238 0.457965 
0.675981 0.370651 0.457965 
0.677627 0.374625 0.457965 
0.678189 0.378890 0.457965 
0.677627 0.383155 0.457965 
0.675981 0.387130 0.457965 
0.661710 0.378890 0.022037 
0.710632 0.427811 0.022037 
0.721626 0.413482 0.022037 
0.728538 0.396796 0.022037 
0.730896 0.378890 0.022037 
0.728538 0.360983 0.022037 
0.721626 0.344297 0.022037 
0.710632 0.329968 0.022037 
0.696303 0.318973 0.022037 
0.679617 0.312062 0.022037 
0.661710 0.309704 0.022037 
0.643804 0.312062 0.022037 
0.627117 0.318973 0.022037 
0.612789 0.329968 0.022037 
0.601794 0.344297 0.022037 
0.594882 0.360983 0.022037 
0.592525 0.378890 0.022037 
0.594882 0.396796 0.022037 
0.601794 0.413482 0.022037 
0.612789 0.427811 0.022037 
0.627117 0.438806 0.022037 
0.643804 0.445718 0.022037 
0.661710 0.448075 0.022037 
0.679617 0.445718 0.022037 
0.696303 0.438806 0.022037 
0.710632 0.427811 0.457965 
0.721626 0.413483 0.457965 
0.728538 0.396796 0.457965 
0.730896 0.378890 0.457965 
0.728538 0.360983 0.457965 
0.721626 0.344297 0.457965 
0.710632 0.329968 0.457965 
0.696303 0.318973 0.457965 
0.679617 0.312062 0.457965 
0.661710 0.309704 0.457965 
0.643804 0.312062 0.457965 
0.627117 0.318973 0.457965 
0.612788 0.329968 0.457965 
0.601794 0.344297 0.457965 
0.594882 0.360983 0.457965 
0.592525 0.378890 0.457965 
0.594882 0.396797 0.457965 
0.601794 0.413483 0.457965 
0.612789 0.427812 0.457965 
0.627118 0.438806 0.457965 
0.643804 0.445718 0.457965 
0.661711 0.448075 0.457965 
0.679617 0.445718 0.457965 
0.696303 0.438806 0.457965 
0.669949 0.393160 0.457965 
0.673362 0.390542 0.457965 
0.665975 0.394807 0.457965 
0.661710 0.395368 0.457965 
0.657445 0.394807 0.457965 
0.653471 0.393161 0.457965 
0.650058 0.390542 0.457965 
0.647439 0.387129 0.457965 
0.645793 0.383155 0.457965 
0.645232 0.378890 0.457965 
0.645793 0.374625 0.457965 
0.647439 0.370651 0.457965 
0.650058 0.367238 0.457965 
0.653471 0.364619 0.457965 
0.657445 0.362973 0.457965 
0.661710 0.362411 0.457965 
0.665975 0.362973 0.457965 
0.669949 0.364619 0.457965 
0.673362 0.367238 0.457965 
0.675981 0.370651 0.457965 
0.677627 0.374625 0.457965 
0.678189 0.378890 0.457965 
0.677627 0.383155 0.457965 
0.675981 0.387129 0.457965 
4 0 1 2 3 
4 4 5 6 7 
4 8 9 10 11 
4 12 13 14 15 
4 16 17 18 19 
4 20 21 22 23 
3 24 25 26 
3 24 26 27 
3 24 27 28 
3 24 28 29 
3 24 29 30 
3 24 30 31 
3 24 31 32 
3 24 32 33 
3 24 33 34 
3 24 34 35 
3 24 35 36 
3 24 36 37 
3 24 37 38 
3 24 38 39 
3 24 39 40 
3 24 40 41 
3 24 41 42 
3 24 42 43 
3 24 43 44 
3 24 44 45 
3 24 45 46 
3 24 46 47 
3 24 47 48 
3 24 48 25 
4 49 50 26 25 
4 50 51 27 26 
4 51 52 28 27 
4 52 53 29 28 
4 53 54 30 29 
4 54 55 31 30 
4 55 56 32 31 
4 56 57 33 32 
4 57 58 34 33 
4 58 59 35 34 
4 59 60 36 35 
4 60 61 37 36 
4 61 62 38 37 
4 62 63 39 38 
4 63 64 40 39 
4 64 65 41 40 
4 65 66 42 41 
4 66 67 43 42 
4 67 68 44 43 
4 68 69 45 44 
4 69 70 46 45 
4 70 71 47 46 
4 71 72 48 47 
4 72 49 25 48 
4 73 74 49 72 
4 75 73 72 71 
4 76 75 71 70 
4 77 76 70 69 
4 78 77 69 68 
4 79 78 68 67 
4 80 79 67 66 
4 81 80 66 65 
4 82 81 65 64 
4 83 82 64 63 
4 84 83 63 62 
4 85 84 62 61 
4 86 85 61 60 
4 87 86 60 59 
4 88 87 59 58 
4 89 88 58 57 
4 90 89 57 56 
4 91 90 56 55 
4 92 91 55 54 
4 93 92 54 53 
4 94 93 53 52 
4 95 94 52 51 
4 96 95 51 50 
4 74 96 50 49 
4 97 98 96 74 
4 98 99 95 96 
4 99 100 94 95 
4 100 101 93 94 
4 101 102 92 93 
4 102 103 91 92 
4 103 104 90 91 
4 104 105 89 90 
4 105 106 88 89 
4 106 107 87 88 
4 107 108 86 87 
4 108 109 85 86 
4 109 110 84 85 
4 110 111 83 84 
4 111 112 82 83 
4 112 113 81 82 
4 113 114 80 81 
4 114 115 79 80 
4 115 116 78 79 
4 116 117 77 78 
4 117 118 76 77 
4 118 119 75 76 
4 119 120 73 75 
4 120 97 74 73 
3 121 122 123 
3 121 123 124 
3 121 124 125 
3 121 125 126 
3 121 126 127 
3 121 127 128 
3 121 128 129 
3 121 129 130 
3 121 130 131 
3 121 131 132 
3 121 132 133 
3 121 133 134 
3 121 134 135 
3 121 135 136 
3 121 136 137 
3 121 137 138 
3 121 138 139 
3 121 139 140 
3 121 140 141 
3 121 141 142 
3 121 142 143 
3 121 143 144 
3 121 144 145 
3 145 122 121 
4 122 146 147 123 
4 123 147 148 124 
4 124 148 149 125 
4 125 149 150 126 
4 126 150 151 127 
4 127 151 152 128 
4 128 152 153 129 
4 129 153 154 130 
4 130 154 155 131 
4 131 155 156 132 
4 132 156 157 133 
4 133 157 158 134 
4 134 158 159 135 
4 135 159 160 136 
4 136 160 161 137 
4 137 161 162 138 
4 138 162 163 139 
4 139 163 164 140 
4 140 164 165 141 
4 141 165 166 142 
4 142 166 167 143 
4 143 167 168 144 
4 144 168 169 145 
4 146 122 145 169 
4 146 169 170 171 
4 169 168 172 170 
4 168 167 173 172 
4 167 166 174 173 
4 166 165 175 174 
4 165 164 176 175 
4 164 163 177 176 
4 163 162 178 177 
4 162 161 179 178 
4 161 160 180 179 
4 160 159 181 180 
4 159 158 182 181 
4 158 157 183 182 
4 157 156 184 183 
4 156 155 185 184 
4 155 154 186 185 
4 154 153 187 186 
4 153 152 188 187 
4 152 151 189 188 
4 151 150 190 189 
4 150 149 191 190 
4 149 148 192 191 
4 148 147 193 192 
4 147 146 171 193 
3 194 195 196 
3 194 196 197 
3 194 197 198 
3 194 198 199 
3 194 199 200 
3 194 200 201 
3 194 201 202 
3 194 202 203 
3 194 203 204 
3 194 204 205 
3 194 205 206 
3 194 206 207 
3 194 207 208 
3 194 208 209 
3 194 209 210 
3 194 210 211 
3 194 211 212 
3 194 212 213 
3 194 213 214 
3 194 214 215 
3 194 215 216 
3 194 216 217 
3 194 217 218 
3 194 218 195 
4 219 220 196 195 
4 220 221 197 196 
4 221 222 198 197 
4 222 223 199 198 
4 223 224 200 199 
4 224 225 201 200 
4 225 226 202 201 
4 226 227 203 202 
4 227 228 204 203 
4 228 229 205 204 
4 229 230 206 205 
4 230 231 207 206 
4 231 232 208 207 
4 232 233 209 208 
4 233 234 210 209 
4 234 235 211 210 
4 235 236 212 211 
4 236 237 213 212 
4 237 238 214 213 
4 238 239 215 214 
4 239 240 216 215 
4 240 241 217 216 
4 241 242 218 217 
4 242 219 195 218 
4 243 244 219 242 
4 245 243 242 241 
4 246 245 241 240 
4 247 246 240 239 
4 248 247 239 238 
4 249 248 238 237 
4 250 249 237 236 
4 251 250 236 235 
4 252 251 235 234 
4 253 252 234 233 
4 254 253 233 232 
4 255 254 232 231 
4 256 255 231 230 
4 257 256 230 229 
4 258 257 229 228 
4 259 258 228 227 
4 260 259 227 226 
4 261 260 226 225 
4 262 261 225 224 
4 263 262 224 223 
4 264 263 223 222 
4 265 264 222 221 
4 266 265 221 220 
4 244 266 220 219 
4 267 268 266 244 
4 268 269 265 266 
4 269 270 264 265 
4 270 271 263 264 
4 271 272 262 263 
4 272 273 261 262 
4 273 274 260 261 
4 274 275 259 260 
4 275 276 258 259 
4 276 277 257 258 
4 277 278 256 257 
4 278 279 255 256 
4 279 280 254 255 
4 280 281 253 254 
4 281 282 252 253 
4 282 283 251 252 
4 283 284 250 251 
4 284 285 249 250 
4 285 286 248 249 
4 286 287 247 248 
4 287 288 246 247 
4 288 289 245 246 
4 289 290 243 245 
4 290 267 244 243 
3 291 292 293 
3 291 293 294 
3 291 294 295 
3 291 295 296 
3 291 296 297 
3 291 297 298 
3 291 298 299 
3 291 299 300 
3 291 300 301 
3 291 301 302 
3 291 302 303 
3 291 303 304 
3 291 304 305 
3 291 305 306 
3 291 306 307 
3 291 307 308 
3 291 308 309 
3 291 309 310 
3 291 310 311 
3 291 311 312 
3 291 312 313 
3 291 313 314 
3 291 314 315 
3 315 292 291 
4 292 316 317 293 
4 293 317 318 294 
4 294 318 319 295 
4 295 319 320 296 
4 296 320 321 297 
4 297 321 322 298 
4 298 322 323 299 
4 299 323 324 300 
4 300 324 325 301 
4 301 325 326 302 
4 302 326 327 303 
4 303 327 328 304 
4 304 328 329 305 
4 305 329 330 306 
4 306 330 331 307 
4 307 331 332 308 
4 308 332 333 309 
4 309 333 334 310 
4 310 334 335 311 
4 311 335 336 312 
4 312 336 337 313 
4 313 337 338 314 
4 314 338 339 315 
4 316 292 315 339 
4 316 339 340 341 
4 339 338 342 340 
4 338 337 343 342 
4 337 336 344 343 
4 336 335 345 344 
4 335 334 346 345 
4 334 333 347 346 
4 333 332 348 347 
4 332 331 349 348 
4 331 330 350 349 
4 330 329 351 350 
4 329 328 352 351 
4 328 327 353 352 
4 327 326 354 353 
4 326 325 355 354 
4 325 324 356 355 
4 324 323 357 356 
4 323 322 358 357 
4 322 321 359 358 
4 321 320 360 359 
4 320 319 361 360 
4 319 318 362 361 
4 318 317 363 362 
4 317 316 341 363 
3 364 365 366 
3 364 366 367 
3 364 367 368 
3 364 368 369 
3 364 369 370 
3 364 370 371 
3 364 371 372 
3 364 372 373 
3 364 373 374 
3 364 374 375 
3 364 375 376 
3 364 376 377 
3 364 377 378 
3 364 378 379 
3 364 379 380 
3 364 380 381 
3 364 381 382 
3 364 382 383 
3 364 383 384 
3 364 384 385 
3 364 385 386 
3 364 386 387 
3 364 387 388 
3 364 388 365 
4 389 390 366 365 
4 390 391 367 366 
4 391 392 368 367 
4 392 393 369 368 
4 393 394 370 369 
4 394 395 371 370 
4 395 396 372 371 
4 396 397 373 372 
4 397 398 374 373 
4 398 399 375 374 
4 399 400 376 375 
4 400 401 377 376 
4 401 402 378 377 
4 402 403 379 378 
4 403 404 380 379 
4 404 405 381 380 
4 405 406 382 381 
4 406 407 383 382 
4 407 408 384 383 
4 408 409 385 384 
4 409 410 386 385 
4 410 411 387 386 
4 411 412 388 387 
4 412 389 365 388 
4 413 414 389 412 
4 415 413 412 411 
4 416 415 411 410 
4 417 416 410 409 
4 418 417 409 408 
4 419 418 408 407 
4 420 419 407 406 
4 421 420 406 405 
4 422 421 405 404 
4 423 422 404 403 
4 424 423 403 402 
4 425 424 402 401 
4 426 425 401 400 
4 427 426 400 399 
4 428 427 399 398 
4 429 428 398 397 
4 430 429 397 396 
4 431 430 396 395 
4 432 431 395 394 
4 433 432 394 393 
4 434 433 393 392 
4 435 434 392 391 
4 436 435 391 390 
4 414 436 390 389 
4 437 438 436 414 
4 438 439 435 436 
4 439 440 434 435 
4 440 441 433 434 
4 441 442 432 433 
4 442 443 431 432 
4 443 444 430 431 
4 444 445 429 430 
4 445 446 428 429 
4 446 447 427 428 
4 447 448 426 427 
4 448 449 425 426 
4 449 450 424 425 
4 450 451 423 424 
4 451 452 422 423 
4 452 453 421 422 
4 453 454 420 421 
4 454 455 419 420 
4 455 456 418 419 
4 456 457 417 418 
4 457 458 416 417 
4 458 459 415 416 
4 459 460 413 415 
4 460 437 414 413 
3 461 462 463 
3 461 463 464 
3 461 464 465 
3 461 465 466 
3 461 466 467 
3 461 467 468 
3 461 468 469 
3 461 469 470 
3 461 470 471 
3 461 471 472 
3 461 472 473 
3 461 473 474 
3 461 474 475 
3 461 475 476 
3 461 476 477 
3 461 477 478 
3 461 478 479 
3 461 479 480 
3 461 480 481 
3 461 481 482 
3 461 482 483 
3 461 483 484 
3 461 484 485 
3 485 462 461 
4 462 486 487 463 
4 463 487 488 464 
4 464 488 489 465 
4 465 489 490 466 
4 466 490 491 467 
4 467 491 492 468 
4 468 492 493 469 
4 469 493 494 470 
4 470 494 495 471 
4 471 495 496 472 
4 472 496 497 473 
4 473 497 498 474 
4 474 498 499 475 
4 475 499 500 476 
4 476 500 501 477 
4 477 501 502 478 
4 478 502 503 479 
4 479 503 504 480 
4 480 504 505 481 
4 481 505 506 482 
4 482 506 507 483 
4 483 507 508 484 
4 484 508 509 485 
4 486 462 485 509 
4 486 509 510 511 
4 509 508 512 510 
4 508 507 513 512 
4 507 506 514 513 
4 506 505 515 514 
4 505 504 516 515 
4 504 503 517 516 
4 503 502 518 517 
4 502 501 519 518 
4 501 500 520 519 
4 500 499 521 520 
4 499 498 522 521 
4 498 497 523 522 
4 497 496 524 523 
4 496 495 525 524 
4 495 494 526 525 
4 494 493 527 526 
4 493 492 528 527 
4 492 491 529 528 
4 491 490 530 529 
4 490 489 531 530 
4 489 488 532 531 
4 488 487 533 532 
4 487 486 511 533 
3 534 535 536 
3 534 536 537 
3 534 537 538 
3 534 538 539 
3 534 539 540 
3 534 540 541 
3 534 541 542 
3 534 542 543 
3 534 543 544 
3 534 544 545 
3 534 545 546 
3 534 546 547 
3 534 547 548 
3 534 548 549 
3 534 549 550 
3 534 550 551 
3 534 551 552 
3 534 552 553 
3 534 553 554 
3 534 554 555 
3 534 555 556 
3 534 556 557 
3 534 557 558 
3 534 558 535 
4 559 560 536 535 
4 560 561 537 536 
4 561 562 538 537 
4 562 563 539 538 
4 563 564 540 539 
4 564 565 541 540 
4 565 566 542 541 
4 566 567 543 542 
4 567 568 544 543 
4 568 569 545 544 
4 569 570 546 545 
4 570 571 547 546 
4 571 572 548 547 
4 572 573 549 548 
4 573 574 550 549 
4 574 575 551 550 
4 575 576 552 551 
4 576 577 553 552 
4 577 578 554 553 
4 578 579 555 554 
4 579 580 556 555 
4 580 581 557 556 
4 581 582 558 557 
4 582 559 535 558 
4 583 584 559 582 
4 585 583 582 581 
4 586 585 581 580 
4 587 586 580 579 
4 588 587 579 578 
4 589 588 578 577 
4 590 589 577 576 
4 591 590 576 575 
4 592 591 575 574 
4 593 592 574 573 
4 594 593 573 572 
4 595 594 572 571 
4 596 595 571 570 
4 597 596 570 569 
4 598 597 569 568 
4 599 598 568 567 
4 600 599 567 566 
4 601 600 566 565 
4 602 601 565 564 
4 603 602 564 563 
4 604 603 563 562 
4 605 604 562 561 
4 606 605 561 560 
4 584 606 560 559 
4 607 608 606 584 
4 608 609 605 606 
4 609 610 604 605 
4 610 611 603 604 
4 611 612 602 603 
4 612 613 601 602 
4 613 614 600 601 
4 614 615 599 600 
4 615 616 598 599 
4 616 617 597 598 
4 617 618 596 597 
4 618 619 595 596 
4 619 620 594 595 
4 620 621 593 594 
4 621 622 592 593 
4 622 623 591 592 
4 623 624 590 591 
4 624 625 589 590 
4 625 626 588 589 
4 626 627 587 588 
4 627 628 586 587 
4 628 629 585 586 
4 629 630 583 585 
4 630 607 584 583 
3 631 632 633 
3 631 633 634 
3 631 634 635 
3 631 635 636 
3 631 636 637 
3 631 637 638 
3 631 638 639 
3 631 639 640 
3 631 640 641 
3 631 641 642 
3 631 642 643 
3 631 643 644 
3 631 644 645 
3 631 645 646 
3 631 646 647 
3 631 647 648 
3 631 648 649 
3 631 649 650 
3 631 650 651 
3 631 651 652 
3 631 652 653 
3 631 653 654 
3 631 654 655 
3 655 632 631 
4 632 656 657 633 
4 633 657 658 634 
4 634 658 659 635 
4 635 659 660 636 
4 636 660 661 637 
4 637 661 662 638 
4 638 662 663 639 
4 639 663 664 640 
4 640 664 665 641 
4 641 665 666 642 
4 642 666 667 643 
4 643 667 668 644 
4 644 668 669 645 
4 645 669 670 646 
4 646 670 671 647 
4 647 671 672 648 
4 648 672 673 649 
4 649 673 674 650 
4 650 674 675 651 
4 651 675 676 652 
4 652 676 677 653 
4 653 677 678 654 
4 654 678 679 655 
4 656 632 655 679 
4 656 679 680 681 
4 679 678 682 680 
4 678 677 683 682 
4 677 676 684 683 
4 676 675 685 684 
4 675 674 686 685 
4 674 673 687 686 
4 673 672 688 687 
4 672 671 689 688 
4 671 670 690 689 
4 670 669 691 690 
4 669 668 692 691 
4 668 667 693 692 
4 667 666 694 693 
4 666 665 695 694 
4 665 664 696 695 
4 664 663 697 696 
4 663 662 698 697 
4 662 661 699 698 
4 661 660 700 699 
4 660 659 701 700 
4 659 658 702 701 
4 658 657 703 702 
4 657 656 681 703 
