ply
format ascii 1.0
Created by Blender3D 246 - www.blender.org, source file: banana.blend
element vertex 260
property float x
property float y
property float z
element face 264
property list uchar uint vertex_indices
end_header
-5.030492 -0.286642 -0.000000 
-5.053745 -0.142609 0.145897 
-5.062256 -0.089890 -0.053403 
4.845314 -2.220653 0.000000 
4.855908 -2.218094 -0.002920 
4.853069 -2.218780 0.007979 
-5.039003 -0.233922 -0.199300 
4.848152 -2.219967 -0.010899 
-5.007240 -0.430675 -0.145898 
4.837558 -2.222526 -0.007978 
-4.998729 -0.483394 0.053402 
4.834719 -2.223212 0.002921 
-5.021981 -0.339361 0.199299 
4.842475 -2.221339 0.010899 
-3.302458 1.155285 0.669431 
-2.662808 1.403745 0.691719 
-2.722400 1.649819 -0.253187 
-3.367411 1.390644 -0.245029 
-2.559592 0.977532 -0.944906 
-3.189954 0.747630 -0.914460 
-2.337192 0.059172 -0.691719 
-2.947543 -0.130743 -0.669431 
-2.277600 -0.186902 0.253187 
-2.882589 -0.366102 0.245029 
-2.440408 0.485384 0.944906 
-3.060046 0.276912 0.914459 
-1.998697 1.621478 0.714923 
-2.043972 1.877753 -0.261680 
-1.920276 1.177598 -0.976603 
-1.751304 0.221169 -0.714923 
-1.706027 -0.035106 0.261680 
-1.829724 0.665049 0.976603 
-1.333123 1.769935 0.729679 
-0.666500 1.864546 0.733023 
-0.681690 2.131034 -0.268305 
-1.363549 2.033382 -0.267081 
0.000123 1.922555 0.736368 
0.000168 2.192084 -0.269529 
-0.640190 1.402975 -1.001328 
-1.280425 1.313632 -0.996760 
0.000045 1.455716 -1.005897 
-0.583500 0.408428 -0.733023 
-1.166877 0.330436 -0.729679 
-0.000123 0.449819 -0.736368 
-0.568310 0.141940 0.268305 
-1.136451 0.066989 0.267081 
-0.000168 0.180289 0.269529 
-0.609810 0.869998 1.001328 
-1.219575 0.786739 0.996759 
-0.000045 0.916657 1.005897 
0.686012 1.929314 0.742628 
0.708344 2.197823 -0.271820 
1.371804 1.855950 0.747703 
1.416387 2.123013 -0.273678 
0.647332 1.464239 -1.014448 
1.294583 1.393381 -1.021381 
0.563988 0.462143 -0.742628 
1.128197 0.396685 -0.747703 
0.541656 0.193632 0.271820 
1.083613 0.129621 0.273678 
0.602668 0.927217 1.014448 
1.205417 0.859253 1.021381 
2.061128 1.680293 0.735040 
2.126577 1.939192 -0.269043 
2.708130 1.429028 0.721737 
2.784311 1.681980 -0.264174 
1.947768 1.231868 -1.004083 
2.576181 0.990903 -0.985911 
1.703511 0.265644 -0.735040 
2.291870 0.046875 -0.721737 
1.638063 0.006745 0.269043 
2.215689 -0.206077 0.264174 
1.816871 0.714069 1.004083 
2.423819 0.484999 0.985911 
3.438249 1.003758 0.696162 
3.985143 0.500343 0.589850 
4.070451 0.696166 -0.215900 
3.530884 1.239346 -0.254813 
3.837385 0.161169 -0.805749 
3.277801 0.595707 -0.950975 
3.519010 -0.569650 -0.589850 
2.932083 -0.283522 -0.696162 
3.433701 -0.765473 0.215900 
2.839448 -0.519111 0.254813 
3.666767 -0.230477 0.805750 
3.092531 0.124529 0.950975 
-4.778899 0.105300 0.306149 
-4.521697 0.423355 0.451143 
-4.575391 0.577238 -0.165130 
-4.810648 0.211265 -0.112059 
-4.428695 0.156822 -0.616273 
-4.723908 -0.078236 -0.418208 
-4.228304 -0.417477 -0.451143 
-4.605418 -0.473703 -0.306150 
-4.174609 -0.571360 0.165130 
-4.573669 -0.579668 0.112058 
-4.321305 -0.150944 0.616273 
-4.660409 -0.290166 0.418208 
-4.227950 0.691554 0.559284 
-4.288508 0.884972 -0.204712 
-3.919710 0.868528 0.618435 
-3.981828 1.084539 -0.226363 
-4.123058 0.356543 -0.763996 
-3.812118 0.494385 -0.844799 
-3.897051 -0.365304 -0.559284 
-3.580290 -0.311780 -0.618435 
-3.836492 -0.558722 0.204712 
-3.518172 -0.527791 0.226363 
-4.001942 -0.030293 0.763996 
-3.687882 0.062363 0.844798 
-4.920199 -0.047423 0.232465 
-4.941748 0.033947 -0.085088 
-4.882875 -0.188360 -0.317553 
-4.802452 -0.492038 -0.232465 
-4.780903 -0.573408 0.085088 
-4.839776 -0.351100 0.317553 
-4.986422 -0.085771 0.198195 
-5.001250 -0.015342 -0.072545 
-4.960738 -0.207757 -0.270739 
-4.905396 -0.470602 -0.198195 
-4.890567 -0.541031 0.072544 
-4.931080 -0.348615 0.270739 
-5.017081 -0.115577 0.170421 
-5.028736 -0.054619 -0.062379 
-4.996895 -0.221160 -0.232800 
-4.953400 -0.448659 -0.170421 
-4.941744 -0.509617 0.062378 
-4.973586 -0.343076 0.232799 
-3.612539 1.013548 0.649332 
-3.676608 1.241126 -0.237672 
-3.501569 0.619372 -0.887005 
-3.262461 -0.229960 -0.649333 
-3.198393 -0.457538 0.237672 
-3.373431 0.164216 0.887004 
-1.665219 1.705594 0.717473 
-1.702816 1.963718 -0.262613 
-1.600097 1.258511 -0.980087 
-1.459781 0.295180 -0.717473 
-1.422183 0.037056 0.262613 
-1.524902 0.742263 0.980086 
3.081097 1.235494 0.720245 
3.166850 1.483655 -0.263628 
2.932569 0.805665 -0.983873 
2.612536 -0.120488 -0.720245 
2.526783 -0.368651 0.263628 
2.761064 0.309340 0.983873 
4.169526 0.156952 0.502896 
4.263978 0.304627 -0.184072 
4.005930 -0.098828 -0.686968 
3.653431 -0.649957 -0.502896 
3.558978 -0.797632 0.184072 
3.817026 -0.394178 0.686968 
4.270643 -0.355080 0.336379 
4.348345 -0.691647 0.247281 
4.411704 -0.637513 -0.090511 
4.356157 -0.276990 -0.123123 
4.466713 -0.993469 0.216276 
4.522799 -0.950573 -0.079162 
4.238606 -0.785410 -0.337791 
4.122527 -0.490335 -0.459501 
4.369569 -1.067767 -0.295437 
4.002150 -0.987441 -0.247280 
3.803383 -0.781770 -0.336379 
4.160251 -1.227858 -0.216275 
3.938791 -1.041576 0.090511 
3.717868 -0.859860 0.123123 
4.104164 -1.270754 0.079162 
4.111889 -0.893679 0.337791 
3.951498 -0.646515 0.459502 
4.257395 -1.153560 0.295438 
4.241959 -0.075502 0.430960 
4.334369 0.040426 -0.157742 
4.081897 -0.276295 -0.588702 
3.737014 -0.708944 -0.430960 
3.644602 -0.824872 0.157742 
3.897074 -0.508152 0.588702 
4.617381 -1.294811 0.202303 
4.676960 -1.262977 -0.074048 
4.750872 -1.592606 0.196581 
4.816372 -1.570536 -0.071953 
4.514188 -1.349949 -0.276351 
4.637422 -1.630832 -0.268534 
4.291838 -1.468755 -0.202303 
4.392971 -1.713198 -0.196581 
4.232259 -1.500588 0.074048 
4.327469 -1.735268 0.071953 
4.395030 -1.413617 0.276351 
4.506420 -1.674972 0.268534 
4.788553 -1.722751 0.182150 
4.850556 -1.703829 -0.066671 
4.814481 -1.871392 0.149298 
4.866867 -1.857706 -0.054647 
4.681159 -1.755524 -0.248821 
4.723746 -1.895097 -0.203945 
4.449758 -1.826140 -0.182150 
4.528241 -1.946174 -0.149298 
4.387754 -1.845062 0.066671 
4.475856 -1.959860 0.054647 
4.557151 -1.793367 0.248821 
4.618976 -1.922470 0.203945 
4.864207 -1.902432 0.183392 
4.884394 -1.933384 0.189904 
4.951027 -1.914905 -0.069509 
4.928555 -1.884992 -0.067126 
4.768981 -1.965388 -0.259413 
4.752752 -1.932639 -0.250518 
4.520298 -2.034350 -0.189904 
4.512599 -1.997726 -0.183392 
4.453664 -2.052828 0.069510 
4.448249 -2.015166 0.067126 
4.635712 -2.002345 0.259414 
4.624053 -1.967519 0.250518 
4.844451 -1.885550 0.171674 
4.904688 -1.869489 -0.062837 
4.740119 -1.913370 -0.234510 
4.515312 -1.973312 -0.171673 
4.455075 -1.989374 0.062837 
4.619645 -1.945493 0.234510 
4.886395 -1.978132 0.174539 
4.947976 -1.962014 -0.063886 
4.924354 -2.016607 0.184652 
4.989894 -2.000553 -0.067587 
4.779732 -2.006049 -0.238425 
4.810836 -2.044413 -0.252239 
4.549908 -2.066201 -0.174539 
4.566238 -2.104326 -0.184652 
4.488327 -2.082319 0.063886 
4.500698 -2.120380 0.067587 
4.656569 -2.038285 0.238425 
4.679757 -2.076520 0.252239 
4.932217 -2.060082 0.161878 
4.989719 -2.046062 -0.059251 
4.905408 -2.099349 0.120910 
4.948406 -2.088933 -0.044256 
4.832622 -2.084367 -0.221129 
4.830932 -2.117388 -0.165166 
4.618022 -2.136693 -0.161877 
4.670460 -2.156258 -0.120910 
4.560520 -2.150713 0.059251 
4.627461 -2.166673 0.044256 
4.717618 -2.112408 0.221129 
4.744935 -2.138219 0.165166 
4.919068 -2.131798 0.117649 
4.960924 -2.121683 -0.043062 
4.846572 -2.149316 -0.160711 
4.690365 -2.187064 -0.117648 
4.648510 -2.197178 0.043062 
4.762861 -2.169545 0.160711 
4.885424 -2.174000 0.073086 
4.911427 -2.167717 -0.026751 
4.840386 -2.184881 -0.099838 
4.743344 -2.208328 -0.073086 
4.717341 -2.214611 0.026752 
4.788381 -2.197446 0.099838 
4.859225 -2.197579 0.035471 
4.871844 -2.194530 -0.012983 
4.837366 -2.202859 -0.048454 
4.790267 -2.214238 -0.035471 
4.777647 -2.217287 0.012983 
4.812126 -2.208957 0.048454 
3 0 1 2 
3 3 4 5 
3 0 2 6 
3 3 7 4 
3 0 6 8 
3 3 9 7 
3 0 8 10 
3 3 11 9 
3 0 10 12 
3 3 13 11 
3 12 1 0 
3 3 5 13 
4 14 15 16 17 
4 17 16 18 19 
4 19 18 20 21 
4 21 20 22 23 
4 23 22 24 25 
4 15 14 25 24 
4 15 26 27 16 
4 16 27 28 18 
4 18 28 29 20 
4 20 29 30 22 
4 22 30 31 24 
4 26 15 24 31 
4 32 33 34 35 
4 33 36 37 34 
4 35 34 38 39 
4 34 37 40 38 
4 39 38 41 42 
4 38 40 43 41 
4 42 41 44 45 
4 41 43 46 44 
4 45 44 47 48 
4 44 46 49 47 
4 36 33 47 49 
4 33 32 48 47 
4 36 50 51 37 
4 50 52 53 51 
4 37 51 54 40 
4 51 53 55 54 
4 40 54 56 43 
4 54 55 57 56 
4 43 56 58 46 
4 56 57 59 58 
4 46 58 60 49 
4 58 59 61 60 
4 52 50 60 61 
4 50 36 49 60 
4 52 62 63 53 
4 62 64 65 63 
4 53 63 66 55 
4 63 65 67 66 
4 55 66 68 57 
4 66 67 69 68 
4 57 68 70 59 
4 68 69 71 70 
4 59 70 72 61 
4 70 71 73 72 
4 64 62 72 73 
4 62 52 61 72 
4 74 75 76 77 
4 77 76 78 79 
4 79 78 80 81 
4 81 80 82 83 
4 83 82 84 85 
4 75 74 85 84 
4 86 87 88 89 
4 89 88 90 91 
4 91 90 92 93 
4 93 92 94 95 
4 95 94 96 97 
4 87 86 97 96 
4 87 98 99 88 
4 98 100 101 99 
4 88 99 102 90 
4 99 101 103 102 
4 90 102 104 92 
4 102 103 105 104 
4 92 104 106 94 
4 104 105 107 106 
4 94 106 108 96 
4 106 107 109 108 
4 100 98 108 109 
4 98 87 96 108 
4 110 86 89 111 
4 111 89 91 112 
4 112 91 93 113 
4 113 93 95 114 
4 114 95 97 115 
4 86 110 115 97 
4 116 110 111 117 
4 117 111 112 118 
4 118 112 113 119 
4 119 113 114 120 
4 120 114 115 121 
4 110 116 121 115 
4 1 122 123 2 
4 122 116 117 123 
4 2 123 124 6 
4 123 117 118 124 
4 6 124 125 8 
4 124 118 119 125 
4 8 125 126 10 
4 125 119 120 126 
4 10 126 127 12 
4 126 120 121 127 
4 116 122 127 121 
4 122 1 12 127 
4 100 128 129 101 
4 128 14 17 129 
4 101 129 130 103 
4 129 17 19 130 
4 103 130 131 105 
4 130 19 21 131 
4 105 131 132 107 
4 131 21 23 132 
4 107 132 133 109 
4 132 23 25 133 
4 14 128 133 25 
4 128 100 109 133 
4 26 134 135 27 
4 134 32 35 135 
4 27 135 136 28 
4 135 35 39 136 
4 28 136 137 29 
4 136 39 42 137 
4 29 137 138 30 
4 137 42 45 138 
4 30 138 139 31 
4 138 45 48 139 
4 32 134 139 48 
4 134 26 31 139 
4 64 140 141 65 
4 140 74 77 141 
4 65 141 142 67 
4 141 77 79 142 
4 67 142 143 69 
4 142 79 81 143 
4 69 143 144 71 
4 143 81 83 144 
4 71 144 145 73 
4 144 83 85 145 
4 74 140 145 85 
4 140 64 73 145 
4 75 146 147 76 
4 76 147 148 78 
4 78 148 149 80 
4 80 149 150 82 
4 82 150 151 84 
4 146 75 84 151 
4 152 153 154 155 
4 153 156 157 154 
4 155 154 158 159 
4 154 157 160 158 
4 159 158 161 162 
4 158 160 163 161 
4 162 161 164 165 
4 161 163 166 164 
4 165 164 167 168 
4 164 166 169 167 
4 156 153 167 169 
4 153 152 168 167 
4 146 170 171 147 
4 170 152 155 171 
4 147 171 172 148 
4 171 155 159 172 
4 148 172 173 149 
4 172 159 162 173 
4 149 173 174 150 
4 173 162 165 174 
4 150 174 175 151 
4 174 165 168 175 
4 152 170 175 168 
4 170 146 151 175 
4 156 176 177 157 
4 176 178 179 177 
4 157 177 180 160 
4 177 179 181 180 
4 160 180 182 163 
4 180 181 183 182 
4 163 182 184 166 
4 182 183 185 184 
4 166 184 186 169 
4 184 185 187 186 
4 178 176 186 187 
4 176 156 169 186 
4 178 188 189 179 
4 188 190 191 189 
4 179 189 192 181 
4 189 191 193 192 
4 181 192 194 183 
4 192 193 195 194 
4 183 194 196 185 
4 194 195 197 196 
4 185 196 198 187 
4 196 197 199 198 
4 190 188 198 199 
4 188 178 187 198 
4 200 201 202 203 
4 203 202 204 205 
4 205 204 206 207 
4 207 206 208 209 
4 209 208 210 211 
4 201 200 211 210 
4 190 212 213 191 
4 212 200 203 213 
4 191 213 214 193 
4 213 203 205 214 
4 193 214 215 195 
4 214 205 207 215 
4 195 215 216 197 
4 215 207 209 216 
4 197 216 217 199 
4 216 209 211 217 
4 200 212 217 211 
4 212 190 199 217 
4 201 218 219 202 
4 218 220 221 219 
4 202 219 222 204 
4 219 221 223 222 
4 204 222 224 206 
4 222 223 225 224 
4 206 224 226 208 
4 224 225 227 226 
4 208 226 228 210 
4 226 227 229 228 
4 220 218 228 229 
4 218 201 210 228 
4 220 230 231 221 
4 230 232 233 231 
4 221 231 234 223 
4 231 233 235 234 
4 223 234 236 225 
4 234 235 237 236 
4 225 236 238 227 
4 236 237 239 238 
4 227 238 240 229 
4 238 239 241 240 
4 232 230 240 241 
4 230 220 229 240 
4 232 242 243 233 
4 233 243 244 235 
4 235 244 245 237 
4 237 245 246 239 
4 239 246 247 241 
4 242 232 241 247 
4 242 248 249 243 
4 243 249 250 244 
4 244 250 251 245 
4 245 251 252 246 
4 246 252 253 247 
4 248 242 247 253 
4 248 254 255 249 
4 254 5 4 255 
4 249 255 256 250 
4 255 4 7 256 
4 250 256 257 251 
4 256 7 9 257 
4 251 257 258 252 
4 257 9 11 258 
4 252 258 259 253 
4 258 11 13 259 
4 5 254 259 13 
4 254 248 253 259 
