ply
format ascii 1.0
Created by Blender3D 246 - www.blender.org, source file: lampada.blend
element vertex 1025
property float x
property float y
property float z
element face 960
property list uchar uint vertex_indices
end_header
0.270493 0.312099 2.367503 
0.268562 0.269502 2.367503 
0.284777 0.266934 2.277103 
0.286910 0.312099 2.277103 
0.264707 0.268820 2.141503 
0.266814 0.310617 2.141503 
0.270910 0.267604 2.045986 
0.273137 0.310331 2.045986 
0.324186 0.260002 1.966353 
0.326932 0.311292 1.966353 
0.413849 0.246810 1.843346 
0.417534 0.312483 1.843346 
0.450528 0.241241 1.806860 
0.454627 0.312771 1.806860 
0.530842 0.227961 1.723403 
0.536043 0.312099 1.723403 
0.681514 0.204097 1.570853 
0.688593 0.312099 1.570853 
0.809864 0.183768 1.378753 
0.818543 0.312099 1.378753 
0.904732 0.168743 1.181003 
0.914593 0.312099 1.181003 
0.960536 0.159904 0.938053 
0.971093 0.312099 0.938053 
0.987448 0.155642 0.701910 
0.998340 0.312099 0.701910 
0.991933 0.154931 0.486203 
1.002881 0.312099 0.486203 
0.984146 0.156165 0.312751 
0.994997 0.312099 0.312751 
0.970129 0.158385 0.219717 
0.980806 0.312098 0.219717 
0.948326 0.161838 0.147183 
0.958730 0.312098 0.147183 
0.926522 0.165291 0.098301 
0.936654 0.312098 0.098301 
0.895373 0.170225 0.044689 
0.905118 0.312098 0.044689 
0.882914 0.172198 0.024190 
0.892503 0.312098 0.024190 
0.890701 0.170965 0.017882 
0.900387 0.312098 0.017882 
0.893816 0.170472 0.008421 
0.903541 0.312098 0.008421 
0.890701 0.170965 0.000537 
0.900387 0.312098 0.000537 
0.878242 0.172938 -0.005770 
0.887772 0.312098 -0.005770 
0.000321 0.311987 -0.005770 
-0.001092 0.312098 -0.005770 
0.847059 0.036982 -0.005770 
0.001698 0.311656 -0.005770 
0.859056 0.033084 0.000537 
0.862055 0.032110 0.008421 
0.859056 0.033084 0.017882 
0.851558 0.035520 0.024190 
0.863555 0.031622 0.044689 
0.893548 0.021877 0.098301 
0.914543 0.015055 0.147183 
0.935539 0.008233 0.219717 
0.949036 0.003848 0.312751 
0.956534 0.001412 0.486203 
0.952215 0.002815 0.701910 
0.926301 0.011235 0.938053 
0.872566 0.028694 1.181003 
0.781217 0.058375 1.378753 
0.657628 0.098532 1.570853 
0.512544 0.145673 1.723403 
0.435289 0.171233 1.806860 
0.399935 0.182521 1.843346 
0.313451 0.209774 1.966353 
0.262027 0.225752 2.045986 
0.256087 0.227868 2.141503 
0.275605 0.222659 2.277103 
0.259991 0.227732 2.367503 
0.244992 0.187818 2.367503 
0.259619 0.180364 2.277103 
0.241168 0.188768 2.141503 
0.246706 0.185805 2.045986 
0.294991 0.161843 1.966353 
0.376136 0.121200 1.843346 
0.409285 0.104470 1.806860 
0.481598 0.067260 1.723403 
0.617521 -0.001996 1.570853 
0.733308 -0.060992 1.378753 
0.818889 -0.104598 1.181003 
0.869231 -0.130248 0.938053 
0.893508 -0.142618 0.701910 
0.897554 -0.144680 0.486203 
0.890529 -0.141101 0.312751 
0.877885 -0.134658 0.219717 
0.858215 -0.124636 0.147183 
0.838546 -0.114614 0.098301 
0.810446 -0.100296 0.044689 
0.799206 -0.094569 0.024190 
0.806231 -0.098149 0.017882 
0.809041 -0.099580 0.008421 
0.806231 -0.098149 0.000537 
0.794991 -0.092422 -0.005770 
0.003007 0.311114 -0.005770 
0.723322 -0.212087 -0.005770 
0.004216 0.310374 -0.005770 
0.733528 -0.219502 0.000537 
0.736079 -0.221356 0.008421 
0.733528 -0.219502 0.017882 
0.727149 -0.214868 0.024190 
0.737355 -0.222283 0.044689 
0.762868 -0.240820 0.098301 
0.780728 -0.253795 0.147183 
0.798588 -0.266771 0.219717 
0.810069 -0.275113 0.312751 
0.816447 -0.279747 0.486203 
0.812773 -0.277077 0.701910 
0.790730 -0.261062 0.938053 
0.745020 -0.227852 1.181003 
0.667314 -0.171395 1.378753 
0.562182 -0.095013 1.570853 
0.438767 -0.005346 1.723403 
0.373159 0.042598 1.806860 
0.343037 0.064358 1.843346 
0.269260 0.117391 1.966353 
0.225325 0.148746 2.045986 
0.220315 0.152484 2.141503 
0.237214 0.141091 2.277103 
0.223933 0.150741 2.367503 
0.197333 0.117414 2.367503 
0.208941 0.105806 2.277103 
0.194043 0.119908 2.141503 
0.198410 0.115488 2.045986 
0.236892 0.077511 1.966353 
0.301454 0.013393 1.843346 
0.327798 -0.012861 1.806860 
0.385105 -0.070358 1.723403 
0.492974 -0.178227 1.570853 
0.584862 -0.270116 1.378753 
0.652780 -0.338033 1.181003 
0.692732 -0.377985 0.938053 
0.711998 -0.397251 0.701910 
0.715210 -0.400463 0.486203 
0.709635 -0.394888 0.312751 
0.699600 -0.384853 0.219717 
0.683990 -0.369243 0.147183 
0.668380 -0.353633 0.098301 
0.646080 -0.331333 0.044689 
0.637160 -0.322413 0.024190 
0.642735 -0.327988 0.017882 
0.644965 -0.330218 0.008421 
0.642735 -0.327988 0.000537 
0.633815 -0.319068 -0.005770 
0.005293 0.309454 -0.005770 
0.528675 -0.410730 -0.005770 
0.006213 0.308376 -0.005770 
0.536089 -0.420936 0.000537 
0.537943 -0.423487 0.008421 
0.536089 -0.420936 0.017882 
0.531455 -0.414557 0.024190 
0.538870 -0.424763 0.044689 
0.557407 -0.450276 0.098301 
0.570383 -0.468136 0.147183 
0.583358 -0.485996 0.219717 
0.591700 -0.497477 0.312751 
0.596334 -0.503855 0.486203 
0.593665 -0.500181 0.701910 
0.577649 -0.478138 0.938053 
0.544439 -0.432428 1.181003 
0.487983 -0.354722 1.378753 
0.411600 -0.249590 1.570853 
0.321933 -0.126175 1.723403 
0.274319 -0.060542 1.806860 
0.252410 -0.030440 1.843346 
0.198683 0.043185 1.966353 
0.166623 0.086850 2.045986 
0.162998 0.091844 2.141503 
0.175497 0.075378 2.277103 
0.165847 0.088660 2.367503 
0.130251 0.065184 2.367503 
0.137704 0.050556 2.277103 
0.127945 0.068981 2.141503 
0.130748 0.063537 2.045986 
0.155576 0.015259 1.966353 
0.197112 -0.066061 1.843346 
0.214040 -0.099269 1.806860 
0.250808 -0.171422 1.723403 
0.320064 -0.307346 1.570853 
0.379060 -0.423132 1.378753 
0.422666 -0.508713 1.181003 
0.448316 -0.559055 0.938053 
0.460687 -0.583332 0.701910 
0.462748 -0.587379 0.486203 
0.459169 -0.580354 0.312751 
0.452726 -0.567709 0.219717 
0.442704 -0.548040 0.147183 
0.432682 -0.528370 0.098301 
0.418364 -0.500271 0.044689 
0.412637 -0.489031 0.024190 
0.416217 -0.496056 0.017882 
0.417648 -0.498866 0.008421 
0.416217 -0.496056 0.000537 
0.410490 -0.484816 -0.005770 
0.006954 0.307168 -0.005770 
0.282170 -0.539501 -0.005770 
0.007496 0.305859 -0.005770 
0.286068 -0.551499 0.000537 
0.287043 -0.554498 0.008421 
0.286068 -0.551499 0.017882 
0.283632 -0.544000 0.024190 
0.287530 -0.555997 0.044689 
0.297275 -0.585991 0.098301 
0.304097 -0.606986 0.147183 
0.310919 -0.627981 0.219717 
0.315304 -0.641478 0.312751 
0.317741 -0.648976 0.486203 
0.316338 -0.644657 0.701910 
0.307918 -0.618744 0.938053 
0.290458 -0.565009 1.181003 
0.260777 -0.473660 1.378753 
0.220620 -0.350070 1.570853 
0.173480 -0.204987 1.723403 
0.148445 -0.128090 1.806860 
0.136924 -0.092592 1.843346 
0.108630 -0.005580 1.966353 
0.091667 0.046123 2.045986 
0.089748 0.051883 2.141503 
0.096494 0.031953 2.277103 
0.091420 0.047567 2.367503 
0.050312 0.036240 2.367503 
0.052880 0.020025 2.277103 
0.049346 0.040971 2.141503 
0.050344 0.035038 2.045986 
0.059003 -0.018818 1.966353 
0.073325 -0.109382 1.843346 
0.079149 -0.146295 1.806860 
0.091853 -0.226041 1.723403 
0.115717 -0.376713 1.570853 
0.136046 -0.505063 1.378753 
0.151071 -0.599930 1.181003 
0.159910 -0.655734 0.938053 
0.164172 -0.682646 0.701910 
0.164883 -0.687132 0.486203 
0.163649 -0.679344 0.312751 
0.161429 -0.665328 0.219717 
0.157976 -0.643524 0.147183 
0.154523 -0.621720 0.098301 
0.149589 -0.590571 0.044689 
0.147616 -0.578112 0.024190 
0.148849 -0.585899 0.017882 
0.149342 -0.589014 0.008421 
0.148849 -0.585899 0.000537 
0.146876 -0.573440 -0.005770 
0.007827 0.304481 -0.005770 
0.007938 -0.585796 -0.005770 
0.007938 0.303069 -0.005770 
0.007938 -0.598410 0.000537 
0.007938 -0.601564 0.008421 
0.007938 -0.598410 0.017882 
0.007938 -0.590526 0.024190 
0.007938 -0.603141 0.044689 
0.007938 -0.634678 0.098301 
0.007938 -0.656753 0.147183 
0.007938 -0.678829 0.219717 
0.007938 -0.693021 0.312751 
0.007938 -0.700905 0.486203 
0.007938 -0.696364 0.701910 
0.007938 -0.669116 0.938053 
0.007938 -0.612616 1.181003 
0.007938 -0.516566 1.378753 
0.007938 -0.386616 1.570853 
0.007938 -0.234066 1.723403 
0.007859 -0.153436 1.806860 
0.007884 -0.116015 1.843346 
0.007916 -0.024130 1.966353 
0.007795 0.030553 2.045986 
0.007734 0.036514 2.141503 
0.007938 0.015066 2.277103 
0.007938 0.031484 2.367503 
-0.034658 0.033415 2.367503 
-0.037227 0.017200 2.277103 
-0.034063 0.038621 2.141503 
-0.034932 0.032779 2.045986 
-0.043374 -0.021384 1.966353 
-0.057790 -0.112330 1.843346 
-0.063671 -0.149336 1.806860 
-0.076200 -0.228866 1.723403 
-0.100064 -0.379538 1.570853 
-0.120392 -0.507888 1.378753 
-0.135418 -0.602755 1.181003 
-0.144256 -0.658560 0.938053 
-0.148519 -0.685472 0.701910 
-0.149229 -0.689957 0.486203 
-0.147996 -0.682170 0.312751 
-0.145776 -0.668153 0.219717 
-0.142323 -0.646349 0.147183 
-0.138869 -0.624545 0.098301 
-0.133936 -0.593396 0.044689 
-0.131962 -0.580937 0.024190 
-0.133196 -0.588724 0.017882 
-0.133689 -0.591839 0.008421 
-0.133196 -0.588724 0.000537 
-0.131222 -0.576265 -0.005770 
0.007827 0.301656 -0.005770 
-0.267178 -0.545082 -0.005770 
0.007496 0.300278 -0.005770 
-0.271077 -0.557079 0.000537 
-0.272051 -0.560079 0.008421 
-0.271077 -0.557079 0.017882 
-0.268640 -0.549581 0.024190 
-0.272538 -0.561578 0.044689 
-0.282284 -0.591572 0.098301 
-0.289105 -0.612567 0.147183 
-0.295927 -0.633562 0.219717 
-0.300313 -0.647059 0.312751 
-0.302749 -0.654557 0.486203 
-0.301346 -0.650238 0.701910 
-0.292926 -0.624324 0.938053 
-0.275466 -0.570590 1.181003 
-0.245785 -0.479241 1.378753 
-0.205628 -0.355651 1.570853 
-0.158488 -0.210567 1.723403 
-0.133679 -0.134097 1.806860 
-0.122079 -0.098417 1.843346 
-0.093602 -0.010649 1.966353 
-0.076784 0.041662 2.045986 
-0.075015 0.047241 2.141503 
-0.081502 0.026372 2.277103 
-0.076428 0.041986 2.367503 
-0.116343 0.056985 2.367503 
-0.123797 0.042357 2.277103 
-0.114115 0.062161 2.141503 
-0.116732 0.056983 2.045986 
-0.141533 0.007811 1.966353 
-0.183400 -0.074618 1.843346 
-0.200442 -0.108094 1.806860 
-0.236900 -0.179622 1.723403 
-0.306157 -0.315545 1.570853 
-0.365153 -0.431331 1.378753 
-0.408758 -0.516912 1.181003 
-0.434409 -0.567254 0.938053 
-0.446779 -0.591532 0.701910 
-0.448841 -0.595578 0.486203 
-0.445261 -0.588553 0.312751 
-0.438819 -0.575908 0.219717 
-0.428796 -0.556238 0.147183 
-0.418774 -0.536569 0.098301 
-0.404457 -0.508469 0.044689 
-0.398730 -0.497230 0.024190 
-0.402309 -0.504255 0.017882 
-0.403741 -0.507065 0.008421 
-0.402309 -0.504255 0.000537 
-0.396582 -0.493015 -0.005770 
0.006954 0.298969 -0.005770 
-0.516248 -0.421345 -0.005770 
0.006213 0.297761 -0.005770 
-0.523663 -0.431551 0.000537 
-0.525517 -0.434102 0.008421 
-0.523663 -0.431551 0.017882 
-0.519029 -0.425173 0.024190 
-0.526443 -0.435378 0.044689 
-0.544980 -0.460892 0.098301 
-0.557956 -0.478751 0.147183 
-0.570932 -0.496611 0.219717 
-0.579273 -0.508092 0.312751 
-0.583907 -0.514471 0.486203 
-0.581238 -0.510797 0.701910 
-0.565223 -0.488753 0.938053 
-0.532013 -0.443044 1.181003 
-0.475556 -0.365337 1.378753 
-0.399173 -0.260206 1.570853 
-0.309507 -0.136790 1.723403 
-0.262314 -0.071967 1.806860 
-0.240242 -0.041519 1.843346 
-0.185985 0.033542 1.966353 
-0.153791 0.078364 2.045986 
-0.150399 0.083014 2.141503 
-0.163070 0.064762 2.277103 
-0.153420 0.078044 2.367503 
-0.186746 0.104644 2.367503 
-0.198355 0.093035 2.277103 
-0.182975 0.109286 2.141503 
-0.187048 0.105280 2.045986 
-0.225865 0.065910 1.966353 
-0.291207 0.000065 1.843346 
-0.317773 -0.026606 1.806860 
-0.374519 -0.083128 1.723403 
-0.482388 -0.190997 1.570853 
-0.574276 -0.282886 1.378753 
-0.642194 -0.350803 1.181003 
-0.682145 -0.390755 0.938053 
-0.701412 -0.410022 0.701910 
-0.704623 -0.413233 0.486203 
-0.699048 -0.407658 0.312751 
-0.689014 -0.397623 0.219717 
-0.673404 -0.382013 0.147183 
-0.657794 -0.366403 0.098301 
-0.635494 -0.344103 0.044689 
-0.626574 -0.335183 0.024190 
-0.632149 -0.340758 0.017882 
-0.634379 -0.342988 0.008421 
-0.632149 -0.340758 0.000537 
-0.623229 -0.331838 -0.005770 
0.005293 0.296684 -0.005770 
-0.714891 -0.226698 -0.005770 
0.004216 0.295764 -0.005770 
-0.725096 -0.234113 0.000537 
-0.727648 -0.235966 0.008421 
-0.725096 -0.234113 0.017882 
-0.718718 -0.229479 0.024190 
-0.728923 -0.236893 0.044689 
-0.754437 -0.255430 0.098301 
-0.772297 -0.268406 0.147183 
-0.790156 -0.281382 0.219717 
-0.801638 -0.289723 0.312751 
-0.808016 -0.294358 0.486203 
-0.804342 -0.291688 0.701910 
-0.782298 -0.275673 0.938053 
-0.736589 -0.242463 1.181003 
-0.658883 -0.186006 1.378753 
-0.553751 -0.109623 1.570853 
-0.430336 -0.019957 1.723403 
-0.365454 0.026873 1.806860 
-0.335040 0.049109 1.843346 
-0.260191 0.104119 1.966353 
-0.215686 0.137066 2.045986 
-0.211039 0.140330 2.141503 
-0.228783 0.126480 2.277103 
-0.215501 0.136130 2.367503 
-0.238976 0.171726 2.367503 
-0.253604 0.164273 2.277103 
-0.233902 0.175383 2.141503 
-0.238999 0.172942 2.045986 
-0.288117 0.147226 1.966353 
-0.370661 0.104406 1.843346 
-0.404181 0.087151 1.806860 
-0.475583 0.051169 1.723403 
-0.611506 -0.018087 1.570853 
-0.727293 -0.077083 1.378753 
-0.812874 -0.120689 1.181003 
-0.863216 -0.146340 0.938053 
-0.887493 -0.158710 0.701910 
-0.891540 -0.160771 0.486203 
-0.884515 -0.157192 0.312751 
-0.871870 -0.150749 0.219717 
-0.852200 -0.140727 0.147183 
-0.832531 -0.130705 0.098301 
-0.804431 -0.116387 0.044689 
-0.793192 -0.110661 0.024190 
-0.800216 -0.114240 0.017882 
-0.803026 -0.115672 0.008421 
-0.800216 -0.114240 0.000537 
-0.788977 -0.108513 -0.005770 
0.003007 0.295023 -0.005770 
-0.843662 0.019807 -0.005770 
0.001698 0.294481 -0.005770 
-0.855659 0.015908 0.000537 
-0.858659 0.014934 0.008421 
-0.855659 0.015908 0.017882 
-0.848161 0.018345 0.024190 
-0.860158 0.014447 0.044689 
-0.890152 0.004701 0.098301 
-0.911147 -0.002120 0.147183 
-0.932142 -0.008942 0.219717 
-0.945639 -0.013328 0.312751 
-0.953137 -0.015764 0.486203 
-0.948818 -0.014361 0.701910 
-0.922904 -0.005941 0.938053 
-0.869170 0.011519 1.181003 
-0.777821 0.041200 1.378753 
-0.654231 0.081356 1.570853 
-0.509147 0.128497 1.723403 
-0.433002 0.152746 1.806860 
-0.397192 0.164595 1.843346 
-0.308956 0.194172 1.966353 
-0.256413 0.212022 2.045986 
-0.251000 0.213581 2.141503 
-0.272208 0.205483 2.277103 
-0.256594 0.210556 2.367503 
-0.267921 0.251665 2.367503 
-0.284136 0.249097 2.277103 
-0.261912 0.253983 2.141503 
-0.267499 0.253346 2.045986 
-0.322194 0.243799 1.966353 
-0.413982 0.228193 1.843346 
-0.451207 0.222042 1.806860 
-0.530201 0.210124 1.723403 
-0.680873 0.186260 1.570853 
-0.809223 0.165931 1.378753 
-0.904091 0.150905 1.181003 
-0.959895 0.142067 0.938053 
-0.986807 0.137804 0.701910 
-0.991293 0.137094 0.486203 
-0.983505 0.138327 0.312751 
-0.969489 0.140547 0.219717 
-0.947685 0.144001 0.147183 
-0.925881 0.147454 0.098301 
-0.894732 0.152388 0.044689 
-0.882273 0.154361 0.024190 
-0.890060 0.153128 0.017882 
-0.893175 0.152634 0.008421 
-0.890060 0.153128 0.000537 
-0.877601 0.155101 -0.005770 
0.000321 0.294150 -0.005770 
-0.889957 0.294039 -0.005770 
-0.001092 0.294039 -0.005770 
-0.902571 0.294039 0.000537 
-0.905725 0.294039 0.008421 
-0.902571 0.294039 0.017882 
-0.894687 0.294039 0.024190 
-0.907302 0.294039 0.044689 
-0.938839 0.294039 0.098301 
-0.960914 0.294039 0.147183 
-0.982990 0.294039 0.219717 
-0.997181 0.294039 0.312751 
-1.005066 0.294039 0.486203 
-1.000525 0.294039 0.701910 
-0.973277 0.294039 0.938053 
-0.916777 0.294039 1.181003 
-0.820727 0.294039 1.378753 
-0.690777 0.294039 1.570853 
-0.538227 0.294039 1.723403 
-0.458348 0.293333 1.806860 
-0.420615 0.293635 1.843346 
-0.327506 0.294886 1.966353 
-0.271983 0.295895 2.045986 
-0.266369 0.295594 2.141503 
-0.289094 0.294039 2.277103 
-0.272677 0.294039 2.367503 
-0.270746 0.336635 2.367503 
-0.286961 0.339203 2.277103 
-0.264262 0.337391 2.141503 
-0.269757 0.338621 2.045986 
-0.324760 0.346176 1.966353 
-0.416930 0.359309 1.843346 
-0.454248 0.364863 1.806860 
-0.533027 0.378176 1.723403 
-0.683698 0.402041 1.570853 
-0.812049 0.422369 1.378753 
-0.906916 0.437395 1.181003 
-0.962720 0.446233 0.938053 
-0.989632 0.450496 0.701910 
-0.994118 0.451206 0.486203 
-0.986330 0.449973 0.312751 
-0.972314 0.447753 0.219717 
-0.950510 0.444299 0.147183 
-0.928706 0.440846 0.098301 
-0.897557 0.435912 0.044689 
-0.885098 0.433939 0.024190 
-0.892885 0.435173 0.017882 
-0.896000 0.435666 0.008421 
-0.892885 0.435173 0.000537 
-0.880426 0.433199 -0.005770 
-0.002504 0.294150 -0.005770 
-0.849243 0.569155 -0.005770 
-0.003882 0.294481 -0.005770 
-0.861240 0.573053 0.000537 
-0.864240 0.574028 0.008421 
-0.861240 0.573053 0.017882 
-0.853742 0.570617 0.024190 
-0.865739 0.574515 0.044689 
-0.895732 0.584260 0.098301 
-0.916728 0.591082 0.147183 
-0.937723 0.597904 0.219717 
-0.951220 0.602289 0.312751 
-0.958718 0.604726 0.486203 
-0.954399 0.603322 0.701910 
-0.928485 0.594902 0.938053 
-0.874750 0.577443 1.181003 
-0.783402 0.547762 1.378753 
-0.659812 0.507605 1.570853 
-0.514728 0.460465 1.723403 
-0.439009 0.434871 1.806860 
-0.403017 0.423597 1.843346 
-0.314025 0.396404 1.966353 
-0.260874 0.380474 2.045986 
-0.255642 0.378343 2.141503 
-0.277789 0.383478 2.277103 
-0.262175 0.378405 2.367503 
-0.247176 0.418320 2.367503 
-0.261803 0.425773 2.277103 
-0.240722 0.417443 2.141503 
-0.245553 0.420421 2.045986 
-0.295565 0.444335 1.966353 
-0.379218 0.484918 1.843346 
-0.413006 0.501634 1.806860 
-0.483782 0.538877 1.723403 
-0.619705 0.608134 1.570853 
-0.735492 0.667130 1.378753 
-0.821073 0.710735 1.181003 
-0.871415 0.736386 0.938053 
-0.895693 0.748756 0.701910 
-0.899739 0.750818 0.486203 
-0.892714 0.747238 0.312751 
-0.880069 0.740795 0.219717 
-0.860399 0.730773 0.147183 
-0.840730 0.720751 0.098301 
-0.812630 0.706434 0.044689 
-0.801391 0.700707 0.024190 
-0.808416 0.704286 0.017882 
-0.811225 0.705718 0.008421 
-0.808416 0.704286 0.000537 
-0.797176 0.698559 -0.005770 
-0.005191 0.295023 -0.005770 
-0.725506 0.818225 -0.005770 
-0.006399 0.295764 -0.005770 
-0.735712 0.825640 0.000537 
-0.738263 0.827494 0.008421 
-0.735712 0.825640 0.017882 
-0.729333 0.821006 0.024190 
-0.739539 0.828420 0.044689 
-0.765053 0.846957 0.098301 
-0.782912 0.859933 0.147183 
-0.800772 0.872909 0.219717 
-0.812253 0.881250 0.312751 
-0.818631 0.885885 0.486203 
-0.814958 0.883215 0.701910 
-0.792914 0.867199 0.938053 
-0.747204 0.833989 1.181003 
-0.669498 0.777533 1.378753 
-0.564367 0.701150 1.570853 
-0.440951 0.611483 1.723403 
-0.376879 0.563506 1.806860 
-0.346119 0.541761 1.843346 
-0.269834 0.488787 1.966353 
-0.224172 0.457480 2.045986 
-0.219869 0.453727 2.141503 
-0.239398 0.465047 2.277103 
-0.226117 0.455397 2.367503 
-0.199517 0.488723 2.367503 
-0.211126 0.500332 2.277103 
-0.193597 0.486303 2.141503 
-0.197256 0.490738 2.045986 
-0.237466 0.528667 1.966353 
-0.304535 0.592726 1.843346 
-0.331518 0.618965 1.806860 
-0.387289 0.676495 1.723403 
-0.495158 0.784365 1.570853 
-0.587047 0.876253 1.378753 
-0.654964 0.944170 1.181003 
-0.694916 0.984122 0.938053 
-0.714183 1.003389 0.701910 
-0.717394 1.006600 0.486203 
-0.711819 1.001025 0.312751 
-0.701784 0.990991 0.219717 
-0.686174 0.975381 0.147183 
-0.670564 0.959771 0.098301 
-0.648264 0.937471 0.044689 
-0.639344 0.928551 0.024190 
-0.644919 0.934126 0.017882 
-0.647149 0.936356 0.008421 
-0.644919 0.934126 0.000537 
-0.635999 0.925206 -0.005770 
-0.007477 0.296684 -0.005770 
-0.530859 1.016868 -0.005770 
-0.008397 0.297761 -0.005770 
-0.538274 1.027074 0.000537 
-0.540127 1.029625 0.008421 
-0.538274 1.027074 0.017882 
-0.533639 1.020695 0.024190 
-0.541054 1.030900 0.044689 
-0.559591 1.056414 0.098301 
-0.572567 1.074274 0.147183 
-0.585543 1.092133 0.219717 
-0.593884 1.103614 0.312751 
-0.598518 1.109993 0.486203 
-0.595849 1.106319 0.701910 
-0.579833 1.084275 0.938053 
-0.546623 1.038566 1.181003 
-0.490167 0.960860 1.378753 
-0.413784 0.855728 1.570853 
-0.324117 0.732312 1.723403 
-0.278039 0.666646 1.806860 
-0.255491 0.636558 1.843346 
-0.199257 0.562993 1.966353 
-0.165470 0.519376 2.045986 
-0.162553 0.514368 2.141503 
-0.177681 0.530760 2.277103 
-0.168031 0.517478 2.367503 
-0.132435 0.540953 2.367503 
-0.139888 0.555581 2.277103 
-0.127500 0.537230 2.141503 
-0.129595 0.542689 2.045986 
-0.156150 0.590919 1.966353 
-0.200194 0.672179 1.843346 
-0.217761 0.705373 1.806860 
-0.252992 0.777560 1.723403 
-0.322248 0.913483 1.570853 
-0.381244 1.029270 1.378753 
-0.424850 1.114850 1.181003 
-0.450501 1.165193 0.938053 
-0.462871 1.189470 0.701910 
-0.464932 1.193517 0.486203 
-0.461353 1.186492 0.312751 
-0.454910 1.173847 0.219717 
-0.444888 1.154177 0.147183 
-0.434866 1.134508 0.098301 
-0.420548 1.106408 0.044689 
-0.414821 1.095169 0.024190 
-0.418401 1.102194 0.017882 
-0.419833 1.105004 0.008421 
-0.418401 1.102194 0.000537 
-0.412674 1.090954 -0.005770 
-0.009137 0.298969 -0.005770 
-0.284354 1.145639 -0.005770 
-0.009680 0.300278 -0.005770 
-0.288252 1.157637 0.000537 
-0.289227 1.160636 0.008421 
-0.288252 1.157637 0.017882 
-0.285816 1.150138 0.024190 
-0.289714 1.162135 0.044689 
-0.299460 1.192129 0.098301 
-0.306281 1.213124 0.147183 
-0.313103 1.234119 0.219717 
-0.317489 1.247616 0.312751 
-0.319925 1.255114 0.486203 
-0.318522 1.250795 0.701910 
-0.310102 1.224881 0.938053 
-0.292642 1.171146 1.181003 
-0.262961 1.079798 1.378753 
-0.222804 0.956208 1.570853 
-0.175664 0.811124 1.723403 
-0.152166 0.734194 1.806860 
-0.140005 0.698711 1.843346 
-0.109204 0.611758 1.966353 
-0.090514 0.560102 2.045986 
-0.089302 0.554328 2.141503 
-0.098678 0.574185 2.277103 
-0.093604 0.558571 2.367503 
-0.052496 0.569898 2.367503 
-0.055064 0.586113 2.277103 
-0.048900 0.565240 2.141503 
-0.049190 0.571188 2.045986 
-0.059577 0.624996 1.966353 
-0.076407 0.715500 1.843346 
-0.082870 0.752399 1.806860 
-0.094037 0.832178 1.723403 
-0.117901 0.982850 1.570853 
-0.138230 1.111200 1.378753 
-0.153255 1.206067 1.181003 
-0.162094 1.261872 0.938053 
-0.166357 1.288784 0.701910 
-0.167067 1.293270 0.486203 
-0.165833 1.285482 0.312751 
-0.163613 1.271466 0.219717 
-0.160160 1.249662 0.147183 
-0.156707 1.227858 0.098301 
-0.151773 1.196709 0.044689 
-0.149800 1.184250 0.024190 
-0.151033 1.192037 0.017882 
-0.151526 1.195152 0.008421 
-0.151033 1.192037 0.000537 
-0.149060 1.179577 -0.005770 
-0.010010 0.301656 -0.005770 
-0.010122 1.191933 -0.005770 
-0.010122 0.303069 -0.005770 
-0.010122 1.204549 0.000537 
-0.010122 1.207702 0.008421 
-0.010122 1.204549 0.017882 
-0.010122 1.196664 0.024190 
-0.010122 1.209279 0.044689 
-0.010122 1.240816 0.098301 
-0.010122 1.262891 0.147183 
-0.010122 1.284967 0.219717 
-0.010122 1.299158 0.312751 
-0.010122 1.307043 0.486203 
-0.010122 1.302502 0.701910 
-0.010122 1.275254 0.938053 
-0.010122 1.218753 1.181003 
-0.010122 1.122704 1.378753 
-0.010122 0.992754 1.570853 
-0.010122 0.840204 1.723403 
-0.011579 0.759540 1.806860 
-0.010965 0.722134 1.843346 
-0.008490 0.630308 1.966353 
-0.006642 0.575673 2.045986 
-0.007289 0.569697 2.141503 
-0.010122 0.591071 2.277103 
-0.010122 0.574654 2.367503 
0.032475 0.572723 2.367503 
0.035043 0.588938 2.277103 
0.034508 0.567590 2.141503 
0.036085 0.573447 2.045986 
0.042800 0.627562 1.966353 
0.054709 0.718449 1.843346 
0.059951 0.755440 1.806860 
0.074016 0.835004 1.723403 
0.097880 0.985675 1.570853 
0.118209 1.114026 1.378753 
0.133234 1.208893 1.181003 
0.142072 1.264697 0.938053 
0.146335 1.291609 0.701910 
0.147046 1.296095 0.486203 
0.145812 1.288307 0.312751 
0.143592 1.274291 0.219717 
0.140139 1.252487 0.147183 
0.136685 1.230683 0.098301 
0.131752 1.199534 0.044689 
0.129778 1.187075 0.024190 
0.131012 1.194862 0.017882 
0.131505 1.197977 0.008421 
0.131012 1.194862 0.000537 
0.129038 1.182402 -0.005770 
-0.010010 0.304481 -0.005770 
0.264994 1.151220 -0.005770 
-0.009680 0.305859 -0.005770 
0.268893 1.163217 0.000537 
0.269867 1.166216 0.008421 
0.268893 1.163217 0.017882 
0.266456 1.155719 0.024190 
0.270354 1.167716 0.044689 
0.280100 1.197709 0.098301 
0.286922 1.218705 0.147183 
0.293744 1.239700 0.219717 
0.298129 1.253196 0.312751 
0.300565 1.260695 0.486203 
0.299162 1.256376 0.701910 
0.290742 1.230462 0.938053 
0.273282 1.176727 1.181003 
0.243601 1.085379 1.378753 
0.203444 0.961789 1.570853 
0.156304 0.816705 1.723403 
0.129959 0.740201 1.806860 
0.118997 0.704535 1.843346 
0.093028 0.616827 1.966353 
0.077937 0.564564 2.045986 
0.075460 0.558971 2.141503 
0.079318 0.579766 2.277103 
0.074245 0.564152 2.367503 
0.114159 0.549152 2.367503 
0.121613 0.563780 2.277103 
0.114560 0.544051 2.141503 
0.117885 0.549243 2.045986 
0.140959 0.598367 1.966353 
0.180318 0.680736 1.843346 
0.196722 0.714198 1.806860 
0.234717 0.785759 1.723403 
0.303973 0.921682 1.570853 
0.362969 1.037469 1.378753 
0.406574 1.123050 1.181003 
0.432225 1.173392 0.938053 
0.444595 1.197669 0.701910 
0.446657 1.201716 0.486203 
0.443077 1.194690 0.312751 
0.436635 1.182046 0.219717 
0.426613 1.162377 0.147183 
0.416590 1.142707 0.098301 
0.402273 1.114607 0.044689 
0.396546 1.103368 0.024190 
0.400126 1.110393 0.017882 
0.401557 1.113202 0.008421 
0.400126 1.110393 0.000537 
0.394399 1.099152 -0.005770 
-0.009137 0.307168 -0.005770 
0.514064 1.027483 -0.005770 
-0.008397 0.308376 -0.005770 
0.521480 1.037689 0.000537 
0.523333 1.040240 0.008421 
0.521480 1.037689 0.017882 
0.516845 1.031310 0.024190 
0.524260 1.041516 0.044689 
0.542796 1.067030 0.098301 
0.555772 1.084889 0.147183 
0.568748 1.102749 0.219717 
0.577089 1.114230 0.312751 
0.581724 1.120609 0.486203 
0.579054 1.116935 0.701910 
0.563039 1.094891 0.938053 
0.529829 1.049181 1.181003 
0.473372 0.971475 1.378753 
0.396989 0.866344 1.570853 
0.307323 0.742928 1.723403 
0.258594 0.678071 1.806860 
0.237161 0.647637 1.843346 
0.185411 0.572636 1.966353 
0.154944 0.527861 2.045986 
0.150844 0.523198 2.141503 
0.160886 0.541375 2.277103 
0.151236 0.528093 2.367503 
0.184563 0.501494 2.367503 
0.196171 0.513103 2.277103 
0.183420 0.496926 2.141503 
0.188202 0.500946 2.045986 
0.225292 0.540268 1.966353 
0.288126 0.606054 1.843346 
0.314053 0.632710 1.806860 
0.372335 0.689266 1.723403 
0.480204 0.797135 1.570853 
0.572093 0.889024 1.378753 
0.640010 0.956941 1.181003 
0.679962 0.996893 0.938053 
0.699229 1.016160 0.701910 
0.702440 1.019371 0.486203 
0.696865 1.013795 0.312751 
0.686830 1.003761 0.219717 
0.671220 0.988151 0.147183 
0.655610 0.972541 0.098301 
0.633310 0.950241 0.044689 
0.624390 0.941321 0.024190 
0.629966 0.946896 0.017882 
0.632195 0.949126 0.008421 
0.629966 0.946896 0.000537 
0.621045 0.937976 -0.005770 
-0.007477 0.309454 -0.005770 
0.712707 0.832836 -0.005770 
-0.006399 0.310374 -0.005770 
0.722913 0.840250 0.000537 
0.725464 0.842104 0.008421 
0.722913 0.840250 0.017882 
0.716534 0.835616 0.024190 
0.726740 0.843031 0.044689 
0.752254 0.861568 0.098301 
0.770113 0.874544 0.147183 
0.787973 0.887520 0.219717 
0.799454 0.895861 0.312751 
0.805833 0.900495 0.486203 
0.802158 0.897826 0.701910 
0.780115 0.881811 0.938053 
0.734405 0.848601 1.181003 
0.656700 0.792144 1.378753 
0.551567 0.715761 1.570853 
0.428152 0.626094 1.723403 
0.361734 0.579232 1.806860 
0.331959 0.557010 1.843346 
0.259617 0.502059 1.966353 
0.216840 0.469159 2.045986 
0.211485 0.465881 2.141503 
0.226599 0.479658 2.277103 
0.213317 0.470008 2.367503 
0.236793 0.434412 2.367503 
0.251421 0.441865 2.277103 
0.234347 0.430829 2.141503 
0.240152 0.433284 2.045986 
0.287543 0.458952 1.966353 
0.367579 0.501712 1.843346 
0.400461 0.518953 1.806860 
0.473400 0.554969 1.723403 
0.609323 0.624225 1.570853 
0.725109 0.683221 1.378753 
0.810690 0.726827 1.181003 
0.861032 0.752478 0.938053 
0.885310 0.764848 0.701910 
0.889356 0.766909 0.486203 
0.882331 0.763330 0.312751 
0.869687 0.756887 0.219717 
0.850017 0.746865 0.147183 
0.830347 0.736843 0.098301 
0.802248 0.722525 0.044689 
0.791008 0.716799 0.024190 
0.798033 0.720378 0.017882 
0.800843 0.721809 0.008421 
0.798033 0.720378 0.000537 
0.786793 0.714651 -0.005770 
-0.005191 0.311114 -0.005770 
0.841478 0.586331 -0.005770 
-0.003882 0.311656 -0.005770 
0.853476 0.590229 0.000537 
0.856475 0.591204 0.008421 
0.853476 0.590229 0.017882 
0.845978 0.587793 0.024190 
0.857975 0.591691 0.044689 
0.887968 0.601437 0.098301 
0.908963 0.608258 0.147183 
0.929959 0.615080 0.219717 
0.943455 0.619465 0.312751 
0.950954 0.621902 0.486203 
0.946635 0.620499 0.701910 
0.920721 0.612079 0.938053 
0.866986 0.594619 1.181003 
0.775638 0.564938 1.378753 
0.652047 0.524781 1.570853 
0.506964 0.477641 1.723403 
0.429282 0.453358 1.806860 
0.394111 0.441524 1.843346 
0.308382 0.412006 1.966353 
0.257566 0.394204 2.045986 
0.251445 0.392631 2.141503 
0.270024 0.400654 2.277103 
0.254411 0.395581 2.367503 
0.265737 0.354473 2.367503 
0.281952 0.357041 2.277103 
0.262357 0.352229 2.141503 
0.268652 0.352880 2.045986 
0.321620 0.362379 1.966353 
0.410900 0.377925 1.843346 
0.447487 0.384062 1.806860 
0.528018 0.396014 1.723403 
0.678690 0.419878 1.570853 
0.807040 0.440207 1.378753 
0.901907 0.455233 1.181003 
0.957712 0.464071 0.938053 
0.984624 0.468333 0.701910 
0.989109 0.469044 0.486203 
0.981322 0.467810 0.312751 
0.967305 0.465590 0.219717 
0.945501 0.462137 0.147183 
0.923697 0.458683 0.098301 
0.892549 0.453750 0.044689 
0.880090 0.451777 0.024190 
0.887877 0.453010 0.017882 
0.890991 0.453503 0.008421 
0.887877 0.453010 0.000537 
0.875417 0.451037 -0.005770 
-0.002504 0.311987 -0.005770 
0.887773 0.312099 -0.005770 
-0.001092 0.312098 -0.005770 
0.900388 0.312098 0.000537 
0.903541 0.312099 0.008421 
0.900388 0.312098 0.017882 
0.892504 0.312099 0.024190 
0.905118 0.312099 0.044689 
0.936655 0.312099 0.098301 
0.958731 0.312099 0.147183 
0.980807 0.312099 0.219717 
0.994998 0.312099 0.312751 
1.002882 0.312099 0.486203 
0.998341 0.312099 0.701910 
0.971094 0.312099 0.938053 
0.914593 0.312099 1.181003 
0.818544 0.312099 1.378753 
0.688594 0.312099 1.570853 
0.536044 0.312099 1.723403 
0.454628 0.312771 1.806860 
0.417534 0.312483 1.843346 
0.326932 0.311292 1.966353 
0.273137 0.310331 2.045986 
0.266814 0.310617 2.141503 
0.286911 0.312099 2.277103 
0.270493 0.312099 2.367503 
4 0 1 2 3 
4 3 2 4 5 
4 5 4 6 7 
4 7 6 8 9 
4 9 8 10 11 
4 11 10 12 13 
4 13 12 14 15 
4 15 14 16 17 
4 17 16 18 19 
4 19 18 20 21 
4 21 20 22 23 
4 23 22 24 25 
4 25 24 26 27 
4 27 26 28 29 
4 29 28 30 31 
4 31 30 32 33 
4 33 32 34 35 
4 35 34 36 37 
4 37 36 38 39 
4 39 38 40 41 
4 41 40 42 43 
4 43 42 44 45 
4 45 44 46 47 
4 48 49 47 46 
4 46 50 51 48 
4 44 52 50 46 
4 42 53 52 44 
4 40 54 53 42 
4 38 55 54 40 
4 36 56 55 38 
4 34 57 56 36 
4 32 58 57 34 
4 30 59 58 32 
4 28 60 59 30 
4 26 61 60 28 
4 24 62 61 26 
4 22 63 62 24 
4 20 64 63 22 
4 18 65 64 20 
4 16 66 65 18 
4 14 67 66 16 
4 12 68 67 14 
4 10 69 68 12 
4 8 70 69 10 
4 6 71 70 8 
4 4 72 71 6 
4 2 73 72 4 
4 1 74 73 2 
4 74 75 76 73 
4 73 76 77 72 
4 72 77 78 71 
4 71 78 79 70 
4 70 79 80 69 
4 69 80 81 68 
4 68 81 82 67 
4 67 82 83 66 
4 66 83 84 65 
4 65 84 85 64 
4 64 85 86 63 
4 63 86 87 62 
4 62 87 88 61 
4 61 88 89 60 
4 60 89 90 59 
4 59 90 91 58 
4 58 91 92 57 
4 57 92 93 56 
4 56 93 94 55 
4 55 94 95 54 
4 54 95 96 53 
4 53 96 97 52 
4 52 97 98 50 
4 50 98 99 51 
4 98 100 101 99 
4 97 102 100 98 
4 96 103 102 97 
4 95 104 103 96 
4 94 105 104 95 
4 93 106 105 94 
4 92 107 106 93 
4 91 108 107 92 
4 90 109 108 91 
4 89 110 109 90 
4 88 111 110 89 
4 87 112 111 88 
4 86 113 112 87 
4 85 114 113 86 
4 84 115 114 85 
4 83 116 115 84 
4 82 117 116 83 
4 81 118 117 82 
4 80 119 118 81 
4 79 120 119 80 
4 78 121 120 79 
4 77 122 121 78 
4 76 123 122 77 
4 75 124 123 76 
4 124 125 126 123 
4 123 126 127 122 
4 122 127 128 121 
4 121 128 129 120 
4 120 129 130 119 
4 119 130 131 118 
4 118 131 132 117 
4 117 132 133 116 
4 116 133 134 115 
4 115 134 135 114 
4 114 135 136 113 
4 113 136 137 112 
4 112 137 138 111 
4 111 138 139 110 
4 110 139 140 109 
4 109 140 141 108 
4 108 141 142 107 
4 107 142 143 106 
4 106 143 144 105 
4 105 144 145 104 
4 104 145 146 103 
4 103 146 147 102 
4 102 147 148 100 
4 100 148 149 101 
4 148 150 151 149 
4 147 152 150 148 
4 146 153 152 147 
4 145 154 153 146 
4 144 155 154 145 
4 143 156 155 144 
4 142 157 156 143 
4 141 158 157 142 
4 140 159 158 141 
4 139 160 159 140 
4 138 161 160 139 
4 137 162 161 138 
4 136 163 162 137 
4 135 164 163 136 
4 134 165 164 135 
4 133 166 165 134 
4 132 167 166 133 
4 131 168 167 132 
4 130 169 168 131 
4 129 170 169 130 
4 128 171 170 129 
4 127 172 171 128 
4 126 173 172 127 
4 125 174 173 126 
4 174 175 176 173 
4 173 176 177 172 
4 172 177 178 171 
4 171 178 179 170 
4 170 179 180 169 
4 169 180 181 168 
4 168 181 182 167 
4 167 182 183 166 
4 166 183 184 165 
4 165 184 185 164 
4 164 185 186 163 
4 163 186 187 162 
4 162 187 188 161 
4 161 188 189 160 
4 160 189 190 159 
4 159 190 191 158 
4 158 191 192 157 
4 157 192 193 156 
4 156 193 194 155 
4 155 194 195 154 
4 154 195 196 153 
4 153 196 197 152 
4 152 197 198 150 
4 150 198 199 151 
4 198 200 201 199 
4 197 202 200 198 
4 196 203 202 197 
4 195 204 203 196 
4 194 205 204 195 
4 193 206 205 194 
4 192 207 206 193 
4 191 208 207 192 
4 190 209 208 191 
4 189 210 209 190 
4 188 211 210 189 
4 187 212 211 188 
4 186 213 212 187 
4 185 214 213 186 
4 184 215 214 185 
4 183 216 215 184 
4 182 217 216 183 
4 181 218 217 182 
4 180 219 218 181 
4 179 220 219 180 
4 178 221 220 179 
4 177 222 221 178 
4 176 223 222 177 
4 175 224 223 176 
4 224 225 226 223 
4 223 226 227 222 
4 222 227 228 221 
4 221 228 229 220 
4 220 229 230 219 
4 219 230 231 218 
4 218 231 232 217 
4 217 232 233 216 
4 216 233 234 215 
4 215 234 235 214 
4 214 235 236 213 
4 213 236 237 212 
4 212 237 238 211 
4 211 238 239 210 
4 210 239 240 209 
4 209 240 241 208 
4 208 241 242 207 
4 207 242 243 206 
4 206 243 244 205 
4 205 244 245 204 
4 204 245 246 203 
4 203 246 247 202 
4 202 247 248 200 
4 200 248 249 201 
4 248 250 251 249 
4 247 252 250 248 
4 246 253 252 247 
4 245 254 253 246 
4 244 255 254 245 
4 243 256 255 244 
4 242 257 256 243 
4 241 258 257 242 
4 240 259 258 241 
4 239 260 259 240 
4 238 261 260 239 
4 237 262 261 238 
4 236 263 262 237 
4 235 264 263 236 
4 234 265 264 235 
4 233 266 265 234 
4 232 267 266 233 
4 231 268 267 232 
4 230 269 268 231 
4 229 270 269 230 
4 228 271 270 229 
4 227 272 271 228 
4 226 273 272 227 
4 225 274 273 226 
4 274 275 276 273 
4 273 276 277 272 
4 272 277 278 271 
4 271 278 279 270 
4 270 279 280 269 
4 269 280 281 268 
4 268 281 282 267 
4 267 282 283 266 
4 266 283 284 265 
4 265 284 285 264 
4 264 285 286 263 
4 263 286 287 262 
4 262 287 288 261 
4 261 288 289 260 
4 260 289 290 259 
4 259 290 291 258 
4 258 291 292 257 
4 257 292 293 256 
4 256 293 294 255 
4 255 294 295 254 
4 254 295 296 253 
4 253 296 297 252 
4 252 297 298 250 
4 250 298 299 251 
4 298 300 301 299 
4 297 302 300 298 
4 296 303 302 297 
4 295 304 303 296 
4 294 305 304 295 
4 293 306 305 294 
4 292 307 306 293 
4 291 308 307 292 
4 290 309 308 291 
4 289 310 309 290 
4 288 311 310 289 
4 287 312 311 288 
4 286 313 312 287 
4 285 314 313 286 
4 284 315 314 285 
4 283 316 315 284 
4 282 317 316 283 
4 281 318 317 282 
4 280 319 318 281 
4 279 320 319 280 
4 278 321 320 279 
4 277 322 321 278 
4 276 323 322 277 
4 275 324 323 276 
4 324 325 326 323 
4 323 326 327 322 
4 322 327 328 321 
4 321 328 329 320 
4 320 329 330 319 
4 319 330 331 318 
4 318 331 332 317 
4 317 332 333 316 
4 316 333 334 315 
4 315 334 335 314 
4 314 335 336 313 
4 313 336 337 312 
4 312 337 338 311 
4 311 338 339 310 
4 310 339 340 309 
4 309 340 341 308 
4 308 341 342 307 
4 307 342 343 306 
4 306 343 344 305 
4 305 344 345 304 
4 304 345 346 303 
4 303 346 347 302 
4 302 347 348 300 
4 300 348 349 301 
4 348 350 351 349 
4 347 352 350 348 
4 346 353 352 347 
4 345 354 353 346 
4 344 355 354 345 
4 343 356 355 344 
4 342 357 356 343 
4 341 358 357 342 
4 340 359 358 341 
4 339 360 359 340 
4 338 361 360 339 
4 337 362 361 338 
4 336 363 362 337 
4 335 364 363 336 
4 334 365 364 335 
4 333 366 365 334 
4 332 367 366 333 
4 331 368 367 332 
4 330 369 368 331 
4 329 370 369 330 
4 328 371 370 329 
4 327 372 371 328 
4 326 373 372 327 
4 325 374 373 326 
4 374 375 376 373 
4 373 376 377 372 
4 372 377 378 371 
4 371 378 379 370 
4 370 379 380 369 
4 369 380 381 368 
4 368 381 382 367 
4 367 382 383 366 
4 366 383 384 365 
4 365 384 385 364 
4 364 385 386 363 
4 363 386 387 362 
4 362 387 388 361 
4 361 388 389 360 
4 360 389 390 359 
4 359 390 391 358 
4 358 391 392 357 
4 357 392 393 356 
4 356 393 394 355 
4 355 394 395 354 
4 354 395 396 353 
4 353 396 397 352 
4 352 397 398 350 
4 350 398 399 351 
4 398 400 401 399 
4 397 402 400 398 
4 396 403 402 397 
4 395 404 403 396 
4 394 405 404 395 
4 393 406 405 394 
4 392 407 406 393 
4 391 408 407 392 
4 390 409 408 391 
4 389 410 409 390 
4 388 411 410 389 
4 387 412 411 388 
4 386 413 412 387 
4 385 414 413 386 
4 384 415 414 385 
4 383 416 415 384 
4 382 417 416 383 
4 381 418 417 382 
4 380 419 418 381 
4 379 420 419 380 
4 378 421 420 379 
4 377 422 421 378 
4 376 423 422 377 
4 375 424 423 376 
4 424 425 426 423 
4 423 426 427 422 
4 422 427 428 421 
4 421 428 429 420 
4 420 429 430 419 
4 419 430 431 418 
4 418 431 432 417 
4 417 432 433 416 
4 416 433 434 415 
4 415 434 435 414 
4 414 435 436 413 
4 413 436 437 412 
4 412 437 438 411 
4 411 438 439 410 
4 410 439 440 409 
4 409 440 441 408 
4 408 441 442 407 
4 407 442 443 406 
4 406 443 444 405 
4 405 444 445 404 
4 404 445 446 403 
4 403 446 447 402 
4 402 447 448 400 
4 400 448 449 401 
4 448 450 451 449 
4 447 452 450 448 
4 446 453 452 447 
4 445 454 453 446 
4 444 455 454 445 
4 443 456 455 444 
4 442 457 456 443 
4 441 458 457 442 
4 440 459 458 441 
4 439 460 459 440 
4 438 461 460 439 
4 437 462 461 438 
4 436 463 462 437 
4 435 464 463 436 
4 434 465 464 435 
4 433 466 465 434 
4 432 467 466 433 
4 431 468 467 432 
4 430 469 468 431 
4 429 470 469 430 
4 428 471 470 429 
4 427 472 471 428 
4 426 473 472 427 
4 425 474 473 426 
4 474 475 476 473 
4 473 476 477 472 
4 472 477 478 471 
4 471 478 479 470 
4 470 479 480 469 
4 469 480 481 468 
4 468 481 482 467 
4 467 482 483 466 
4 466 483 484 465 
4 465 484 485 464 
4 464 485 486 463 
4 463 486 487 462 
4 462 487 488 461 
4 461 488 489 460 
4 460 489 490 459 
4 459 490 491 458 
4 458 491 492 457 
4 457 492 493 456 
4 456 493 494 455 
4 455 494 495 454 
4 454 495 496 453 
4 453 496 497 452 
4 452 497 498 450 
4 450 498 499 451 
4 498 500 501 499 
4 497 502 500 498 
4 496 503 502 497 
4 495 504 503 496 
4 494 505 504 495 
4 493 506 505 494 
4 492 507 506 493 
4 491 508 507 492 
4 490 509 508 491 
4 489 510 509 490 
4 488 511 510 489 
4 487 512 511 488 
4 486 513 512 487 
4 485 514 513 486 
4 484 515 514 485 
4 483 516 515 484 
4 482 517 516 483 
4 481 518 517 482 
4 480 519 518 481 
4 479 520 519 480 
4 478 521 520 479 
4 477 522 521 478 
4 476 523 522 477 
4 475 524 523 476 
4 524 525 526 523 
4 523 526 527 522 
4 522 527 528 521 
4 521 528 529 520 
4 520 529 530 519 
4 519 530 531 518 
4 518 531 532 517 
4 517 532 533 516 
4 516 533 534 515 
4 515 534 535 514 
4 514 535 536 513 
4 513 536 537 512 
4 512 537 538 511 
4 511 538 539 510 
4 510 539 540 509 
4 509 540 541 508 
4 508 541 542 507 
4 507 542 543 506 
4 506 543 544 505 
4 505 544 545 504 
4 504 545 546 503 
4 503 546 547 502 
4 502 547 548 500 
4 500 548 549 501 
4 548 550 551 549 
4 547 552 550 548 
4 546 553 552 547 
4 545 554 553 546 
4 544 555 554 545 
4 543 556 555 544 
4 542 557 556 543 
4 541 558 557 542 
4 540 559 558 541 
4 539 560 559 540 
4 538 561 560 539 
4 537 562 561 538 
4 536 563 562 537 
4 535 564 563 536 
4 534 565 564 535 
4 533 566 565 534 
4 532 567 566 533 
4 531 568 567 532 
4 530 569 568 531 
4 529 570 569 530 
4 528 571 570 529 
4 527 572 571 528 
4 526 573 572 527 
4 525 574 573 526 
4 574 575 576 573 
4 573 576 577 572 
4 572 577 578 571 
4 571 578 579 570 
4 570 579 580 569 
4 569 580 581 568 
4 568 581 582 567 
4 567 582 583 566 
4 566 583 584 565 
4 565 584 585 564 
4 564 585 586 563 
4 563 586 587 562 
4 562 587 588 561 
4 561 588 589 560 
4 560 589 590 559 
4 559 590 591 558 
4 558 591 592 557 
4 557 592 593 556 
4 556 593 594 555 
4 555 594 595 554 
4 554 595 596 553 
4 553 596 597 552 
4 552 597 598 550 
4 550 598 599 551 
4 598 600 601 599 
4 597 602 600 598 
4 596 603 602 597 
4 595 604 603 596 
4 594 605 604 595 
4 593 606 605 594 
4 592 607 606 593 
4 591 608 607 592 
4 590 609 608 591 
4 589 610 609 590 
4 588 611 610 589 
4 587 612 611 588 
4 586 613 612 587 
4 585 614 613 586 
4 584 615 614 585 
4 583 616 615 584 
4 582 617 616 583 
4 581 618 617 582 
4 580 619 618 581 
4 579 620 619 580 
4 578 621 620 579 
4 577 622 621 578 
4 576 623 622 577 
4 575 624 623 576 
4 624 625 626 623 
4 623 626 627 622 
4 622 627 628 621 
4 621 628 629 620 
4 620 629 630 619 
4 619 630 631 618 
4 618 631 632 617 
4 617 632 633 616 
4 616 633 634 615 
4 615 634 635 614 
4 614 635 636 613 
4 613 636 637 612 
4 612 637 638 611 
4 611 638 639 610 
4 610 639 640 609 
4 609 640 641 608 
4 608 641 642 607 
4 607 642 643 606 
4 606 643 644 605 
4 605 644 645 604 
4 604 645 646 603 
4 603 646 647 602 
4 602 647 648 600 
4 600 648 649 601 
4 648 650 651 649 
4 647 652 650 648 
4 646 653 652 647 
4 645 654 653 646 
4 644 655 654 645 
4 643 656 655 644 
4 642 657 656 643 
4 641 658 657 642 
4 640 659 658 641 
4 639 660 659 640 
4 638 661 660 639 
4 637 662 661 638 
4 636 663 662 637 
4 635 664 663 636 
4 634 665 664 635 
4 633 666 665 634 
4 632 667 666 633 
4 631 668 667 632 
4 630 669 668 631 
4 629 670 669 630 
4 628 671 670 629 
4 627 672 671 628 
4 626 673 672 627 
4 625 674 673 626 
4 674 675 676 673 
4 673 676 677 672 
4 672 677 678 671 
4 671 678 679 670 
4 670 679 680 669 
4 669 680 681 668 
4 668 681 682 667 
4 667 682 683 666 
4 666 683 684 665 
4 665 684 685 664 
4 664 685 686 663 
4 663 686 687 662 
4 662 687 688 661 
4 661 688 689 660 
4 660 689 690 659 
4 659 690 691 658 
4 658 691 692 657 
4 657 692 693 656 
4 656 693 694 655 
4 655 694 695 654 
4 654 695 696 653 
4 653 696 697 652 
4 652 697 698 650 
4 650 698 699 651 
4 698 700 701 699 
4 697 702 700 698 
4 696 703 702 697 
4 695 704 703 696 
4 694 705 704 695 
4 693 706 705 694 
4 692 707 706 693 
4 691 708 707 692 
4 690 709 708 691 
4 689 710 709 690 
4 688 711 710 689 
4 687 712 711 688 
4 686 713 712 687 
4 685 714 713 686 
4 684 715 714 685 
4 683 716 715 684 
4 682 717 716 683 
4 681 718 717 682 
4 680 719 718 681 
4 679 720 719 680 
4 678 721 720 679 
4 677 722 721 678 
4 676 723 722 677 
4 675 724 723 676 
4 724 725 726 723 
4 723 726 727 722 
4 722 727 728 721 
4 721 728 729 720 
4 720 729 730 719 
4 719 730 731 718 
4 718 731 732 717 
4 717 732 733 716 
4 716 733 734 715 
4 715 734 735 714 
4 714 735 736 713 
4 713 736 737 712 
4 712 737 738 711 
4 711 738 739 710 
4 710 739 740 709 
4 709 740 741 708 
4 708 741 742 707 
4 707 742 743 706 
4 706 743 744 705 
4 705 744 745 704 
4 704 745 746 703 
4 703 746 747 702 
4 702 747 748 700 
4 700 748 749 701 
4 748 750 751 749 
4 747 752 750 748 
4 746 753 752 747 
4 745 754 753 746 
4 744 755 754 745 
4 743 756 755 744 
4 742 757 756 743 
4 741 758 757 742 
4 740 759 758 741 
4 739 760 759 740 
4 738 761 760 739 
4 737 762 761 738 
4 736 763 762 737 
4 735 764 763 736 
4 734 765 764 735 
4 733 766 765 734 
4 732 767 766 733 
4 731 768 767 732 
4 730 769 768 731 
4 729 770 769 730 
4 728 771 770 729 
4 727 772 771 728 
4 726 773 772 727 
4 725 774 773 726 
4 774 775 776 773 
4 773 776 777 772 
4 772 777 778 771 
4 771 778 779 770 
4 770 779 780 769 
4 769 780 781 768 
4 768 781 782 767 
4 767 782 783 766 
4 766 783 784 765 
4 765 784 785 764 
4 764 785 786 763 
4 763 786 787 762 
4 762 787 788 761 
4 761 788 789 760 
4 760 789 790 759 
4 759 790 791 758 
4 758 791 792 757 
4 757 792 793 756 
4 756 793 794 755 
4 755 794 795 754 
4 754 795 796 753 
4 753 796 797 752 
4 752 797 798 750 
4 750 798 799 751 
4 798 800 801 799 
4 797 802 800 798 
4 796 803 802 797 
4 795 804 803 796 
4 794 805 804 795 
4 793 806 805 794 
4 792 807 806 793 
4 791 808 807 792 
4 790 809 808 791 
4 789 810 809 790 
4 788 811 810 789 
4 787 812 811 788 
4 786 813 812 787 
4 785 814 813 786 
4 784 815 814 785 
4 783 816 815 784 
4 782 817 816 783 
4 781 818 817 782 
4 780 819 818 781 
4 779 820 819 780 
4 778 821 820 779 
4 777 822 821 778 
4 776 823 822 777 
4 775 824 823 776 
4 824 825 826 823 
4 823 826 827 822 
4 822 827 828 821 
4 821 828 829 820 
4 820 829 830 819 
4 819 830 831 818 
4 818 831 832 817 
4 817 832 833 816 
4 816 833 834 815 
4 815 834 835 814 
4 814 835 836 813 
4 813 836 837 812 
4 812 837 838 811 
4 811 838 839 810 
4 810 839 840 809 
4 809 840 841 808 
4 808 841 842 807 
4 807 842 843 806 
4 806 843 844 805 
4 805 844 845 804 
4 804 845 846 803 
4 803 846 847 802 
4 802 847 848 800 
4 800 848 849 801 
4 848 850 851 849 
4 847 852 850 848 
4 846 853 852 847 
4 845 854 853 846 
4 844 855 854 845 
4 843 856 855 844 
4 842 857 856 843 
4 841 858 857 842 
4 840 859 858 841 
4 839 860 859 840 
4 838 861 860 839 
4 837 862 861 838 
4 836 863 862 837 
4 835 864 863 836 
4 834 865 864 835 
4 833 866 865 834 
4 832 867 866 833 
4 831 868 867 832 
4 830 869 868 831 
4 829 870 869 830 
4 828 871 870 829 
4 827 872 871 828 
4 826 873 872 827 
4 825 874 873 826 
4 874 875 876 873 
4 873 876 877 872 
4 872 877 878 871 
4 871 878 879 870 
4 870 879 880 869 
4 869 880 881 868 
4 868 881 882 867 
4 867 882 883 866 
4 866 883 884 865 
4 865 884 885 864 
4 864 885 886 863 
4 863 886 887 862 
4 862 887 888 861 
4 861 888 889 860 
4 860 889 890 859 
4 859 890 891 858 
4 858 891 892 857 
4 857 892 893 856 
4 856 893 894 855 
4 855 894 895 854 
4 854 895 896 853 
4 853 896 897 852 
4 852 897 898 850 
4 850 898 899 851 
4 898 900 901 899 
4 897 902 900 898 
4 896 903 902 897 
4 895 904 903 896 
4 894 905 904 895 
4 893 906 905 894 
4 892 907 906 893 
4 891 908 907 892 
4 890 909 908 891 
4 889 910 909 890 
4 888 911 910 889 
4 887 912 911 888 
4 886 913 912 887 
4 885 914 913 886 
4 884 915 914 885 
4 883 916 915 884 
4 882 917 916 883 
4 881 918 917 882 
4 880 919 918 881 
4 879 920 919 880 
4 878 921 920 879 
4 877 922 921 878 
4 876 923 922 877 
4 875 924 923 876 
4 924 925 926 923 
4 923 926 927 922 
4 922 927 928 921 
4 921 928 929 920 
4 920 929 930 919 
4 919 930 931 918 
4 918 931 932 917 
4 917 932 933 916 
4 916 933 934 915 
4 915 934 935 914 
4 914 935 936 913 
4 913 936 937 912 
4 912 937 938 911 
4 911 938 939 910 
4 910 939 940 909 
4 909 940 941 908 
4 908 941 942 907 
4 907 942 943 906 
4 906 943 944 905 
4 905 944 945 904 
4 904 945 946 903 
4 903 946 947 902 
4 902 947 948 900 
4 900 948 949 901 
4 948 950 951 949 
4 947 952 950 948 
4 946 953 952 947 
4 945 954 953 946 
4 944 955 954 945 
4 943 956 955 944 
4 942 957 956 943 
4 941 958 957 942 
4 940 959 958 941 
4 939 960 959 940 
4 938 961 960 939 
4 937 962 961 938 
4 936 963 962 937 
4 935 964 963 936 
4 934 965 964 935 
4 933 966 965 934 
4 932 967 966 933 
4 931 968 967 932 
4 930 969 968 931 
4 929 970 969 930 
4 928 971 970 929 
4 927 972 971 928 
4 926 973 972 927 
4 925 974 973 926 
4 974 975 976 973 
4 973 976 977 972 
4 972 977 978 971 
4 971 978 979 970 
4 970 979 980 969 
4 969 980 981 968 
4 968 981 982 967 
4 967 982 983 966 
4 966 983 984 965 
4 965 984 985 964 
4 964 985 986 963 
4 963 986 987 962 
4 962 987 988 961 
4 961 988 989 960 
4 960 989 990 959 
4 959 990 991 958 
4 958 991 992 957 
4 957 992 993 956 
4 956 993 994 955 
4 955 994 995 954 
4 954 995 996 953 
4 953 996 997 952 
4 952 997 998 950 
4 950 998 999 951 
4 998 1000 1001 999 
4 997 1002 1000 998 
4 996 1003 1002 997 
4 995 1004 1003 996 
4 994 1005 1004 995 
4 993 1006 1005 994 
4 992 1007 1006 993 
4 991 1008 1007 992 
4 990 1009 1008 991 
4 989 1010 1009 990 
4 988 1011 1010 989 
4 987 1012 1011 988 
4 986 1013 1012 987 
4 985 1014 1013 986 
4 984 1015 1014 985 
4 983 1016 1015 984 
4 982 1017 1016 983 
4 981 1018 1017 982 
4 980 1019 1018 981 
4 979 1020 1019 980 
4 978 1021 1020 979 
4 977 1022 1021 978 
4 976 1023 1022 977 
4 975 1024 1023 976 
