ply
format ascii 1.0
Created by Blender3D 246 - www.blender.org, source file: fluorescent.blend
element vertex 316
property float x
property float y
property float z
element face 340
property list uchar uint vertex_indices
end_header
6.757454 0.819904 0.044092 
6.757454 1.562999 -0.645956 
6.757454 1.529662 -0.681884 
6.757454 0.800646 -0.004899 
6.757454 -1.529662 -0.681883 
6.757454 -1.562999 -0.645956 
6.757454 -0.819904 0.044092 
6.757454 -0.800646 -0.004899 
6.757454 -0.719669 0.681883 
6.757454 0.705253 0.681883 
6.757454 0.705253 0.681883 
6.757454 -0.719669 0.681883 
-6.757454 0.705253 0.681883 
-6.757454 -0.719669 0.681883 
-6.757454 0.819904 0.044092 
6.757454 0.819904 0.044092 
6.757454 0.705253 0.681883 
-6.757454 0.705253 0.681883 
-6.757454 1.562999 -0.645956 
6.757454 1.562999 -0.645956 
6.757454 0.819904 0.044092 
-6.757454 0.819904 0.044092 
-6.757454 1.529662 -0.681884 
6.757454 1.529662 -0.681884 
6.757454 1.562999 -0.645956 
-6.757454 1.562999 -0.645956 
-6.757454 0.800646 -0.004899 
6.757454 0.800646 -0.004899 
6.757454 1.529662 -0.681884 
-6.757454 1.529662 -0.681884 
-6.757454 -0.800646 -0.004899 
6.757454 -0.800646 -0.004899 
6.757454 0.800646 -0.004899 
-6.757454 0.800646 -0.004899 
-6.757454 -1.529662 -0.681883 
6.757454 -1.529662 -0.681883 
6.757454 -0.800646 -0.004899 
-6.757454 -0.800646 -0.004899 
-6.757454 -1.562999 -0.645956 
6.757454 -1.562999 -0.645956 
6.757454 -1.529662 -0.681883 
-6.757454 -1.529662 -0.681883 
-6.757454 -0.819904 0.044092 
6.757454 -0.819904 0.044092 
6.757454 -1.562999 -0.645956 
-6.757454 -1.562999 -0.645956 
-6.757454 -0.719669 0.681883 
6.757454 -0.719669 0.681883 
6.757454 -0.819904 0.044092 
-6.757454 -0.819904 0.044092 
-6.757454 1.529662 -0.681884 
-6.757454 1.562999 -0.645956 
-6.757454 0.819904 0.044092 
-6.757454 0.800646 -0.004899 
-6.757454 -0.819904 0.044092 
-6.757454 -1.562999 -0.645956 
-6.757454 -1.529662 -0.681883 
-6.757454 -0.800646 -0.004899 
-6.757454 0.705253 0.681883 
-6.757454 -0.719669 0.681883 
-6.207664 0.604567 -0.510920 
-6.207664 0.604567 0.000056 
-6.207664 0.244732 -0.510920 
-6.207664 0.244732 0.000056 
-6.052107 0.244732 -0.510920 
-6.052107 0.604567 -0.510920 
-6.207664 0.244732 -0.510920 
-6.207664 0.604567 -0.510920 
-6.052107 0.604567 -0.510920 
-6.052107 0.604567 0.000056 
-6.207664 0.604567 -0.510920 
-6.207664 0.604567 0.000056 
-6.052107 0.604567 0.000056 
-6.052107 0.244732 0.000056 
-6.207664 0.604567 0.000056 
-6.207664 0.244732 0.000056 
-6.052107 0.244732 0.000056 
-6.052107 0.244732 -0.510920 
-6.207664 0.244732 0.000056 
-6.207664 0.244732 -0.510920 
-6.052107 0.244732 0.000056 
-6.052107 0.604567 0.000056 
-6.052107 0.244732 -0.510920 
-6.052107 0.604567 -0.510920 
6.113040 0.604567 -0.510920 
6.113040 0.604567 0.000056 
6.113040 0.244732 -0.510920 
6.113040 0.244732 0.000056 
6.268460 0.244732 -0.510920 
6.268460 0.604567 -0.510920 
6.113040 0.244732 -0.510920 
6.113040 0.604567 -0.510920 
6.268460 0.604567 -0.510920 
6.268460 0.604567 0.000056 
6.113040 0.604567 -0.510920 
6.113040 0.604567 0.000056 
6.268460 0.604567 0.000056 
6.268460 0.244732 0.000056 
6.113040 0.604567 0.000056 
6.113040 0.244732 0.000056 
6.268460 0.244732 0.000056 
6.268460 0.244732 -0.510920 
6.113040 0.244732 0.000056 
6.113040 0.244732 -0.510920 
6.268460 0.244732 0.000056 
6.268460 0.604567 0.000056 
6.268460 0.244732 -0.510920 
6.268460 0.604567 -0.510920 
-6.207664 -0.244732 -0.510920 
-6.207664 -0.244732 0.000056 
-6.207664 -0.604567 -0.510920 
-6.207664 -0.604567 0.000056 
-6.052107 -0.604567 -0.510920 
-6.052107 -0.244732 -0.510920 
-6.207664 -0.604567 -0.510920 
-6.207664 -0.244732 -0.510920 
-6.052107 -0.244732 -0.510920 
-6.052107 -0.244732 0.000056 
-6.207664 -0.244732 -0.510920 
-6.207664 -0.244732 0.000056 
-6.052107 -0.244732 0.000056 
-6.052107 -0.604567 0.000056 
-6.207664 -0.244732 0.000056 
-6.207664 -0.604567 0.000056 
-6.052107 -0.604567 0.000056 
-6.052107 -0.604567 -0.510920 
-6.207664 -0.604567 0.000056 
-6.207664 -0.604567 -0.510920 
-6.052107 -0.604567 0.000056 
-6.052107 -0.244732 0.000056 
-6.052107 -0.604567 -0.510920 
-6.052107 -0.244732 -0.510920 
6.113040 -0.244732 -0.510920 
6.113040 -0.244732 0.000056 
6.113040 -0.604567 -0.510920 
6.113040 -0.604567 0.000056 
6.268460 -0.604567 -0.510920 
6.268460 -0.244732 -0.510920 
6.113040 -0.604567 -0.510920 
6.113040 -0.244732 -0.510920 
6.268460 -0.244732 -0.510920 
6.268460 -0.244732 0.000056 
6.113040 -0.244732 -0.510920 
6.113040 -0.244732 0.000056 
6.268460 -0.244732 0.000056 
6.268460 -0.604567 0.000056 
6.113040 -0.244732 0.000056 
6.113040 -0.604567 0.000056 
6.268460 -0.604567 0.000056 
6.268460 -0.604567 -0.510920 
6.113040 -0.604567 0.000056 
6.113040 -0.604567 -0.510920 
6.268460 -0.604567 0.000056 
6.268460 -0.244732 0.000056 
6.268460 -0.604567 -0.510920 
6.268460 -0.244732 -0.510920 
-6.051163 0.574158 -0.423974 
-6.051163 0.529446 -0.475105 
-5.920880 0.529446 -0.475105 
-5.920880 0.574158 -0.423974 
-6.051163 0.468517 -0.505064 
-5.920880 0.468517 -0.505064 
-6.051163 0.400830 -0.509456 
-5.920880 0.400830 -0.509456 
-6.051163 0.336521 -0.487719 
-5.920880 0.336521 -0.487719 
-6.051163 0.285502 -0.442895 
-5.920880 0.285502 -0.442895 
-6.051163 0.255544 -0.382078 
-5.920880 0.255544 -0.382078 
-6.051163 0.251039 -0.314391 
-5.920880 0.251039 -0.314391 
-6.051163 0.272888 -0.250082 
-5.920880 0.272888 -0.250082 
-6.051163 0.317713 -0.199063 
-5.920880 0.317713 -0.199063 
-6.051163 0.378530 -0.168993 
-5.920880 0.378530 -0.168993 
-6.051163 0.446217 -0.164600 
-5.920880 0.446217 -0.164600 
-6.051163 0.510526 -0.186450 
-5.920880 0.510526 -0.186450 
-6.051163 0.561544 -0.231161 
-5.920880 0.561544 -0.231161 
-6.051163 0.591615 -0.292091 
-5.920880 0.591615 -0.292091 
-6.051163 0.596007 -0.359778 
-5.920880 0.596007 -0.359778 
0.084200 0.529446 -0.475105 
0.084200 0.574158 -0.423974 
0.084200 0.468517 -0.505064 
0.084200 0.400830 -0.509456 
0.084200 0.336521 -0.487719 
0.084200 0.285502 -0.442895 
0.084200 0.255544 -0.382078 
0.084200 0.251039 -0.314391 
0.084200 0.272888 -0.250082 
0.084200 0.317713 -0.199063 
0.084200 0.378530 -0.168993 
0.084200 0.446217 -0.164600 
0.084200 0.510526 -0.186450 
0.084200 0.561544 -0.231161 
0.084200 0.591615 -0.292091 
0.084200 0.596007 -0.359778 
5.994784 0.529446 -0.475105 
5.994784 0.574158 -0.423974 
5.994784 0.468517 -0.505064 
5.994784 0.400830 -0.509456 
5.994784 0.336521 -0.487719 
5.994784 0.285502 -0.442895 
5.994784 0.255544 -0.382078 
5.994784 0.251039 -0.314391 
5.994784 0.272888 -0.250082 
5.994784 0.317713 -0.199063 
5.994784 0.378530 -0.168993 
5.994784 0.446217 -0.164600 
5.994784 0.510526 -0.186450 
5.994784 0.561544 -0.231161 
5.994784 0.591615 -0.292091 
5.994784 0.596007 -0.359778 
6.125203 0.529446 -0.475105 
6.125203 0.574158 -0.423974 
6.125203 0.468517 -0.505064 
6.125203 0.400830 -0.509456 
6.125203 0.336521 -0.487719 
6.125203 0.285502 -0.442895 
6.125203 0.255544 -0.382078 
6.125203 0.251039 -0.314391 
6.125203 0.272888 -0.250082 
6.125203 0.317713 -0.199063 
6.125203 0.378530 -0.168993 
6.125203 0.446217 -0.164600 
6.125203 0.510526 -0.186450 
6.125203 0.561544 -0.231161 
6.125203 0.591615 -0.292091 
6.125203 0.596007 -0.359778 
-6.051163 -0.274691 -0.423974 
-6.051163 -0.319515 -0.475105 
-5.920880 -0.319515 -0.475105 
-5.920880 -0.274691 -0.423974 
-6.051163 -0.380332 -0.505063 
-5.920880 -0.380332 -0.505063 
-6.051163 -0.448019 -0.509456 
-5.920880 -0.448019 -0.509456 
-6.051163 -0.512328 -0.487719 
-5.920880 -0.512328 -0.487719 
-6.051163 -0.563346 -0.442895 
-5.920880 -0.563346 -0.442895 
-6.051163 -0.593417 -0.382078 
-5.920880 -0.593417 -0.382078 
-6.051163 -0.597809 -0.314390 
-5.920880 -0.597809 -0.314390 
-6.051163 -0.575960 -0.250082 
-5.920880 -0.575960 -0.250082 
-6.051163 -0.531248 -0.199063 
-5.920880 -0.531248 -0.199063 
-6.051163 -0.470319 -0.168993 
-5.920880 -0.470319 -0.168993 
-6.051163 -0.402632 -0.164600 
-5.920880 -0.402632 -0.164600 
-6.051163 -0.338323 -0.186449 
-5.920880 -0.338323 -0.186449 
-6.051163 -0.287304 -0.231161 
-5.920880 -0.287304 -0.231161 
-6.051163 -0.257346 -0.292091 
-5.920880 -0.257346 -0.292091 
-6.051163 -0.252841 -0.359778 
-5.920880 -0.252841 -0.359778 
0.084200 -0.319515 -0.475105 
0.084200 -0.274691 -0.423974 
0.084200 -0.380332 -0.505063 
0.084200 -0.448019 -0.509456 
0.084200 -0.512328 -0.487719 
0.084200 -0.563346 -0.442895 
0.084200 -0.593417 -0.382078 
0.084200 -0.597809 -0.314390 
0.084200 -0.575960 -0.250082 
0.084200 -0.531248 -0.199063 
0.084200 -0.470319 -0.168993 
0.084200 -0.402632 -0.164600 
0.084200 -0.338323 -0.186449 
0.084200 -0.287304 -0.231161 
0.084200 -0.257346 -0.292091 
0.084200 -0.252841 -0.359778 
5.994784 -0.319515 -0.475105 
5.994784 -0.274691 -0.423974 
5.994784 -0.380332 -0.505063 
5.994784 -0.448019 -0.509456 
5.994784 -0.512328 -0.487719 
5.994784 -0.563346 -0.442895 
5.994784 -0.593417 -0.382078 
5.994784 -0.597809 -0.314390 
5.994784 -0.575960 -0.250082 
5.994784 -0.531248 -0.199063 
5.994784 -0.470319 -0.168993 
5.994784 -0.402632 -0.164600 
5.994784 -0.338323 -0.186449 
5.994784 -0.287304 -0.231161 
5.994784 -0.257346 -0.292091 
5.994784 -0.252841 -0.359778 
6.125203 -0.319515 -0.475105 
6.125203 -0.274691 -0.423974 
6.125203 -0.380332 -0.505063 
6.125203 -0.448019 -0.509456 
6.125203 -0.512328 -0.487719 
6.125203 -0.563346 -0.442895 
6.125203 -0.593417 -0.382078 
6.125203 -0.597809 -0.314390 
6.125203 -0.575960 -0.250082 
6.125203 -0.531248 -0.199063 
6.125203 -0.470319 -0.168993 
6.125203 -0.402632 -0.164600 
6.125203 -0.338323 -0.186449 
6.125203 -0.287304 -0.231161 
6.125203 -0.257346 -0.292091 
6.125203 -0.252841 -0.359778 
3 0 1 2 
3 0 2 3 
3 4 5 6 
3 7 4 6 
3 6 8 9 
3 6 9 0 
3 7 6 0 
3 3 7 0 
3 10 11 12 
3 12 11 13 
3 14 15 16 
3 17 14 16 
3 18 19 20 
3 21 18 20 
3 22 23 24 
3 25 22 24 
3 26 27 28 
3 29 26 28 
3 30 31 32 
3 33 30 32 
3 34 35 36 
3 37 34 36 
3 38 39 40 
3 41 38 40 
3 42 43 44 
3 45 42 44 
3 46 47 48 
3 49 46 48 
3 50 51 52 
3 53 50 52 
3 54 55 56 
3 54 56 57 
3 58 59 54 
3 52 58 54 
3 52 54 57 
3 52 57 53 
3 60 61 62 
3 61 63 62 
3 64 65 66 
3 65 67 66 
3 68 69 70 
3 69 71 70 
3 72 73 74 
3 73 75 74 
3 76 77 78 
3 77 79 78 
3 80 81 82 
3 81 83 82 
3 84 85 86 
3 85 87 86 
3 88 89 90 
3 89 91 90 
3 92 93 94 
3 93 95 94 
3 96 97 98 
3 97 99 98 
3 100 101 102 
3 101 103 102 
3 104 105 106 
3 105 107 106 
3 108 109 110 
3 109 111 110 
3 112 113 114 
3 113 115 114 
3 116 117 118 
3 117 119 118 
3 120 121 122 
3 121 123 122 
3 124 125 126 
3 125 127 126 
3 128 129 130 
3 129 131 130 
3 132 133 134 
3 133 135 134 
3 136 137 138 
3 137 139 138 
3 140 141 142 
3 141 143 142 
3 144 145 146 
3 145 147 146 
3 148 149 150 
3 149 151 150 
3 152 153 154 
3 153 155 154 
3 156 157 158 
3 156 158 159 
3 157 160 161 
3 157 161 158 
3 160 162 163 
3 160 163 161 
3 162 164 165 
3 162 165 163 
3 164 166 167 
3 164 167 165 
3 166 168 169 
3 166 169 167 
3 168 170 171 
3 168 171 169 
3 170 172 173 
3 170 173 171 
3 172 174 175 
3 172 175 173 
3 174 176 177 
3 174 177 175 
3 176 178 179 
3 176 179 177 
3 178 180 181 
3 178 181 179 
3 180 182 183 
3 180 183 181 
3 182 184 185 
3 182 185 183 
3 184 186 187 
3 184 187 185 
3 186 156 159 
3 186 159 187 
3 159 158 188 
3 159 188 189 
3 158 161 190 
3 158 190 188 
3 161 163 191 
3 161 191 190 
3 163 165 192 
3 163 192 191 
3 165 167 193 
3 165 193 192 
3 167 169 194 
3 167 194 193 
3 169 171 195 
3 169 195 194 
3 171 173 196 
3 171 196 195 
3 173 175 197 
3 173 197 196 
3 175 177 198 
3 175 198 197 
3 177 179 199 
3 177 199 198 
3 179 181 200 
3 179 200 199 
3 181 183 201 
3 181 201 200 
3 183 185 202 
3 183 202 201 
3 185 187 203 
3 185 203 202 
3 187 159 189 
3 187 189 203 
3 189 188 204 
3 189 204 205 
3 188 190 206 
3 188 206 204 
3 190 191 207 
3 190 207 206 
3 191 192 208 
3 191 208 207 
3 192 193 209 
3 192 209 208 
3 193 194 210 
3 193 210 209 
3 194 195 211 
3 194 211 210 
3 195 196 212 
3 195 212 211 
3 196 197 213 
3 196 213 212 
3 197 198 214 
3 197 214 213 
3 198 199 215 
3 198 215 214 
3 199 200 216 
3 199 216 215 
3 200 201 217 
3 200 217 216 
3 201 202 218 
3 201 218 217 
3 202 203 219 
3 202 219 218 
3 203 189 205 
3 203 205 219 
3 205 204 220 
3 205 220 221 
3 204 206 222 
3 204 222 220 
3 206 207 223 
3 206 223 222 
3 207 208 224 
3 207 224 223 
3 208 209 225 
3 208 225 224 
3 209 210 226 
3 209 226 225 
3 210 211 227 
3 210 227 226 
3 211 212 228 
3 211 228 227 
3 212 213 229 
3 212 229 228 
3 213 214 230 
3 213 230 229 
3 214 215 231 
3 214 231 230 
3 215 216 232 
3 215 232 231 
3 216 217 233 
3 216 233 232 
3 217 218 234 
3 217 234 233 
3 218 219 235 
3 218 235 234 
3 219 205 221 
3 219 221 235 
3 236 237 238 
3 236 238 239 
3 237 240 241 
3 237 241 238 
3 240 242 243 
3 240 243 241 
3 242 244 245 
3 242 245 243 
3 244 246 247 
3 244 247 245 
3 246 248 249 
3 246 249 247 
3 248 250 251 
3 248 251 249 
3 250 252 253 
3 250 253 251 
3 252 254 255 
3 252 255 253 
3 254 256 257 
3 254 257 255 
3 256 258 259 
3 256 259 257 
3 258 260 261 
3 258 261 259 
3 260 262 263 
3 260 263 261 
3 262 264 265 
3 262 265 263 
3 264 266 267 
3 264 267 265 
3 266 236 239 
3 266 239 267 
3 239 238 268 
3 239 268 269 
3 238 241 270 
3 238 270 268 
3 241 243 271 
3 241 271 270 
3 243 245 272 
3 243 272 271 
3 245 247 273 
3 245 273 272 
3 247 249 274 
3 247 274 273 
3 249 251 275 
3 249 275 274 
3 251 253 276 
3 251 276 275 
3 253 255 277 
3 253 277 276 
3 255 257 278 
3 255 278 277 
3 257 259 279 
3 257 279 278 
3 259 261 280 
3 259 280 279 
3 261 263 281 
3 261 281 280 
3 263 265 282 
3 263 282 281 
3 265 267 283 
3 265 283 282 
3 267 239 269 
3 267 269 283 
3 269 268 284 
3 269 284 285 
3 268 270 286 
3 268 286 284 
3 270 271 287 
3 270 287 286 
3 271 272 288 
3 271 288 287 
3 272 273 289 
3 272 289 288 
3 273 274 290 
3 273 290 289 
3 274 275 291 
3 274 291 290 
3 275 276 292 
3 275 292 291 
3 276 277 293 
3 276 293 292 
3 277 278 294 
3 277 294 293 
3 278 279 295 
3 278 295 294 
3 279 280 296 
3 279 296 295 
3 280 281 297 
3 280 297 296 
3 281 282 298 
3 281 298 297 
3 282 283 299 
3 282 299 298 
3 283 269 285 
3 283 285 299 
3 285 284 300 
3 285 300 301 
3 284 286 302 
3 284 302 300 
3 286 287 303 
3 286 303 302 
3 287 288 304 
3 287 304 303 
3 288 289 305 
3 288 305 304 
3 289 290 306 
3 289 306 305 
3 290 291 307 
3 290 307 306 
3 291 292 308 
3 291 308 307 
3 292 293 309 
3 292 309 308 
3 293 294 310 
3 293 310 309 
3 294 295 311 
3 294 311 310 
3 295 296 312 
3 295 312 311 
3 296 297 313 
3 296 313 312 
3 297 298 314 
3 297 314 313 
3 298 299 315 
3 298 315 314 
3 299 285 301 
3 299 301 315 
