ply
format ascii 1.0
Created by Blender3D 246 - www.blender.org, source file: lampada.blend
element vertex 448
property float x
property float y
property float z
element face 416
property list uchar uint vertex_indices
end_header
1.040779 -2.811723 0.735865 
0.923354 -2.931239 1.068930 
1.054053 -3.093333 1.068930 
1.192129 -2.999430 0.735865 
0.805930 -3.050756 1.401994 
0.915976 -3.187237 1.401994 
1.151171 -3.278265 1.068930 
1.304593 -3.213583 0.735865 
0.997749 -3.342947 1.401994 
1.210976 -3.478928 1.068930 
1.373848 -3.445954 0.735865 
1.048104 -3.511903 1.401994 
1.231169 -3.687611 1.068930 
1.397232 -3.687611 0.735865 
1.065106 -3.687611 1.401994 
1.210976 -3.896293 1.068930 
1.373848 -3.929267 0.735865 
1.048104 -3.863318 1.401994 
1.151171 -4.096956 1.068930 
1.304593 -4.161638 0.735865 
0.997749 -4.032274 1.401994 
1.054053 -4.281888 1.068930 
1.192129 -4.375792 0.735865 
0.915976 -4.187984 1.401995 
0.923354 -4.443982 1.068930 
1.040779 -4.563498 0.735865 
0.805930 -4.324466 1.401995 
0.764097 -4.577009 1.068930 
0.856357 -4.717546 0.735865 
0.671838 -4.436473 1.401995 
0.582403 -4.675858 1.068930 
0.645952 -4.832014 0.735865 
0.518853 -4.519702 1.401995 
0.385252 -4.736728 1.068930 
0.417649 -4.902503 0.735865 
0.352854 -4.570954 1.401995 
0.180223 -4.757281 1.068930 
0.180222 -4.926303 0.735865 
0.180223 -4.588260 1.401995 
-0.024807 -4.736728 1.068930 
-0.057205 -4.902502 0.735865 
0.007590 -4.570954 1.401995 
-0.221958 -4.675858 1.068930 
-0.285507 -4.832013 0.735865 
-0.158408 -4.519701 1.401995 
-0.403652 -4.577009 1.068930 
-0.495912 -4.717546 0.735865 
-0.311392 -4.436472 1.401995 
-0.562909 -4.443982 1.068930 
-0.680333 -4.563498 0.735865 
-0.445484 -4.324465 1.401995 
-0.693608 -4.281887 1.068930 
-0.831684 -4.375791 0.735865 
-0.555531 -4.187984 1.401995 
-0.790726 -4.096955 1.068930 
-0.944148 -4.161637 0.735865 
-0.637303 -4.032273 1.401994 
-0.850530 -3.896292 1.068930 
-1.013402 -3.929266 0.735865 
-0.687658 -3.863318 1.401994 
-0.870724 -3.687610 1.068930 
-1.036787 -3.687609 0.735865 
-0.704660 -3.687610 1.401994 
-0.850530 -3.478927 1.068930 
-1.013402 -3.445952 0.735865 
-0.687657 -3.511902 1.401994 
-0.790725 -3.278265 1.068930 
-0.944147 -3.213582 0.735865 
-0.637302 -3.342947 1.401994 
-0.693606 -3.093333 1.068930 
-0.831683 -2.999429 0.735865 
-0.555530 -3.187236 1.401994 
-0.562908 -2.931238 1.068930 
-0.680332 -2.811722 0.735865 
-0.445483 -3.050755 1.401994 
-0.403651 -2.798211 1.068930 
-0.495910 -2.657674 0.735865 
-0.311391 -2.938748 1.401994 
-0.221956 -2.699363 1.068930 
-0.285505 -2.543207 0.735865 
-0.158406 -2.855519 1.401994 
-0.024805 -2.638493 1.068930 
-0.057202 -2.472719 0.735865 
0.007592 -2.804267 1.401994 
0.180225 -2.617940 1.068930 
0.180225 -2.448918 0.735865 
0.180224 -2.786962 1.401994 
0.385254 -2.638494 1.068930 
0.417652 -2.472720 0.735865 
0.352857 -2.804268 1.401994 
0.582404 -2.699365 1.068930 
0.645954 -2.543209 0.735865 
0.518854 -2.855520 1.401994 
0.764099 -2.798213 1.068930 
0.856359 -2.657677 0.735865 
0.671839 -2.938749 1.401994 
1.128847 -2.722085 0.486066 
1.099491 -2.751965 0.569332 
1.261167 -2.952478 0.569332 
1.295686 -2.929003 0.486066 
1.070135 -2.781844 0.652599 
1.226648 -2.975954 0.652599 
1.381304 -3.181242 0.569332 
1.419660 -3.165072 0.486066 
1.342949 -3.197413 0.652599 
1.455284 -3.429466 0.569332 
1.496002 -3.421223 0.486066 
1.414566 -3.437710 0.652599 
1.480264 -3.687611 0.569332 
1.521779 -3.687611 0.486066 
1.438748 -3.687611 0.652599 
1.455284 -3.945755 0.569333 
1.496002 -3.953999 0.486067 
1.414566 -3.937511 0.652599 
1.381304 -4.193979 0.569333 
1.419660 -4.210149 0.486067 
1.342949 -4.177808 0.652599 
1.261167 -4.422743 0.569333 
1.295686 -4.446219 0.486067 
1.226648 -4.399267 0.652599 
1.099491 -4.623257 0.569333 
1.128847 -4.653136 0.486067 
1.070135 -4.593378 0.652599 
0.902487 -4.787814 0.569333 
0.925551 -4.822948 0.486067 
0.879422 -4.752680 0.652599 
0.677727 -4.910091 0.569333 
0.693614 -4.949131 0.486067 
0.661839 -4.871053 0.652599 
0.433848 -4.985389 0.569333 
0.441947 -5.026833 0.486067 
0.425749 -4.943946 0.652599 
0.180222 -5.010814 0.569333 
0.180222 -5.053070 0.486067 
0.180222 -4.968559 0.652599 
-0.073403 -4.985389 0.569333 
-0.081502 -5.026833 0.486067 
-0.065304 -4.943945 0.652599 
-0.317282 -4.910091 0.569333 
-0.333169 -4.949130 0.486067 
-0.301395 -4.871052 0.652599 
-0.542042 -4.787814 0.569333 
-0.565107 -4.822948 0.486067 
-0.518977 -4.752680 0.652599 
-0.739046 -4.623256 0.569333 
-0.768402 -4.653135 0.486067 
-0.709690 -4.593377 0.652599 
-0.900723 -4.422742 0.569333 
-0.935242 -4.446218 0.486067 
-0.866203 -4.399267 0.652599 
-1.020859 -4.193978 0.569333 
-1.059215 -4.210148 0.486067 
-0.982503 -4.177807 0.652599 
-1.094838 -3.945754 0.569333 
-1.135557 -3.953997 0.486067 
-1.054121 -3.937510 0.652599 
-1.119818 -3.687609 0.569332 
-1.161334 -3.687609 0.486066 
-1.078303 -3.687609 0.652599 
-1.094838 -3.429465 0.569332 
-1.135557 -3.421221 0.486066 
-1.054121 -3.437709 0.652599 
-1.020858 -3.181242 0.569332 
-1.059214 -3.165071 0.486066 
-0.982503 -3.197412 0.652599 
-0.900721 -2.952477 0.569332 
-0.935240 -2.929001 0.486066 
-0.866202 -2.975953 0.652599 
-0.739044 -2.751963 0.569332 
-0.768400 -2.722084 0.486066 
-0.709688 -2.781842 0.652599 
-0.542040 -2.587406 0.569333 
-0.565105 -2.552272 0.486066 
-0.518975 -2.622540 0.652599 
-0.317280 -2.465129 0.569333 
-0.333167 -2.426090 0.486066 
-0.301392 -2.504168 0.652599 
-0.073401 -2.389832 0.569333 
-0.081500 -2.348388 0.486066 
-0.065302 -2.431275 0.652599 
0.180225 -2.364408 0.569333 
0.180225 -2.322152 0.486066 
0.180225 -2.406663 0.652599 
0.433850 -2.389832 0.569333 
0.441950 -2.348389 0.486066 
0.425751 -2.431276 0.652599 
0.677729 -2.465131 0.569333 
0.693616 -2.426092 0.486066 
0.661842 -2.504170 0.652599 
0.902490 -2.587409 0.569333 
0.925554 -2.552274 0.486066 
0.879424 -2.622543 0.652599 
0.765183 -3.092229 1.519038 
0.868063 -3.219822 1.519038 
0.724436 -3.133702 1.636082 
0.820150 -3.252407 1.636082 
0.683689 -3.175174 1.753126 
0.772236 -3.284992 1.753126 
0.642942 -3.216648 1.870170 
0.724323 -3.317577 1.870170 
0.602195 -3.258121 1.987214 
0.676409 -3.350163 1.987214 
0.561447 -3.299594 2.104258 
0.628496 -3.382748 2.104258 
0.944510 -3.365392 1.519038 
0.891271 -3.387837 1.636082 
0.838033 -3.410282 1.753126 
0.784795 -3.432727 1.870170 
0.731556 -3.455172 1.987214 
0.678317 -3.477617 2.104258 
0.991586 -3.523345 1.519038 
0.935068 -3.534787 1.636082 
0.878550 -3.546230 1.753126 
0.822032 -3.557672 1.870170 
0.765515 -3.569115 1.987214 
0.708997 -3.580557 2.104258 
1.007481 -3.687611 1.519038 
0.949856 -3.687611 1.636082 
0.892231 -3.687611 1.753126 
0.834606 -3.687611 1.870170 
0.776981 -3.687611 1.987214 
0.719356 -3.687611 2.104258 
0.991586 -3.851876 1.519038 
0.935068 -3.840434 1.636082 
0.878550 -3.828991 1.753126 
0.822032 -3.817549 1.870170 
0.765515 -3.806107 1.987214 
0.708997 -3.794664 2.104258 
0.944510 -4.009829 1.519038 
0.891271 -3.987384 1.636082 
0.838033 -3.964939 1.753126 
0.784795 -3.942494 1.870170 
0.731556 -3.920049 1.987214 
0.678317 -3.897604 2.104258 
0.868063 -4.155399 1.519038 
0.820150 -4.122814 1.636082 
0.772236 -4.090229 1.753126 
0.724323 -4.057644 1.870170 
0.676409 -4.025059 1.987214 
0.628496 -3.992474 2.104258 
0.765183 -4.282992 1.519039 
0.724436 -4.241520 1.636082 
0.683689 -4.200047 1.753126 
0.642942 -4.158574 1.870170 
0.602195 -4.117101 1.987214 
0.561447 -4.075627 2.104258 
0.639823 -4.387706 1.519039 
0.607808 -4.338939 1.636082 
0.575793 -4.290172 1.753126 
0.543779 -4.241405 1.870170 
0.511764 -4.192637 1.987214 
0.479749 -4.143870 2.104258 
0.496801 -4.465515 1.519039 
0.474749 -4.411328 1.636082 
0.452697 -4.357141 1.753126 
0.430644 -4.302953 1.870170 
0.408592 -4.248766 1.987214 
0.386540 -4.194579 2.104258 
0.341613 -4.513429 1.519039 
0.330371 -4.455904 1.636082 
0.319129 -4.398380 1.753126 
0.307887 -4.340855 1.870170 
0.296644 -4.283330 1.987214 
0.285403 -4.225806 2.104258 
0.180223 -4.529608 1.519039 
0.180223 -4.470956 1.636082 
0.180223 -4.412304 1.753126 
0.180223 -4.353653 1.870170 
0.180223 -4.295001 1.987214 
0.180223 -4.236350 2.104258 
0.018832 -4.513429 1.519039 
0.030074 -4.455904 1.636082 
0.041317 -4.398379 1.753126 
0.052559 -4.340855 1.870170 
0.063801 -4.283330 1.987214 
0.075043 -4.225806 2.104258 
-0.136356 -4.465515 1.519039 
-0.114304 -4.411327 1.636082 
-0.092251 -4.357141 1.753126 
-0.070199 -4.302953 1.870170 
-0.048147 -4.248766 1.987214 
-0.026095 -4.194579 2.104258 
-0.279378 -4.387705 1.519039 
-0.247363 -4.338938 1.636082 
-0.215348 -4.290171 1.753126 
-0.183333 -4.241404 1.870170 
-0.151318 -4.192637 1.987214 
-0.119304 -4.143870 2.104258 
-0.404737 -4.282992 1.519039 
-0.363990 -4.241519 1.636082 
-0.323243 -4.200047 1.753126 
-0.282496 -4.158573 1.870170 
-0.241749 -4.117100 1.987214 
-0.201002 -4.075627 2.104258 
-0.507618 -4.155399 1.519038 
-0.459704 -4.122814 1.636082 
-0.411791 -4.090229 1.753126 
-0.363877 -4.057643 1.870170 
-0.315963 -4.025058 1.987214 
-0.268050 -3.992473 2.104258 
-0.584064 -4.009829 1.519038 
-0.530826 -3.987383 1.636082 
-0.477587 -3.964938 1.753126 
-0.424349 -3.942493 1.870170 
-0.371110 -3.920049 1.987214 
-0.317871 -3.897604 2.104258 
-0.631140 -3.851875 1.519038 
-0.574622 -3.840433 1.636082 
-0.518105 -3.828991 1.753126 
-0.461587 -3.817548 1.870170 
-0.405069 -3.806106 1.987214 
-0.348551 -3.794664 2.104258 
-0.647035 -3.687610 1.519038 
-0.589410 -3.687610 1.636082 
-0.531785 -3.687610 1.753126 
-0.474161 -3.687610 1.870170 
-0.416535 -3.687610 1.987214 
-0.358911 -3.687610 2.104258 
-0.631140 -3.523344 1.519038 
-0.574622 -3.534787 1.636082 
-0.518104 -3.546229 1.753126 
-0.461586 -3.557672 1.870170 
-0.405069 -3.569114 1.987214 
-0.348551 -3.580557 2.104258 
-0.584064 -3.365391 1.519038 
-0.530825 -3.387836 1.636082 
-0.477587 -3.410282 1.753126 
-0.424348 -3.432727 1.870170 
-0.371109 -3.455172 1.987214 
-0.317871 -3.477617 2.104258 
-0.507617 -3.219821 1.519038 
-0.459703 -3.252407 1.636082 
-0.411790 -3.284991 1.753126 
-0.363877 -3.317577 1.870170 
-0.315963 -3.350162 1.987214 
-0.268050 -3.382747 2.104258 
-0.404736 -3.092228 1.519038 
-0.363989 -3.133701 1.636082 
-0.323242 -3.175174 1.753126 
-0.282495 -3.216647 1.870170 
-0.241748 -3.258120 1.987214 
-0.201001 -3.299593 2.104258 
-0.279376 -2.987515 1.519038 
-0.247362 -3.036282 1.636082 
-0.215347 -3.085049 1.753126 
-0.183332 -3.133816 1.870170 
-0.151318 -3.182583 1.987214 
-0.119303 -3.231351 2.104258 
-0.136354 -2.909706 1.519038 
-0.114302 -2.963893 1.636082 
-0.092250 -3.018080 1.753126 
-0.070198 -3.072268 1.870170 
-0.048146 -3.126455 1.987214 
-0.026094 -3.180642 2.104258 
0.018834 -2.861792 1.519038 
0.030076 -2.919317 1.636082 
0.041318 -2.976841 1.753126 
0.052560 -3.034366 1.870170 
0.063802 -3.091891 1.987214 
0.075044 -3.149415 2.104258 
0.180224 -2.845613 1.519038 
0.180224 -2.904265 1.636082 
0.180224 -2.962917 1.753126 
0.180224 -3.021569 1.870170 
0.180224 -3.080220 1.987214 
0.180223 -3.138872 2.104258 
0.341614 -2.861793 1.519038 
0.330373 -2.919317 1.636082 
0.319130 -2.976842 1.753126 
0.307888 -3.034367 1.870170 
0.296645 -3.091891 1.987214 
0.285404 -3.149416 2.104258 
0.496803 -2.909707 1.519038 
0.474750 -2.963894 1.636082 
0.452698 -3.018081 1.753126 
0.430645 -3.072268 1.870170 
0.408594 -3.126455 1.987214 
0.386541 -3.180643 2.104258 
0.639825 -2.987516 1.519038 
0.607810 -3.036283 1.636082 
0.575795 -3.085050 1.753126 
0.543780 -3.133817 1.870170 
0.511765 -3.182585 1.987214 
0.479750 -3.231351 2.104258 
0.547865 -3.313418 2.143272 
0.612525 -3.393609 2.143272 
0.534283 -3.327242 2.182287 
0.596554 -3.404471 2.182287 
0.660571 -3.485099 2.143272 
0.642825 -3.492580 2.182287 
0.690158 -3.584371 2.143272 
0.671319 -3.588185 2.182287 
0.700148 -3.687611 2.143272 
0.680939 -3.687611 2.182287 
0.690158 -3.790850 2.143273 
0.671319 -3.787036 2.182287 
0.660571 -3.890122 2.143273 
0.642825 -3.882640 2.182287 
0.612525 -3.981612 2.143272 
0.596554 -3.970750 2.182287 
0.547865 -4.061803 2.143272 
0.534283 -4.047979 2.182287 
0.469077 -4.127615 2.143272 
0.458406 -4.111359 2.182287 
0.379189 -4.176517 2.143272 
0.371839 -4.158454 2.182287 
0.281655 -4.206631 2.143273 
0.277908 -4.187456 2.182287 
0.180223 -4.216799 2.143273 
0.180223 -4.197248 2.182287 
0.078790 -4.206631 2.143273 
0.082538 -4.187456 2.182287 
-0.018744 -4.176517 2.143273 
-0.011393 -4.158454 2.182287 
-0.108632 -4.127614 2.143273 
-0.097960 -4.111359 2.182287 
-0.187420 -4.061803 2.143272 
-0.173838 -4.047979 2.182287 
-0.252079 -3.981612 2.143272 
-0.236108 -3.970750 2.182287 
-0.300125 -3.890122 2.143272 
-0.282379 -3.882640 2.182287 
-0.329712 -3.790850 2.143273 
-0.310873 -3.787035 2.182287 
-0.339702 -3.687610 2.143273 
-0.320494 -3.687610 2.182287 
-0.329712 -3.584371 2.143272 
-0.310872 -3.588185 2.182287 
-0.300125 -3.485098 2.143272 
-0.282379 -3.492580 2.182287 
-0.252079 -3.393609 2.143272 
-0.236107 -3.404470 2.182287 
-0.187419 -3.313417 2.143272 
-0.173837 -3.327242 2.182287 
-0.108631 -3.247606 2.143273 
-0.097960 -3.263862 2.182287 
-0.018743 -3.198704 2.143273 
-0.011392 -3.216767 2.182287 
0.078791 -3.168590 2.143273 
0.082539 -3.187765 2.182287 
0.180223 -3.158422 2.143273 
0.180223 -3.177973 2.182287 
0.281656 -3.168591 2.143273 
0.277909 -3.187766 2.182287 
0.379191 -3.198705 2.143273 
0.371840 -3.216767 2.182287 
0.469078 -3.247607 2.143273 
0.458407 -3.263863 2.182287 
4 0 1 2 3 
4 1 4 5 2 
4 3 2 6 7 
4 2 5 8 6 
4 7 6 9 10 
4 6 8 11 9 
4 10 9 12 13 
4 9 11 14 12 
4 13 12 15 16 
4 12 14 17 15 
4 16 15 18 19 
4 15 17 20 18 
4 19 18 21 22 
4 18 20 23 21 
4 22 21 24 25 
4 21 23 26 24 
4 25 24 27 28 
4 24 26 29 27 
4 28 27 30 31 
4 27 29 32 30 
4 31 30 33 34 
4 30 32 35 33 
4 34 33 36 37 
4 33 35 38 36 
4 37 36 39 40 
4 36 38 41 39 
4 40 39 42 43 
4 39 41 44 42 
4 43 42 45 46 
4 42 44 47 45 
4 46 45 48 49 
4 45 47 50 48 
4 49 48 51 52 
4 48 50 53 51 
4 52 51 54 55 
4 51 53 56 54 
4 55 54 57 58 
4 54 56 59 57 
4 58 57 60 61 
4 57 59 62 60 
4 61 60 63 64 
4 60 62 65 63 
4 64 63 66 67 
4 63 65 68 66 
4 67 66 69 70 
4 66 68 71 69 
4 70 69 72 73 
4 69 71 74 72 
4 73 72 75 76 
4 72 74 77 75 
4 76 75 78 79 
4 75 77 80 78 
4 79 78 81 82 
4 78 80 83 81 
4 82 81 84 85 
4 81 83 86 84 
4 85 84 87 88 
4 84 86 89 87 
4 88 87 90 91 
4 87 89 92 90 
4 91 90 93 94 
4 90 92 95 93 
4 94 93 1 0 
4 4 1 93 95 
4 96 97 98 99 
4 97 100 101 98 
4 100 0 3 101 
4 99 98 102 103 
4 98 101 104 102 
4 101 3 7 104 
4 103 102 105 106 
4 102 104 107 105 
4 104 7 10 107 
4 106 105 108 109 
4 105 107 110 108 
4 107 10 13 110 
4 109 108 111 112 
4 108 110 113 111 
4 110 13 16 113 
4 112 111 114 115 
4 111 113 116 114 
4 113 16 19 116 
4 115 114 117 118 
4 114 116 119 117 
4 116 19 22 119 
4 118 117 120 121 
4 117 119 122 120 
4 119 22 25 122 
4 121 120 123 124 
4 120 122 125 123 
4 122 25 28 125 
4 124 123 126 127 
4 123 125 128 126 
4 125 28 31 128 
4 127 126 129 130 
4 126 128 131 129 
4 128 31 34 131 
4 130 129 132 133 
4 129 131 134 132 
4 131 34 37 134 
4 133 132 135 136 
4 132 134 137 135 
4 134 37 40 137 
4 136 135 138 139 
4 135 137 140 138 
4 137 40 43 140 
4 139 138 141 142 
4 138 140 143 141 
4 140 43 46 143 
4 142 141 144 145 
4 141 143 146 144 
4 143 46 49 146 
4 145 144 147 148 
4 144 146 149 147 
4 146 49 52 149 
4 148 147 150 151 
4 147 149 152 150 
4 149 52 55 152 
4 151 150 153 154 
4 150 152 155 153 
4 152 55 58 155 
4 154 153 156 157 
4 153 155 158 156 
4 155 58 61 158 
4 157 156 159 160 
4 156 158 161 159 
4 158 61 64 161 
4 160 159 162 163 
4 159 161 164 162 
4 161 64 67 164 
4 163 162 165 166 
4 162 164 167 165 
4 164 67 70 167 
4 166 165 168 169 
4 165 167 170 168 
4 167 70 73 170 
4 169 168 171 172 
4 168 170 173 171 
4 170 73 76 173 
4 172 171 174 175 
4 171 173 176 174 
4 173 76 79 176 
4 175 174 177 178 
4 174 176 179 177 
4 176 79 82 179 
4 178 177 180 181 
4 177 179 182 180 
4 179 82 85 182 
4 181 180 183 184 
4 180 182 185 183 
4 182 85 88 185 
4 184 183 186 187 
4 183 185 188 186 
4 185 88 91 188 
4 187 186 189 190 
4 186 188 191 189 
4 188 91 94 191 
4 190 189 97 96 
4 189 191 100 97 
4 191 94 0 100 
4 4 192 193 5 
4 192 194 195 193 
4 194 196 197 195 
4 196 198 199 197 
4 198 200 201 199 
4 200 202 203 201 
4 5 193 204 8 
4 193 195 205 204 
4 195 197 206 205 
4 197 199 207 206 
4 199 201 208 207 
4 201 203 209 208 
4 8 204 210 11 
4 204 205 211 210 
4 205 206 212 211 
4 206 207 213 212 
4 207 208 214 213 
4 208 209 215 214 
4 11 210 216 14 
4 210 211 217 216 
4 211 212 218 217 
4 212 213 219 218 
4 213 214 220 219 
4 214 215 221 220 
4 14 216 222 17 
4 216 217 223 222 
4 217 218 224 223 
4 218 219 225 224 
4 219 220 226 225 
4 220 221 227 226 
4 17 222 228 20 
4 222 223 229 228 
4 223 224 230 229 
4 224 225 231 230 
4 225 226 232 231 
4 226 227 233 232 
4 20 228 234 23 
4 228 229 235 234 
4 229 230 236 235 
4 230 231 237 236 
4 231 232 238 237 
4 232 233 239 238 
4 23 234 240 26 
4 234 235 241 240 
4 235 236 242 241 
4 236 237 243 242 
4 237 238 244 243 
4 238 239 245 244 
4 26 240 246 29 
4 240 241 247 246 
4 241 242 248 247 
4 242 243 249 248 
4 243 244 250 249 
4 244 245 251 250 
4 29 246 252 32 
4 246 247 253 252 
4 247 248 254 253 
4 248 249 255 254 
4 249 250 256 255 
4 250 251 257 256 
4 32 252 258 35 
4 252 253 259 258 
4 253 254 260 259 
4 254 255 261 260 
4 255 256 262 261 
4 256 257 263 262 
4 35 258 264 38 
4 258 259 265 264 
4 259 260 266 265 
4 260 261 267 266 
4 261 262 268 267 
4 262 263 269 268 
4 38 264 270 41 
4 264 265 271 270 
4 265 266 272 271 
4 266 267 273 272 
4 267 268 274 273 
4 268 269 275 274 
4 41 270 276 44 
4 270 271 277 276 
4 271 272 278 277 
4 272 273 279 278 
4 273 274 280 279 
4 274 275 281 280 
4 44 276 282 47 
4 276 277 283 282 
4 277 278 284 283 
4 278 279 285 284 
4 279 280 286 285 
4 280 281 287 286 
4 47 282 288 50 
4 282 283 289 288 
4 283 284 290 289 
4 284 285 291 290 
4 285 286 292 291 
4 286 287 293 292 
4 50 288 294 53 
4 288 289 295 294 
4 289 290 296 295 
4 290 291 297 296 
4 291 292 298 297 
4 292 293 299 298 
4 53 294 300 56 
4 294 295 301 300 
4 295 296 302 301 
4 296 297 303 302 
4 297 298 304 303 
4 298 299 305 304 
4 56 300 306 59 
4 300 301 307 306 
4 301 302 308 307 
4 302 303 309 308 
4 303 304 310 309 
4 304 305 311 310 
4 59 306 312 62 
4 306 307 313 312 
4 307 308 314 313 
4 308 309 315 314 
4 309 310 316 315 
4 310 311 317 316 
4 62 312 318 65 
4 312 313 319 318 
4 313 314 320 319 
4 314 315 321 320 
4 315 316 322 321 
4 316 317 323 322 
4 65 318 324 68 
4 318 319 325 324 
4 319 320 326 325 
4 320 321 327 326 
4 321 322 328 327 
4 322 323 329 328 
4 68 324 330 71 
4 324 325 331 330 
4 325 326 332 331 
4 326 327 333 332 
4 327 328 334 333 
4 328 329 335 334 
4 71 330 336 74 
4 330 331 337 336 
4 331 332 338 337 
4 332 333 339 338 
4 333 334 340 339 
4 334 335 341 340 
4 74 336 342 77 
4 336 337 343 342 
4 337 338 344 343 
4 338 339 345 344 
4 339 340 346 345 
4 340 341 347 346 
4 77 342 348 80 
4 342 343 349 348 
4 343 344 350 349 
4 344 345 351 350 
4 345 346 352 351 
4 346 347 353 352 
4 80 348 354 83 
4 348 349 355 354 
4 349 350 356 355 
4 350 351 357 356 
4 351 352 358 357 
4 352 353 359 358 
4 83 354 360 86 
4 354 355 361 360 
4 355 356 362 361 
4 356 357 363 362 
4 357 358 364 363 
4 358 359 365 364 
4 86 360 366 89 
4 360 361 367 366 
4 361 362 368 367 
4 362 363 369 368 
4 363 364 370 369 
4 364 365 371 370 
4 89 366 372 92 
4 366 367 373 372 
4 367 368 374 373 
4 368 369 375 374 
4 369 370 376 375 
4 370 371 377 376 
4 92 372 378 95 
4 372 373 379 378 
4 373 374 380 379 
4 374 375 381 380 
4 375 376 382 381 
4 376 377 383 382 
4 192 4 95 378 
4 378 379 194 192 
4 379 380 196 194 
4 380 381 198 196 
4 381 382 200 198 
4 382 383 202 200 
4 202 384 385 203 
4 384 386 387 385 
4 203 385 388 209 
4 385 387 389 388 
4 209 388 390 215 
4 388 389 391 390 
4 215 390 392 221 
4 390 391 393 392 
4 221 392 394 227 
4 392 393 395 394 
4 227 394 396 233 
4 394 395 397 396 
4 233 396 398 239 
4 396 397 399 398 
4 239 398 400 245 
4 398 399 401 400 
4 245 400 402 251 
4 400 401 403 402 
4 251 402 404 257 
4 402 403 405 404 
4 257 404 406 263 
4 404 405 407 406 
4 263 406 408 269 
4 406 407 409 408 
4 269 408 410 275 
4 408 409 411 410 
4 275 410 412 281 
4 410 411 413 412 
4 281 412 414 287 
4 412 413 415 414 
4 287 414 416 293 
4 414 415 417 416 
4 293 416 418 299 
4 416 417 419 418 
4 299 418 420 305 
4 418 419 421 420 
4 305 420 422 311 
4 420 421 423 422 
4 311 422 424 317 
4 422 423 425 424 
4 317 424 426 323 
4 424 425 427 426 
4 323 426 428 329 
4 426 427 429 428 
4 329 428 430 335 
4 428 429 431 430 
4 335 430 432 341 
4 430 431 433 432 
4 341 432 434 347 
4 432 433 435 434 
4 347 434 436 353 
4 434 435 437 436 
4 353 436 438 359 
4 436 437 439 438 
4 359 438 440 365 
4 438 439 441 440 
4 365 440 442 371 
4 440 441 443 442 
4 371 442 444 377 
4 442 443 445 444 
4 377 444 446 383 
4 444 445 447 446 
4 383 446 384 202 
4 446 447 386 384 
