ply
format ascii 1.0
Created by Blender3D 246 - www.blender.org, source file: Bench.blend
element vertex 320
property float x
property float y
property float z
element face 96
property list uchar uint vertex_indices
end_header
-0.085001 0.110059 0.360331 
-0.085001 0.110059 0.400331 
-0.085001 0.025060 0.400331 
-0.085001 0.025060 0.360331 
-1.385000 0.025060 0.360331 
-1.385000 0.025060 0.400331 
-1.385000 0.110059 0.400331 
-1.385000 0.110059 0.360331 
-0.085001 0.205060 0.360331 
-0.085001 0.205060 0.400331 
-0.085001 0.120059 0.400331 
-0.085001 0.120059 0.360331 
-1.385000 0.120059 0.360331 
-1.385000 0.120059 0.400331 
-1.385000 0.205060 0.400331 
-1.385000 0.205060 0.360331 
-0.085001 0.300060 0.360331 
-0.085001 0.300060 0.400331 
-0.085001 0.215061 0.400331 
-0.085001 0.215061 0.360331 
-1.385000 0.215061 0.360331 
-1.385000 0.215061 0.400331 
-1.385000 0.300060 0.400331 
-1.385000 0.300060 0.360331 
-0.085001 0.395059 0.360331 
-0.085001 0.395059 0.400331 
-0.085001 0.310060 0.400331 
-0.085001 0.310060 0.360331 
-1.385000 0.310060 0.360331 
-1.385000 0.310060 0.400331 
-1.385000 0.395059 0.400331 
-1.385000 0.395059 0.360331 
-1.385000 0.395059 0.360331 
-1.385000 0.395059 0.400331 
-0.735001 0.395059 0.400331 
-0.735001 0.395059 0.360331 
-0.085001 0.395059 0.400331 
-0.085001 0.395059 0.360331 
-0.085001 0.310060 0.360331 
-0.085001 0.310060 0.400331 
-0.735001 0.310060 0.400331 
-0.735001 0.310060 0.360331 
-1.385000 0.310060 0.400331 
-1.385000 0.310060 0.360331 
-1.385000 0.300060 0.360331 
-1.385000 0.300060 0.400331 
-0.735001 0.300060 0.400331 
-0.735001 0.300060 0.360331 
-0.085001 0.300060 0.400331 
-0.085001 0.300060 0.360331 
-0.085001 0.215061 0.360331 
-0.085001 0.215061 0.400331 
-0.735001 0.215061 0.400331 
-0.735001 0.215061 0.360331 
-1.385000 0.215061 0.400331 
-1.385000 0.215061 0.360331 
-1.385000 0.205060 0.360331 
-1.385000 0.205060 0.400331 
-0.735001 0.205060 0.400331 
-0.735001 0.205060 0.360331 
-0.085001 0.205060 0.400331 
-0.085001 0.205060 0.360331 
-0.085001 0.120059 0.360331 
-0.085001 0.120059 0.400331 
-0.735001 0.120059 0.400331 
-0.735001 0.120059 0.360331 
-1.385000 0.120059 0.400331 
-1.385000 0.120059 0.360331 
-1.385000 0.110059 0.360331 
-1.385000 0.110059 0.400331 
-0.735001 0.110059 0.400331 
-0.735001 0.110059 0.360331 
-0.085001 0.110059 0.400331 
-0.085001 0.110059 0.360331 
-0.085001 0.025060 0.360331 
-0.085001 0.025060 0.400331 
-0.735001 0.025060 0.400331 
-0.735001 0.025060 0.360331 
-1.385000 0.025060 0.400331 
-1.385000 0.025060 0.360331 
-0.085001 0.110059 0.360331 
-0.085001 0.025060 0.360331 
-0.735001 0.025060 0.360331 
-0.735001 0.110059 0.360331 
-1.385000 0.025060 0.360331 
-1.385000 0.110059 0.360331 
-1.385000 0.110059 0.400331 
-1.385000 0.025060 0.400331 
-0.735001 0.025060 0.400331 
-0.735001 0.110059 0.400331 
-0.085001 0.025060 0.400331 
-0.085001 0.110059 0.400331 
-0.085001 0.205060 0.360331 
-0.085001 0.120059 0.360331 
-0.735001 0.120059 0.360331 
-0.735001 0.205060 0.360331 
-1.385000 0.120059 0.360331 
-1.385000 0.205060 0.360331 
-1.385000 0.205060 0.400331 
-1.385000 0.120059 0.400331 
-0.735001 0.120059 0.400331 
-0.735001 0.205060 0.400331 
-0.085001 0.120059 0.400331 
-0.085001 0.205060 0.400331 
-0.085001 0.300060 0.360331 
-0.085001 0.215061 0.360331 
-0.735001 0.215061 0.360331 
-0.735001 0.300060 0.360331 
-1.385000 0.215061 0.360331 
-1.385000 0.300060 0.360331 
-1.385000 0.300060 0.400331 
-1.385000 0.215061 0.400331 
-0.735001 0.215061 0.400331 
-0.735001 0.300060 0.400331 
-0.085001 0.215061 0.400331 
-0.085001 0.300060 0.400331 
-0.085001 0.395059 0.360331 
-0.085001 0.310060 0.360331 
-0.735001 0.310060 0.360331 
-0.735001 0.395059 0.360331 
-1.385000 0.310060 0.360331 
-1.385000 0.395059 0.360331 
-1.385000 0.395059 0.400331 
-1.385000 0.310060 0.400331 
-0.735001 0.310060 0.400331 
-0.735001 0.395059 0.400331 
-0.085001 0.310060 0.400331 
-0.085001 0.395059 0.400331 
-0.735001 0.395059 0.360331 
-0.735001 0.395059 0.400331 
-0.735001 0.310060 0.400331 
-0.735001 0.310060 0.360331 
-0.735001 0.300060 0.360331 
-0.735001 0.300060 0.400331 
-0.735001 0.215061 0.400331 
-0.735001 0.215061 0.360331 
-0.735001 0.205060 0.360331 
-0.735001 0.205060 0.400331 
-0.735001 0.120059 0.400331 
-0.735001 0.120059 0.360331 
-0.735001 0.110059 0.360331 
-0.735001 0.110059 0.400331 
-0.735001 0.025060 0.400331 
-0.735001 0.025060 0.360331 
0.014999 0.435060 0.400331 
-0.135000 0.435060 0.400331 
-0.135000 0.410060 0.400331 
-0.070002 0.410060 0.400331 
-0.135000 0.010061 0.400331 
-0.135000 -0.014941 0.400331 
0.014999 -0.014941 0.400331 
-0.070002 0.010061 0.400331 
-0.135000 0.010061 0.360331 
-0.070002 0.010061 0.360331 
0.014999 -0.014941 0.360331 
-0.135000 -0.014941 0.360331 
-0.135000 0.410060 0.360331 
-0.135000 0.435060 0.360331 
0.014999 0.435060 0.360331 
-0.070002 0.410060 0.360331 
0.014999 0.435060 0.400331 
0.014999 -0.014941 0.400331 
0.014999 -0.014941 0.360331 
0.014999 0.435060 0.360331 
-0.135000 0.435060 0.400331 
0.014999 0.435060 0.400331 
0.014999 0.435060 0.360331 
-0.135000 0.435060 0.360331 
-0.135000 0.410060 0.400331 
-0.135000 0.435060 0.400331 
-0.135000 0.435060 0.360331 
-0.135000 0.410060 0.360331 
-0.070002 0.410060 0.400331 
-0.135000 0.410060 0.400331 
-0.135000 0.410060 0.360331 
-0.070002 0.410060 0.360331 
-0.070002 0.010061 0.400331 
-0.070002 0.410060 0.400331 
-0.070002 0.410060 0.360331 
-0.070002 0.010061 0.360331 
-0.135000 0.010061 0.400331 
-0.070002 0.010061 0.400331 
-0.070002 0.010061 0.360331 
-0.135000 0.010061 0.360331 
-0.135000 -0.014941 0.400331 
-0.135000 0.010061 0.400331 
-0.135000 0.010061 0.360331 
-0.135000 -0.014941 0.360331 
0.014999 -0.014941 0.400331 
-0.135000 -0.014941 0.400331 
-0.135000 -0.014941 0.360331 
0.014999 -0.014941 0.360331 
0.014999 0.435060 0.360331 
-0.135000 0.435060 0.360331 
-0.135000 -0.014941 0.360331 
0.014999 -0.014941 0.360331 
-0.135000 -0.014941 0.050331 
-0.135000 0.435060 0.050331 
0.014999 0.435060 0.050331 
0.014999 -0.014941 0.050331 
0.014999 -0.014941 0.050331 
0.014999 0.435060 0.050331 
0.014999 0.435060 0.050331 
-0.135000 0.435060 0.050331 
-0.135000 0.435060 0.050331 
-0.135000 -0.014941 0.050331 
-0.135000 -0.014941 0.050331 
0.014999 -0.014941 0.050331 
0.000000 0.420061 0.050331 
-0.120001 0.420061 0.050331 
-0.120001 0.000061 0.050331 
0.000000 0.000061 0.050331 
-0.120001 0.000061 0.000331 
-0.120001 0.420061 0.000331 
0.000000 0.420061 0.000331 
0.000000 0.000061 0.000331 
0.000000 0.420061 0.050331 
0.000000 0.000061 0.050331 
0.000000 0.000061 0.000331 
0.000000 0.420061 0.000331 
-0.120001 0.420061 0.050331 
0.000000 0.420061 0.050331 
0.000000 0.420061 0.000331 
-0.120001 0.420061 0.000331 
-0.120001 0.000061 0.050331 
-0.120001 0.420061 0.050331 
-0.120001 0.420061 0.000331 
-0.120001 0.000061 0.000331 
0.000000 0.000061 0.050331 
-0.120001 0.000061 0.050331 
-0.120001 0.000061 0.000331 
0.000000 0.000061 0.000331 
-1.400002 0.410060 0.400331 
-1.485001 0.435060 0.400331 
-1.485001 -0.014941 0.400331 
-1.400002 0.010061 0.400331 
-1.335001 0.410060 0.400331 
-1.335001 0.435060 0.400331 
-1.335001 0.010061 0.400331 
-1.335001 -0.014941 0.400331 
-1.485001 -0.014941 0.360331 
-1.400002 0.010061 0.360331 
-1.335001 0.010061 0.360331 
-1.335001 -0.014941 0.360331 
-1.335001 0.410060 0.360331 
-1.400002 0.410060 0.360331 
-1.485001 0.435060 0.360331 
-1.335001 0.435060 0.360331 
-1.485001 -0.014941 0.360331 
-1.485001 -0.014941 0.400331 
-1.485001 0.435060 0.400331 
-1.485001 0.435060 0.360331 
-1.485001 0.435060 0.360331 
-1.485001 0.435060 0.400331 
-1.335001 0.435060 0.400331 
-1.335001 0.435060 0.360331 
-1.335001 0.435060 0.360331 
-1.335001 0.435060 0.400331 
-1.335001 0.410060 0.400331 
-1.335001 0.410060 0.360331 
-1.335001 0.410060 0.360331 
-1.335001 0.410060 0.400331 
-1.400002 0.410060 0.400331 
-1.400002 0.410060 0.360331 
-1.400002 0.410060 0.360331 
-1.400002 0.410060 0.400331 
-1.400002 0.010061 0.400331 
-1.400002 0.010061 0.360331 
-1.400002 0.010061 0.360331 
-1.400002 0.010061 0.400331 
-1.335001 0.010061 0.400331 
-1.335001 0.010061 0.360331 
-1.335001 0.010061 0.360331 
-1.335001 0.010061 0.400331 
-1.335001 -0.014941 0.400331 
-1.335001 -0.014941 0.360331 
-1.335001 -0.014941 0.360331 
-1.335001 -0.014941 0.400331 
-1.485001 -0.014941 0.400331 
-1.485001 -0.014941 0.360331 
-1.335001 -0.014941 0.360331 
-1.335001 0.435060 0.360331 
-1.485001 0.435060 0.360331 
-1.485001 -0.014941 0.360331 
-1.485001 0.435060 0.050331 
-1.335001 0.435060 0.050331 
-1.335001 -0.014941 0.050331 
-1.485001 -0.014941 0.050331 
-1.485001 -0.014941 0.050331 
-1.485001 0.435060 0.050331 
-1.485001 0.435060 0.050331 
-1.335001 0.435060 0.050331 
-1.335001 0.435060 0.050331 
-1.335001 -0.014941 0.050331 
-1.335001 -0.014941 0.050331 
-1.485001 -0.014941 0.050331 
-1.350000 0.000061 0.050331 
-1.350000 0.420061 0.050331 
-1.470001 0.420061 0.050331 
-1.470001 0.000061 0.050331 
-1.470001 0.420061 0.000331 
-1.350000 0.420061 0.000331 
-1.350000 0.000061 0.000331 
-1.470001 0.000061 0.000331 
-1.470001 0.000061 0.000331 
-1.470001 0.000061 0.050331 
-1.470001 0.420061 0.050331 
-1.470001 0.420061 0.000331 
-1.470001 0.420061 0.000331 
-1.470001 0.420061 0.050331 
-1.350000 0.420061 0.050331 
-1.350000 0.420061 0.000331 
-1.350000 0.420061 0.000331 
-1.350000 0.420061 0.050331 
-1.350000 0.000061 0.050331 
-1.350000 0.000061 0.000331 
-1.350000 0.000061 0.000331 
-1.350000 0.000061 0.050331 
-1.470001 0.000061 0.050331 
-1.470001 0.000061 0.000331 
4 0 1 2 3 
4 4 5 6 7 
4 8 9 10 11 
4 12 13 14 15 
4 16 17 18 19 
4 20 21 22 23 
4 24 25 26 27 
4 28 29 30 31 
4 32 33 34 35 
4 36 37 35 34 
4 38 39 40 41 
4 42 43 41 40 
4 44 45 46 47 
4 48 49 47 46 
4 50 51 52 53 
4 54 55 53 52 
4 56 57 58 59 
4 60 61 59 58 
4 62 63 64 65 
4 66 67 65 64 
4 68 69 70 71 
4 72 73 71 70 
4 74 75 76 77 
4 78 79 77 76 
4 80 81 82 83 
4 84 85 83 82 
4 86 87 88 89 
4 90 91 89 88 
4 92 93 94 95 
4 96 97 95 94 
4 98 99 100 101 
4 102 103 101 100 
4 104 105 106 107 
4 108 109 107 106 
4 110 111 112 113 
4 114 115 113 112 
4 116 117 118 119 
4 120 121 119 118 
4 122 123 124 125 
4 126 127 125 124 
4 128 129 130 131 
4 132 133 134 135 
4 136 137 138 139 
4 140 141 142 143 
4 144 145 146 147 
4 148 149 150 151 
4 152 153 154 155 
4 156 157 158 159 
4 154 153 159 158 
4 160 161 162 163 
4 164 165 166 167 
4 168 169 170 171 
4 172 173 174 175 
4 176 177 178 179 
4 180 181 182 183 
4 184 185 186 187 
4 188 189 190 191 
4 192 193 194 195 
4 196 197 198 199 
4 163 162 200 201 
4 167 166 202 203 
4 187 170 204 205 
4 191 190 206 207 
4 208 209 210 211 
4 212 213 214 215 
4 216 217 218 219 
4 220 221 222 223 
4 224 225 226 227 
4 228 229 230 231 
4 232 233 234 235 
4 233 232 236 237 
4 238 235 234 239 
4 240 241 242 243 
4 244 245 246 247 
4 248 249 250 251 
4 252 253 254 255 
4 256 257 258 259 
4 260 261 262 263 
4 264 265 266 267 
4 268 269 270 271 
4 272 273 274 275 
4 276 277 278 279 
4 280 281 282 283 
4 284 285 286 287 
4 288 248 251 289 
4 290 252 255 291 
4 292 256 275 293 
4 294 276 279 295 
4 296 297 298 299 
4 300 301 302 303 
4 304 305 306 307 
4 308 309 310 311 
4 312 313 314 315 
4 316 317 318 319 
4 147 151 150 144 
4 240 246 245 241 
