ply
format ascii 1.0
Created by Blender3D 246 - www.blender.org, source file: Stool6.blend
element vertex 386
property float x
property float y
property float z
element face 384
property list uchar uint vertex_indices
end_header
0.124161 -0.124792 0.655155 
0.124161 -0.073542 0.655155 
0.169161 -0.073542 0.655155 
0.169161 -0.124792 0.655155 
0.157911 -0.163229 0.655155 
0.124161 -0.176042 0.655155 
0.079161 -0.176042 0.655155 
0.079161 -0.124792 0.655155 
0.079161 -0.073542 0.655155 
0.124161 -0.022292 0.655155 
0.124161 0.028958 0.655155 
0.169161 0.028958 0.655155 
0.169161 -0.022292 0.655155 
0.079161 -0.022292 0.655155 
0.079161 0.028958 0.655155 
0.034161 -0.124792 0.655155 
0.034161 -0.073542 0.655155 
0.034161 -0.176042 0.655155 
-0.010839 -0.176042 0.655155 
-0.010839 -0.124792 0.655155 
-0.010839 -0.073542 0.655155 
0.034161 -0.022292 0.655155 
0.034161 0.028958 0.655155 
-0.010839 -0.022292 0.655155 
-0.010839 0.028958 0.655155 
0.124161 0.080208 0.655155 
0.124161 0.131458 0.655155 
0.169161 0.131458 0.655155 
0.169161 0.080208 0.655155 
0.079161 0.080208 0.655155 
0.079161 0.131458 0.655155 
0.124161 0.182708 0.655155 
0.124161 0.233958 0.655155 
0.157911 0.221146 0.655155 
0.169161 0.182708 0.655155 
0.079161 0.182708 0.655155 
0.079161 0.233958 0.655155 
0.034161 0.080208 0.655155 
0.034161 0.131458 0.655155 
-0.010839 0.080208 0.655155 
-0.010839 0.131458 0.655155 
0.034161 0.182708 0.655155 
0.034161 0.233958 0.655155 
-0.010839 0.182708 0.655155 
-0.010839 0.233958 0.655155 
-0.055839 -0.124792 0.655155 
-0.055839 -0.073542 0.655155 
-0.055839 -0.176042 0.655155 
-0.100839 -0.176042 0.655155 
-0.100839 -0.124792 0.655155 
-0.100839 -0.073542 0.655155 
-0.055839 -0.022292 0.655155 
-0.055839 0.028958 0.655155 
-0.100839 -0.022292 0.655155 
-0.100839 0.028958 0.655155 
-0.145839 -0.124792 0.655155 
-0.145839 -0.073542 0.655155 
-0.145839 -0.176042 0.655155 
-0.179589 -0.163229 0.655155 
-0.190839 -0.124792 0.655155 
-0.190839 -0.073542 0.655155 
-0.145839 -0.022292 0.655155 
-0.145839 0.028958 0.655155 
-0.190839 -0.022292 0.655155 
-0.190839 0.028958 0.655155 
-0.055839 0.080208 0.655155 
-0.055839 0.131458 0.655155 
-0.100839 0.080208 0.655155 
-0.100839 0.131458 0.655155 
-0.055839 0.182708 0.655155 
-0.055839 0.233958 0.655155 
-0.100839 0.182708 0.655155 
-0.100838 0.233958 0.655155 
-0.145839 0.080208 0.655155 
-0.145839 0.131458 0.655155 
-0.190839 0.080208 0.655155 
-0.190839 0.131458 0.655155 
-0.145838 0.182708 0.655155 
-0.145838 0.233958 0.655155 
-0.190839 0.182708 0.655155 
-0.179588 0.221146 0.655155 
-0.145839 0.182708 0.749519 
-0.100839 0.182708 0.749519 
-0.100839 0.221146 0.747496 
-0.145839 0.221146 0.747496 
-0.170839 0.211181 0.743175 
-0.179589 0.182708 0.745118 
-0.179589 0.131458 0.742083 
-0.145839 0.131458 0.746051 
-0.100839 0.131458 0.746051 
-0.055839 0.182708 0.749519 
-0.010839 0.182708 0.749519 
-0.010838 0.221146 0.747496 
-0.055839 0.221146 0.747496 
-0.055839 0.131458 0.746051 
-0.010839 0.131458 0.746051 
-0.145839 0.080208 0.743258 
-0.100839 0.080208 0.743258 
-0.179589 0.080208 0.739640 
-0.179589 0.028958 0.738566 
-0.145839 0.028958 0.742030 
-0.100839 0.028958 0.742030 
-0.055839 0.080208 0.743258 
-0.010839 0.080208 0.743258 
-0.055839 0.028958 0.742030 
-0.010839 0.028958 0.742030 
0.034161 0.182708 0.749519 
0.079162 0.182708 0.749519 
0.079162 0.221146 0.747496 
0.034162 0.221146 0.747496 
0.034161 0.131458 0.746051 
0.079161 0.131458 0.746051 
0.124162 0.182708 0.749519 
0.157912 0.182708 0.745118 
0.149162 0.211180 0.743175 
0.124162 0.221146 0.747496 
0.124161 0.131458 0.746051 
0.157912 0.131458 0.742083 
0.034161 0.080208 0.743258 
0.079161 0.080208 0.743258 
0.034161 0.028958 0.742030 
0.079161 0.028958 0.742030 
0.124161 0.080208 0.743258 
0.157911 0.080208 0.739640 
0.124161 0.028958 0.742030 
0.157911 0.028958 0.738566 
-0.145839 -0.022292 0.743258 
-0.100839 -0.022292 0.743258 
-0.179589 -0.022292 0.739640 
-0.179589 -0.073542 0.742083 
-0.145839 -0.073542 0.746051 
-0.100839 -0.073542 0.746051 
-0.055839 -0.022292 0.743258 
-0.010839 -0.022292 0.743258 
-0.055839 -0.073542 0.746051 
-0.010839 -0.073542 0.746051 
-0.145839 -0.124792 0.749519 
-0.100839 -0.124792 0.749519 
-0.179589 -0.124792 0.745118 
-0.170839 -0.153264 0.743175 
-0.145839 -0.163229 0.747496 
-0.100839 -0.163229 0.747496 
-0.055839 -0.124792 0.749519 
-0.010839 -0.124792 0.749519 
-0.055839 -0.163229 0.747496 
-0.010839 -0.163229 0.747496 
0.034161 -0.022292 0.743258 
0.079161 -0.022292 0.743258 
0.034161 -0.073542 0.746051 
0.079161 -0.073542 0.746051 
0.124161 -0.022292 0.743258 
0.157911 -0.022292 0.739640 
0.124161 -0.073542 0.746051 
0.157911 -0.073542 0.742083 
0.034161 -0.124792 0.749519 
0.079161 -0.124792 0.749519 
0.034161 -0.163229 0.747496 
0.079161 -0.163229 0.747496 
0.124161 -0.124792 0.749519 
0.157911 -0.124792 0.745118 
0.124161 -0.163229 0.747496 
0.149161 -0.153264 0.743175 
0.169162 0.182708 0.731915 
0.169162 0.182708 0.716248 
0.157912 0.221146 0.716605 
0.157912 0.221146 0.733343 
0.169161 0.131458 0.730181 
0.169161 0.131458 0.715815 
0.169162 0.182708 0.704453 
0.169161 0.182708 0.694593 
0.157912 0.221146 0.694593 
0.157912 0.221146 0.704453 
0.169161 0.131458 0.704453 
0.169161 0.131458 0.694593 
0.169161 0.080208 0.728785 
0.169161 0.080208 0.715465 
0.169161 0.028958 0.728171 
0.169161 0.028958 0.715312 
0.169161 0.080208 0.704453 
0.169161 0.080208 0.694593 
0.169161 0.028958 0.704453 
0.169161 0.028958 0.694593 
0.169161 0.182708 0.684734 
0.169161 0.182708 0.674874 
0.157912 0.221146 0.674874 
0.157911 0.221146 0.684734 
0.169161 0.131458 0.684734 
0.169161 0.131458 0.674874 
0.169161 0.182708 0.665015 
0.157911 0.221146 0.665015 
0.169161 0.131458 0.665015 
0.169161 0.080208 0.684734 
0.169161 0.080208 0.674874 
0.169161 0.028958 0.684734 
0.169161 0.028958 0.674874 
0.169161 0.080208 0.665015 
0.169161 0.028958 0.665015 
0.169161 -0.022292 0.728785 
0.169161 -0.022292 0.715465 
0.169161 -0.073542 0.730181 
0.169161 -0.073542 0.715815 
0.169161 -0.022292 0.704453 
0.169161 -0.022292 0.694593 
0.169161 -0.073542 0.704453 
0.169161 -0.073542 0.694593 
0.169161 -0.124792 0.731915 
0.169161 -0.124792 0.716248 
0.157911 -0.163229 0.733343 
0.157911 -0.163229 0.716605 
0.169161 -0.124792 0.704453 
0.169161 -0.124792 0.694593 
0.157911 -0.163229 0.704453 
0.157911 -0.163229 0.694593 
0.169161 -0.022292 0.684734 
0.169161 -0.022292 0.674874 
0.169161 -0.073542 0.684734 
0.169161 -0.073542 0.674874 
0.169161 -0.022292 0.665015 
0.169161 -0.073542 0.665015 
0.169161 -0.124792 0.684734 
0.169161 -0.124792 0.674874 
0.157911 -0.163229 0.684734 
0.157911 -0.163229 0.674874 
0.169161 -0.124792 0.665015 
0.157911 -0.163229 0.665015 
0.124161 -0.176042 0.733818 
0.124161 -0.176042 0.716724 
0.079161 -0.176042 0.733818 
0.079161 -0.176042 0.716724 
0.124161 -0.176042 0.704453 
0.124161 -0.176042 0.694593 
0.079161 -0.176042 0.704453 
0.079161 -0.176042 0.694593 
0.034161 -0.176042 0.733818 
0.034161 -0.176042 0.716724 
-0.010839 -0.176042 0.733818 
-0.010839 -0.176042 0.716724 
0.034161 -0.176042 0.704453 
0.034161 -0.176042 0.694593 
-0.010839 -0.176042 0.704453 
-0.010839 -0.176042 0.694593 
0.124161 -0.176042 0.684734 
0.124161 -0.176042 0.674874 
0.079161 -0.176042 0.684734 
0.079161 -0.176042 0.674874 
0.124161 -0.176042 0.665015 
0.079161 -0.176042 0.665015 
0.034161 -0.176042 0.684734 
0.034161 -0.176042 0.674874 
-0.010839 -0.176042 0.684734 
-0.010839 -0.176042 0.674874 
0.034161 -0.176042 0.665015 
-0.010839 -0.176042 0.665015 
-0.055839 -0.176042 0.733818 
-0.055839 -0.176042 0.716724 
-0.100839 -0.176042 0.733818 
-0.100839 -0.176042 0.716724 
-0.055839 -0.176042 0.704453 
-0.055839 -0.176042 0.694593 
-0.100839 -0.176042 0.704453 
-0.100839 -0.176042 0.694593 
-0.145839 -0.176042 0.733818 
-0.145839 -0.176042 0.716724 
-0.179589 -0.163229 0.733343 
-0.179589 -0.163229 0.716605 
-0.145839 -0.176042 0.704453 
-0.145839 -0.176042 0.694593 
-0.179589 -0.163229 0.704453 
-0.179589 -0.163229 0.694593 
-0.055839 -0.176042 0.684734 
-0.055839 -0.176042 0.674874 
-0.100839 -0.176042 0.684734 
-0.100839 -0.176042 0.674874 
-0.055839 -0.176042 0.665015 
-0.100839 -0.176042 0.665015 
-0.145839 -0.176042 0.684734 
-0.145839 -0.176042 0.674874 
-0.179589 -0.163229 0.684734 
-0.179589 -0.163229 0.674874 
-0.145839 -0.176042 0.665015 
-0.179589 -0.163229 0.665015 
-0.190839 -0.124792 0.731915 
-0.190839 -0.124792 0.716248 
-0.190839 -0.073542 0.730181 
-0.190839 -0.073542 0.715815 
-0.190839 -0.124792 0.704453 
-0.190839 -0.124792 0.694593 
-0.190839 -0.073542 0.704453 
-0.190839 -0.073542 0.694593 
-0.190839 -0.022292 0.728785 
-0.190839 -0.022292 0.715465 
-0.190839 0.028958 0.728171 
-0.190839 0.028958 0.715312 
-0.190839 -0.022292 0.704453 
-0.190839 -0.022292 0.694593 
-0.190839 0.028958 0.704453 
-0.190839 0.028958 0.694593 
-0.190839 -0.124792 0.684734 
-0.190839 -0.124792 0.674874 
-0.190839 -0.073542 0.684734 
-0.190839 -0.073542 0.674874 
-0.190839 -0.124792 0.665015 
-0.190839 -0.073542 0.665015 
-0.190839 -0.022292 0.684734 
-0.190839 -0.022292 0.674874 
-0.190839 0.028958 0.684734 
-0.190839 0.028958 0.674874 
-0.190839 -0.022292 0.665015 
-0.190839 0.028958 0.665015 
-0.190839 0.080208 0.728785 
-0.190839 0.080208 0.715465 
-0.190839 0.131458 0.730181 
-0.190839 0.131458 0.715815 
-0.190839 0.080208 0.704453 
-0.190839 0.080208 0.694593 
-0.190839 0.131458 0.704453 
-0.190839 0.131458 0.694593 
-0.190839 0.182708 0.731915 
-0.190839 0.182708 0.716248 
-0.179589 0.221146 0.733343 
-0.179589 0.221146 0.716605 
-0.190839 0.182708 0.704453 
-0.190839 0.182708 0.694593 
-0.179589 0.221146 0.704453 
-0.179589 0.221146 0.694593 
-0.190839 0.080208 0.684734 
-0.190839 0.080208 0.674874 
-0.190839 0.131458 0.684734 
-0.190839 0.131458 0.674874 
-0.190839 0.080208 0.665015 
-0.190839 0.131458 0.665015 
-0.190839 0.182708 0.684734 
-0.190839 0.182708 0.674874 
-0.179589 0.221146 0.684734 
-0.179588 0.221146 0.674874 
-0.190839 0.182708 0.665015 
-0.179588 0.221146 0.665015 
0.124161 0.233958 0.665015 
0.124161 0.233958 0.674874 
0.079161 0.233958 0.665015 
0.079161 0.233958 0.674874 
0.124161 0.233958 0.684734 
0.124162 0.233958 0.694593 
0.079162 0.233958 0.684734 
0.079162 0.233958 0.694593 
0.034161 0.233958 0.665015 
0.034161 0.233958 0.674874 
-0.010839 0.233958 0.665015 
-0.010839 0.233958 0.674874 
0.034162 0.233958 0.684734 
0.034162 0.233958 0.694593 
-0.010839 0.233958 0.684734 
-0.010839 0.233958 0.694593 
0.124162 0.233958 0.704453 
0.124162 0.233958 0.716724 
0.079162 0.233958 0.704453 
0.079162 0.233958 0.716724 
0.124162 0.233958 0.733818 
0.079162 0.233958 0.733818 
0.034162 0.233958 0.704453 
0.034162 0.233958 0.716724 
-0.010838 0.233958 0.704453 
-0.010838 0.233958 0.716724 
0.034162 0.233958 0.733818 
-0.010838 0.233958 0.733818 
-0.055839 0.233958 0.665015 
-0.055839 0.233958 0.674874 
-0.100838 0.233958 0.665015 
-0.100839 0.233958 0.674874 
-0.055839 0.233958 0.684734 
-0.055839 0.233958 0.694593 
-0.100839 0.233958 0.684734 
-0.100839 0.233958 0.694593 
-0.145838 0.233958 0.665015 
-0.145838 0.233958 0.674874 
-0.145839 0.233958 0.684734 
-0.145839 0.233958 0.694593 
-0.055839 0.233958 0.704453 
-0.055839 0.233958 0.716724 
-0.100839 0.233958 0.704453 
-0.100839 0.233958 0.716724 
-0.055839 0.233958 0.733818 
-0.100839 0.233958 0.733818 
-0.145839 0.233958 0.704453 
-0.145839 0.233958 0.716724 
-0.145839 0.233958 0.733818 
4 0 1 2 3 
4 0 3 4 5 
4 0 5 6 7 
4 0 7 8 1 
4 9 10 11 12 
4 9 12 2 1 
4 9 1 8 13 
4 9 13 14 10 
4 15 16 8 7 
4 15 7 6 17 
4 15 17 18 19 
4 15 19 20 16 
4 21 22 14 13 
4 21 13 8 16 
4 21 16 20 23 
4 21 23 24 22 
4 25 26 27 28 
4 25 28 11 10 
4 25 10 14 29 
4 25 29 30 26 
4 31 32 33 34 
4 31 34 27 26 
4 31 26 30 35 
4 31 35 36 32 
4 37 38 30 29 
4 37 29 14 22 
4 37 22 24 39 
4 37 39 40 38 
4 41 42 36 35 
4 41 35 30 38 
4 41 38 40 43 
4 41 43 44 42 
4 45 46 20 19 
4 45 19 18 47 
4 45 47 48 49 
4 45 49 50 46 
4 51 52 24 23 
4 51 23 20 46 
4 51 46 50 53 
4 51 53 54 52 
4 55 56 50 49 
4 55 49 48 57 
4 55 57 58 59 
4 55 59 60 56 
4 61 62 54 53 
4 61 53 50 56 
4 61 56 60 63 
4 61 63 64 62 
4 65 66 40 39 
4 65 39 24 52 
4 65 52 54 67 
4 65 67 68 66 
4 69 70 44 43 
4 69 43 40 66 
4 69 66 68 71 
4 69 71 72 70 
4 73 74 68 67 
4 73 67 54 62 
4 73 62 64 75 
4 73 75 76 74 
4 77 78 72 71 
4 77 71 68 74 
4 77 74 76 79 
4 77 79 80 78 
4 81 82 83 84 
4 81 84 85 86 
4 81 86 87 88 
4 81 88 89 82 
4 90 91 92 93 
4 90 93 83 82 
4 90 82 89 94 
4 90 94 95 91 
4 96 97 89 88 
4 96 88 87 98 
4 96 98 99 100 
4 96 100 101 97 
4 102 103 95 94 
4 102 94 89 97 
4 102 97 101 104 
4 102 104 105 103 
4 106 107 108 109 
4 106 109 92 91 
4 106 91 95 110 
4 106 110 111 107 
4 112 113 114 115 
4 112 115 108 107 
4 112 107 111 116 
4 112 116 117 113 
4 118 119 111 110 
4 118 110 95 103 
4 118 103 105 120 
4 118 120 121 119 
4 122 123 117 116 
4 122 116 111 119 
4 122 119 121 124 
4 122 124 125 123 
4 126 127 101 100 
4 126 100 99 128 
4 126 128 129 130 
4 126 130 131 127 
4 132 133 105 104 
4 132 104 101 127 
4 132 127 131 134 
4 132 134 135 133 
4 136 137 131 130 
4 136 130 129 138 
4 136 138 139 140 
4 136 140 141 137 
4 142 143 135 134 
4 142 134 131 137 
4 142 137 141 144 
4 142 144 145 143 
4 146 147 121 120 
4 146 120 105 133 
4 146 133 135 148 
4 146 148 149 147 
4 150 151 125 124 
4 150 124 121 147 
4 150 147 149 152 
4 150 152 153 151 
4 154 155 149 148 
4 154 148 135 143 
4 154 143 145 156 
4 154 156 157 155 
4 158 159 153 152 
4 158 152 149 155 
4 158 155 157 160 
4 158 160 161 159 
4 162 163 164 165 
4 162 165 114 113 
4 162 113 117 166 
4 162 166 167 163 
4 168 169 170 171 
4 168 171 164 163 
4 168 163 167 172 
4 168 172 173 169 
4 174 175 167 166 
4 174 166 117 123 
4 174 123 125 176 
4 174 176 177 175 
4 178 179 173 172 
4 178 172 167 175 
4 178 175 177 180 
4 178 180 181 179 
4 182 183 184 185 
4 182 185 170 169 
4 182 169 173 186 
4 182 186 187 183 
4 188 34 33 189 
4 188 189 184 183 
4 188 183 187 190 
4 188 190 27 34 
4 191 192 187 186 
4 191 186 173 179 
4 191 179 181 193 
4 191 193 194 192 
4 195 28 27 190 
4 195 190 187 192 
4 195 192 194 196 
4 195 196 11 28 
4 197 198 177 176 
4 197 176 125 151 
4 197 151 153 199 
4 197 199 200 198 
4 201 202 181 180 
4 201 180 177 198 
4 201 198 200 203 
4 201 203 204 202 
4 205 206 200 199 
4 205 199 153 159 
4 205 159 161 207 
4 205 207 208 206 
4 209 210 204 203 
4 209 203 200 206 
4 209 206 208 211 
4 209 211 212 210 
4 213 214 194 193 
4 213 193 181 202 
4 213 202 204 215 
4 213 215 216 214 
4 217 12 11 196 
4 217 196 194 214 
4 217 214 216 218 
4 217 218 2 12 
4 219 220 216 215 
4 219 215 204 210 
4 219 210 212 221 
4 219 221 222 220 
4 223 3 2 218 
4 223 218 216 220 
4 223 220 222 224 
4 223 224 4 3 
4 225 226 208 207 
4 225 207 161 160 
4 225 160 157 227 
4 225 227 228 226 
4 229 230 212 211 
4 229 211 208 226 
4 229 226 228 231 
4 229 231 232 230 
4 233 234 228 227 
4 233 227 157 156 
4 233 156 145 235 
4 233 235 236 234 
4 237 238 232 231 
4 237 231 228 234 
4 237 234 236 239 
4 237 239 240 238 
4 241 242 222 221 
4 241 221 212 230 
4 241 230 232 243 
4 241 243 244 242 
4 245 5 4 224 
4 245 224 222 242 
4 245 242 244 246 
4 245 246 6 5 
4 247 248 244 243 
4 247 243 232 238 
4 247 238 240 249 
4 247 249 250 248 
4 251 17 6 246 
4 251 246 244 248 
4 251 248 250 252 
4 251 252 18 17 
4 253 254 236 235 
4 253 235 145 144 
4 253 144 141 255 
4 253 255 256 254 
4 257 258 240 239 
4 257 239 236 254 
4 257 254 256 259 
4 257 259 260 258 
4 261 262 256 255 
4 261 255 141 140 
4 261 140 139 263 
4 261 263 264 262 
4 265 266 260 259 
4 265 259 256 262 
4 265 262 264 267 
4 265 267 268 266 
4 269 270 250 249 
4 269 249 240 258 
4 269 258 260 271 
4 269 271 272 270 
4 273 47 18 252 
4 273 252 250 270 
4 273 270 272 274 
4 273 274 48 47 
4 275 276 272 271 
4 275 271 260 266 
4 275 266 268 277 
4 275 277 278 276 
4 279 57 48 274 
4 279 274 272 276 
4 279 276 278 280 
4 279 280 58 57 
4 281 282 264 263 
4 281 263 139 138 
4 281 138 129 283 
4 281 283 284 282 
4 285 286 268 267 
4 285 267 264 282 
4 285 282 284 287 
4 285 287 288 286 
4 289 290 284 283 
4 289 283 129 128 
4 289 128 99 291 
4 289 291 292 290 
4 293 294 288 287 
4 293 287 284 290 
4 293 290 292 295 
4 293 295 296 294 
4 297 298 278 277 
4 297 277 268 286 
4 297 286 288 299 
4 297 299 300 298 
4 301 59 58 280 
4 301 280 278 298 
4 301 298 300 302 
4 301 302 60 59 
4 303 304 300 299 
4 303 299 288 294 
4 303 294 296 305 
4 303 305 306 304 
4 307 63 60 302 
4 307 302 300 304 
4 307 304 306 308 
4 307 308 64 63 
4 309 310 292 291 
4 309 291 99 98 
4 309 98 87 311 
4 309 311 312 310 
4 313 314 296 295 
4 313 295 292 310 
4 313 310 312 315 
4 313 315 316 314 
4 317 318 312 311 
4 317 311 87 86 
4 317 86 85 319 
4 317 319 320 318 
4 321 322 316 315 
4 321 315 312 318 
4 321 318 320 323 
4 321 323 324 322 
4 325 326 306 305 
4 325 305 296 314 
4 325 314 316 327 
4 325 327 328 326 
4 329 75 64 308 
4 329 308 306 326 
4 329 326 328 330 
4 329 330 76 75 
4 331 332 328 327 
4 331 327 316 322 
4 331 322 324 333 
4 331 333 334 332 
4 335 79 76 330 
4 335 330 328 332 
4 335 332 334 336 
4 335 336 80 79 
4 337 338 184 189 
4 337 189 33 32 
4 337 32 36 339 
4 337 339 340 338 
4 341 342 170 185 
4 341 185 184 338 
4 341 338 340 343 
4 341 343 344 342 
4 345 346 340 339 
4 345 339 36 42 
4 345 42 44 347 
4 345 347 348 346 
4 349 350 344 343 
4 349 343 340 346 
4 349 346 348 351 
4 349 351 352 350 
4 353 354 164 171 
4 353 171 170 342 
4 353 342 344 355 
4 353 355 356 354 
4 357 115 114 165 
4 357 165 164 354 
4 357 354 356 358 
4 357 358 108 115 
4 359 360 356 355 
4 359 355 344 350 
4 359 350 352 361 
4 359 361 362 360 
4 363 109 108 358 
4 363 358 356 360 
4 363 360 362 364 
4 363 364 92 109 
4 365 366 348 347 
4 365 347 44 70 
4 365 70 72 367 
4 365 367 368 366 
4 369 370 352 351 
4 369 351 348 366 
4 369 366 368 371 
4 369 371 372 370 
4 373 374 368 367 
4 373 367 72 78 
4 373 78 80 336 
4 373 336 334 374 
4 375 376 372 371 
4 375 371 368 374 
4 375 374 334 333 
4 375 333 324 376 
4 377 378 362 361 
4 377 361 352 370 
4 377 370 372 379 
4 377 379 380 378 
4 381 93 92 364 
4 381 364 362 378 
4 381 378 380 382 
4 381 382 83 93 
4 383 384 380 379 
4 383 379 372 376 
4 383 376 324 323 
4 383 323 320 384 
4 385 84 83 382 
4 385 382 380 384 
4 385 384 320 319 
4 385 319 85 84 
