ply
format ascii 1.0
Created by Blender3D 246 - www.blender.org, source file: Stool6.blend
element vertex 186
property float x
property float y
property float z
element face 90
property list uchar uint vertex_indices
end_header
0.148128 -0.104978 0.652154 
0.148128 -0.114979 0.652154 
0.148128 -0.114979 0.642154 
0.148128 -0.104978 0.642154 
0.148128 -0.114979 0.251331 
0.148128 -0.104978 0.251331 
0.148128 -0.114979 0.241331 
0.148128 -0.104978 0.241331 
0.148128 0.165022 0.241331 
0.148128 0.165022 0.251331 
0.148128 0.175022 0.241331 
0.148128 0.175022 0.251331 
0.148128 0.165022 0.251331 
0.148128 0.175022 0.251331 
0.148128 0.175022 0.641331 
0.148128 0.165022 0.641331 
0.148128 0.165022 0.641331 
0.148128 0.175022 0.641331 
0.148128 0.175022 0.651331 
0.148128 0.165022 0.651331 
0.148128 0.165022 0.641331 
0.148128 0.165022 0.651331 
0.118128 0.165022 0.651331 
0.118128 0.165022 0.641331 
0.148128 0.165022 0.651331 
0.148128 0.175022 0.651331 
0.118128 0.175022 0.651331 
0.118128 0.165022 0.651331 
0.148128 0.175022 0.651331 
0.148128 0.175022 0.641331 
0.118128 0.175022 0.641331 
0.118128 0.175022 0.651331 
0.148128 0.165022 0.251331 
0.118128 0.165022 0.251331 
0.148128 0.175022 0.251331 
0.118128 0.175022 0.251331 
0.148128 0.175022 0.241331 
0.118128 0.175022 0.241331 
0.148128 0.175022 0.241331 
0.148128 0.165022 0.241331 
0.118128 0.165022 0.241331 
0.118128 0.175022 0.241331 
0.148128 -0.104978 0.251331 
0.148128 0.165022 0.251331 
0.118128 0.165022 0.251331 
0.118128 -0.104978 0.251331 
0.148128 -0.104978 0.241331 
0.118128 -0.104978 0.241331 
0.148128 -0.114979 0.241331 
0.118128 -0.114979 0.241331 
0.148128 -0.114979 0.241331 
0.148128 -0.114979 0.251331 
0.118128 -0.114979 0.251331 
0.118128 -0.114979 0.241331 
0.148128 -0.104978 0.642154 
0.148128 -0.104978 0.251331 
0.118128 -0.104978 0.251331 
0.118128 -0.104978 0.642154 
0.148128 -0.114979 0.642154 
0.118128 -0.114979 0.642154 
0.148128 -0.114979 0.642154 
0.148128 -0.114979 0.652154 
0.118128 -0.114979 0.652154 
0.118128 -0.114979 0.642154 
0.148128 -0.114979 0.652154 
0.148128 -0.104978 0.652154 
0.118128 -0.104978 0.652154 
0.118128 -0.114979 0.652154 
0.148128 -0.104978 0.652154 
0.118128 -0.104978 0.652154 
0.118128 -0.114979 0.642154 
0.118128 -0.114979 0.652154 
0.118128 -0.104978 0.652154 
0.118128 -0.104978 0.642154 
0.118128 -0.114979 0.251331 
0.118128 -0.104978 0.251331 
0.118128 -0.114979 0.241331 
0.118128 -0.104978 0.241331 
0.118128 0.165022 0.241331 
0.118128 0.165022 0.251331 
0.118128 0.175022 0.241331 
0.118128 0.175022 0.251331 
0.118128 0.175022 0.641331 
0.118128 0.175022 0.251331 
0.118128 0.165022 0.251331 
0.118128 0.165022 0.641331 
0.118128 0.175022 0.651331 
0.118128 0.175022 0.641331 
0.118128 0.165022 0.641331 
0.118128 0.165022 0.651331 
-0.133135 -0.125154 0.009619 
-0.159013 -0.119215 0.009619 
-0.162827 -0.098463 0.009619 
-0.134765 -0.098235 0.009619 
-0.163890 0.155320 0.009619 
-0.134765 0.156154 0.009619 
-0.159013 0.177134 0.009619 
-0.133135 0.184136 0.009619 
0.112521 -0.125154 0.009619 
0.113088 -0.098235 0.009619 
0.113089 0.156154 0.009619 
0.113584 0.184136 0.009619 
0.137336 -0.119215 0.009619 
0.142213 -0.097400 0.009619 
0.143275 0.155320 0.009619 
0.137336 0.177134 0.009619 
-0.179830 0.156155 0.001321 
-0.172204 0.190326 0.001321 
-0.179830 -0.098235 0.001321 
-0.172204 -0.132406 0.001321 
0.158153 -0.098235 0.001321 
0.150527 -0.132406 0.001321 
0.158153 0.156154 0.001321 
0.150527 0.190325 0.001321 
-0.134765 0.197951 0.001321 
0.113089 0.197951 0.001321 
-0.134765 -0.140032 0.001321 
0.113088 -0.140032 0.001321 
-0.134765 -0.098235 0.001321 
-0.134765 0.156154 0.001321 
0.113088 -0.098235 0.001321 
0.113089 0.156154 0.001321 
0.011405 0.045467 0.657101 
0.011405 0.051202 0.657101 
0.004732 0.051202 0.657101 
0.004732 0.045467 0.657101 
0.004732 0.012450 0.657101 
0.011405 0.012450 0.657101 
0.004732 0.006715 0.657101 
0.011405 0.006715 0.657101 
-0.026409 0.051202 0.657101 
-0.026409 0.045467 0.657101 
-0.026409 0.012450 0.657101 
-0.026409 0.006715 0.657101 
-0.033082 0.051202 0.657101 
-0.033082 0.045467 0.657101 
-0.033082 0.012450 0.657101 
-0.033082 0.006715 0.657101 
-0.033082 0.045467 0.657101 
-0.033082 0.051202 0.657101 
-0.033082 0.051202 0.008277 
-0.033082 0.045467 0.008277 
-0.033082 0.012450 0.657101 
-0.033082 0.012450 0.008277 
-0.033082 0.006715 0.657101 
-0.033082 0.006715 0.008277 
0.011405 0.012450 0.657101 
0.011405 0.006715 0.657101 
0.011405 0.006715 0.008277 
0.011405 0.012450 0.008277 
0.011405 0.045467 0.657101 
0.011405 0.045467 0.008277 
0.011405 0.051202 0.657101 
0.011405 0.051202 0.008277 
-0.033082 0.051202 0.657101 
-0.026409 0.051202 0.657101 
-0.026409 0.051202 0.008277 
-0.033082 0.051202 0.008277 
0.004732 0.051202 0.657101 
0.004732 0.051202 0.008277 
0.011405 0.051202 0.657101 
0.011405 0.051202 0.008277 
-0.026409 0.006715 0.657101 
-0.033082 0.006715 0.657101 
-0.033082 0.006715 0.008277 
-0.026409 0.006715 0.008277 
0.004732 0.006715 0.657101 
0.004732 0.006715 0.008277 
0.011405 0.006715 0.657101 
0.011405 0.006715 0.008277 
0.011405 0.045467 0.008277 
0.004732 0.045467 0.008277 
0.004732 0.051202 0.008277 
0.011405 0.051202 0.008277 
0.011405 0.012450 0.008277 
0.004732 0.012450 0.008277 
0.011405 0.006715 0.008277 
0.004732 0.006715 0.008277 
-0.026409 0.045467 0.008277 
-0.026409 0.051202 0.008277 
-0.026409 0.012450 0.008277 
-0.026409 0.006715 0.008277 
-0.033082 0.045467 0.008277 
-0.033082 0.051202 0.008277 
-0.033082 0.012450 0.008277 
-0.033082 0.006715 0.008277 
4 0 1 2 3 
4 3 2 4 5 
4 5 4 6 7 
4 5 7 8 9 
4 9 8 10 11 
4 12 13 14 15 
4 16 17 18 19 
4 20 21 22 23 
4 24 25 26 27 
4 28 29 30 31 
4 32 20 23 33 
4 29 34 35 30 
4 34 36 37 35 
4 38 39 40 41 
4 42 43 44 45 
4 39 46 47 40 
4 46 48 49 47 
4 50 51 52 53 
4 54 55 56 57 
4 51 58 59 52 
4 60 61 62 63 
4 64 65 66 67 
4 68 54 57 69 
4 70 71 72 73 
4 74 70 73 75 
4 76 74 75 77 
4 78 77 75 79 
4 80 78 79 81 
4 82 83 84 85 
4 86 87 88 89 
4 90 91 92 93 
4 93 92 94 95 
4 95 94 96 97 
4 98 90 93 99 
4 99 93 95 100 
4 100 95 97 101 
4 102 98 99 103 
4 103 99 100 104 
4 101 105 104 100 
4 94 106 107 96 
4 92 108 106 94 
4 91 109 108 92 
4 103 110 111 102 
4 104 112 110 103 
4 105 113 112 104 
4 96 107 114 97 
4 97 114 115 101 
4 113 105 101 115 
4 90 116 109 91 
4 98 117 116 90 
4 102 111 117 98 
4 108 109 116 118 
4 106 108 118 119 
4 107 106 119 114 
4 118 116 117 120 
4 119 118 120 121 
4 114 119 121 115 
4 120 117 111 110 
4 121 120 110 112 
4 115 121 112 113 
4 122 123 124 125 
4 125 126 127 122 
4 126 128 129 127 
4 130 131 125 124 
4 131 132 126 125 
4 132 133 128 126 
4 134 135 131 130 
4 135 136 132 131 
4 136 137 133 132 
4 138 139 140 141 
4 142 138 141 143 
4 144 142 143 145 
4 146 147 148 149 
4 150 146 149 151 
4 152 150 151 153 
4 154 155 156 157 
4 155 158 159 156 
4 158 160 161 159 
4 162 163 164 165 
4 166 162 165 167 
4 168 166 167 169 
4 170 171 172 173 
4 174 175 171 170 
4 176 177 175 174 
4 171 178 179 172 
4 175 180 178 171 
4 177 181 180 175 
4 178 182 183 179 
4 180 184 182 178 
4 181 185 184 180 
