ply
format ascii 1.0
Created by Blender3D 246 - www.blender.org, source file: project1.blend
element vertex 157
property float x
property float y
property float z
property float s
property float t
element face 42
property list uchar uint vertex_indices
end_header
6.015074 -7.215074 0.000000 0.000000 1.000000 
9.704927 -7.215074 0.000000 0.000000 0.000000 
9.704927 -7.384927 0.000000 1.000000 0.000000 
6.015074 -7.384927 0.000000 1.000000 1.000000 
9.704927 -7.200000 0.015074 0.000000 1.000000 
6.015074 -7.200000 0.015074 0.000000 0.000000 
6.015074 -7.200000 2.584927 1.000000 0.000000 
9.704927 -7.200000 2.584927 1.000000 1.000000 
9.720000 -7.215074 2.593757 0.451626 0.036831 
9.720000 -7.384927 2.763610 0.548374 0.036831 
9.720000 -7.384927 0.015074 0.548374 0.963169 
9.720000 -7.215074 0.015074 0.451626 0.963169 
9.704927 -7.400000 2.784927 0.056946 0.313294 
6.015074 -7.400000 2.784927 0.945495 0.313294 
6.015074 -7.400000 0.015074 0.945495 0.912903 
9.704927 -7.400000 0.015074 0.056946 0.912903 
6.000000 -7.215074 0.015074 0.621226 0.043962 
6.000000 -7.384927 0.015074 0.701039 0.043962 
6.000000 -7.384927 2.763610 0.701039 0.970687 
6.000000 -7.215074 2.593757 0.621227 0.970687 
9.704927 -0.015074 2.800000 0.994145 0.979497 
6.015074 -0.015073 2.800000 0.018062 0.979497 
6.015074 -7.384927 2.800000 0.018062 0.021001 
9.704927 -7.384927 2.800000 0.994145 0.021001 
6.000000 -7.363609 2.784927 0.460430 0.052840 
6.000001 -0.015073 2.784927 0.539570 0.052840 
6.000001 -0.015073 2.615074 0.539570 0.947160 
6.000000 -7.193756 2.615074 0.460430 0.947160 
6.015074 0.000000 2.784927 0.000000 1.000000 
9.704927 -0.000000 2.784927 0.000000 0.000000 
9.704927 -0.000000 2.615074 1.000000 0.000000 
6.015074 0.000000 2.615074 1.000000 1.000000 
9.720000 -0.015074 2.784927 0.453943 0.032728 
9.720000 -7.363609 2.784927 0.546057 0.032728 
9.720000 -7.193756 2.615074 0.546057 0.967272 
9.720000 -0.015074 2.615074 0.453943 0.967272 
6.015074 -7.184927 2.600000 0.000000 1.000000 
6.015074 -0.015073 2.600000 0.000000 0.000000 
9.704927 -0.015074 2.600000 1.000000 0.000000 
9.704927 -7.184927 2.600000 1.000000 1.000000 
6.015074 -7.215074 0.000000 0.000000 1.000000 
6.015074 -7.200000 0.015074 1.000000 1.000000 
9.704927 -7.200000 0.015074 1.000000 0.000000 
9.704927 -7.215074 0.000000 0.000000 0.000000 
9.704927 -7.384927 0.000000 0.000000 1.000000 
9.704927 -7.215074 0.000000 0.000000 0.000000 
9.720000 -7.215074 0.015074 1.000000 0.000000 
9.720000 -7.384927 0.015074 1.000000 1.000000 
9.704927 -7.384927 0.000000 0.000000 1.000000 
9.704927 -7.400000 0.015074 1.000000 1.000000 
6.015074 -7.400000 0.015074 1.000000 0.000000 
6.015074 -7.384927 0.000000 0.000000 0.000000 
6.015074 -7.215074 0.000000 0.000000 1.000000 
6.015074 -7.384927 0.000000 1.000000 1.000000 
6.000000 -7.384927 0.015074 1.000000 0.000000 
6.000000 -7.215074 0.015074 0.000000 0.000000 
6.015074 -7.200000 2.584927 0.000000 1.000000 
6.015074 -7.200000 0.015074 0.000000 0.000000 
6.000000 -7.215074 0.015074 1.000000 0.000000 
6.000000 -7.215074 2.593757 1.000000 1.000000 
6.015074 -7.200000 2.584927 0.000000 1.000000 
6.015074 -7.184927 2.600000 0.000000 0.000000 
9.704927 -7.184927 2.600000 1.000000 0.000000 
9.704927 -7.200000 2.584927 1.000000 1.000000 
9.704927 -7.200000 2.584927 0.000000 1.000000 
9.720000 -7.215074 2.593757 1.000000 1.000000 
9.720000 -7.215074 0.015074 1.000000 0.000000 
9.704927 -7.200000 0.015074 0.000000 0.000000 
9.720000 -7.193756 2.615074 0.451626 0.963169 
9.720000 -7.363609 2.784927 0.548374 0.963169 
9.720000 -7.384927 2.763610 0.451626 0.036831 
9.704927 -7.400000 2.784927 0.548374 0.036831 
9.704927 -7.400000 0.015074 0.548374 0.963169 
9.720000 -7.384927 0.015074 0.451626 0.963169 
9.704927 -7.400000 2.784927 0.057181 0.605163 
9.704927 -7.384927 2.800000 0.056736 0.619545 
6.015074 -7.384927 2.800000 0.945261 0.621035 
6.015074 -7.400000 2.784927 0.945706 0.606652 
6.015074 -7.400000 2.784927 0.056946 0.313294 
6.000000 -7.384927 2.763610 0.056946 0.912903 
6.000000 -7.384927 0.015074 0.945495 0.912903 
6.015074 -7.400000 0.015074 0.945495 0.313294 
6.000000 -7.384927 2.763610 0.621226 0.043962 
6.000000 -7.363609 2.784927 0.701039 0.043962 
6.000000 -7.193756 2.615074 0.701039 0.970687 
6.015074 -0.015073 2.800000 0.994145 0.979497 
9.704927 -0.015074 2.800000 0.994145 0.021001 
9.704927 -0.000000 2.784927 0.018062 0.021001 
6.015074 0.000000 2.784927 0.018062 0.979497 
6.015074 -0.015073 2.800000 0.994145 0.979497 
6.000001 -0.015073 2.784927 0.994145 0.021001 
6.000000 -7.363609 2.784927 0.018062 0.021001 
6.015074 -7.384927 2.800000 0.018062 0.979497 
9.704927 -7.384927 2.800000 0.994145 0.979497 
9.720000 -7.363609 2.784927 0.994145 0.021001 
9.720000 -0.015074 2.784927 0.018062 0.021001 
9.704927 -0.015074 2.800000 0.018062 0.979497 
6.000001 -0.015073 2.784927 0.460430 0.052840 
6.015074 0.000000 2.784927 0.539570 0.052840 
6.015074 0.000000 2.615074 0.539570 0.947160 
6.000001 -0.015073 2.615074 0.460430 0.947160 
6.000001 -0.015073 2.615074 0.460430 0.052840 
6.015074 -0.015073 2.600000 0.460430 0.947160 
6.015074 -7.184927 2.600000 0.539570 0.947160 
6.000000 -7.193756 2.615074 0.539570 0.052840 
9.704927 -0.000000 2.784927 0.000000 1.000000 
9.720000 -0.015074 2.784927 0.000000 0.000000 
9.720000 -0.015074 2.615074 1.000000 0.000000 
9.704927 -0.000000 2.615074 1.000000 1.000000 
9.704927 -0.000000 2.615074 0.000000 1.000000 
9.704927 -0.015074 2.600000 1.000000 1.000000 
6.015074 -0.015073 2.600000 1.000000 0.000000 
6.015074 0.000000 2.615074 0.000000 0.000000 
9.720000 -7.193756 2.615074 0.453943 0.032728 
9.704927 -7.184927 2.600000 0.453943 0.967272 
9.704927 -0.015074 2.600000 0.546057 0.967272 
9.720000 -0.015074 2.615074 0.546057 0.032728 
6.015074 -7.215074 0.000000 0.000000 1.000000 
6.000000 -7.215074 0.015074 1.000000 0.000000 
6.015074 -7.200000 0.015074 0.000000 0.000000 
9.704927 -7.215074 0.000000 0.000000 1.000000 
9.704927 -7.200000 0.015074 0.000000 0.000000 
9.720000 -7.215074 0.015074 1.000000 0.000000 
9.704927 -7.384927 0.000000 0.000000 1.000000 
9.720000 -7.384927 0.015074 0.000000 0.000000 
9.704927 -7.400000 0.015074 1.000000 0.000000 
6.015074 -7.384927 0.000000 0.000000 1.000000 
6.015074 -7.400000 0.015074 0.000000 0.000000 
6.000000 -7.384927 0.015074 1.000000 0.000000 
6.015074 -7.200000 2.584927 0.000000 1.000000 
6.000000 -7.215074 2.593757 0.000000 0.000000 
6.000000 -7.193756 2.615074 1.000000 0.000000 
6.015074 -7.184927 2.600000 1.000000 1.000000 
9.704927 -7.200000 2.584927 0.000000 1.000000 
9.704927 -7.184927 2.600000 1.000000 1.000000 
9.720000 -7.193756 2.615074 1.000000 0.000000 
9.720000 -7.215074 2.593757 0.000000 0.000000 
9.720000 -7.384927 2.763610 0.000000 1.000000 
9.720000 -7.363609 2.784927 1.000000 1.000000 
9.704927 -7.384927 2.800000 1.000000 0.000000 
9.704927 -7.400000 2.784927 0.000000 0.000000 
6.015074 -7.400000 2.784927 0.000000 1.000000 
6.015074 -7.384927 2.800000 0.000000 0.000000 
6.000000 -7.363609 2.784927 1.000000 0.000000 
6.000000 -7.384927 2.763610 1.000000 1.000000 
9.704927 -0.015074 2.800000 0.994145 0.979497 
9.720000 -0.015074 2.784927 0.018062 0.021001 
9.704927 -0.000000 2.784927 0.018062 0.979497 
6.015074 -0.015073 2.800000 0.994145 0.979497 
6.015074 0.000000 2.784927 0.018062 0.021001 
6.000001 -0.015073 2.784927 0.018062 0.979497 
6.000001 -0.015073 2.615074 0.460430 0.052840 
6.015074 0.000000 2.615074 0.539570 0.052840 
6.015074 -0.015073 2.600000 0.539570 0.947160 
9.704927 -0.000000 2.615074 0.000000 1.000000 
9.720000 -0.015074 2.615074 0.000000 0.000000 
9.704927 -0.015074 2.600000 1.000000 0.000000 
4 0 1 2 3 
4 4 5 6 7 
4 8 9 10 11 
4 12 13 14 15 
4 16 17 18 19 
4 20 21 22 23 
4 24 25 26 27 
4 28 29 30 31 
4 32 33 34 35 
4 36 37 38 39 
4 40 41 42 43 
4 44 45 46 47 
4 48 49 50 51 
4 52 53 54 55 
4 56 57 58 59 
4 60 61 62 63 
4 64 65 66 67 
4 8 68 69 9 
4 70 71 72 73 
4 74 75 76 77 
4 78 79 80 81 
4 82 83 84 19 
4 85 86 87 88 
4 89 90 91 92 
4 93 94 95 96 
4 97 98 99 100 
4 101 102 103 104 
4 105 106 107 108 
4 109 110 111 112 
4 113 114 115 116 
3 117 118 119 
3 120 121 122 
3 123 124 125 
3 126 127 128 
4 129 130 131 132 
4 133 134 135 136 
4 137 138 139 140 
4 141 142 143 144 
3 145 146 147 
3 148 149 150 
3 151 152 153 
3 154 155 156 
