ply
format ascii 1.0
Created by Blender3D 246 - www.blender.org, source file: apple-imac-2004.blend
element vertex 436
property float x
property float y
property float z
element face 344
property list uchar uint vertex_indices
end_header
12.248967 0.290356 2.921980 
12.259202 0.282887 2.879620 
12.200992 0.283694 2.884196 
12.195896 0.291971 2.931141 
12.248968 -0.027844 3.097170 
12.195897 -0.026066 3.107249 
12.201015 -0.035169 3.055625 
12.259203 -0.036057 3.050589 
12.277668 0.256213 3.047084 
12.277669 0.191885 3.058426 
12.287904 0.183671 3.011843 
12.287903 0.247999 3.000503 
12.248967 -0.195592 0.484769 
12.248967 -0.259925 0.496112 
12.195868 -0.261703 0.486032 
12.195872 -0.197369 0.474690 
9.095192 -0.190608 0.513034 
9.095191 -0.254941 0.524378 
9.084956 -0.245841 0.575998 
9.084957 -0.181507 0.564651 
12.248968 0.005405 3.120451 
12.248968 0.069124 3.109216 
12.195869 0.070902 3.119296 
12.195873 0.007182 3.130530 
9.123893 -0.115736 0.618915 
9.166352 -0.117028 0.611587 
9.166363 -0.157021 0.544146 
9.123893 -0.155664 0.551842 
9.113658 -0.107464 0.665827 
12.195885 0.277473 3.008285 
12.248967 0.275775 2.998669 
9.123893 -0.027844 3.097170 
9.095192 0.000421 3.092186 
9.084957 -0.007792 3.045603 
9.113658 -0.036057 3.050590 
9.123892 -0.474665 0.563121 
9.123892 -0.451383 0.529872 
9.166374 -0.452805 0.521809 
9.166351 -0.476086 0.555058 
12.287904 -0.007792 3.045605 
12.277669 0.000421 3.092186 
12.248967 0.261197 3.075349 
12.248968 0.196869 3.086691 
12.277667 -0.446400 0.558136 
12.248966 -0.451384 0.529871 
12.248966 -0.387668 0.518636 
12.277668 -0.382685 0.546902 
9.095191 -0.446400 0.558137 
9.095191 -0.382684 0.546902 
9.123892 -0.387665 0.518637 
9.123893 0.005405 3.120451 
9.123893 0.069120 3.109217 
9.095192 0.064140 3.080951 
12.248967 -0.155664 0.551842 
12.277668 -0.190608 0.513034 
9.123894 0.275775 2.998670 
9.095192 0.256213 3.047084 
9.123894 0.261197 3.075349 
12.248966 -0.474665 0.563120 
12.269436 -0.357325 1.228585 
12.269436 -0.406892 0.947477 
12.298137 -0.378627 0.942493 
12.298137 -0.329060 1.223601 
9.074722 -0.329074 1.223523 
9.074721 -0.378632 0.942465 
9.103423 -0.406892 0.947478 
9.103423 -0.357325 1.228586 
9.074722 0.055024 1.906082 
9.074722 0.239785 2.953918 
9.103424 0.275417 2.837254 
9.103423 0.099356 1.838767 
12.298138 0.055037 1.906160 
12.298138 0.015669 1.682892 
12.269437 0.075595 1.704010 
12.269437 0.099369 1.838838 
9.074722 -0.016006 2.999020 
9.074722 0.047712 2.987785 
9.074722 -0.265356 1.212288 
12.298137 -0.314910 0.931258 
12.298138 -0.265342 1.212366 
9.154081 -0.406890 0.947489 
9.154089 -0.357325 1.228586 
12.206114 0.075593 1.703999 
12.206134 0.099366 1.838820 
9.084957 0.055926 3.034368 
9.084957 0.247999 3.000501 
9.113659 0.282886 2.879618 
12.269438 -0.044271 3.004008 
12.298139 -0.016006 2.999024 
9.103423 -0.044270 3.004009 
12.298138 0.239786 2.953922 
12.269437 0.275417 2.837259 
12.298139 0.047713 2.987789 
9.154093 -0.044270 3.004009 
12.206085 0.275417 2.837257 
12.142831 0.099363 1.838802 
11.000831 0.099360 1.838789 
10.977695 0.275417 2.837255 
12.142735 0.275417 2.837256 
12.142735 -0.118967 0.600594 
10.977675 -0.118967 0.600594 
10.977681 -0.109078 0.656676 
12.142743 -0.109079 0.656670 
12.142777 0.008960 3.140609 
10.977724 0.008960 3.140610 
10.977734 -0.024289 3.117329 
12.142826 -0.024289 3.117328 
12.142825 0.293587 2.940301 
10.977734 0.293587 2.940301 
10.977728 0.279169 3.017905 
12.142801 0.279169 3.017904 
12.142776 0.264751 3.095507 
10.977723 0.264751 3.095507 
10.977724 0.200419 3.106851 
12.142777 0.200415 3.106851 
12.142776 -0.454938 0.509713 
10.977722 -0.454938 0.509713 
10.977722 -0.391217 0.498477 
12.142776 -0.391218 0.498477 
10.977743 -0.034280 3.060668 
12.142826 -0.034281 3.060665 
10.977715 0.284501 2.888775 
12.142780 0.284501 2.888776 
9.230091 0.275417 2.837254 
9.154090 0.275417 2.837254 
9.160222 0.283532 2.883279 
9.230071 0.284501 2.888775 
9.230050 -0.024289 3.117329 
9.166355 -0.026422 3.105234 
9.160224 -0.035347 3.054618 
9.230075 -0.034280 3.060665 
9.230098 -0.454938 0.509714 
9.166374 -0.389085 0.510573 
9.230098 -0.391215 0.498478 
9.230099 0.264751 3.095507 
9.166375 0.262618 3.083412 
9.166375 0.198288 3.094755 
9.230099 0.200424 3.106850 
9.230051 0.293587 2.940301 
9.166355 0.291648 2.929309 
9.166366 0.277133 3.006361 
9.230075 0.279169 3.017905 
9.230099 0.008960 3.140610 
9.166374 0.006827 3.128515 
9.230042 -0.118967 0.600594 
9.160212 -0.108110 0.662167 
9.230043 -0.109078 0.656677 
9.230050 0.099357 1.838769 
9.154074 0.099357 1.838768 
9.230042 -0.478219 0.542963 
10.395101 -0.478219 0.542962 
10.395139 -0.467337 0.604680 
9.230046 -0.467337 0.604677 
10.395151 -0.454938 0.509713 
10.395102 -0.118967 0.600594 
10.395126 -0.159059 0.532598 
9.230070 -0.159057 0.532602 
12.195850 -0.117352 0.609754 
12.195862 -0.157363 0.542218 
12.142756 -0.159057 0.532602 
12.195871 -0.453161 0.519792 
12.195849 -0.476442 0.553041 
12.142734 -0.478219 0.542962 
12.200968 -0.466449 0.609714 
12.142734 -0.467337 0.604676 
12.142734 -0.357325 1.228585 
12.206085 -0.357325 1.228585 
12.206131 -0.044271 3.004008 
12.142826 -0.044271 3.004008 
12.269436 -0.456459 0.666369 
12.206085 -0.406891 0.947482 
12.206084 -0.456457 0.666379 
12.142734 -0.456455 0.666390 
12.142734 -0.406890 0.947488 
10.977686 -0.406889 0.947495 
10.977749 -0.456455 0.666390 
9.103423 -0.099193 0.712739 
9.103423 0.075588 1.703968 
9.154072 0.075591 1.703986 
9.154071 -0.099191 0.712747 
9.230043 -0.099189 0.712759 
9.230047 0.075596 1.704013 
10.372056 0.075594 1.704003 
10.395109 -0.099190 0.712754 
12.269437 -0.099190 0.712752 
12.259202 -0.107463 0.665833 
12.200973 -0.108271 0.661252 
12.206094 -0.099191 0.712749 
9.103422 -0.456459 0.666370 
9.113657 -0.465562 0.614745 
9.160213 -0.466272 0.610718 
9.154073 -0.456458 0.666378 
12.298137 -0.428194 0.661385 
12.287902 -0.437297 0.609761 
12.287902 -0.373582 0.598526 
12.298137 -0.364479 0.650150 
12.298138 -0.172403 0.616283 
12.287903 -0.181506 0.564658 
9.074721 -0.428197 0.661372 
9.084956 -0.437298 0.609754 
12.259201 -0.465562 0.614744 
9.074722 -0.172405 0.616269 
9.074722 0.015668 1.682885 
9.074722 -0.314913 0.931229 
9.074721 -0.364477 0.650136 
9.074722 -0.003997 2.135612 
9.074722 0.028168 2.129940 
9.074722 -0.078782 1.523420 
9.074722 -0.136443 1.384494 
12.277668 -0.287109 0.530049 
12.277668 -0.254941 0.524377 
12.287903 -0.245839 0.576002 
12.287903 -0.278007 0.581674 
9.123893 0.164696 3.092365 
9.166374 0.070546 3.117280 
9.166374 0.166121 3.100427 
9.123892 -0.292085 0.501783 
9.123892 -0.259919 0.496112 
9.166374 -0.261342 0.488049 
9.166374 -0.293506 0.493720 
9.230099 -0.295639 0.481625 
9.230099 -0.263477 0.475954 
10.395152 -0.263478 0.475954 
10.395152 -0.295643 0.481625 
9.230099 0.168259 3.112521 
9.230099 0.072683 3.129374 
10.395152 0.072682 3.129374 
10.395152 0.168255 3.112522 
9.095192 0.159720 3.064098 
9.095192 0.191885 3.058426 
9.084957 0.183672 3.011843 
9.084957 0.151506 3.017515 
12.298138 -0.268904 0.633298 
12.298138 -0.236736 0.627626 
12.298138 -0.078780 1.523420 
12.298138 -0.136443 1.384494 
9.074722 0.143293 2.970932 
9.074722 0.175458 2.965260 
9.123893 0.196864 3.086693 
9.095191 -0.287109 0.530050 
12.248966 -0.292093 0.501784 
12.248968 0.164704 3.092363 
12.277669 0.064140 3.080951 
12.277669 0.159720 3.064098 
12.195869 0.198642 3.096772 
12.195872 0.166477 3.102443 
9.084956 -0.373580 0.598522 
9.084956 -0.278008 0.581667 
12.195868 -0.389443 0.508556 
12.195871 -0.293871 0.491705 
12.287905 0.055926 3.034367 
12.287903 0.151507 3.017517 
10.762843 -0.407956 0.955322 
10.746016 -0.406487 0.963654 
10.761852 -0.412216 0.931164 
10.775856 -0.410261 0.942249 
10.726062 -0.400848 0.995633 
10.729007 -0.398311 1.010023 
10.725964 -0.397213 1.016247 
10.709966 -0.398153 1.010915 
10.726062 -0.400848 0.995633 
10.709966 -0.398153 1.010915 
10.698919 -0.399359 1.004077 
10.719069 -0.403649 0.979750 
10.719069 -0.403649 0.979750 
10.698919 -0.399359 1.004077 
10.690255 -0.401081 0.994312 
10.706191 -0.405575 0.968823 
10.706191 -0.405575 0.968823 
10.690255 -0.401081 0.994312 
10.684442 -0.403092 0.982909 
10.691269 -0.406693 0.962483 
10.691269 -0.406693 0.962483 
10.684442 -0.403092 0.982909 
10.682001 -0.404400 0.975490 
10.682012 -0.406697 0.962461 
10.761852 -0.412216 0.931164 
10.746016 -0.406487 0.963654 
10.728412 -0.406076 0.965982 
10.752486 -0.415077 0.914934 
10.782255 -0.425627 0.855104 
10.769349 -0.424211 0.863133 
10.761446 -0.432031 0.818787 
10.773499 -0.428805 0.837079 
10.756792 -0.421885 0.876324 
10.749447 -0.434230 0.806316 
10.761446 -0.432031 0.818787 
10.769349 -0.424211 0.863133 
10.750576 -0.418679 0.894511 
10.736053 -0.435864 0.797049 
10.749447 -0.434230 0.806316 
10.756792 -0.421885 0.876324 
10.752486 -0.415077 0.914934 
10.728412 -0.406076 0.965982 
10.709311 -0.406905 0.961282 
10.590575 -0.420135 0.886251 
10.604783 -0.409958 0.943969 
10.595373 -0.412762 0.928067 
10.590761 -0.416837 0.904954 
10.594143 -0.422978 0.870130 
10.617446 -0.408138 0.954290 
10.604783 -0.409958 0.943969 
10.590575 -0.420135 0.886251 
10.599781 -0.426295 0.851319 
10.632875 -0.406487 0.963654 
10.617446 -0.408138 0.954290 
10.594143 -0.422978 0.870130 
10.608887 -0.429351 0.833982 
10.650479 -0.406076 0.965982 
10.632875 -0.406487 0.963654 
10.599781 -0.426295 0.851319 
10.617446 -0.432031 0.818787 
10.669581 -0.406905 0.961282 
10.650479 -0.406076 0.965982 
10.608887 -0.429351 0.833982 
10.669580 -0.435292 0.800290 
10.629444 -0.434230 0.806316 
10.642838 -0.435864 0.797049 
10.656209 -0.436124 0.795573 
10.689445 -0.434418 0.805247 
10.617446 -0.432031 0.818787 
10.629444 -0.434230 0.806316 
10.669580 -0.435292 0.800290 
10.689445 -0.434418 0.805247 
10.689445 -0.407789 0.956271 
10.669581 -0.406905 0.961282 
10.617446 -0.432031 0.818787 
10.750576 -0.418679 0.894511 
10.709311 -0.406905 0.961282 
10.722682 -0.436124 0.795573 
10.736053 -0.435864 0.797049 
10.689445 -0.434418 0.805247 
10.709311 -0.406905 0.961282 
10.689445 -0.407789 0.956271 
10.709311 -0.435292 0.800290 
10.722682 -0.436124 0.795573 
12.195872 0.262974 3.085428 
9.123893 -0.195592 0.484769 
12.298138 0.028182 2.130018 
12.298138 0.175458 2.965265 
9.230099 -0.199147 0.464611 
10.395152 -0.199147 0.464610 
9.166374 -0.197014 0.476706 
10.395152 0.200420 3.106850 
10.395152 0.008960 3.140610 
10.395151 -0.391216 0.498477 
12.298138 -0.003983 2.135690 
12.298138 0.143293 2.970936 
9.074722 -0.268906 0.633284 
9.074722 -0.236741 0.627613 
10.371999 0.099359 1.838783 
10.977695 -0.357325 1.228585 
10.395131 0.275417 2.837255 
10.395105 -0.109078 0.656677 
10.395143 -0.024289 3.117329 
10.395143 0.293587 2.940301 
10.395147 0.279169 3.017905 
10.395152 0.264751 3.095507 
10.395157 -0.034280 3.060668 
10.395137 0.284501 2.888775 
10.395118 -0.406889 0.947498 
9.230071 -0.406887 0.947505 
9.230051 -0.456455 0.666391 
10.395177 -0.456455 0.666390 
10.395130 -0.357325 1.228585 
9.230091 -0.357325 1.228585 
10.977674 -0.478219 0.542962 
10.977712 -0.467337 0.604680 
10.977699 -0.159059 0.532598 
11.000929 0.075593 1.703998 
12.142792 0.075591 1.703989 
12.142752 -0.099191 0.712746 
10.977686 -0.099190 0.712751 
10.977723 -0.263479 0.475954 
12.142776 -0.263480 0.475954 
12.142776 -0.295648 0.481626 
10.977723 -0.295644 0.481625 
10.977724 0.072681 3.129374 
12.142777 0.072680 3.129374 
12.142777 0.168250 3.112523 
10.977724 0.168253 3.112522 
10.977723 -0.199147 0.464610 
12.142776 -0.199147 0.464610 
12.142734 -0.357325 1.228585 
12.142826 -0.044271 3.004008 
12.142826 -0.011468 2.998224 
12.142734 -0.324523 1.222801 
9.230091 -0.357325 1.228585 
9.230091 -0.324523 1.222802 
9.230099 -0.044270 3.004009 
9.230099 -0.011468 2.998225 
9.230091 -0.324523 1.222802 
12.142734 -0.324523 1.222801 
12.142826 -0.011468 2.998224 
9.230099 -0.011468 2.998225 
12.298138 0.028182 2.130018 
12.298138 0.175458 2.965265 
11.454842 0.175458 2.965265 
11.454842 0.028182 2.130018 
12.298138 0.175458 2.965265 
12.298138 0.143293 2.970936 
11.454842 0.143293 2.970936 
11.454842 0.175458 2.965265 
12.298138 -0.003983 2.135690 
12.298138 0.028182 2.130018 
11.454842 0.028182 2.130018 
11.454842 -0.003983 2.135690 
12.298138 0.143293 2.970936 
12.298138 -0.003983 2.135690 
11.454842 -0.003983 2.135690 
11.454842 0.143293 2.970936 
11.454842 -0.003983 2.135690 
11.454842 0.028182 2.130018 
11.454842 0.175458 2.965265 
11.454842 0.143293 2.970936 
11.000831 0.099360 1.838789 
10.371999 0.099359 1.838783 
10.393156 0.074802 1.817875 
10.979680 0.074803 1.817879 
11.000929 0.075593 1.703998 
10.372056 0.075594 1.704003 
10.393209 0.059669 1.732050 
10.979772 0.059668 1.732047 
10.393156 -0.006163 1.832151 
10.393209 -0.021297 1.746327 
10.979680 -0.006163 1.832155 
10.979772 -0.021297 1.746323 
10.393156 -0.006163 1.832151 
10.979680 -0.006163 1.832155 
10.979772 -0.021297 1.746323 
10.393209 -0.021297 1.746327 
12.248967 -0.115736 0.618915 
9.123894 0.290356 2.921981 
9.230099 -0.044270 3.004009 
10.977753 -0.044271 3.004008 
10.395172 -0.044271 3.004008 
4 0 1 2 3 
4 4 5 6 7 
4 8 9 10 11 
4 12 13 14 15 
4 16 17 18 19 
4 20 21 22 23 
4 0 8 11 1 
4 24 25 26 27 
4 24 16 19 28 
4 0 3 29 30 
4 4 20 23 5 
4 31 32 33 34 
4 35 36 37 38 
4 4 7 39 40 
4 8 41 42 9 
4 43 44 45 46 
4 36 47 48 49 
4 32 50 51 52 
3 0 30 8 
3 53 54 12 
3 24 27 16 
3 55 56 57 
3 4 40 20 
3 31 50 32 
3 35 47 36 
3 58 44 43 
4 59 60 61 62 
4 63 64 65 66 
4 67 68 69 70 
4 71 72 73 74 
4 63 75 76 77 
4 62 61 78 79 
4 66 65 80 81 
4 74 73 82 83 
4 75 33 84 76 
4 68 85 86 69 
4 87 59 62 88 
4 75 63 66 89 
4 90 71 74 91 
4 88 62 79 92 
4 89 66 81 93 
4 91 74 83 94 
4 95 96 97 98 
4 99 100 101 102 
4 103 104 105 106 
4 107 108 109 110 
4 111 112 113 114 
4 115 116 117 118 
4 106 105 119 120 
4 98 97 121 122 
4 123 124 125 126 
4 127 128 129 130 
4 131 37 132 133 
4 134 135 136 137 
4 138 139 140 141 
4 142 143 128 127 
4 144 25 145 146 
4 147 148 124 123 
4 149 150 151 152 
4 131 153 150 149 
4 144 154 155 156 
4 99 157 158 159 
4 115 160 161 162 
4 162 161 163 164 
4 165 166 167 168 
4 169 60 170 171 
4 172 173 174 175 
4 176 177 178 179 
4 180 181 182 183 
4 184 185 186 187 
4 188 189 190 191 
4 192 193 194 195 
4 196 197 185 184 
4 198 199 189 188 
4 169 200 193 192 
4 201 202 177 176 
4 198 64 203 204 
4 205 206 207 208 
4 209 210 211 212 
4 213 51 214 215 
4 216 217 218 219 
4 220 221 222 223 
4 224 225 226 227 
4 228 229 230 231 
4 232 233 234 235 
4 236 237 206 205 
4 213 238 229 228 
4 239 17 217 216 
4 240 13 210 209 
4 241 21 242 243 
4 241 42 244 245 
4 239 48 246 247 
4 240 45 248 249 
4 243 242 250 251 
4 252 253 254 255 
4 256 257 258 259 
4 260 261 262 263 
4 264 265 266 267 
4 268 269 270 271 
4 272 273 274 275 
4 276 277 278 279 
4 280 281 282 283 
4 284 285 286 287 
4 288 289 290 291 
4 292 293 294 288 
4 295 296 297 298 
4 299 300 301 302 
4 303 304 305 306 
4 307 308 309 310 
4 311 312 313 314 
4 315 316 317 318 
4 319 320 321 322 
4 323 324 325 326 
4 327 328 329 330 
3 331 332 333 
4 334 335 294 323 
4 42 41 336 244 
4 13 12 54 210 
4 17 16 337 217 
4 238 57 56 229 
4 237 68 67 206 
4 233 196 72 234 
4 229 56 85 230 
4 338 71 90 339 
4 221 340 341 222 
4 217 337 342 218 
4 210 54 197 211 
4 206 67 202 207 
4 238 213 215 136 
4 137 224 227 343 
4 42 241 243 9 
4 17 239 247 18 
4 13 240 249 14 
4 9 243 251 10 
4 242 40 39 250 
4 45 44 160 248 
4 48 47 199 246 
4 21 20 40 242 
4 225 142 344 226 
4 51 50 143 214 
4 77 205 208 203 
4 46 209 212 194 
4 49 216 219 132 
4 133 220 223 345 
4 79 346 347 92 
4 52 228 231 84 
4 195 232 235 78 
4 76 236 205 77 
4 51 213 228 52 
4 48 239 216 49 
4 45 240 209 46 
4 21 241 245 22 
4 235 346 79 78 
4 208 348 204 203 
4 202 201 349 207 
4 72 71 338 234 
4 234 338 346 235 
4 207 349 348 208 
4 64 63 77 203 
4 202 67 70 177 
4 181 147 350 182 
4 177 70 148 178 
4 173 165 351 174 
4 60 59 166 170 
4 73 184 187 82 
4 65 188 191 80 
4 61 192 195 78 
4 72 196 184 73 
4 64 198 188 65 
4 60 169 192 61 
4 350 147 123 352 
4 154 144 146 353 
4 344 142 127 354 
4 355 138 141 356 
4 357 134 137 343 
4 153 131 133 345 
4 354 127 130 358 
4 352 123 126 359 
4 360 361 362 363 
4 364 365 361 360 
4 366 162 164 367 
4 116 115 162 366 
4 100 99 159 368 
4 369 370 371 372 
4 373 374 375 376 
4 377 378 379 380 
4 381 382 374 373 
4 380 379 114 113 
4 104 103 378 377 
4 376 375 118 117 
4 96 95 370 369 
4 96 97 352 350 
4 100 101 353 154 
4 104 105 354 344 
4 108 109 356 355 
4 112 113 343 357 
4 116 117 345 153 
4 105 119 358 354 
4 97 121 359 352 
4 174 175 363 360 
4 351 174 360 364 
4 376 117 345 223 
4 104 377 226 344 
4 380 113 343 227 
4 381 373 222 341 
4 377 380 227 226 
4 373 376 223 222 
4 369 372 183 182 
4 100 368 155 154 
4 116 366 150 153 
4 366 367 151 150 
4 383 384 385 386 
4 387 383 386 388 
4 384 389 390 385 
4 389 387 388 390 
4 391 392 393 394 
4 395 396 397 398 
4 399 400 401 402 
4 403 404 405 406 
4 407 408 409 410 
4 411 412 413 414 
4 415 416 417 418 
4 419 420 421 422 
4 419 415 418 422 
4 420 416 417 421 
4 421 417 423 424 
4 422 418 425 426 
4 422 421 424 426 
4 418 417 423 425 
4 427 428 429 430 
4 187 371 370 82 
4 166 165 173 170 
4 245 379 378 22 
4 160 115 118 248 
4 249 375 374 14 
4 336 111 114 244 
4 248 118 375 249 
4 244 114 379 245 
4 157 99 102 186 
4 170 173 172 171 
4 166 59 87 167 
4 161 58 200 163 
4 160 44 58 161 
4 157 431 53 158 
4 83 95 98 94 
4 82 370 95 83 
4 23 103 106 5 
4 3 107 110 29 
4 22 378 103 23 
4 14 374 382 15 
4 5 106 120 6 
4 94 98 122 2 
4 53 12 15 158 
4 368 381 341 155 
4 159 382 381 368 
4 158 15 382 159 
4 155 341 340 156 
3 27 337 16 
3 53 431 54 
4 156 340 342 26 
4 342 337 27 26 
4 191 362 361 80 
4 148 147 181 178 
4 219 220 133 132 
4 143 142 225 214 
4 215 224 137 136 
4 342 340 221 218 
4 218 221 220 219 
4 214 225 224 215 
4 38 149 152 190 
4 178 181 180 179 
4 148 70 69 124 
4 25 24 28 145 
4 143 50 31 128 
4 139 432 55 140 
4 135 57 238 136 
4 37 36 49 132 
4 128 31 34 129 
4 124 69 86 125 
4 81 365 433 93 
4 80 361 365 81 
4 37 131 149 38 
4 25 144 156 26 
4 28 176 179 145 
4 152 362 191 190 
4 200 169 171 163 
4 102 371 187 186 
4 367 175 363 151 
4 101 372 183 353 
4 164 172 175 367 
4 146 180 183 353 
4 212 232 195 194 
4 199 198 204 246 
4 247 348 349 18 
4 197 196 233 211 
4 246 204 348 247 
4 211 233 232 212 
4 200 58 43 193 
4 199 47 35 189 
4 197 54 431 185 
4 193 43 46 194 
4 189 35 38 190 
4 185 431 157 186 
4 163 171 172 164 
4 151 363 362 152 
4 145 179 180 146 
4 101 372 371 102 
4 19 201 176 28 
4 18 349 201 19 
4 55 57 135 140 
4 110 111 336 29 
4 109 112 357 356 
4 141 134 357 356 
4 140 135 134 141 
4 109 112 111 110 
3 55 432 56 
3 30 41 8 
4 29 336 41 30 
4 86 432 139 125 
4 34 89 93 129 
4 122 107 3 2 
4 120 168 167 6 
4 121 108 355 359 
4 119 434 435 358 
4 126 138 355 359 
4 130 433 435 358 
4 231 236 76 84 
4 39 88 92 250 
4 251 347 339 10 
4 85 68 237 230 
4 250 92 347 251 
4 230 237 236 231 
4 129 93 433 130 
4 125 139 138 126 
4 121 108 107 122 
4 119 434 168 120 
4 85 56 432 86 
4 33 32 52 84 
4 7 87 88 39 
4 33 75 89 34 
4 11 90 91 1 
4 10 339 90 11 
4 6 167 87 7 
4 1 91 94 2 
