ply
format ascii 1.0
Created by Blender3D 246 - www.blender.org, source file: espositori.blend
element vertex 960
property float x
property float y
property float z
element face 242
property list uchar uint vertex_indices
end_header
-1.755777 -0.599698 3.465787 
-2.043054 -0.886976 2.176569 
-3.381508 -0.886976 2.176569 
-3.668785 -0.599698 3.465787 
-1.755776 -2.584451 3.465786 
-3.668785 -2.584451 3.465787 
-3.381508 -2.297173 2.176569 
-2.043055 -2.297173 2.176569 
-1.719905 -0.635570 3.465786 
-1.719904 -2.548579 3.465786 
-2.007183 -2.261301 2.176569 
-2.007183 -0.922848 2.176569 
-3.417380 -0.922848 2.176569 
-3.417380 -2.261301 2.176569 
-3.704657 -2.548579 3.465787 
-3.704657 -0.635570 3.465787 
-1.747333 -2.557022 3.500000 
-1.747333 -0.627127 3.500000 
-3.677228 -0.627127 3.500000 
-3.677228 -2.557022 3.500000 
-2.041616 -2.299060 2.108618 
-3.382947 -2.299060 2.108619 
-3.964966 -2.881079 0.044019 
-1.459598 -2.881079 0.044018 
-3.419267 -2.262740 2.108619 
-3.419267 -0.921409 2.108618 
-4.001286 -0.339390 0.044019 
-4.001286 -2.844759 0.044019 
-2.005296 -0.921409 2.108618 
-2.005296 -2.262740 2.108618 
-1.423278 -2.844759 0.044018 
-1.423277 -0.339390 0.044018 
-3.382947 -0.885089 2.108618 
-2.041615 -0.885089 2.108618 
-1.459597 -0.303071 0.044018 
-3.964966 -0.303071 0.044019 
-1.448819 -0.328612 0.010281 
-1.448820 -2.855537 0.010280 
-3.975744 -2.855537 0.010281 
-3.975744 -0.328612 0.010281 
-2.027934 -0.893216 2.176374 
-1.740569 -0.605851 3.465982 
-1.726058 -0.620362 3.465982 
-2.013422 -0.907727 2.176374 
-3.404064 -0.866856 2.159256 
-2.020498 -0.866856 2.159256 
-2.019764 -0.865898 2.125813 
-3.404798 -0.865899 2.125813 
-3.683993 -0.605851 3.465982 
-3.396629 -0.893216 2.176374 
-3.411140 -0.907727 2.176374 
-3.698504 -0.620362 3.465982 
-3.672422 -0.603274 3.481178 
-3.675380 -0.612883 3.493163 
-1.749182 -0.612883 3.493163 
-1.752140 -0.603274 3.481177 
-3.672422 -2.580875 3.481177 
-1.752139 -2.580875 3.481177 
-1.749181 -2.571267 3.493162 
-3.675380 -2.571267 3.493163 
-3.396629 -2.290933 2.176374 
-3.683993 -2.578298 3.465982 
-3.698504 -2.563787 3.465982 
-3.411140 -2.276422 2.176374 
-2.020499 -2.317293 2.159256 
-3.404064 -2.317293 2.159256 
-3.404798 -2.318251 2.125813 
-2.019765 -2.318251 2.125812 
-2.027934 -2.290933 2.176373 
-2.013423 -2.276422 2.176373 
-1.726057 -2.563787 3.465982 
-1.740568 -2.578298 3.465982 
-1.723480 -2.552216 3.481177 
-1.723480 -0.631933 3.481177 
-1.733089 -0.628975 3.493163 
-1.733088 -2.555174 3.493162 
-1.983484 -0.903689 2.159256 
-1.983484 -2.280460 2.159256 
-1.982522 -2.281190 2.125812 
-1.982521 -0.902959 2.125813 
-3.441079 -2.280460 2.159256 
-3.441079 -0.903689 2.159256 
-3.442041 -0.902959 2.125813 
-3.442041 -2.281190 2.125813 
-3.701082 -0.631933 3.481178 
-3.701082 -2.552216 3.481177 
-3.691473 -2.555174 3.493163 
-3.691473 -0.628975 3.493163 
-3.980326 -2.874965 0.043724 
-3.398140 -2.292781 2.108913 
-3.412987 -2.277934 2.108913 
-3.995173 -2.860118 0.043724 
-1.454951 -2.878167 0.028597 
-3.969613 -2.878167 0.028598 
-3.973232 -2.869590 0.017268 
-1.451332 -2.869590 0.017267 
-1.444239 -2.874965 0.043723 
-1.429392 -2.860118 0.043723 
-2.011575 -2.277934 2.108912 
-2.026423 -2.292781 2.108912 
-3.995172 -0.324031 0.043724 
-3.412987 -0.906215 2.108913 
-3.398140 -0.891369 2.108913 
-3.980325 -0.309184 0.043724 
-3.998374 -2.849406 0.028598 
-3.998374 -0.334744 0.028598 
-3.989797 -0.331124 0.017268 
-3.989797 -2.853025 0.017268 
-1.426189 -0.334744 0.028597 
-1.426190 -2.849406 0.028597 
-1.434767 -2.853025 0.017267 
-1.434767 -0.331124 0.017267 
-1.429391 -0.324031 0.043724 
-1.444238 -0.309184 0.043724 
-2.026422 -0.891369 2.108913 
-2.011575 -0.906215 2.108913 
-3.969613 -0.305982 0.028598 
-1.454950 -0.305982 0.028597 
-1.451331 -0.314560 0.017267 
-3.973232 -0.314560 0.017268 
-1.735361 -0.611861 3.482497 
-1.734586 -0.614379 3.485638 
-1.732068 -0.615154 3.482497 
-2.004997 -0.873244 2.159258 
-1.989903 -0.888264 2.159258 
-1.988941 -0.887534 2.125811 
-2.004263 -0.872287 2.125811 
-3.419565 -0.873244 2.159258 
-3.420299 -0.872287 2.125811 
-3.435621 -0.887534 2.125811 
-3.434659 -0.888264 2.159258 
-3.689201 -0.611861 3.482498 
-3.692494 -0.615154 3.482498 
-3.689976 -0.614379 3.485639 
-1.735360 -2.572288 3.482497 
-1.732067 -2.568995 3.482497 
-1.734585 -2.569770 3.485638 
-3.689201 -2.572288 3.482498 
-3.689976 -2.569770 3.485638 
-3.692494 -2.568995 3.482498 
-3.419565 -2.310905 2.159258 
-3.434659 -2.295885 2.159258 
-3.435621 -2.296615 2.125811 
-3.420299 -2.311862 2.125811 
-2.004998 -2.310905 2.159258 
-2.004264 -2.311862 2.125810 
-1.988942 -2.296615 2.125810 
-1.989904 -2.295885 2.159258 
-3.986760 -2.869457 0.027213 
-3.989664 -2.866553 0.027213 
-3.987622 -2.867414 0.024515 
-1.437804 -2.869457 0.027212 
-1.436942 -2.867414 0.024514 
-1.434900 -2.866553 0.027212 
-3.989664 -0.317597 0.027213 
-3.986760 -0.314692 0.027213 
-3.987622 -0.316735 0.024515 
-1.434899 -0.317597 0.027212 
-1.436942 -0.316735 0.024514 
-1.437804 -0.314692 0.027212 
-1.755777 -0.599698 3.465787 
-1.740569 -0.605851 3.465982 
-2.027934 -0.893216 2.176374 
-2.043054 -0.886976 2.176569 
-2.043054 -0.886976 2.176569 
-2.020498 -0.866856 2.159256 
-3.404064 -0.866856 2.159256 
-3.381508 -0.886976 2.176569 
-3.381508 -0.886976 2.176569 
-3.396629 -0.893216 2.176374 
-3.683993 -0.605851 3.465982 
-3.668785 -0.599698 3.465787 
-1.755777 -0.599698 3.465787 
-3.668785 -0.599698 3.465787 
-3.672422 -0.603274 3.481178 
-1.752140 -0.603274 3.481177 
-3.668785 -2.584451 3.465787 
-1.755776 -2.584451 3.465786 
-1.752139 -2.580875 3.481177 
-3.672422 -2.580875 3.481177 
-3.381508 -2.297173 2.176569 
-3.668785 -2.584451 3.465787 
-3.683993 -2.578298 3.465982 
-3.396629 -2.290933 2.176374 
-2.043055 -2.297173 2.176569 
-3.381508 -2.297173 2.176569 
-3.404064 -2.317293 2.159256 
-2.020499 -2.317293 2.159256 
-2.043055 -2.297173 2.176569 
-2.027934 -2.290933 2.176373 
-1.740568 -2.578298 3.465982 
-1.755776 -2.584451 3.465786 
-1.719904 -2.548579 3.465786 
-1.719905 -0.635570 3.465786 
-1.723480 -0.631933 3.481177 
-1.723480 -2.552216 3.481177 
-2.007183 -2.261301 2.176569 
-1.719904 -2.548579 3.465786 
-1.726057 -2.563787 3.465982 
-2.013423 -2.276422 2.176373 
-2.007183 -0.922848 2.176569 
-2.007183 -2.261301 2.176569 
-1.983484 -2.280460 2.159256 
-1.983484 -0.903689 2.159256 
-2.007183 -0.922848 2.176569 
-2.013422 -0.907727 2.176374 
-1.726058 -0.620362 3.465982 
-1.719905 -0.635570 3.465786 
-3.417380 -2.261301 2.176569 
-3.417380 -0.922848 2.176569 
-3.441079 -0.903689 2.159256 
-3.441079 -2.280460 2.159256 
-3.704657 -2.548579 3.465787 
-3.417380 -2.261301 2.176569 
-3.411140 -2.276422 2.176374 
-3.698504 -2.563787 3.465982 
-3.704657 -0.635570 3.465787 
-3.704657 -2.548579 3.465787 
-3.701082 -2.552216 3.481177 
-3.701082 -0.631933 3.481178 
-3.704657 -0.635570 3.465787 
-3.698504 -0.620362 3.465982 
-3.411140 -0.907727 2.176374 
-3.417380 -0.922848 2.176569 
-1.747333 -0.627127 3.500000 
-1.747333 -2.557022 3.500000 
-1.733088 -2.555174 3.493162 
-1.733089 -0.628975 3.493163 
-3.677228 -0.627127 3.500000 
-1.747333 -0.627127 3.500000 
-1.749182 -0.612883 3.493163 
-3.675380 -0.612883 3.493163 
-3.677228 -2.557022 3.500000 
-3.677228 -0.627127 3.500000 
-3.691473 -0.628975 3.493163 
-3.691473 -2.555174 3.493163 
-3.677228 -2.557022 3.500000 
-3.675380 -2.571267 3.493163 
-1.749181 -2.571267 3.493162 
-1.747333 -2.557022 3.500000 
-3.382947 -2.299060 2.108619 
-2.041616 -2.299060 2.108618 
-2.019765 -2.318251 2.125812 
-3.404798 -2.318251 2.125813 
-3.964966 -2.881079 0.044019 
-3.382947 -2.299060 2.108619 
-3.398140 -2.292781 2.108913 
-3.980326 -2.874965 0.043724 
-1.459598 -2.881079 0.044018 
-3.964966 -2.881079 0.044019 
-3.969613 -2.878167 0.028598 
-1.454951 -2.878167 0.028597 
-1.459598 -2.881079 0.044018 
-1.444239 -2.874965 0.043723 
-2.026423 -2.292781 2.108912 
-2.041616 -2.299060 2.108618 
-3.419267 -0.921409 2.108618 
-3.419267 -2.262740 2.108619 
-3.442041 -2.281190 2.125813 
-3.442041 -0.902959 2.125813 
-4.001286 -0.339390 0.044019 
-3.419267 -0.921409 2.108618 
-3.412987 -0.906215 2.108913 
-3.995172 -0.324031 0.043724 
-4.001286 -2.844759 0.044019 
-4.001286 -0.339390 0.044019 
-3.998374 -0.334744 0.028598 
-3.998374 -2.849406 0.028598 
-4.001286 -2.844759 0.044019 
-3.995173 -2.860118 0.043724 
-3.412987 -2.277934 2.108913 
-3.419267 -2.262740 2.108619 
-2.005296 -2.262740 2.108618 
-2.005296 -0.921409 2.108618 
-1.982521 -0.902959 2.125813 
-1.982522 -2.281190 2.125812 
-1.423278 -2.844759 0.044018 
-2.005296 -2.262740 2.108618 
-2.011575 -2.277934 2.108912 
-1.429392 -2.860118 0.043723 
-1.423277 -0.339390 0.044018 
-1.423278 -2.844759 0.044018 
-1.426190 -2.849406 0.028597 
-1.426189 -0.334744 0.028597 
-1.423277 -0.339390 0.044018 
-1.429391 -0.324031 0.043724 
-2.011575 -0.906215 2.108913 
-2.005296 -0.921409 2.108618 
-2.041615 -0.885089 2.108618 
-3.382947 -0.885089 2.108618 
-3.404798 -0.865899 2.125813 
-2.019764 -0.865898 2.125813 
-1.459597 -0.303071 0.044018 
-2.041615 -0.885089 2.108618 
-2.026422 -0.891369 2.108913 
-1.444238 -0.309184 0.043724 
-3.964966 -0.303071 0.044019 
-1.459597 -0.303071 0.044018 
-1.454950 -0.305982 0.028597 
-3.969613 -0.305982 0.028598 
-3.964966 -0.303071 0.044019 
-3.980325 -0.309184 0.043724 
-3.398140 -0.891369 2.108913 
-3.382947 -0.885089 2.108618 
-1.448820 -2.855537 0.010280 
-1.448819 -0.328612 0.010281 
-1.434767 -0.331124 0.017267 
-1.434767 -2.853025 0.017267 
-3.975744 -2.855537 0.010281 
-1.448820 -2.855537 0.010280 
-1.451332 -2.869590 0.017267 
-3.973232 -2.869590 0.017268 
-3.975744 -2.855537 0.010281 
-3.989797 -2.853025 0.017268 
-3.989797 -0.331124 0.017268 
-3.975744 -0.328612 0.010281 
-1.448819 -0.328612 0.010281 
-3.975744 -0.328612 0.010281 
-3.973232 -0.314560 0.017268 
-1.451331 -0.314560 0.017267 
-2.027934 -0.893216 2.176374 
-2.013422 -0.907727 2.176374 
-1.989903 -0.888264 2.159258 
-2.004997 -0.873244 2.159258 
-1.740569 -0.605851 3.465982 
-1.735361 -0.611861 3.482497 
-1.732068 -0.615154 3.482497 
-1.726058 -0.620362 3.465982 
-2.019764 -0.865898 2.125813 
-2.020498 -0.866856 2.159256 
-2.004997 -0.873244 2.159258 
-2.004263 -0.872287 2.125811 
-3.404798 -0.865899 2.125813 
-3.420299 -0.872287 2.125811 
-3.419565 -0.873244 2.159258 
-3.404064 -0.866856 2.159256 
-3.683993 -0.605851 3.465982 
-3.698504 -0.620362 3.465982 
-3.692494 -0.615154 3.482498 
-3.689201 -0.611861 3.482498 
-3.411140 -0.907727 2.176374 
-3.396629 -0.893216 2.176374 
-3.419565 -0.873244 2.159258 
-3.434659 -0.888264 2.159258 
-3.675380 -0.612883 3.493163 
-3.672422 -0.603274 3.481178 
-3.689201 -0.611861 3.482498 
-3.689976 -0.614379 3.485639 
-1.749182 -0.612883 3.493163 
-1.734586 -0.614379 3.485638 
-1.735361 -0.611861 3.482497 
-1.752140 -0.603274 3.481177 
-3.672422 -2.580875 3.481177 
-3.675380 -2.571267 3.493163 
-3.689976 -2.569770 3.485638 
-3.689201 -2.572288 3.482498 
-1.752139 -2.580875 3.481177 
-1.735360 -2.572288 3.482497 
-1.734585 -2.569770 3.485638 
-1.749181 -2.571267 3.493162 
-3.683993 -2.578298 3.465982 
-3.689201 -2.572288 3.482498 
-3.692494 -2.568995 3.482498 
-3.698504 -2.563787 3.465982 
-3.411140 -2.276422 2.176374 
-3.434659 -2.295885 2.159258 
-3.419565 -2.310905 2.159258 
-3.396629 -2.290933 2.176374 
-3.404798 -2.318251 2.125813 
-3.404064 -2.317293 2.159256 
-3.419565 -2.310905 2.159258 
-3.420299 -2.311862 2.125811 
-2.019765 -2.318251 2.125812 
-2.004264 -2.311862 2.125810 
-2.004998 -2.310905 2.159258 
-2.020499 -2.317293 2.159256 
-2.027934 -2.290933 2.176373 
-2.004998 -2.310905 2.159258 
-1.989904 -2.295885 2.159258 
-2.013423 -2.276422 2.176373 
-1.740568 -2.578298 3.465982 
-1.726057 -2.563787 3.465982 
-1.732067 -2.568995 3.482497 
-1.735360 -2.572288 3.482497 
-1.723480 -0.631933 3.481177 
-1.732068 -0.615154 3.482497 
-1.734586 -0.614379 3.485638 
-1.733089 -0.628975 3.493163 
-1.733088 -2.555174 3.493162 
-1.734585 -2.569770 3.485638 
-1.732067 -2.568995 3.482497 
-1.723480 -2.552216 3.481177 
-1.983484 -2.280460 2.159256 
-1.989904 -2.295885 2.159258 
-1.988942 -2.296615 2.125810 
-1.982522 -2.281190 2.125812 
-1.982521 -0.902959 2.125813 
-1.988941 -0.887534 2.125811 
-1.989903 -0.888264 2.159258 
-1.983484 -0.903689 2.159256 
-3.441079 -0.903689 2.159256 
-3.434659 -0.888264 2.159258 
-3.435621 -0.887534 2.125811 
-3.442041 -0.902959 2.125813 
-3.441079 -2.280460 2.159256 
-3.442041 -2.281190 2.125813 
-3.435621 -2.296615 2.125811 
-3.434659 -2.295885 2.159258 
-3.701082 -2.552216 3.481177 
-3.692494 -2.568995 3.482498 
-3.689976 -2.569770 3.485638 
-3.691473 -2.555174 3.493163 
-3.691473 -0.628975 3.493163 
-3.689976 -0.614379 3.485639 
-3.692494 -0.615154 3.482498 
-3.701082 -0.631933 3.481178 
-3.980326 -2.874965 0.043724 
-3.995173 -2.860118 0.043724 
-3.989664 -2.866553 0.027213 
-3.986760 -2.869457 0.027213 
-3.412987 -2.277934 2.108913 
-3.398140 -2.292781 2.108913 
-3.420299 -2.311862 2.125811 
-3.435621 -2.296615 2.125811 
-3.969613 -2.878167 0.028598 
-3.986760 -2.869457 0.027213 
-3.987622 -2.867414 0.024515 
-3.973232 -2.869590 0.017268 
-1.454951 -2.878167 0.028597 
-1.451332 -2.869590 0.017267 
-1.436942 -2.867414 0.024514 
-1.437804 -2.869457 0.027212 
-1.444239 -2.874965 0.043723 
-1.437804 -2.869457 0.027212 
-1.434900 -2.866553 0.027212 
-1.429392 -2.860118 0.043723 
-2.011575 -2.277934 2.108912 
-1.988942 -2.296615 2.125810 
-2.004264 -2.311862 2.125810 
-2.026423 -2.292781 2.108912 
-3.980325 -0.309184 0.043724 
-3.986760 -0.314692 0.027213 
-3.989664 -0.317597 0.027213 
-3.995172 -0.324031 0.043724 
-3.398140 -0.891369 2.108913 
-3.412987 -0.906215 2.108913 
-3.435621 -0.887534 2.125811 
-3.420299 -0.872287 2.125811 
-3.998374 -0.334744 0.028598 
-3.989664 -0.317597 0.027213 
-3.987622 -0.316735 0.024515 
-3.989797 -0.331124 0.017268 
-3.998374 -2.849406 0.028598 
-3.989797 -2.853025 0.017268 
-3.987622 -2.867414 0.024515 
-3.989664 -2.866553 0.027213 
-1.426190 -2.849406 0.028597 
-1.434900 -2.866553 0.027212 
-1.436942 -2.867414 0.024514 
-1.434767 -2.853025 0.017267 
-1.426189 -0.334744 0.028597 
-1.434767 -0.331124 0.017267 
-1.436942 -0.316735 0.024514 
-1.434899 -0.317597 0.027212 
-1.429391 -0.324031 0.043724 
-1.434899 -0.317597 0.027212 
-1.437804 -0.314692 0.027212 
-1.444238 -0.309184 0.043724 
-2.011575 -0.906215 2.108913 
-2.026422 -0.891369 2.108913 
-2.004263 -0.872287 2.125811 
-1.988941 -0.887534 2.125811 
-3.969613 -0.305982 0.028598 
-3.973232 -0.314560 0.017268 
-3.987622 -0.316735 0.024515 
-3.986760 -0.314692 0.027213 
-1.451331 -0.314560 0.017267 
-1.454950 -0.305982 0.028597 
-1.437804 -0.314692 0.027212 
-1.436942 -0.316735 0.024514 
-1.755777 -0.599698 3.465787 
-1.752140 -0.603274 3.481177 
-1.735361 -0.611861 3.482497 
-1.740569 -0.605851 3.465982 
-2.043054 -0.886976 2.176569 
-2.027934 -0.893216 2.176374 
-2.004997 -0.873244 2.159258 
-2.020498 -0.866856 2.159256 
-3.381508 -0.886976 2.176569 
-3.404064 -0.866856 2.159256 
-3.419565 -0.873244 2.159258 
-3.396629 -0.893216 2.176374 
-3.668785 -0.599698 3.465787 
-3.683993 -0.605851 3.465982 
-3.689201 -0.611861 3.482498 
-3.672422 -0.603274 3.481178 
-1.755776 -2.584451 3.465786 
-1.740568 -2.578298 3.465982 
-1.735360 -2.572288 3.482497 
-1.752139 -2.580875 3.481177 
-3.668785 -2.584451 3.465787 
-3.672422 -2.580875 3.481177 
-3.689201 -2.572288 3.482498 
-3.683993 -2.578298 3.465982 
-3.381508 -2.297173 2.176569 
-3.396629 -2.290933 2.176374 
-3.419565 -2.310905 2.159258 
-3.404064 -2.317293 2.159256 
-2.043055 -2.297173 2.176569 
-2.020499 -2.317293 2.159256 
-2.004998 -2.310905 2.159258 
-2.027934 -2.290933 2.176373 
-1.719905 -0.635570 3.465786 
-1.726058 -0.620362 3.465982 
-1.732068 -0.615154 3.482497 
-1.723480 -0.631933 3.481177 
-1.719904 -2.548579 3.465786 
-1.723480 -2.552216 3.481177 
-1.732067 -2.568995 3.482497 
-1.726057 -2.563787 3.465982 
-2.007183 -2.261301 2.176569 
-2.013423 -2.276422 2.176373 
-1.989904 -2.295885 2.159258 
-1.983484 -2.280460 2.159256 
-2.007183 -0.922848 2.176569 
-1.983484 -0.903689 2.159256 
-1.989903 -0.888264 2.159258 
-2.013422 -0.907727 2.176374 
-3.417380 -0.922848 2.176569 
-3.411140 -0.907727 2.176374 
-3.434659 -0.888264 2.159258 
-3.441079 -0.903689 2.159256 
-3.417380 -2.261301 2.176569 
-3.441079 -2.280460 2.159256 
-3.434659 -2.295885 2.159258 
-3.411140 -2.276422 2.176374 
-3.704657 -2.548579 3.465787 
-3.698504 -2.563787 3.465982 
-3.692494 -2.568995 3.482498 
-3.701082 -2.552216 3.481177 
-3.704657 -0.635570 3.465787 
-3.701082 -0.631933 3.481178 
-3.692494 -0.615154 3.482498 
-3.698504 -0.620362 3.465982 
-1.747333 -2.557022 3.500000 
-1.749181 -2.571267 3.493162 
-1.734585 -2.569770 3.485638 
-1.733088 -2.555174 3.493162 
-1.747333 -0.627127 3.500000 
-1.733089 -0.628975 3.493163 
-1.734586 -0.614379 3.485638 
-1.749182 -0.612883 3.493163 
-3.677228 -0.627127 3.500000 
-3.675380 -0.612883 3.493163 
-3.689976 -0.614379 3.485639 
-3.691473 -0.628975 3.493163 
-3.677228 -2.557022 3.500000 
-3.691473 -2.555174 3.493163 
-3.689976 -2.569770 3.485638 
-3.675380 -2.571267 3.493163 
-2.041616 -2.299060 2.108618 
-2.026423 -2.292781 2.108912 
-2.004264 -2.311862 2.125810 
-2.019765 -2.318251 2.125812 
-3.382947 -2.299060 2.108619 
-3.404798 -2.318251 2.125813 
-3.420299 -2.311862 2.125811 
-3.398140 -2.292781 2.108913 
-3.964966 -2.881079 0.044019 
-3.980326 -2.874965 0.043724 
-3.986760 -2.869457 0.027213 
-3.969613 -2.878167 0.028598 
-1.459598 -2.881079 0.044018 
-1.454951 -2.878167 0.028597 
-1.437804 -2.869457 0.027212 
-1.444239 -2.874965 0.043723 
-3.419267 -2.262740 2.108619 
-3.412987 -2.277934 2.108913 
-3.435621 -2.296615 2.125811 
-3.442041 -2.281190 2.125813 
-3.419267 -0.921409 2.108618 
-3.442041 -0.902959 2.125813 
-3.435621 -0.887534 2.125811 
-3.412987 -0.906215 2.108913 
-4.001286 -0.339390 0.044019 
-3.995172 -0.324031 0.043724 
-3.989664 -0.317597 0.027213 
-3.998374 -0.334744 0.028598 
-4.001286 -2.844759 0.044019 
-3.998374 -2.849406 0.028598 
-3.989664 -2.866553 0.027213 
-3.995173 -2.860118 0.043724 
-2.005296 -0.921409 2.108618 
-2.011575 -0.906215 2.108913 
-1.988941 -0.887534 2.125811 
-1.982521 -0.902959 2.125813 
-2.005296 -2.262740 2.108618 
-1.982522 -2.281190 2.125812 
-1.988942 -2.296615 2.125810 
-2.011575 -2.277934 2.108912 
-1.423278 -2.844759 0.044018 
-1.429392 -2.860118 0.043723 
-1.434900 -2.866553 0.027212 
-1.426190 -2.849406 0.028597 
-1.423277 -0.339390 0.044018 
-1.426189 -0.334744 0.028597 
-1.434899 -0.317597 0.027212 
-1.429391 -0.324031 0.043724 
-3.382947 -0.885089 2.108618 
-3.398140 -0.891369 2.108913 
-3.420299 -0.872287 2.125811 
-3.404798 -0.865899 2.125813 
-2.041615 -0.885089 2.108618 
-2.019764 -0.865898 2.125813 
-2.004263 -0.872287 2.125811 
-2.026422 -0.891369 2.108913 
-1.459597 -0.303071 0.044018 
-1.444238 -0.309184 0.043724 
-1.437804 -0.314692 0.027212 
-1.454950 -0.305982 0.028597 
-3.964966 -0.303071 0.044019 
-3.969613 -0.305982 0.028598 
-3.986760 -0.314692 0.027213 
-3.980325 -0.309184 0.043724 
-1.448819 -0.328612 0.010281 
-1.451331 -0.314560 0.017267 
-1.436942 -0.316735 0.024514 
-1.434767 -0.331124 0.017267 
-1.448820 -2.855537 0.010280 
-1.434767 -2.853025 0.017267 
-1.436942 -2.867414 0.024514 
-1.451332 -2.869590 0.017267 
-3.975744 -2.855537 0.010281 
-3.973232 -2.869590 0.017268 
-3.987622 -2.867414 0.024515 
-3.989797 -2.853025 0.017268 
-3.975744 -0.328612 0.010281 
-3.989797 -0.331124 0.017268 
-3.987622 -0.316735 0.024515 
-3.973232 -0.314560 0.017268 
-2.027934 -0.893216 2.176374 
-1.740569 -0.605851 3.465982 
-1.740569 -0.571228 3.465982 
-2.027934 -0.868681 2.176374 
-3.683993 -0.605851 3.465982 
-3.396629 -0.893216 2.176374 
-3.396629 -0.868681 2.176374 
-3.683993 -0.571228 3.465982 
-1.752140 -0.603274 3.481177 
-3.672422 -0.603274 3.481178 
-3.672422 -0.568560 3.481178 
-1.752140 -0.568560 3.481177 
-3.672422 -2.580875 3.481177 
-1.752139 -2.580875 3.481177 
-1.752139 -2.615589 3.481177 
-3.672422 -2.615589 3.481177 
-3.396629 -2.290933 2.176374 
-3.683993 -2.578298 3.465982 
-3.683993 -2.612921 3.465982 
-3.396629 -2.315468 2.176374 
-1.740568 -2.578298 3.465982 
-2.027934 -2.290933 2.176373 
-2.027934 -2.315468 2.176373 
-1.740568 -2.612921 3.465982 
-1.723480 -2.552216 3.481177 
-1.723480 -0.631933 3.481177 
-1.723480 -0.598226 3.481177 
-1.723480 -2.585923 3.481177 
-1.733089 -0.628975 3.493163 
-1.733088 -2.555174 3.493162 
-1.733088 -2.588985 3.493162 
-1.733089 -0.595164 3.493163 
-3.701082 -0.631933 3.481178 
-3.701082 -2.552216 3.481177 
-3.701082 -2.585923 3.481177 
-3.701082 -0.598226 3.481178 
-3.691473 -2.555174 3.493163 
-3.691473 -0.628975 3.493163 
-3.691473 -0.595164 3.493163 
-3.691473 -2.588985 3.493163 
-3.980326 -2.874965 0.043724 
-3.398140 -2.292781 2.108913 
-3.398140 -2.317380 2.108913 
-3.980326 -2.920003 0.043724 
-1.454951 -2.878167 0.028597 
-3.969613 -2.878167 0.028598 
-3.969613 -2.923317 0.028598 
-1.454951 -2.923317 0.028597 
-2.026423 -2.292781 2.108912 
-1.444239 -2.874965 0.043723 
-1.444239 -2.920003 0.043723 
-2.026423 -2.317380 2.108912 
-3.398140 -0.891369 2.108913 
-3.980325 -0.309184 0.043724 
-3.980325 -0.264146 0.043724 
-3.398140 -0.866769 2.108913 
-3.998374 -2.849406 0.028598 
-3.998374 -0.334744 0.028598 
-3.998374 -0.290603 0.028598 
-3.998374 -2.893547 0.028598 
-3.989797 -0.331124 0.017268 
-3.989797 -2.853025 0.017268 
-3.989797 -2.897293 0.017268 
-3.989797 -0.286857 0.017268 
-1.426189 -0.334744 0.028597 
-1.426190 -2.849406 0.028597 
-1.426190 -2.893547 0.028597 
-1.426189 -0.290603 0.028597 
-1.434767 -2.853025 0.017267 
-1.434767 -0.331124 0.017267 
-1.434767 -0.286857 0.017267 
-1.434767 -2.897293 0.017267 
-1.444238 -0.309184 0.043724 
-2.026422 -0.891369 2.108913 
-2.026422 -0.866769 2.108913 
-1.444238 -0.264146 0.043724 
-3.969613 -0.305982 0.028598 
-1.454950 -0.305982 0.028597 
-1.454950 -0.260832 0.028597 
-3.969613 -0.260832 0.028598 
-1.732068 -0.615154 3.482497 
-1.735361 -0.611861 3.482497 
-1.735361 -0.577449 3.482497 
-1.732068 -0.580858 3.482497 
-1.735361 -0.611861 3.482497 
-1.734586 -0.614379 3.485638 
-1.734586 -0.580056 3.485638 
-1.735361 -0.577449 3.482497 
-2.004263 -0.872287 2.125811 
-2.004997 -0.873244 2.159258 
-2.029610 -0.870358 2.159258 
-2.028902 -0.869396 2.125811 
-3.419565 -0.873244 2.159258 
-3.420299 -0.872287 2.125811 
-3.395660 -0.869396 2.125811 
-3.394952 -0.870358 2.159258 
-3.689976 -0.614379 3.485639 
-3.689201 -0.611861 3.482498 
-3.689201 -0.577449 3.482498 
-3.689976 -0.580056 3.485639 
-3.689201 -0.611861 3.482498 
-3.692494 -0.615154 3.482498 
-3.692494 -0.580858 3.482498 
-3.689201 -0.577449 3.482498 
-1.735360 -2.572288 3.482497 
-1.732067 -2.568995 3.482497 
-1.732067 -2.603292 3.482497 
-1.735360 -2.606700 3.482497 
-1.734585 -2.569770 3.485638 
-1.735360 -2.572288 3.482497 
-1.735360 -2.606700 3.482497 
-1.734585 -2.604094 3.485638 
-3.689201 -2.572288 3.482498 
-3.689976 -2.569770 3.485638 
-3.689976 -2.604094 3.485638 
-3.689201 -2.606700 3.482498 
-3.692494 -2.568995 3.482498 
-3.689201 -2.572288 3.482498 
-3.689201 -2.606700 3.482498 
-3.692494 -2.603291 3.482498 
-3.420299 -2.311862 2.125811 
-3.419565 -2.310905 2.159258 
-3.394952 -2.313792 2.159258 
-3.395660 -2.314753 2.125811 
-2.004998 -2.310905 2.159258 
-2.004264 -2.311862 2.125810 
-2.028903 -2.314753 2.125810 
-2.029611 -2.313792 2.159258 
-3.986760 -2.869457 0.027213 
-3.989664 -2.866553 0.027213 
-3.989664 -2.911295 0.027213 
-3.986760 -2.914302 0.027213 
-3.987622 -2.867414 0.024515 
-3.986760 -2.869457 0.027213 
-3.986760 -2.914302 0.027213 
-3.987622 -2.912188 0.024515 
-1.437804 -2.869457 0.027212 
-1.436942 -2.867414 0.024514 
-1.436942 -2.912188 0.024514 
-1.437804 -2.914302 0.027212 
-1.434900 -2.866553 0.027212 
-1.437804 -2.869457 0.027212 
-1.437804 -2.914302 0.027212 
-1.434900 -2.911295 0.027212 
-3.986760 -0.314692 0.027213 
-3.987622 -0.316735 0.024515 
-3.987622 -0.271962 0.024515 
-3.986760 -0.269848 0.027213 
-3.989664 -0.317597 0.027213 
-3.986760 -0.314692 0.027213 
-3.986760 -0.269848 0.027213 
-3.989664 -0.272854 0.027213 
-1.437804 -0.314692 0.027212 
-1.434899 -0.317597 0.027212 
-1.434899 -0.272854 0.027212 
-1.437804 -0.269848 0.027212 
-1.436942 -0.316735 0.024514 
-1.437804 -0.314692 0.027212 
-1.437804 -0.269848 0.027212 
-1.436942 -0.271962 0.024514 
-2.004997 -0.873244 2.159258 
-2.027934 -0.893216 2.176374 
-2.027934 -0.868681 2.176374 
-2.029610 -0.870358 2.159258 
-1.740569 -0.605851 3.465982 
-1.735361 -0.611861 3.482497 
-1.735361 -0.577449 3.482497 
-1.740569 -0.571228 3.465982 
-3.689201 -0.611861 3.482498 
-3.683993 -0.605851 3.465982 
-3.683993 -0.571228 3.465982 
-3.689201 -0.577449 3.482498 
-3.396629 -0.893216 2.176374 
-3.419565 -0.873244 2.159258 
-3.394952 -0.870358 2.159258 
-3.396629 -0.868681 2.176374 
-3.672422 -0.603274 3.481178 
-3.689201 -0.611861 3.482498 
-3.689201 -0.577449 3.482498 
-3.672422 -0.568560 3.481178 
-1.735361 -0.611861 3.482497 
-1.752140 -0.603274 3.481177 
-1.752140 -0.568560 3.481177 
-1.735361 -0.577449 3.482497 
-3.689201 -2.572288 3.482498 
-3.672422 -2.580875 3.481177 
-3.672422 -2.615589 3.481177 
-3.689201 -2.606700 3.482498 
-1.752139 -2.580875 3.481177 
-1.735360 -2.572288 3.482497 
-1.735360 -2.606700 3.482497 
-1.752139 -2.615589 3.481177 
-3.683993 -2.578298 3.465982 
-3.689201 -2.572288 3.482498 
-3.689201 -2.606700 3.482498 
-3.683993 -2.612921 3.465982 
-3.419565 -2.310905 2.159258 
-3.396629 -2.290933 2.176374 
-3.396629 -2.315468 2.176374 
-3.394952 -2.313792 2.159258 
-2.027934 -2.290933 2.176373 
-2.004998 -2.310905 2.159258 
-2.029611 -2.313792 2.159258 
-2.027934 -2.315468 2.176373 
-1.735360 -2.572288 3.482497 
-1.740568 -2.578298 3.465982 
-1.740568 -2.612921 3.465982 
-1.735360 -2.606700 3.482497 
-1.723480 -0.631933 3.481177 
-1.732068 -0.615154 3.482497 
-1.732068 -0.580858 3.482497 
-1.723480 -0.598226 3.481177 
-1.734586 -0.614379 3.485638 
-1.733089 -0.628975 3.493163 
-1.733089 -0.595164 3.493163 
-1.734586 -0.580056 3.485638 
-1.732067 -2.568995 3.482497 
-1.723480 -2.552216 3.481177 
-1.723480 -2.585923 3.481177 
-1.732067 -2.603292 3.482497 
-1.733088 -2.555174 3.493162 
-1.734585 -2.569770 3.485638 
-1.734585 -2.604094 3.485638 
-1.733088 -2.588985 3.493162 
-3.689976 -2.569770 3.485638 
-3.691473 -2.555174 3.493163 
-3.691473 -2.588985 3.493163 
-3.689976 -2.604094 3.485638 
-3.701082 -2.552216 3.481177 
-3.692494 -2.568995 3.482498 
-3.692494 -2.603291 3.482498 
-3.701082 -2.585923 3.481177 
-3.691473 -0.628975 3.493163 
-3.689976 -0.614379 3.485639 
-3.689976 -0.580056 3.485639 
-3.691473 -0.595164 3.493163 
-3.692494 -0.615154 3.482498 
-3.701082 -0.631933 3.481178 
-3.701082 -0.598226 3.481178 
-3.692494 -0.580858 3.482498 
-3.986760 -2.869457 0.027213 
-3.980326 -2.874965 0.043724 
-3.980326 -2.920003 0.043724 
-3.986760 -2.914302 0.027213 
-3.398140 -2.292781 2.108913 
-3.420299 -2.311862 2.125811 
-3.395660 -2.314753 2.125811 
-3.398140 -2.317380 2.108913 
-3.969613 -2.878167 0.028598 
-3.986760 -2.869457 0.027213 
-3.986760 -2.914302 0.027213 
-3.969613 -2.923317 0.028598 
-1.437804 -2.869457 0.027212 
-1.454951 -2.878167 0.028597 
-1.454951 -2.923317 0.028597 
-1.437804 -2.914302 0.027212 
-1.444239 -2.874965 0.043723 
-1.437804 -2.869457 0.027212 
-1.437804 -2.914302 0.027212 
-1.444239 -2.920003 0.043723 
-2.004264 -2.311862 2.125810 
-2.026423 -2.292781 2.108912 
-2.026423 -2.317380 2.108912 
-2.028903 -2.314753 2.125810 
-3.980325 -0.309184 0.043724 
-3.986760 -0.314692 0.027213 
-3.986760 -0.269848 0.027213 
-3.980325 -0.264146 0.043724 
-3.420299 -0.872287 2.125811 
-3.398140 -0.891369 2.108913 
-3.398140 -0.866769 2.108913 
-3.395660 -0.869396 2.125811 
-3.998374 -0.334744 0.028598 
-3.989664 -0.317597 0.027213 
-3.989664 -0.272854 0.027213 
-3.998374 -0.290603 0.028598 
-3.987622 -0.316735 0.024515 
-3.989797 -0.331124 0.017268 
-3.989797 -0.286857 0.017268 
-3.987622 -0.271962 0.024515 
-3.989664 -2.866553 0.027213 
-3.998374 -2.849406 0.028598 
-3.998374 -2.893547 0.028598 
-3.989664 -2.911295 0.027213 
-3.989797 -2.853025 0.017268 
-3.987622 -2.867414 0.024515 
-3.987622 -2.912188 0.024515 
-3.989797 -2.897293 0.017268 
-1.436942 -2.867414 0.024514 
-1.434767 -2.853025 0.017267 
-1.434767 -2.897293 0.017267 
-1.436942 -2.912188 0.024514 
-1.426190 -2.849406 0.028597 
-1.434900 -2.866553 0.027212 
-1.434900 -2.911295 0.027212 
-1.426190 -2.893547 0.028597 
-1.434899 -0.317597 0.027212 
-1.426189 -0.334744 0.028597 
-1.426189 -0.290603 0.028597 
-1.434899 -0.272854 0.027212 
-1.434767 -0.331124 0.017267 
-1.436942 -0.316735 0.024514 
-1.436942 -0.271962 0.024514 
-1.434767 -0.286857 0.017267 
-1.437804 -0.314692 0.027212 
-1.444238 -0.309184 0.043724 
-1.444238 -0.264146 0.043724 
-1.437804 -0.269848 0.027212 
-2.026422 -0.891369 2.108913 
-2.004263 -0.872287 2.125811 
-2.028902 -0.869396 2.125811 
-2.026422 -0.866769 2.108913 
-3.986760 -0.314692 0.027213 
-3.969613 -0.305982 0.028598 
-3.969613 -0.260832 0.028598 
-3.986760 -0.269848 0.027213 
-1.454950 -0.305982 0.028597 
-1.437804 -0.314692 0.027212 
-1.437804 -0.269848 0.027212 
-1.454950 -0.260832 0.028597 
4 0 1 2 3 
4 4 5 6 7 
4 8 9 10 11 
4 12 13 14 15 
4 16 17 18 19 
4 20 21 22 23 
4 24 25 26 27 
4 28 29 30 31 
4 32 33 34 35 
4 36 37 38 39 
4 40 41 42 43 
4 44 45 46 47 
4 48 49 50 51 
4 52 53 54 55 
4 56 57 58 59 
4 60 61 62 63 
4 64 65 66 67 
4 68 69 70 71 
4 72 73 74 75 
4 76 77 78 79 
4 80 81 82 83 
4 84 85 86 87 
4 88 89 90 91 
4 92 93 94 95 
4 96 97 98 99 
4 100 101 102 103 
4 104 105 106 107 
4 108 109 110 111 
4 112 113 114 115 
4 116 117 118 119 
3 120 121 122 
4 123 124 125 126 
4 127 128 129 130 
3 131 132 133 
3 134 135 136 
3 137 138 139 
4 140 141 142 143 
4 144 145 146 147 
3 148 149 150 
3 151 152 153 
3 154 155 156 
3 157 158 159 
4 160 161 162 163 
4 164 165 166 167 
4 168 169 170 171 
4 172 173 174 175 
4 176 177 178 179 
4 180 181 182 183 
4 184 185 186 187 
4 188 189 190 191 
4 192 193 194 195 
4 196 197 198 199 
4 200 201 202 203 
4 204 205 206 207 
4 208 209 210 211 
4 212 213 214 215 
4 216 217 218 219 
4 220 221 222 223 
4 224 225 226 227 
4 228 229 230 231 
4 232 233 234 235 
4 236 237 238 239 
4 240 241 242 243 
4 244 245 246 247 
4 248 249 250 251 
4 252 253 254 255 
4 256 257 258 259 
4 260 261 262 263 
4 264 265 266 267 
4 268 269 270 271 
4 272 273 274 275 
4 276 277 278 279 
4 280 281 282 283 
4 284 285 286 287 
4 288 289 290 291 
4 292 293 294 295 
4 296 297 298 299 
4 300 301 302 303 
4 304 305 306 307 
4 308 309 310 311 
4 312 313 314 315 
4 316 317 318 319 
4 320 321 322 323 
4 324 325 326 327 
4 328 329 330 331 
4 332 333 334 335 
4 336 337 338 339 
4 340 341 342 343 
4 344 345 346 347 
4 348 349 350 351 
4 352 353 354 355 
4 356 357 358 359 
4 360 361 362 363 
4 364 365 366 367 
4 368 369 370 371 
4 372 373 374 375 
4 376 377 378 379 
4 380 381 382 383 
4 384 385 386 387 
4 388 389 390 391 
4 392 393 394 395 
4 396 397 398 399 
4 400 401 402 403 
4 404 405 406 407 
4 408 409 410 411 
4 412 413 414 415 
4 416 417 418 419 
4 420 421 422 423 
4 424 425 426 427 
4 428 429 430 431 
4 432 433 434 435 
4 436 437 438 439 
4 440 441 442 443 
4 444 445 446 447 
4 448 449 450 451 
4 452 453 454 455 
4 456 457 458 459 
4 460 461 462 463 
4 464 465 466 467 
4 468 469 470 471 
4 472 473 474 475 
4 476 477 478 479 
4 480 481 482 483 
4 484 485 486 487 
4 488 489 490 491 
4 492 493 494 495 
4 496 497 498 499 
4 500 501 502 503 
4 504 505 506 507 
4 508 509 510 511 
4 512 513 514 515 
4 516 517 518 519 
4 520 521 522 523 
4 524 525 526 527 
4 528 529 530 531 
4 532 533 534 535 
4 536 537 538 539 
4 540 541 542 543 
4 544 545 546 547 
4 548 549 550 551 
4 552 553 554 555 
4 556 557 558 559 
4 560 561 562 563 
4 564 565 566 567 
4 568 569 570 571 
4 572 573 574 575 
4 576 577 578 579 
4 580 581 582 583 
4 584 585 586 587 
4 588 589 590 591 
4 592 593 594 595 
4 596 597 598 599 
4 600 601 602 603 
4 604 605 606 607 
4 608 609 610 611 
4 612 613 614 615 
4 616 617 618 619 
4 620 621 622 623 
4 624 625 626 627 
4 628 629 630 631 
4 632 633 634 635 
4 636 637 638 639 
4 640 641 642 643 
4 644 645 646 647 
4 648 649 650 651 
4 652 653 654 655 
4 656 657 658 659 
4 660 661 662 663 
4 664 665 666 667 
4 668 669 670 671 
4 672 673 674 675 
4 676 677 678 679 
4 680 681 682 683 
4 684 685 686 687 
4 688 689 690 691 
4 692 693 694 695 
4 696 697 698 699 
4 700 701 702 703 
4 704 705 706 707 
4 708 709 710 711 
4 712 713 714 715 
4 716 717 718 719 
4 720 721 722 723 
4 724 725 726 727 
4 728 729 730 731 
4 732 733 734 735 
4 736 737 738 739 
4 740 741 742 743 
4 744 745 746 747 
4 748 749 750 751 
4 752 753 754 755 
4 756 757 758 759 
4 760 761 762 763 
4 764 765 766 767 
4 768 769 770 771 
4 772 773 774 775 
4 776 777 778 779 
4 780 781 782 783 
4 784 785 786 787 
4 788 789 790 791 
4 792 793 794 795 
4 796 797 798 799 
4 800 801 802 803 
4 804 805 806 807 
4 808 809 810 811 
4 812 813 814 815 
4 816 817 818 819 
4 820 821 822 823 
4 824 825 826 827 
4 828 829 830 831 
4 832 833 834 835 
4 836 837 838 839 
4 840 841 842 843 
4 844 845 846 847 
4 848 849 850 851 
4 852 853 854 855 
4 856 857 858 859 
4 860 861 862 863 
4 864 865 866 867 
4 868 869 870 871 
4 872 873 874 875 
4 876 877 878 879 
4 880 881 882 883 
4 884 885 886 887 
4 888 889 890 891 
4 892 893 894 895 
4 896 897 898 899 
4 900 901 902 903 
4 904 905 906 907 
4 908 909 910 911 
4 912 913 914 915 
4 916 917 918 919 
4 920 921 922 923 
4 924 925 926 927 
4 928 929 930 931 
4 932 933 934 935 
4 936 937 938 939 
4 940 941 942 943 
4 944 945 946 947 
4 948 949 950 951 
4 952 953 954 955 
4 956 957 958 959 
