ply
format ascii 1.0
Created by Blender3D 246 - www.blender.org, source file: espositori.blend
element vertex 96
property float x
property float y
property float z
element face 98
property list uchar uint vertex_indices
end_header
0.447633 0.052191 0.275999 
0.447633 2.718617 0.275999 
3.114058 2.718616 0.275999 
3.114058 0.052190 0.275999 
3.114059 2.718616 3.061875 
0.447633 2.718616 3.061875 
0.447632 0.052191 3.061875 
3.114058 0.052190 3.061875 
3.173784 2.718616 0.335724 
3.173784 2.718616 3.002150 
3.173783 0.052190 3.002150 
3.173784 0.052190 0.335724 
3.114058 -0.007535 0.335724 
3.114058 -0.007536 3.002150 
0.447632 -0.007534 3.002150 
0.447632 -0.007534 0.335724 
0.387907 0.052191 0.335724 
0.387907 0.052191 3.002150 
0.387908 2.718616 3.002150 
0.387908 2.718617 0.335724 
0.447633 2.778342 0.335724 
0.447633 2.778342 3.002150 
3.114059 2.778341 3.002150 
3.114059 2.778342 0.335724 
0.422144 2.718617 0.286557 
0.422143 0.052191 0.286557 
0.398465 0.052191 0.310234 
0.398466 2.718617 0.310234 
3.114059 2.744106 0.286557 
0.447633 2.744106 0.286557 
0.447633 2.767784 0.310234 
3.114059 2.767784 0.310234 
3.139548 0.052190 0.286557 
3.139548 2.718616 0.286557 
3.163226 2.718616 0.310234 
3.163226 0.052190 0.310234 
3.114058 0.026701 0.286557 
3.114058 0.003023 0.310234 
0.447632 0.003024 0.310234 
0.447632 0.026701 0.286557 
0.447633 2.744106 3.051317 
3.114059 2.744105 3.051317 
3.114059 2.767783 3.027639 
0.447633 2.767784 3.027639 
0.422143 2.718616 3.051317 
0.398466 2.718616 3.027639 
0.398465 0.052191 3.027639 
0.422143 0.052191 3.051317 
3.114058 0.026700 3.051317 
0.447632 0.026701 3.051317 
0.447632 0.003024 3.027639 
3.114058 0.003022 3.027639 
3.139549 2.718616 3.051317 
3.139547 0.052190 3.051317 
3.163225 0.052190 3.027639 
3.163227 2.718616 3.027639 
3.163227 2.744105 3.002150 
3.163226 2.744106 0.335724 
3.139548 2.767784 0.335724 
3.139549 2.767783 3.002150 
3.163225 0.026700 3.002150 
3.139547 0.003022 3.002150 
3.139548 0.003023 0.335724 
3.163226 0.026701 0.335724 
0.422143 0.003024 0.335724 
0.422143 0.003024 3.002150 
0.398465 0.026702 3.002150 
0.398465 0.026701 0.335724 
0.398466 2.744106 0.335724 
0.398466 2.744106 3.002150 
0.422143 2.767784 3.002150 
0.422144 2.767784 0.335724 
0.420510 0.025068 0.300381 
0.420510 0.016848 0.308601 
0.412290 0.025068 0.308601 
0.420511 2.745739 0.300381 
0.412291 2.745739 0.308601 
0.420511 2.753959 0.308601 
3.141181 2.745739 0.300381 
3.141181 2.753959 0.308601 
3.149401 2.745739 0.308601 
3.141181 0.025068 0.300381 
3.149401 0.025068 0.308601 
3.141181 0.016848 0.308601 
3.141182 2.745739 3.037492 
3.149402 2.745739 3.029273 
3.141182 2.753958 3.029273 
0.420510 2.745739 3.037492 
0.420510 2.753959 3.029273 
0.412290 2.745739 3.029273 
0.420510 0.025068 3.037492 
0.412290 0.025068 3.029273 
0.420510 0.016848 3.029273 
3.141181 0.025067 3.037492 
3.141181 0.016847 3.029273 
3.149400 0.025067 3.029273 
4 0 1 2 3 
4 4 5 6 7 
4 8 9 10 11 
4 12 13 14 15 
4 16 17 18 19 
4 20 21 22 23 
4 24 25 26 27 
4 28 29 30 31 
4 32 33 34 35 
4 36 37 38 39 
4 40 41 42 43 
4 44 45 46 47 
4 48 49 50 51 
4 52 53 54 55 
4 56 57 58 59 
4 60 61 62 63 
4 64 65 66 67 
4 68 69 70 71 
3 72 73 74 
3 75 76 77 
3 78 79 80 
3 81 82 83 
3 84 85 86 
3 87 88 89 
3 90 91 92 
3 93 94 95 
4 0 25 24 1 
4 2 1 29 28 
4 2 33 32 3 
4 39 0 3 36 
4 4 41 40 5 
4 5 44 47 6 
4 6 49 48 7 
4 4 7 53 52 
4 9 8 57 56 
4 9 55 54 10 
4 11 10 60 63 
4 11 35 34 8 
4 13 12 62 61 
4 14 13 51 50 
4 14 65 64 15 
4 15 38 37 12 
4 17 16 67 66 
4 18 17 46 45 
4 18 69 68 19 
4 19 27 26 16 
4 21 20 71 70 
4 21 43 42 22 
4 22 59 58 23 
4 20 23 31 30 
4 24 27 76 75 
4 26 25 72 74 
4 28 31 79 78 
4 29 75 77 30 
4 33 78 80 34 
4 35 82 81 32 
4 39 38 73 72 
4 37 36 81 83 
4 42 41 84 86 
4 40 43 88 87 
4 47 46 91 90 
4 44 87 89 45 
4 51 94 93 48 
4 49 90 92 50 
4 55 85 84 52 
4 53 93 95 54 
4 57 80 79 58 
4 59 86 85 56 
4 61 60 95 94 
4 63 62 83 82 
4 66 65 92 91 
4 67 74 73 64 
4 68 71 77 76 
4 69 89 88 70 
4 0 39 72 25 
4 1 24 75 29 
4 2 28 78 33 
4 3 32 81 36 
4 4 52 84 41 
4 5 40 87 44 
4 6 47 90 49 
4 7 48 93 53 
4 8 34 80 57 
4 9 56 85 55 
4 10 54 95 60 
4 11 63 82 35 
4 12 37 83 62 
4 13 61 94 51 
4 14 50 92 65 
4 15 64 73 38 
4 16 26 74 67 
4 17 66 91 46 
4 18 45 89 69 
4 19 68 76 27 
4 20 30 77 71 
4 21 70 88 43 
4 22 42 86 59 
4 23 58 79 31 
