ply
format ascii 1.0
Created by Blender3D 246 - www.blender.org, source file: Cushion.blend
element vertex 939
property float x
property float y
property float z
element face 960
property list uchar uint vertex_indices
end_header
-0.789784 0.451894 0.070263 
-0.747457 0.456698 0.077653 
-0.746628 0.450662 0.071851 
-0.705538 0.459006 0.088139 
-0.703887 0.446976 0.076595 
-0.664430 0.458794 0.101618 
-0.661974 0.440865 0.084450 
-0.624529 0.456055 0.117957 
-0.621291 0.432377 0.095334 
-0.586220 0.450804 0.136995 
-0.582232 0.421578 0.109138 
-0.549871 0.443073 0.158545 
-0.545171 0.408555 0.125722 
-0.515832 0.432913 0.182395 
-0.510466 0.393412 0.144921 
-0.484432 0.420397 0.208315 
-0.478450 0.376273 0.166543 
-0.455973 0.405617 0.236050 
-0.449434 0.357278 0.190374 
-0.430728 0.388685 0.265331 
-0.423694 0.336589 0.216179 
-0.408942 0.369738 0.295874 
-0.401481 0.314383 0.243701 
-0.390823 0.348932 0.327382 
-0.383007 0.290855 0.272672 
-0.376546 0.326445 0.359547 
-0.368451 0.266217 0.302808 
-0.366249 0.302479 0.392057 
-0.357952 0.240693 0.333813 
-0.360031 0.277251 0.424592 
-0.351612 0.214523 0.365385 
-0.357951 0.251002 0.456836 
-0.349492 0.187956 0.397218 
-0.360031 0.223984 0.488470 
-0.351612 0.161251 0.429004 
-0.366249 0.196562 0.519061 
-0.357952 0.134768 0.460310 
-0.376546 0.172914 0.542964 
-0.368451 0.112730 0.485463 
-0.390823 0.154935 0.557033 
-0.383007 0.097082 0.501265 
-0.408942 0.142173 0.561163 
-0.401481 0.087356 0.507589 
-0.430728 0.133893 0.555517 
-0.423694 0.082749 0.504618 
-0.455973 0.129142 0.540564 
-0.449433 0.082180 0.492874 
-0.484432 0.126937 0.517152 
-0.478450 0.084491 0.473267 
-0.515832 0.126451 0.486602 
-0.510465 0.088678 0.447150 
-0.549870 0.127082 0.450769 
-0.545171 0.094031 0.416351 
-0.586219 0.128416 0.412025 
-0.582231 0.100149 0.383121 
-0.624529 0.130120 0.373120 
-0.621291 0.106821 0.350023 
-0.664429 0.131796 0.336957 
-0.661974 0.113794 0.319759 
-0.705537 0.132776 0.306377 
-0.703887 0.120471 0.295021 
-0.747457 0.131939 0.284020 
-0.746627 0.125682 0.278388 
-0.789784 0.127790 0.272310 
-0.749912 0.137954 0.289435 
-0.710425 0.144598 0.317300 
-0.671703 0.149067 0.353506 
-0.634117 0.152452 0.395346 
-0.598030 0.155527 0.439823 
-0.563790 0.158873 0.483823 
-0.531727 0.162957 0.524411 
-0.502149 0.168179 0.559111 
-0.475341 0.174983 0.586053 
-0.451561 0.183986 0.603971 
-0.431038 0.195982 0.612086 
-0.413971 0.211799 0.609986 
-0.400522 0.232110 0.597525 
-0.390823 0.257362 0.574792 
-0.384965 0.285709 0.544876 
-0.383007 0.313023 0.513389 
-0.384965 0.338936 0.480772 
-0.390823 0.363200 0.447344 
-0.400522 0.385590 0.413435 
-0.413971 0.405908 0.379375 
-0.431038 0.423982 0.345493 
-0.451561 0.439670 0.312117 
-0.475341 0.452855 0.279565 
-0.502149 0.463449 0.248149 
-0.531727 0.471389 0.218168 
-0.563791 0.476635 0.189909 
-0.598030 0.479169 0.163642 
-0.634117 0.478993 0.139619 
-0.671703 0.476129 0.118074 
-0.710426 0.470616 0.099216 
-0.749913 0.462513 0.083227 
-0.753901 0.467881 0.088359 
-0.718363 0.481354 0.109404 
-0.683514 0.492190 0.133196 
-0.649687 0.500284 0.159505 
-0.617210 0.505544 0.188079 
-0.586395 0.507897 0.218643 
-0.557539 0.507287 0.250909 
-0.530919 0.503680 0.284573 
-0.506793 0.497060 0.319319 
-0.485391 0.487441 0.354821 
-0.466921 0.474865 0.390748 
-0.451561 0.459403 0.426761 
-0.439458 0.441136 0.462517 
-0.430728 0.420212 0.497676 
-0.425457 0.396831 0.531895 
-0.423694 0.371222 0.564841 
-0.425457 0.343636 0.596186 
-0.430728 0.314442 0.625490 
-0.439458 0.287747 0.647172 
-0.451561 0.265281 0.658195 
-0.466921 0.246553 0.658491 
-0.485391 0.230997 0.648185 
-0.506792 0.217892 0.627638 
-0.530919 0.206629 0.597553 
-0.557539 0.196823 0.559132 
-0.586395 0.188221 0.514239 
-0.617210 0.180471 0.465439 
-0.649687 0.172978 0.415841 
-0.683513 0.164952 0.368765 
-0.718363 0.155483 0.327370 
-0.753901 0.143496 0.294427 
-0.759268 0.148354 0.298802 
-0.729045 0.165016 0.336198 
-0.699408 0.178851 0.382147 
-0.670641 0.190929 0.433813 
-0.643022 0.202315 0.487886 
-0.616816 0.214010 0.540857 
-0.592276 0.226719 0.589458 
-0.569637 0.240720 0.631057 
-0.549119 0.256056 0.663811 
-0.530919 0.272882 0.686585 
-0.515212 0.291625 0.698748 
-0.502149 0.312550 0.699987 
-0.491856 0.336563 0.690190 
-0.484432 0.364414 0.669410 
-0.479949 0.394328 0.640637 
-0.478450 0.422160 0.609424 
-0.479949 0.447537 0.576216 
-0.484432 0.470208 0.541332 
-0.491856 0.489951 0.505108 
-0.502149 0.506573 0.467894 
-0.515212 0.519919 0.430047 
-0.530919 0.529866 0.391929 
-0.549120 0.536333 0.353888 
-0.569638 0.539381 0.316273 
-0.592276 0.539103 0.279428 
-0.616816 0.535564 0.243694 
-0.643022 0.528850 0.209402 
-0.670642 0.519067 0.176873 
-0.699408 0.506337 0.146416 
-0.729046 0.490795 0.118319 
-0.759268 0.472593 0.092853 
-0.765808 0.476466 0.096538 
-0.742062 0.498565 0.125624 
-0.718776 0.517995 0.157240 
-0.696174 0.534568 0.191083 
-0.674474 0.548109 0.226835 
-0.653884 0.558456 0.264158 
-0.634603 0.565457 0.302708 
-0.616816 0.568976 0.342132 
-0.600695 0.568751 0.382085 
-0.586395 0.564683 0.422232 
-0.574054 0.556796 0.462185 
-0.563790 0.545155 0.501561 
-0.555703 0.529869 0.539981 
-0.549871 0.511083 0.577073 
-0.546348 0.488985 0.612482 
-0.545170 0.463791 0.645866 
-0.546348 0.435755 0.676903 
-0.549870 0.405250 0.705170 
-0.555703 0.376456 0.725160 
-0.563790 0.351184 0.733963 
-0.574054 0.328700 0.731494 
-0.586395 0.307727 0.717849 
-0.600695 0.287772 0.693300 
-0.616816 0.268989 0.658415 
-0.634603 0.251423 0.614266 
-0.653884 0.235235 0.562668 
-0.674474 0.220237 0.506303 
-0.696174 0.205637 0.448567 
-0.718776 0.190240 0.393134 
-0.742062 0.172835 0.343445 
-0.765807 0.152340 0.302393 
-0.773268 0.155301 0.305061 
-0.756912 0.178642 0.348830 
-0.740873 0.198694 0.401300 
-0.725304 0.216552 0.459533 
-0.710357 0.233554 0.519984 
-0.696174 0.251049 0.578854 
-0.682893 0.269887 0.632651 
-0.670641 0.290171 0.678661 
-0.659537 0.311573 0.715095 
-0.649687 0.333805 0.740934 
-0.641186 0.356166 0.755659 
-0.634117 0.379801 0.759029 
-0.628546 0.406002 0.751072 
-0.624529 0.435495 0.731729 
-0.622102 0.466438 0.703851 
-0.621291 0.494628 0.672944 
-0.622102 0.519688 0.639430 
-0.624529 0.541368 0.603631 
-0.628546 0.559448 0.565893 
-0.634117 0.573750 0.526578 
-0.641186 0.584133 0.486066 
-0.649687 0.590498 0.444747 
-0.659537 0.592792 0.403017 
-0.670641 0.591007 0.361281 
-0.682893 0.585181 0.319935 
-0.696174 0.575574 0.279310 
-0.710357 0.562498 0.239750 
-0.725304 0.546136 0.201617 
-0.740873 0.526686 0.165268 
-0.756912 0.504351 0.131045 
-0.773269 0.479346 0.099275 
-0.781364 0.481121 0.100960 
-0.773026 0.507919 0.134381 
-0.764849 0.532050 0.170206 
-0.756912 0.553282 0.208093 
-0.749292 0.571391 0.247686 
-0.742062 0.586161 0.288618 
-0.735291 0.597362 0.330517 
-0.729045 0.604558 0.373072 
-0.723385 0.607577 0.415907 
-0.718363 0.606371 0.458611 
-0.714029 0.600939 0.500772 
-0.710425 0.591327 0.541984 
-0.707586 0.577629 0.581850 
-0.705537 0.559979 0.619986 
-0.704300 0.538556 0.656025 
-0.703887 0.513576 0.689619 
-0.704300 0.485290 0.720446 
-0.705537 0.454077 0.748083 
-0.707586 0.424155 0.767029 
-0.710425 0.397385 0.774435 
-0.714029 0.373045 0.770469 
-0.718363 0.349839 0.755088 
-0.723384 0.326328 0.728466 
-0.729045 0.303292 0.691092 
-0.735291 0.281305 0.643951 
-0.742062 0.260807 0.588812 
-0.749292 0.241756 0.528407 
-0.756912 0.223268 0.466286 
-0.764849 0.203895 0.406330 
-0.773026 0.182216 0.352147 
-0.781364 0.157125 0.306704 
-0.789784 0.157741 0.307259 
-0.789784 0.183423 0.353267 
-0.789784 0.205651 0.408028 
-0.789784 0.225535 0.468567 
-0.789784 0.244526 0.531250 
-0.789784 0.264106 0.592172 
-0.789784 0.285169 0.647762 
-0.789784 0.307736 0.695283 
-0.789784 0.331327 0.732972 
-0.789784 0.355248 0.759856 
-0.789784 0.378738 0.775458 
-0.789784 0.403316 0.779636 
-0.789784 0.430278 0.772417 
-0.789784 0.460344 0.753605 
-0.789784 0.491649 0.726049 
-0.789784 0.519967 0.695250 
-0.789784 0.544920 0.661628 
-0.789784 0.566257 0.625508 
-0.789784 0.583762 0.587238 
-0.789784 0.597257 0.547186 
-0.789784 0.606609 0.505738 
-0.789784 0.611726 0.463293 
-0.789784 0.612566 0.420260 
-0.789784 0.609131 0.377053 
-0.789784 0.601473 0.334088 
-0.789784 0.589744 0.291756 
-0.789784 0.574400 0.250363 
-0.789784 0.555698 0.210278 
-0.789784 0.533863 0.171872 
-0.789784 0.509125 0.135507 
-0.789784 0.481721 0.101529 
-0.798203 0.481121 0.100960 
-0.806541 0.507919 0.134381 
-0.814718 0.532050 0.170206 
-0.822655 0.553282 0.208093 
-0.830275 0.571391 0.247686 
-0.837505 0.586161 0.288618 
-0.844276 0.597362 0.330517 
-0.850522 0.604558 0.373072 
-0.856183 0.607577 0.415907 
-0.861204 0.606371 0.458611 
-0.865538 0.600939 0.500772 
-0.869142 0.591327 0.541984 
-0.871982 0.577629 0.581850 
-0.874030 0.559979 0.619986 
-0.875267 0.538556 0.656025 
-0.875680 0.513576 0.689619 
-0.875267 0.485290 0.720446 
-0.874030 0.454077 0.748083 
-0.871982 0.424155 0.767029 
-0.869142 0.397385 0.774435 
-0.865538 0.373045 0.770469 
-0.861204 0.349839 0.755088 
-0.856183 0.326328 0.728466 
-0.850522 0.303292 0.691092 
-0.844276 0.281305 0.643951 
-0.837505 0.260807 0.588811 
-0.830275 0.241756 0.528407 
-0.822655 0.223268 0.466286 
-0.814718 0.203895 0.406330 
-0.806541 0.182216 0.352147 
-0.798203 0.157125 0.306704 
-0.806299 0.155301 0.305061 
-0.822655 0.178642 0.348830 
-0.838694 0.198694 0.401300 
-0.854263 0.216552 0.459533 
-0.869210 0.233554 0.519984 
-0.883393 0.251049 0.578854 
-0.896674 0.269887 0.632651 
-0.908926 0.290171 0.678661 
-0.920030 0.311573 0.715095 
-0.929880 0.333805 0.740934 
-0.938381 0.356166 0.755659 
-0.945450 0.379801 0.759029 
-0.951021 0.406002 0.751072 
-0.955039 0.435495 0.731729 
-0.957465 0.466438 0.703851 
-0.958276 0.494628 0.672944 
-0.957465 0.519688 0.639430 
-0.955039 0.541367 0.603631 
-0.951021 0.559448 0.565893 
-0.945450 0.573750 0.526578 
-0.938381 0.584133 0.486066 
-0.929880 0.590498 0.444747 
-0.920030 0.592792 0.403017 
-0.908926 0.591007 0.361281 
-0.896674 0.585181 0.319935 
-0.883393 0.575574 0.279310 
-0.869210 0.562498 0.239750 
-0.854263 0.546136 0.201617 
-0.838694 0.526686 0.165268 
-0.822655 0.504351 0.131045 
-0.806299 0.479346 0.099275 
-0.813760 0.476466 0.096538 
-0.837505 0.498565 0.125624 
-0.860791 0.517995 0.157240 
-0.883393 0.534568 0.191083 
-0.905093 0.548109 0.226835 
-0.925683 0.558456 0.264158 
-0.944964 0.565457 0.302708 
-0.962751 0.568976 0.342132 
-0.978872 0.568750 0.382085 
-0.993172 0.564683 0.422232 
-1.005513 0.556796 0.462185 
-1.015777 0.545155 0.501561 
-1.023864 0.529869 0.539980 
-1.029697 0.511083 0.577073 
-1.033219 0.488984 0.612482 
-1.034397 0.463791 0.645866 
-1.033219 0.435755 0.676903 
-1.029697 0.405250 0.705170 
-1.023864 0.376456 0.725160 
-1.015777 0.351184 0.733963 
-1.005513 0.328700 0.731494 
-0.993172 0.307727 0.717849 
-0.978872 0.287772 0.693300 
-0.962751 0.268989 0.658415 
-0.944965 0.251423 0.614266 
-0.925683 0.235235 0.562668 
-0.905093 0.220237 0.506303 
-0.883393 0.205637 0.448567 
-0.860791 0.190240 0.393134 
-0.837505 0.172835 0.343445 
-0.813760 0.152340 0.302392 
-0.820300 0.148354 0.298802 
-0.850522 0.165016 0.336198 
-0.880159 0.178851 0.382147 
-0.908926 0.190929 0.433813 
-0.936545 0.202315 0.487886 
-0.962751 0.214010 0.540857 
-0.987292 0.226719 0.589458 
-1.009930 0.240720 0.631057 
-1.030448 0.256056 0.663811 
-1.048648 0.272882 0.686585 
-1.064355 0.291625 0.698748 
-1.077418 0.312550 0.699986 
-1.087711 0.336563 0.690190 
-1.095135 0.364414 0.669410 
-1.099618 0.394328 0.640637 
-1.101117 0.422159 0.609424 
-1.099618 0.447537 0.576216 
-1.095135 0.470208 0.541332 
-1.087711 0.489951 0.505108 
-1.077418 0.506573 0.467894 
-1.064355 0.519918 0.430047 
-1.048648 0.529866 0.391929 
-1.030448 0.536333 0.353888 
-1.009930 0.539381 0.316272 
-0.987291 0.539103 0.279428 
-0.962751 0.535564 0.243694 
-0.936545 0.528850 0.209402 
-0.908926 0.519067 0.176873 
-0.880159 0.506337 0.146416 
-0.850522 0.490795 0.118319 
-0.820299 0.472593 0.092853 
-0.825666 0.467881 0.088359 
-0.861204 0.481354 0.109404 
-0.896053 0.492190 0.133196 
-0.929880 0.500284 0.159505 
-0.962357 0.505544 0.188079 
-0.993172 0.507897 0.218643 
-1.022028 0.507287 0.250909 
-1.048648 0.503679 0.284573 
-1.072775 0.497060 0.319318 
-1.094176 0.487441 0.354821 
-1.112646 0.474865 0.390748 
-1.128006 0.459403 0.426761 
-1.140109 0.441136 0.462517 
-1.148839 0.420212 0.497676 
-1.154110 0.396831 0.531895 
-1.155873 0.371222 0.564841 
-1.154110 0.343636 0.596186 
-1.148839 0.314442 0.625490 
-1.140109 0.287747 0.647172 
-1.128006 0.265281 0.658195 
-1.112646 0.246553 0.658491 
-1.094176 0.230997 0.648185 
-1.072775 0.217892 0.627638 
-1.048648 0.206629 0.597553 
-1.022028 0.196823 0.559132 
-0.993172 0.188221 0.514239 
-0.962357 0.180471 0.465438 
-0.929880 0.172978 0.415841 
-0.896054 0.164952 0.368765 
-0.861204 0.155483 0.327370 
-0.825667 0.143496 0.294427 
-0.829655 0.137954 0.289435 
-0.869142 0.144598 0.317300 
-0.907865 0.149067 0.353506 
-0.945450 0.152452 0.395346 
-0.981537 0.155527 0.439822 
-1.015777 0.158873 0.483822 
-1.047840 0.162957 0.524411 
-1.077418 0.168179 0.559110 
-1.104226 0.174983 0.586053 
-1.128006 0.183986 0.603971 
-1.148529 0.195982 0.612086 
-1.165596 0.211799 0.609985 
-1.179045 0.232110 0.597524 
-1.188744 0.257362 0.574791 
-1.194602 0.285709 0.544876 
-1.196560 0.313022 0.513389 
-1.194602 0.338936 0.480772 
-1.188744 0.363200 0.447344 
-1.179045 0.385590 0.413435 
-1.165596 0.405908 0.379375 
-1.148529 0.423982 0.345493 
-1.128006 0.439669 0.312117 
-1.104226 0.452855 0.279565 
-1.077418 0.463449 0.248149 
-1.047840 0.471389 0.218168 
-1.015777 0.476635 0.189909 
-0.981537 0.479169 0.163642 
-0.945450 0.478993 0.139619 
-0.907864 0.476129 0.118074 
-0.869142 0.470616 0.099216 
-0.829654 0.462512 0.083227 
-0.832110 0.456698 0.077653 
-0.874030 0.459006 0.088139 
-0.915138 0.458794 0.101618 
-0.955038 0.456055 0.117956 
-0.993348 0.450804 0.136995 
-1.029696 0.443073 0.158544 
-1.063735 0.432913 0.182395 
-1.095135 0.420397 0.208315 
-1.123594 0.405617 0.236049 
-1.148839 0.388685 0.265331 
-1.170625 0.369738 0.295874 
-1.188744 0.348932 0.327382 
-1.203021 0.326445 0.359547 
-1.213318 0.302478 0.392057 
-1.219536 0.277251 0.424592 
-1.221616 0.251002 0.456836 
-1.219536 0.223984 0.488470 
-1.213318 0.196562 0.519061 
-1.203021 0.172914 0.542963 
-1.188744 0.154935 0.557033 
-1.170625 0.142173 0.561163 
-1.148839 0.133893 0.555517 
-1.123594 0.129142 0.540564 
-1.095135 0.126937 0.517152 
-1.063735 0.126451 0.486601 
-1.029697 0.127082 0.450769 
-0.993348 0.128416 0.412025 
-0.955039 0.130120 0.373120 
-0.915138 0.131796 0.336957 
-0.874030 0.132776 0.306377 
-0.832111 0.131939 0.284020 
-0.832940 0.125682 0.278388 
-0.875680 0.120471 0.295021 
-0.917594 0.113794 0.319759 
-0.958276 0.106821 0.350023 
-0.997336 0.100149 0.383121 
-1.034397 0.094031 0.416351 
-1.069102 0.088678 0.447150 
-1.101117 0.084491 0.473267 
-1.130134 0.082180 0.492874 
-1.155873 0.082749 0.504618 
-1.178087 0.087356 0.507589 
-1.196560 0.097082 0.501265 
-1.211117 0.112730 0.485463 
-1.221616 0.134768 0.460310 
-1.227956 0.161251 0.429004 
-1.230076 0.187956 0.397218 
-1.227956 0.214523 0.365385 
-1.221616 0.240693 0.333812 
-1.211117 0.266217 0.302808 
-1.196560 0.290855 0.272672 
-1.178087 0.314383 0.243701 
-1.155873 0.336589 0.216178 
-1.130134 0.357278 0.190374 
-1.101117 0.376272 0.166543 
-1.069102 0.393412 0.144921 
-1.034397 0.408555 0.125722 
-0.997336 0.421578 0.109138 
-0.958276 0.432377 0.095334 
-0.917593 0.440865 0.084450 
-0.875680 0.446976 0.076595 
-0.832939 0.450662 0.071851 
-0.832110 0.444637 0.066042 
-0.874030 0.434990 0.065028 
-0.915138 0.423035 0.067228 
-0.955038 0.408871 0.072616 
-0.993348 0.392618 0.081134 
-1.029696 0.374412 0.092692 
-1.063735 0.354408 0.107171 
-1.095135 0.332775 0.124423 
-1.123594 0.309701 0.144274 
-1.148839 0.285389 0.166524 
-1.170625 0.260052 0.190952 
-1.188744 0.233920 0.217317 
-1.203021 0.207231 0.245362 
-1.213318 0.180233 0.274814 
-1.219536 0.153179 0.305389 
-1.221616 0.126329 0.336794 
-1.219536 0.099942 0.368729 
-1.213318 0.074376 0.400767 
-1.203021 0.053888 0.427208 
-1.188744 0.040461 0.444806 
-1.170625 0.033613 0.453413 
-1.148839 0.032467 0.453232 
-1.123594 0.035826 0.444827 
-1.095135 0.042387 0.429155 
-1.063735 0.051017 0.407588 
-1.029696 0.060940 0.381903 
-0.993348 0.071785 0.354228 
-0.955039 0.083439 0.326944 
-0.915138 0.095750 0.302572 
-0.874030 0.108153 0.283668 
-0.832111 0.119425 0.272757 
-0.829655 0.113408 0.267342 
-0.869142 0.096298 0.272755 
-0.907865 0.078358 0.286057 
-0.945450 0.060872 0.304772 
-0.981537 0.044397 0.326461 
-1.015777 0.029032 0.348765 
-1.047840 0.014820 0.369465 
-1.077418 0.002103 0.386557 
-1.104226 -0.008317 0.398324 
-1.128006 -0.015221 0.403397 
-1.148529 -0.017202 0.400789 
-1.165596 -0.012964 0.389900 
-1.179045 -0.001571 0.370515 
-1.188744 0.017480 0.342797 
-1.194602 0.042183 0.310040 
-1.196560 0.068258 0.277960 
-1.194602 0.095355 0.246982 
-1.188744 0.123210 0.217395 
-1.179045 0.151561 0.189478 
-1.165596 0.180139 0.163496 
-1.148529 0.208679 0.139698 
-1.128006 0.236921 0.118313 
-1.104226 0.264608 0.099551 
-1.077418 0.291492 0.083598 
-1.047840 0.317335 0.070616 
-1.015777 0.341912 0.060739 
-0.981537 0.365008 0.054069 
-0.945450 0.386425 0.050682 
-0.907864 0.405980 0.050617 
-0.869142 0.423506 0.053882 
-0.829654 0.438854 0.060451 
-0.825666 0.433533 0.055293 
-0.861204 0.412956 0.043590 
-0.896053 0.390336 0.035264 
-0.920684 0.372519 0.031715 
-0.930896 0.367209 0.031715 
-0.964428 0.342481 0.031715 
-0.993622 0.312814 0.031715 
-0.996222 0.309187 0.031715 
-1.022028 0.283508 0.036709 
-1.048648 0.253862 0.045699 
-1.072774 0.223544 0.058001 
-1.094176 0.192822 0.073491 
-1.112646 0.161971 0.092018 
-1.128006 0.131271 0.113401 
-1.140109 0.101003 0.137441 
-1.148839 0.071446 0.163911 
-1.154110 0.042878 0.192566 
-1.155873 0.015570 0.223143 
-1.154110 -0.010216 0.255360 
-1.148839 -0.034132 0.288797 
-1.140109 -0.051898 0.317722 
-1.128006 -0.061498 0.338809 
-1.112646 -0.063457 0.351875 
-1.094176 -0.058760 0.357145 
-1.072775 -0.048770 0.355242 
-1.048648 -0.034963 0.347169 
-1.022028 -0.018601 0.334280 
-0.993172 -0.000496 0.318224 
-0.962357 0.019039 0.300892 
-0.929880 0.039994 0.284358 
-0.896054 0.062294 0.270847 
-0.861204 0.085363 0.262701 
-0.825667 0.107861 0.262352 
-0.820300 0.102998 0.257978 
-0.850522 0.075771 0.253891 
-0.880159 0.048184 0.257524 
-0.908926 0.021629 0.266482 
-0.936545 -0.003295 0.278501 
-0.962751 -0.026506 0.291466 
-0.987291 -0.048007 0.303420 
-1.009930 -0.067497 0.312571 
-1.030447 -0.084169 0.317335 
-1.048648 -0.096744 0.316386 
-1.064355 -0.103710 0.308714 
-1.077418 -0.103661 0.293682 
-1.087711 -0.095579 0.271064 
-1.095135 -0.078921 0.241055 
-1.099618 -0.055690 0.207010 
-1.101117 -0.030156 0.174666 
-1.099618 -0.002666 0.144445 
-1.095135 0.026519 0.116617 
-1.087711 0.057121 0.091435 
-1.077418 0.088853 0.069126 
-1.064355 0.121422 0.049893 
-1.048648 0.154528 0.033911 
-1.042434 0.197975 0.031715 
-1.045471 0.160348 0.031715 
-1.032451 0.240182 0.031715 
-1.016224 0.278593 0.031715 
-0.891872 0.386744 0.031715 
-0.850522 0.403735 0.034554 
-0.857103 0.397727 0.031715 
-0.820299 0.428876 0.050768 
-0.813760 0.425059 0.047052 
-0.832037 0.402835 0.031715 
-0.845547 0.400850 0.031715 
-1.044920 0.152429 0.031715 
-1.033610 0.104133 0.031715 
-1.015284 0.055868 0.031715 
-1.015777 0.054231 0.032553 
-1.023864 0.021293 0.053427 
-1.029696 -0.010174 0.077542 
-1.033219 -0.039871 0.104686 
-1.034397 -0.067517 0.134617 
-1.033219 -0.092845 0.167069 
-1.029696 -0.115513 0.201623 
-1.023864 -0.131269 0.232538 
-1.015777 -0.138130 0.256441 
-1.005513 -0.136659 0.273121 
-0.993172 -0.127894 0.282810 
-0.978872 -0.113263 0.286149 
-0.962751 -0.094289 0.284142 
-0.944964 -0.072255 0.278090 
-0.925683 -0.047962 0.269520 
-0.905093 -0.021706 0.260142 
-0.883393 0.006509 0.251824 
-0.860791 0.036585 0.246597 
-0.837505 0.067893 0.246662 
-0.813760 0.099008 0.254389 
-0.806299 0.096042 0.251722 
-0.822655 0.062037 0.241292 
-0.838694 0.027953 0.238480 
-0.854263 -0.004755 0.240940 
-0.869210 -0.035439 0.246512 
-0.883393 -0.063978 0.253224 
-0.896674 -0.090360 0.259272 
-0.908926 -0.114282 0.263007 
-0.920030 -0.134949 0.262942 
-0.929880 -0.151082 0.257803 
-0.938381 -0.161156 0.246592 
-0.945450 -0.163738 0.228665 
-0.951021 -0.157774 0.203795 
-0.955038 -0.142690 0.172197 
-0.957465 -0.120444 0.137259 
-0.958276 -0.095266 0.104721 
-0.957465 -0.067497 0.075004 
-0.955038 -0.037408 0.048369 
-0.968130 0.000956 0.031715 
-0.952169 -0.014468 0.031715 
-1.013619 0.053443 0.031715 
-0.806299 0.422226 0.044289 
-0.815364 0.404691 0.031715 
-0.798203 0.420482 0.042587 
-0.801920 0.405621 0.031715 
-0.880161 -0.052921 0.031715 
-0.874094 -0.055763 0.031715 
-0.875267 -0.084528 0.056674 
-0.875680 -0.112376 0.086261 
-0.875267 -0.137463 0.118853 
-0.874030 -0.159449 0.154031 
-0.871982 -0.174117 0.186052 
-0.869142 -0.179529 0.211524 
-0.865538 -0.176269 0.230226 
-0.861204 -0.165397 0.242385 
-0.856183 -0.148346 0.248642 
-0.850522 -0.126640 0.249990 
-0.844276 -0.101551 0.247688 
-0.837505 -0.073876 0.243195 
-0.830275 -0.043918 0.238125 
-0.822655 -0.011705 0.234242 
-0.814718 0.022632 0.233484 
-0.806541 0.058429 0.237985 
-0.798203 0.094216 0.250080 
-0.789784 0.093599 0.249526 
-0.789784 0.057211 0.236869 
-0.789784 0.020835 0.231797 
-0.789784 -0.014053 0.231981 
-0.789784 -0.046786 0.235293 
-0.789784 -0.077224 0.239810 
-0.789784 -0.105338 0.243778 
-0.789784 -0.130822 0.245595 
-0.789784 -0.152879 0.243813 
-0.789784 -0.170238 0.237176 
-0.789784 -0.181380 0.224696 
-0.789783 -0.184867 0.205731 
-0.789784 -0.179642 0.180054 
-0.789784 -0.165115 0.147890 
-0.789784 -0.143218 0.112631 
-0.789784 -0.118161 0.080020 
-0.789784 -0.090285 0.050476 
-0.789783 -0.068514 0.031715 
-0.789784 0.419894 0.042012 
-0.789784 0.405906 0.031715 
-0.781364 0.420482 0.042587 
-0.777647 0.405621 0.031715 
-0.705473 -0.055762 0.031715 
-0.704300 -0.084528 0.056674 
-0.703887 -0.112376 0.086261 
-0.704300 -0.137463 0.118853 
-0.705537 -0.159449 0.154031 
-0.707586 -0.174117 0.186052 
-0.710425 -0.179529 0.211524 
-0.714029 -0.176269 0.230226 
-0.718363 -0.165397 0.242385 
-0.723384 -0.148346 0.248642 
-0.729045 -0.126640 0.249990 
-0.735291 -0.101551 0.247688 
-0.742062 -0.073876 0.243195 
-0.749292 -0.043918 0.238125 
-0.756912 -0.011705 0.234242 
-0.764849 0.022632 0.233484 
-0.773026 0.058429 0.237985 
-0.781364 0.094216 0.250080 
-0.773268 0.096042 0.251723 
-0.756912 0.062037 0.241292 
-0.740873 0.027953 0.238480 
-0.725304 -0.004755 0.240940 
-0.710357 -0.035439 0.246512 
-0.696174 -0.063978 0.253224 
-0.682893 -0.090360 0.259272 
-0.670641 -0.114282 0.263007 
-0.659537 -0.134949 0.262942 
-0.649687 -0.151082 0.257803 
-0.641186 -0.161156 0.246592 
-0.634117 -0.163738 0.228665 
-0.628546 -0.157774 0.203795 
-0.624529 -0.142690 0.172197 
-0.622102 -0.120444 0.137259 
-0.621291 -0.095265 0.104722 
-0.622102 -0.067497 0.075004 
-0.699407 -0.052921 0.031715 
-0.624529 -0.037408 0.048369 
-0.627398 -0.014468 0.031715 
-0.773269 0.422226 0.044289 
-0.764204 0.404691 0.031715 
-0.765808 0.425059 0.047052 
-0.747530 0.402835 0.031715 
-0.564283 0.055868 0.031715 
-0.563790 0.054231 0.032553 
-0.565949 0.053443 0.031715 
-0.555703 0.021293 0.053427 
-0.611437 0.000956 0.031715 
-0.549871 -0.010174 0.077542 
-0.546348 -0.039871 0.104686 
-0.545170 -0.067517 0.134617 
-0.546348 -0.092845 0.167069 
-0.549871 -0.115513 0.201623 
-0.555703 -0.131268 0.232538 
-0.563790 -0.138130 0.256441 
-0.574054 -0.136659 0.273121 
-0.586395 -0.127894 0.282810 
-0.600695 -0.113262 0.286149 
-0.616816 -0.094289 0.284142 
-0.634603 -0.072255 0.278090 
-0.653884 -0.047962 0.269520 
-0.674474 -0.021706 0.260142 
-0.696174 0.006509 0.251824 
-0.718776 0.036585 0.246597 
-0.742062 0.067893 0.246662 
-0.765807 0.099008 0.254389 
-0.759268 0.102998 0.257978 
-0.729045 0.075771 0.253891 
-0.699408 0.048185 0.257524 
-0.670641 0.021629 0.266482 
-0.643022 -0.003295 0.278501 
-0.616816 -0.026506 0.291466 
-0.592276 -0.048007 0.303420 
-0.569638 -0.067497 0.312571 
-0.549120 -0.084169 0.317335 
-0.530919 -0.096744 0.316386 
-0.515212 -0.103710 0.308714 
-0.502149 -0.103661 0.293683 
-0.491856 -0.095579 0.271064 
-0.484432 -0.078921 0.241055 
-0.479949 -0.055690 0.207010 
-0.478450 -0.030156 0.174666 
-0.479949 -0.002666 0.144445 
-0.484432 0.026519 0.116617 
-0.491856 0.057121 0.091436 
-0.502149 0.088853 0.069127 
-0.545958 0.104133 0.031715 
-0.515212 0.121422 0.049893 
-0.534647 0.152429 0.031715 
-0.530919 0.154528 0.033911 
-0.534096 0.160349 0.031715 
-0.734020 0.400850 0.031715 
-0.729046 0.403735 0.034554 
-0.722464 0.397727 0.031715 
-0.759268 0.428876 0.050768 
-0.753901 0.433533 0.055293 
-0.718363 0.412956 0.043590 
-0.683514 0.390336 0.035264 
-0.687695 0.386744 0.031715 
-0.658883 0.372519 0.031715 
-0.583345 0.309187 0.031715 
-0.557539 0.283508 0.036709 
-0.563343 0.278593 0.031715 
-0.530919 0.253862 0.045700 
-0.547116 0.240182 0.031715 
-0.506793 0.223544 0.058002 
-0.537133 0.197975 0.031715 
-0.485391 0.192822 0.073492 
-0.466922 0.161971 0.092018 
-0.451561 0.131271 0.113402 
-0.439458 0.101003 0.137441 
-0.430728 0.071446 0.163911 
-0.425457 0.042878 0.192566 
-0.423694 0.015570 0.223143 
-0.425457 -0.010216 0.255360 
-0.430729 -0.034132 0.288797 
-0.439458 -0.051898 0.317722 
-0.451561 -0.061498 0.338809 
-0.466922 -0.063457 0.351875 
-0.485391 -0.058760 0.357145 
-0.506793 -0.048770 0.355242 
-0.530919 -0.034963 0.347169 
-0.557539 -0.018601 0.334280 
-0.586395 -0.000496 0.318224 
-0.617210 0.019039 0.300892 
-0.649687 0.039994 0.284358 
-0.683513 0.062294 0.270847 
-0.718363 0.085363 0.262701 
-0.753901 0.107861 0.262352 
-0.749913 0.113408 0.267342 
-0.710425 0.096298 0.272755 
-0.671703 0.078358 0.286057 
-0.634117 0.060872 0.304772 
-0.598030 0.044397 0.326461 
-0.563791 0.029032 0.348765 
-0.531727 0.014821 0.369465 
-0.502149 0.002103 0.386557 
-0.475341 -0.008316 0.398324 
-0.451561 -0.015221 0.403397 
-0.431039 -0.017202 0.400789 
-0.413971 -0.012964 0.389900 
-0.400523 -0.001571 0.370515 
-0.390823 0.017480 0.342797 
-0.384966 0.042183 0.310040 
-0.383007 0.068258 0.277960 
-0.384966 0.095355 0.246982 
-0.390823 0.123210 0.217395 
-0.400523 0.151561 0.189479 
-0.413971 0.180139 0.163497 
-0.431039 0.208679 0.139698 
-0.451561 0.236921 0.118313 
-0.475341 0.264608 0.099551 
-0.502149 0.291492 0.083598 
-0.531727 0.317336 0.070616 
-0.585945 0.312814 0.031715 
-0.563791 0.341912 0.060739 
-0.615139 0.342481 0.031715 
-0.598031 0.365008 0.054069 
-0.648671 0.367209 0.031715 
-0.634117 0.386425 0.050682 
-0.671703 0.405980 0.050617 
-0.710426 0.423506 0.053882 
-0.749913 0.438854 0.060451 
-0.747457 0.444637 0.066042 
-0.705538 0.434990 0.065028 
-0.664430 0.423035 0.067228 
-0.624529 0.408871 0.072616 
-0.586220 0.392618 0.081134 
-0.549871 0.374412 0.092692 
-0.515833 0.354408 0.107171 
-0.484433 0.332775 0.124423 
-0.455973 0.309702 0.144274 
-0.430729 0.285389 0.166524 
-0.408942 0.260052 0.190952 
-0.390823 0.233920 0.217318 
-0.376546 0.207231 0.245363 
-0.366249 0.180233 0.274815 
-0.360031 0.153179 0.305389 
-0.357952 0.126329 0.336794 
-0.360031 0.099942 0.368729 
-0.366249 0.074376 0.400767 
-0.376546 0.053888 0.427208 
-0.390823 0.040462 0.444806 
-0.408942 0.033613 0.453413 
-0.430729 0.032467 0.453231 
-0.455973 0.035826 0.444827 
-0.484432 0.042387 0.429155 
-0.515832 0.051017 0.407588 
-0.549871 0.060940 0.381903 
-0.586219 0.071785 0.354227 
-0.624529 0.083439 0.326944 
-0.664429 0.095750 0.302572 
-0.705537 0.108153 0.283668 
-0.747457 0.119425 0.272757 
3 0 1 2 
4 2 1 3 4 
4 4 3 5 6 
4 6 5 7 8 
4 8 7 9 10 
4 10 9 11 12 
4 12 11 13 14 
4 14 13 15 16 
4 16 15 17 18 
4 18 17 19 20 
4 20 19 21 22 
4 22 21 23 24 
4 24 23 25 26 
4 26 25 27 28 
4 28 27 29 30 
4 30 29 31 32 
4 32 31 33 34 
4 34 33 35 36 
4 36 35 37 38 
4 38 37 39 40 
4 40 39 41 42 
4 42 41 43 44 
4 44 43 45 46 
4 46 45 47 48 
4 48 47 49 50 
4 50 49 51 52 
4 52 51 53 54 
4 54 53 55 56 
4 56 55 57 58 
4 58 57 59 60 
4 60 59 61 62 
3 61 63 62 
3 64 63 61 
4 59 65 64 61 
4 57 66 65 59 
4 55 67 66 57 
4 53 68 67 55 
4 51 69 68 53 
4 49 70 69 51 
4 47 71 70 49 
4 45 72 71 47 
4 43 73 72 45 
4 41 74 73 43 
4 39 75 74 41 
4 37 76 75 39 
4 35 77 76 37 
4 33 78 77 35 
4 31 79 78 33 
4 29 80 79 31 
4 27 81 80 29 
4 25 82 81 27 
4 23 83 82 25 
4 21 84 83 23 
4 19 85 84 21 
4 17 86 85 19 
4 15 87 86 17 
4 13 88 87 15 
4 11 89 88 13 
4 9 90 89 11 
4 7 91 90 9 
4 5 92 91 7 
4 3 93 92 5 
4 1 94 93 3 
3 0 94 1 
3 0 95 94 
4 94 95 96 93 
4 93 96 97 92 
4 92 97 98 91 
4 91 98 99 90 
4 90 99 100 89 
4 89 100 101 88 
4 88 101 102 87 
4 87 102 103 86 
4 86 103 104 85 
4 85 104 105 84 
4 84 105 106 83 
4 83 106 107 82 
4 82 107 108 81 
4 81 108 109 80 
4 80 109 110 79 
4 79 110 111 78 
4 78 111 112 77 
4 77 112 113 76 
4 76 113 114 75 
4 75 114 115 74 
4 74 115 116 73 
4 73 116 117 72 
4 72 117 118 71 
4 71 118 119 70 
4 70 119 120 69 
4 69 120 121 68 
4 68 121 122 67 
4 67 122 123 66 
4 66 123 124 65 
4 65 124 125 64 
3 125 63 64 
3 126 63 125 
4 124 127 126 125 
4 123 128 127 124 
4 122 129 128 123 
4 121 130 129 122 
4 120 131 130 121 
4 119 132 131 120 
4 118 133 132 119 
4 117 134 133 118 
4 116 135 134 117 
4 115 136 135 116 
4 114 137 136 115 
4 113 138 137 114 
4 112 139 138 113 
4 111 140 139 112 
4 110 141 140 111 
4 109 142 141 110 
4 108 143 142 109 
4 107 144 143 108 
4 106 145 144 107 
4 105 146 145 106 
4 104 147 146 105 
4 103 148 147 104 
4 102 149 148 103 
4 101 150 149 102 
4 100 151 150 101 
4 99 152 151 100 
4 98 153 152 99 
4 97 154 153 98 
4 96 155 154 97 
4 95 156 155 96 
3 0 156 95 
3 0 157 156 
4 156 157 158 155 
4 155 158 159 154 
4 154 159 160 153 
4 153 160 161 152 
4 152 161 162 151 
4 151 162 163 150 
4 150 163 164 149 
4 149 164 165 148 
4 148 165 166 147 
4 147 166 167 146 
4 146 167 168 145 
4 145 168 169 144 
4 144 169 170 143 
4 143 170 171 142 
4 142 171 172 141 
4 141 172 173 140 
4 140 173 174 139 
4 139 174 175 138 
4 138 175 176 137 
4 137 176 177 136 
4 136 177 178 135 
4 135 178 179 134 
4 134 179 180 133 
4 133 180 181 132 
4 132 181 182 131 
4 131 182 183 130 
4 130 183 184 129 
4 129 184 185 128 
4 128 185 186 127 
4 127 186 187 126 
3 187 63 126 
3 188 63 187 
4 186 189 188 187 
4 185 190 189 186 
4 184 191 190 185 
4 183 192 191 184 
4 182 193 192 183 
4 181 194 193 182 
4 180 195 194 181 
4 179 196 195 180 
4 178 197 196 179 
4 177 198 197 178 
4 176 199 198 177 
4 175 200 199 176 
4 174 201 200 175 
4 173 202 201 174 
4 172 203 202 173 
4 171 204 203 172 
4 170 205 204 171 
4 169 206 205 170 
4 168 207 206 169 
4 167 208 207 168 
4 166 209 208 167 
4 165 210 209 166 
4 164 211 210 165 
4 163 212 211 164 
4 162 213 212 163 
4 161 214 213 162 
4 160 215 214 161 
4 159 216 215 160 
4 158 217 216 159 
4 157 218 217 158 
3 0 218 157 
3 0 219 218 
4 218 219 220 217 
4 217 220 221 216 
4 216 221 222 215 
4 215 222 223 214 
4 214 223 224 213 
4 213 224 225 212 
4 212 225 226 211 
4 211 226 227 210 
4 210 227 228 209 
4 209 228 229 208 
4 208 229 230 207 
4 207 230 231 206 
4 206 231 232 205 
4 205 232 233 204 
4 204 233 234 203 
4 203 234 235 202 
4 202 235 236 201 
4 201 236 237 200 
4 200 237 238 199 
4 199 238 239 198 
4 198 239 240 197 
4 197 240 241 196 
4 196 241 242 195 
4 195 242 243 194 
4 194 243 244 193 
4 193 244 245 192 
4 192 245 246 191 
4 191 246 247 190 
4 190 247 248 189 
4 189 248 249 188 
3 249 63 188 
3 250 63 249 
4 248 251 250 249 
4 247 252 251 248 
4 246 253 252 247 
4 245 254 253 246 
4 244 255 254 245 
4 243 256 255 244 
4 242 257 256 243 
4 241 258 257 242 
4 240 259 258 241 
4 239 260 259 240 
4 238 261 260 239 
4 237 262 261 238 
4 236 263 262 237 
4 235 264 263 236 
4 234 265 264 235 
4 233 266 265 234 
4 232 267 266 233 
4 231 268 267 232 
4 230 269 268 231 
4 229 270 269 230 
4 228 271 270 229 
4 227 272 271 228 
4 226 273 272 227 
4 225 274 273 226 
4 224 275 274 225 
4 223 276 275 224 
4 222 277 276 223 
4 221 278 277 222 
4 220 279 278 221 
4 219 280 279 220 
3 0 280 219 
3 0 281 280 
4 280 281 282 279 
4 279 282 283 278 
4 278 283 284 277 
4 277 284 285 276 
4 276 285 286 275 
4 275 286 287 274 
4 274 287 288 273 
4 273 288 289 272 
4 272 289 290 271 
4 271 290 291 270 
4 270 291 292 269 
4 269 292 293 268 
4 268 293 294 267 
4 267 294 295 266 
4 266 295 296 265 
4 265 296 297 264 
4 264 297 298 263 
4 263 298 299 262 
4 262 299 300 261 
4 261 300 301 260 
4 260 301 302 259 
4 259 302 303 258 
4 258 303 304 257 
4 257 304 305 256 
4 256 305 306 255 
4 255 306 307 254 
4 254 307 308 253 
4 253 308 309 252 
4 252 309 310 251 
4 251 310 311 250 
3 311 63 250 
3 312 63 311 
4 310 313 312 311 
4 309 314 313 310 
4 308 315 314 309 
4 307 316 315 308 
4 306 317 316 307 
4 305 318 317 306 
4 304 319 318 305 
4 303 320 319 304 
4 302 321 320 303 
4 301 322 321 302 
4 300 323 322 301 
4 299 324 323 300 
4 298 325 324 299 
4 297 326 325 298 
4 296 327 326 297 
4 295 328 327 296 
4 294 329 328 295 
4 293 330 329 294 
4 292 331 330 293 
4 291 332 331 292 
4 290 333 332 291 
4 289 334 333 290 
4 288 335 334 289 
4 287 336 335 288 
4 286 337 336 287 
4 285 338 337 286 
4 284 339 338 285 
4 283 340 339 284 
4 282 341 340 283 
4 281 342 341 282 
3 0 342 281 
3 0 343 342 
4 342 343 344 341 
4 341 344 345 340 
4 340 345 346 339 
4 339 346 347 338 
4 338 347 348 337 
4 337 348 349 336 
4 336 349 350 335 
4 335 350 351 334 
4 334 351 352 333 
4 333 352 353 332 
4 332 353 354 331 
4 331 354 355 330 
4 330 355 356 329 
4 329 356 357 328 
4 328 357 358 327 
4 327 358 359 326 
4 326 359 360 325 
4 325 360 361 324 
4 324 361 362 323 
4 323 362 363 322 
4 322 363 364 321 
4 321 364 365 320 
4 320 365 366 319 
4 319 366 367 318 
4 318 367 368 317 
4 317 368 369 316 
4 316 369 370 315 
4 315 370 371 314 
4 314 371 372 313 
4 313 372 373 312 
3 373 63 312 
3 374 63 373 
4 372 375 374 373 
4 371 376 375 372 
4 370 377 376 371 
4 369 378 377 370 
4 368 379 378 369 
4 367 380 379 368 
4 366 381 380 367 
4 365 382 381 366 
4 364 383 382 365 
4 363 384 383 364 
4 362 385 384 363 
4 361 386 385 362 
4 360 387 386 361 
4 359 388 387 360 
4 358 389 388 359 
4 357 390 389 358 
4 356 391 390 357 
4 355 392 391 356 
4 354 393 392 355 
4 353 394 393 354 
4 352 395 394 353 
4 351 396 395 352 
4 350 397 396 351 
4 349 398 397 350 
4 348 399 398 349 
4 347 400 399 348 
4 346 401 400 347 
4 345 402 401 346 
4 344 403 402 345 
4 343 404 403 344 
3 0 404 343 
3 0 405 404 
4 404 405 406 403 
4 403 406 407 402 
4 402 407 408 401 
4 401 408 409 400 
4 400 409 410 399 
4 399 410 411 398 
4 398 411 412 397 
4 397 412 413 396 
4 396 413 414 395 
4 395 414 415 394 
4 394 415 416 393 
4 393 416 417 392 
4 392 417 418 391 
4 391 418 419 390 
4 390 419 420 389 
4 389 420 421 388 
4 388 421 422 387 
4 387 422 423 386 
4 386 423 424 385 
4 385 424 425 384 
4 384 425 426 383 
4 383 426 427 382 
4 382 427 428 381 
4 381 428 429 380 
4 380 429 430 379 
4 379 430 431 378 
4 378 431 432 377 
4 377 432 433 376 
4 376 433 434 375 
4 375 434 435 374 
3 435 63 374 
3 436 63 435 
4 434 437 436 435 
4 433 438 437 434 
4 432 439 438 433 
4 431 440 439 432 
4 430 441 440 431 
4 429 442 441 430 
4 428 443 442 429 
4 427 444 443 428 
4 426 445 444 427 
4 425 446 445 426 
4 424 447 446 425 
4 423 448 447 424 
4 422 449 448 423 
4 421 450 449 422 
4 420 451 450 421 
4 419 452 451 420 
4 418 453 452 419 
4 417 454 453 418 
4 416 455 454 417 
4 415 456 455 416 
4 414 457 456 415 
4 413 458 457 414 
4 412 459 458 413 
4 411 460 459 412 
4 410 461 460 411 
4 409 462 461 410 
4 408 463 462 409 
4 407 464 463 408 
4 406 465 464 407 
4 405 466 465 406 
3 0 466 405 
3 0 467 466 
4 466 467 468 465 
4 465 468 469 464 
4 464 469 470 463 
4 463 470 471 462 
4 462 471 472 461 
4 461 472 473 460 
4 460 473 474 459 
4 459 474 475 458 
4 458 475 476 457 
4 457 476 477 456 
4 456 477 478 455 
4 455 478 479 454 
4 454 479 480 453 
4 453 480 481 452 
4 452 481 482 451 
4 451 482 483 450 
4 450 483 484 449 
4 449 484 485 448 
4 448 485 486 447 
4 447 486 487 446 
4 446 487 488 445 
4 445 488 489 444 
4 444 489 490 443 
4 443 490 491 442 
4 442 491 492 441 
4 441 492 493 440 
4 440 493 494 439 
4 439 494 495 438 
4 438 495 496 437 
4 437 496 497 436 
3 497 63 436 
3 498 63 497 
4 496 499 498 497 
4 495 500 499 496 
4 494 501 500 495 
4 493 502 501 494 
4 492 503 502 493 
4 491 504 503 492 
4 490 505 504 491 
4 489 506 505 490 
4 488 507 506 489 
4 487 508 507 488 
4 486 509 508 487 
4 485 510 509 486 
4 484 511 510 485 
4 483 512 511 484 
4 482 513 512 483 
4 481 514 513 482 
4 480 515 514 481 
4 479 516 515 480 
4 478 517 516 479 
4 477 518 517 478 
4 476 519 518 477 
4 475 520 519 476 
4 474 521 520 475 
4 473 522 521 474 
4 472 523 522 473 
4 471 524 523 472 
4 470 525 524 471 
4 469 526 525 470 
4 468 527 526 469 
4 467 528 527 468 
3 0 528 467 
3 0 529 528 
4 528 529 530 527 
4 527 530 531 526 
4 526 531 532 525 
4 525 532 533 524 
4 524 533 534 523 
4 523 534 535 522 
4 522 535 536 521 
4 521 536 537 520 
4 520 537 538 519 
4 519 538 539 518 
4 518 539 540 517 
4 517 540 541 516 
4 516 541 542 515 
4 515 542 543 514 
4 514 543 544 513 
4 513 544 545 512 
4 512 545 546 511 
4 511 546 547 510 
4 510 547 548 509 
4 509 548 549 508 
4 508 549 550 507 
4 507 550 551 506 
4 506 551 552 505 
4 505 552 553 504 
4 504 553 554 503 
4 503 554 555 502 
4 502 555 556 501 
4 501 556 557 500 
4 500 557 558 499 
4 499 558 559 498 
3 559 63 498 
3 560 63 559 
4 558 561 560 559 
4 557 562 561 558 
4 556 563 562 557 
4 555 564 563 556 
4 554 565 564 555 
4 553 566 565 554 
4 552 567 566 553 
4 551 568 567 552 
4 550 569 568 551 
4 549 570 569 550 
4 548 571 570 549 
4 547 572 571 548 
4 546 573 572 547 
4 545 574 573 546 
4 544 575 574 545 
4 543 576 575 544 
4 542 577 576 543 
4 541 578 577 542 
4 540 579 578 541 
4 539 580 579 540 
4 538 581 580 539 
4 537 582 581 538 
4 536 583 582 537 
4 535 584 583 536 
4 534 585 584 535 
4 533 586 585 534 
4 532 587 586 533 
4 531 588 587 532 
4 530 589 588 531 
4 529 590 589 530 
3 0 590 529 
3 0 591 590 
4 590 591 592 589 
4 589 592 593 588 
4 588 593 594 595 
3 595 587 588 
4 587 595 596 586 
4 586 596 597 585 
4 585 597 598 599 
3 599 584 585 
4 584 599 600 583 
4 583 600 601 582 
4 582 601 602 581 
4 581 602 603 580 
4 580 603 604 579 
4 579 604 605 578 
4 578 605 606 577 
4 577 606 607 576 
4 576 607 608 575 
4 575 608 609 574 
4 574 609 610 573 
4 573 610 611 572 
4 572 611 612 571 
4 571 612 613 570 
4 570 613 614 569 
4 569 614 615 568 
4 568 615 616 567 
4 567 616 617 566 
4 566 617 618 565 
4 565 618 619 564 
4 564 619 620 563 
4 563 620 621 562 
4 562 621 622 561 
4 561 622 623 560 
3 623 63 560 
3 624 63 623 
4 622 625 624 623 
4 621 626 625 622 
4 620 627 626 621 
4 619 628 627 620 
4 618 629 628 619 
4 617 630 629 618 
4 616 631 630 617 
4 615 632 631 616 
4 614 633 632 615 
4 613 634 633 614 
4 612 635 634 613 
4 611 636 635 612 
4 610 637 636 611 
4 609 638 637 610 
4 608 639 638 609 
4 607 640 639 608 
4 606 641 640 607 
4 605 642 641 606 
4 604 643 642 605 
4 603 644 643 604 
4 602 645 644 603 
4 601 646 647 645 
3 645 602 601 
4 600 648 646 601 
4 599 649 648 600 
3 598 649 599 
3 594 593 650 
4 592 651 652 650 
3 650 593 592 
4 591 653 651 592 
3 0 653 591 
3 0 654 653 
4 653 654 655 656 
3 656 651 653 
3 652 651 656 
3 647 657 645 
4 645 657 658 644 
4 644 658 659 660 
3 660 643 644 
4 643 660 661 642 
4 642 661 662 641 
4 641 662 663 640 
4 640 663 664 639 
4 639 664 665 638 
4 638 665 666 637 
4 637 666 667 636 
4 636 667 668 635 
4 635 668 669 634 
4 634 669 670 633 
4 633 670 671 632 
4 632 671 672 631 
4 631 672 673 630 
4 630 673 674 629 
4 629 674 675 628 
4 628 675 676 627 
4 627 676 677 626 
4 626 677 678 625 
4 625 678 679 624 
3 679 63 624 
3 680 63 679 
4 678 681 680 679 
4 677 682 681 678 
4 676 683 682 677 
4 675 684 683 676 
4 674 685 684 675 
4 673 686 685 674 
4 672 687 686 673 
4 671 688 687 672 
4 670 689 688 671 
4 669 690 689 670 
4 668 691 690 669 
4 667 692 691 668 
4 666 693 692 667 
4 665 694 693 666 
4 664 695 694 665 
4 663 696 695 664 
4 662 697 696 663 
4 661 698 699 697 
3 697 662 661 
4 660 700 698 661 
3 659 700 660 
4 655 654 701 702 
3 0 701 654 
3 0 703 701 
4 702 701 703 704 
3 699 705 697 
4 697 705 706 707 
3 707 696 697 
4 696 707 708 695 
4 695 708 709 694 
4 694 709 710 693 
4 693 710 711 692 
4 692 711 712 691 
4 691 712 713 690 
4 690 713 714 689 
4 689 714 715 688 
4 688 715 716 687 
4 687 716 717 686 
4 686 717 718 685 
4 685 718 719 684 
4 684 719 720 683 
4 683 720 721 682 
4 682 721 722 681 
4 681 722 723 680 
3 723 63 680 
3 724 63 723 
4 722 725 724 723 
4 721 726 725 722 
4 720 727 726 721 
4 719 728 727 720 
4 718 729 728 719 
4 717 730 729 718 
4 716 731 730 717 
4 715 732 731 716 
4 714 733 732 715 
4 713 734 733 714 
4 712 735 734 713 
4 711 736 735 712 
4 710 737 736 711 
4 709 738 737 710 
4 708 739 738 709 
4 707 740 739 708 
4 706 741 740 707 
4 704 703 742 743 
3 0 742 703 
3 0 744 742 
4 743 742 744 745 
4 741 746 747 740 
4 740 747 748 739 
4 739 748 749 738 
4 738 749 750 737 
4 737 750 751 736 
4 736 751 752 735 
4 735 752 753 734 
4 734 753 754 733 
4 733 754 755 732 
4 732 755 756 731 
4 731 756 757 730 
4 730 757 758 729 
4 729 758 759 728 
4 728 759 760 727 
4 727 760 761 726 
4 726 761 762 725 
4 725 762 763 724 
3 763 63 724 
3 764 63 763 
4 762 765 764 763 
4 761 766 765 762 
4 760 767 766 761 
4 759 768 767 760 
4 758 769 768 759 
4 757 770 769 758 
4 756 771 770 757 
4 755 772 771 756 
4 754 773 772 755 
4 753 774 773 754 
4 752 775 774 753 
4 751 776 775 752 
4 750 777 776 751 
4 749 778 777 750 
4 748 779 778 749 
4 747 780 779 748 
4 746 781 782 780 
3 780 747 746 
3 783 782 781 
4 745 744 784 785 
3 0 784 744 
3 0 786 784 
4 785 784 786 787 
3 788 789 790 
4 790 789 791 792 
4 783 792 791 793 
3 793 782 783 
4 782 793 794 780 
4 780 794 795 779 
4 779 795 796 778 
4 778 796 797 777 
4 777 797 798 776 
4 776 798 799 775 
4 775 799 800 774 
4 774 800 801 773 
4 773 801 802 772 
4 772 802 803 771 
4 771 803 804 770 
4 770 804 805 769 
4 769 805 806 768 
4 768 806 807 767 
4 767 807 808 766 
4 766 808 809 765 
4 765 809 810 764 
3 810 63 764 
3 811 63 810 
4 809 812 811 810 
4 808 813 812 809 
4 807 814 813 808 
4 806 815 814 807 
4 805 816 815 806 
4 804 817 816 805 
4 803 818 817 804 
4 802 819 818 803 
4 801 820 819 802 
4 800 821 820 801 
4 799 822 821 800 
4 798 823 822 799 
4 797 824 823 798 
4 796 825 824 797 
4 795 826 825 796 
4 794 827 826 795 
4 793 828 827 794 
4 791 829 828 793 
4 789 830 829 791 
4 788 831 832 830 
3 830 789 788 
4 833 834 832 831 
3 835 834 833 
3 836 837 838 
4 787 786 839 837 
3 837 836 787 
3 0 839 786 
3 0 840 839 
4 839 840 841 837 
4 838 837 841 842 
3 842 843 838 
3 843 842 844 
3 845 846 847 
4 847 846 848 849 
4 849 848 850 851 
4 835 851 850 852 
3 852 834 835 
4 834 852 853 832 
4 832 853 854 830 
4 830 854 855 829 
4 829 855 856 828 
4 828 856 857 827 
4 827 857 858 826 
4 826 858 859 825 
4 825 859 860 824 
4 824 860 861 823 
4 823 861 862 822 
4 822 862 863 821 
4 821 863 864 820 
4 820 864 865 819 
4 819 865 866 818 
4 818 866 867 817 
4 817 867 868 816 
4 816 868 869 815 
4 815 869 870 814 
4 814 870 871 813 
4 813 871 872 812 
4 812 872 873 811 
3 873 63 811 
3 874 63 873 
4 872 875 874 873 
4 871 876 875 872 
4 870 877 876 871 
4 869 878 877 870 
4 868 879 878 869 
4 867 880 879 868 
4 866 881 880 867 
4 865 882 881 866 
4 864 883 882 865 
4 863 884 883 864 
4 862 885 884 863 
4 861 886 885 862 
4 860 887 886 861 
4 859 888 887 860 
4 858 889 888 859 
4 857 890 889 858 
4 856 891 890 857 
4 855 892 891 856 
4 854 893 892 855 
4 853 894 893 854 
4 852 895 894 853 
4 850 896 895 852 
4 848 897 896 850 
4 846 898 897 848 
4 845 899 900 898 
3 898 846 845 
4 901 902 900 899 
4 903 904 902 901 
4 844 842 905 904 
3 904 903 844 
4 841 906 905 842 
4 840 907 906 841 
3 0 907 840 
3 0 908 907 
4 907 908 909 906 
4 906 909 910 905 
4 905 910 911 904 
4 904 911 912 902 
4 902 912 913 900 
4 900 913 914 898 
4 898 914 915 897 
4 897 915 916 896 
4 896 916 917 895 
4 895 917 918 894 
4 894 918 919 893 
4 893 919 920 892 
4 892 920 921 891 
4 891 921 922 890 
4 890 922 923 889 
4 889 923 924 888 
4 888 924 925 887 
4 887 925 926 886 
4 886 926 927 885 
4 885 927 928 884 
4 884 928 929 883 
4 883 929 930 882 
4 882 930 931 881 
4 881 931 932 880 
4 880 932 933 879 
4 879 933 934 878 
4 878 934 935 877 
4 877 935 936 876 
4 876 936 937 875 
4 875 937 938 874 
3 938 63 874 
3 62 63 938 
4 937 60 62 938 
4 936 58 60 937 
4 935 56 58 936 
4 934 54 56 935 
4 933 52 54 934 
4 932 50 52 933 
4 931 48 50 932 
4 930 46 48 931 
4 929 44 46 930 
4 928 42 44 929 
4 927 40 42 928 
4 926 38 40 927 
4 925 36 38 926 
4 924 34 36 925 
4 923 32 34 924 
4 922 30 32 923 
4 921 28 30 922 
4 920 26 28 921 
4 919 24 26 920 
4 918 22 24 919 
4 917 20 22 918 
4 916 18 20 917 
4 915 16 18 916 
4 914 14 16 915 
4 913 12 14 914 
4 912 10 12 913 
4 911 8 10 912 
4 910 6 8 911 
4 909 4 6 910 
4 908 2 4 909 
3 0 2 908 
