ply
format ascii 1.0
Created by Blender3D 246 - www.blender.org, source file: Table2.blend
element vertex 132
property float x
property float y
property float z
element face 46
property list uchar uint vertex_indices
end_header
-0.989437 0.442536 0.742013 
-0.890838 0.442536 0.742013 
-0.890838 0.442536 0.664333 
-0.989437 0.442536 0.664333 
-0.890838 0.442536 0.742013 
0.911963 0.442536 0.742013 
0.911963 0.442536 0.664333 
-0.890838 0.442536 0.664333 
0.911963 0.442536 0.742013 
1.010562 0.442536 0.742013 
1.010562 0.442536 0.664333 
0.911963 0.442536 0.664333 
1.010562 -0.423583 0.742013 
0.911963 -0.423583 0.742013 
0.911963 -0.423583 0.664333 
1.010562 -0.423583 0.664333 
-0.890839 -0.423583 0.742013 
-0.890839 -0.423583 0.664333 
-0.989438 -0.423583 0.742013 
-0.989438 -0.423583 0.664333 
-0.989438 -0.423583 0.742013 
-0.989438 -0.333049 0.742013 
-0.989438 -0.333049 0.664333 
-0.989438 -0.423583 0.664333 
-0.989438 -0.333049 0.742013 
-0.989438 0.352003 0.742013 
-0.989438 0.352003 0.664333 
-0.989438 -0.333049 0.664333 
-0.989438 0.352003 0.742013 
-0.989437 0.442536 0.742013 
-0.989437 0.442536 0.664333 
-0.989438 0.352003 0.664333 
1.010562 0.442536 0.742013 
1.010562 0.352003 0.742013 
1.010562 0.352003 0.664333 
1.010562 0.442536 0.664333 
1.010562 -0.333050 0.742013 
1.010562 -0.333050 0.664333 
1.010562 -0.423583 0.742013 
1.010562 -0.423583 0.664333 
1.010562 0.352003 0.742013 
1.010562 0.442536 0.742013 
0.911963 0.442536 0.742013 
0.911963 0.352003 0.742013 
0.911963 -0.333050 0.742013 
1.010562 -0.333050 0.742013 
0.911963 -0.423583 0.742013 
1.010562 -0.423583 0.742013 
-0.890838 0.442536 0.742013 
-0.890838 0.352003 0.742013 
-0.890839 -0.333049 0.742013 
-0.890839 -0.423583 0.742013 
-0.989437 0.442536 0.742013 
-0.989438 0.352003 0.742013 
-0.989438 -0.333049 0.742013 
-0.989438 -0.423583 0.742013 
-0.890838 0.352003 0.664333 
-0.890839 -0.333050 0.664333 
-0.989438 -0.333049 0.664333 
-0.989438 0.352003 0.664333 
0.911963 0.442536 0.664333 
0.911963 0.352003 0.664333 
-0.890838 0.442536 0.664333 
0.911963 -0.333050 0.664333 
0.911963 -0.423583 0.664333 
-0.890839 -0.423583 0.664333 
1.010562 0.352003 0.664333 
1.010562 -0.333050 0.664333 
0.911963 -0.333050 0.664333 
1.010562 -0.333050 0.664333 
1.010562 -0.333050 0.016998 
0.911963 -0.333050 0.016998 
-0.890838 0.352003 0.664333 
-0.989438 0.352003 0.664333 
-0.989438 0.352003 0.016998 
-0.890838 0.352003 0.016998 
0.911963 -0.423583 0.664333 
0.911963 -0.333050 0.664333 
0.911963 -0.333050 0.016998 
0.911963 -0.423583 0.016998 
-0.890838 0.442536 0.664333 
-0.890838 0.352003 0.664333 
-0.890838 0.352003 0.016998 
-0.890838 0.442536 0.016998 
1.010562 -0.423583 0.016998 
1.010562 -0.333050 0.016998 
-0.989437 0.442536 0.016998 
-0.989438 0.352003 0.016998 
0.911963 -0.423583 0.016998 
1.010562 -0.423583 0.016998 
-0.890838 0.442536 0.016998 
-0.989437 0.442536 0.016998 
-0.890838 0.442536 0.016998 
-0.890838 0.352003 0.016998 
-0.989438 0.352003 0.016998 
-0.989437 0.442536 0.016998 
1.010562 -0.333050 0.016998 
1.010562 -0.423583 0.016998 
0.911963 -0.423583 0.016998 
0.911963 -0.333050 0.016998 
1.010562 0.352003 0.664333 
0.911963 0.352003 0.664333 
0.911963 0.352003 0.016998 
1.010562 0.352003 0.016998 
-0.989438 -0.333049 0.664333 
-0.890839 -0.333050 0.664333 
-0.890839 -0.333050 0.016998 
-0.989438 -0.333049 0.016998 
0.911963 0.352003 0.664333 
0.911963 0.442536 0.664333 
0.911963 0.442536 0.016998 
0.911963 0.352003 0.016998 
-0.890839 -0.333050 0.664333 
-0.890839 -0.423583 0.664333 
-0.890839 -0.423583 0.016998 
-0.890839 -0.333050 0.016998 
1.010562 0.352003 0.016998 
1.010562 0.442536 0.016998 
-0.989438 -0.333049 0.016998 
-0.989438 -0.423583 0.016998 
-0.989438 -0.423583 0.016998 
-0.890839 -0.423583 0.016998 
1.010562 0.442536 0.016998 
0.911963 0.442536 0.016998 
-0.890839 -0.333050 0.016998 
-0.890839 -0.423583 0.016998 
-0.989438 -0.423583 0.016998 
-0.989438 -0.333049 0.016998 
1.010562 0.442536 0.016998 
1.010562 0.352003 0.016998 
0.911963 0.352003 0.016998 
0.911963 0.442536 0.016998 
4 0 1 2 3 
4 4 5 6 7 
4 8 9 10 11 
4 12 13 14 15 
4 13 16 17 14 
4 16 18 19 17 
4 20 21 22 23 
4 24 25 26 27 
4 28 29 30 31 
4 32 33 34 35 
4 33 36 37 34 
4 36 38 39 37 
4 40 41 42 43 
4 43 44 45 40 
4 44 46 47 45 
4 48 49 43 42 
4 49 50 44 43 
4 50 51 46 44 
4 52 53 49 48 
4 53 54 50 49 
4 54 55 51 50 
4 56 57 58 59 
4 60 61 56 62 
4 61 63 57 56 
4 63 64 65 57 
4 66 67 63 61 
4 68 69 70 71 
4 72 73 74 75 
4 76 77 78 79 
4 80 81 82 83 
4 37 39 84 85 
4 31 30 86 87 
4 15 14 88 89 
4 3 2 90 91 
4 92 93 94 95 
4 96 97 98 99 
4 100 101 102 103 
4 104 105 106 107 
4 108 109 110 111 
4 112 113 114 115 
4 35 34 116 117 
4 23 22 118 119 
4 17 19 120 121 
4 11 10 122 123 
4 124 125 126 127 
4 128 129 130 131 
